STARTFONT 2.1
FONT -FontForge-Nunito Medium-Medium-R-Normal--40-380-75-75-P-212-ISO10646-1
SIZE 38 75 75
FONTBOUNDINGBOX 62 53 -10 -11
COMMENT "Generated by fontforge, http://fontforge.sourceforge.net"
COMMENT "Copyright 2014 The Nunito Project Authors (https://github.com/googlefonts/nunito)"
STARTPROPERTIES 41
FOUNDRY "FontForge"
FAMILY_NAME "Nunito Medium"
WEIGHT_NAME "Medium"
SLANT "R"
SETWIDTH_NAME "Normal"
ADD_STYLE_NAME ""
PIXEL_SIZE 40
POINT_SIZE 380
RESOLUTION_X 75
RESOLUTION_Y 75
SPACING "P"
AVERAGE_WIDTH 212
CHARSET_REGISTRY "ISO10646"
CHARSET_ENCODING "1"
FONTNAME_REGISTRY ""
CHARSET_COLLECTIONS "ISO8859-2 ISO8859-5 ISO8859-9 ISO8859-4 ISO10646-1"
FONT_NAME "Nunito-Medium"
FACE_NAME "Nunito Medium"
COPYRIGHT "Copyright 2014 The Nunito Project Authors (https://github.com/googlefonts/nunito)"
FONT_VERSION "3.602"
FONT_ASCENT 32
FONT_DESCENT 8
UNDERLINE_POSITION -4
UNDERLINE_THICKNESS 2
X_HEIGHT 19
CAP_HEIGHT 27
DEFAULT_CHAR 851
RAW_ASCENT 800
RAW_DESCENT 200
NORM_SPACE 10
RELATIVE_WEIGHT 50
RELATIVE_SETWIDTH 50
SUPERSCRIPT_X 0
SUPERSCRIPT_Y 14
SUPERSCRIPT_SIZE 24
SUBSCRIPT_X 0
SUBSCRIPT_Y 3
SUBSCRIPT_SIZE 24
FIGURE_WIDTH 24
AVG_LOWERCASE_WIDTH 214
AVG_UPPERCASE_WIDTH 277
ENDPROPERTIES
CHARS 14
STARTCHAR space
ENCODING 32
SWIDTH 261 0
DWIDTH 10 0
BBX 1 1 0 0
BITMAP
00
ENDCHAR
STARTCHAR plus
ENCODING 43
SWIDTH 600 0
DWIDTH 24 0
BBX 20 20 2 1
BITMAP
006000
006000
006000
006000
006000
006000
006000
006000
FFFFF0
FFFFF0
FFFFF0
006000
006000
006000
006000
006000
006000
006000
006000
006000
ENDCHAR
STARTCHAR hyphen
ENCODING 45
SWIDTH 427 0
DWIDTH 17 0
BBX 12 3 3 9
BITMAP
FFE0
FFF0
FFE0
ENDCHAR
STARTCHAR period
ENCODING 46
SWIDTH 233 0
DWIDTH 9 0
BBX 5 5 2 0
BITMAP
20
78
F8
F8
70
ENDCHAR
STARTCHAR zero
ENCODING 48
SWIDTH 600 0
DWIDTH 24 0
BBX 20 29 2 0
BITMAP
002000
07FE00
0FFF00
1FFF80
3E07C0
3C03C0
7801E0
7801E0
7000E0
F000E0
F000F0
F000F0
F000F0
F000F0
F000F0
F000F0
F000F0
F000F0
F000F0
F000F0
7000E0
7000E0
7801E0
7801E0
3C03C0
3E07C0
1FFF80
0FFF00
03FC00
ENDCHAR
STARTCHAR one
ENCODING 49
SWIDTH 600 0
DWIDTH 24 0
BBX 16 28 5 0
BITMAP
03C0
0FC0
1FC0
7FC0
FFC0
F3C0
E3C0
03C0
03C0
03C0
03C0
03C0
03C0
03C0
03C0
03C0
03C0
03C0
03C0
03C0
03C0
03C0
03C0
03C0
03C0
FFFF
FFFF
FFFF
ENDCHAR
STARTCHAR two
ENCODING 50
SWIDTH 600 0
DWIDTH 24 0
BBX 19 29 3 0
BITMAP
008000
1FFC00
7FFE00
FFFF00
F00F80
C00780
000780
000380
0003C0
000380
000780
000780
000780
000F00
001E00
003E00
003C00
007800
00F000
01E000
03C000
078000
0F0000
1E0000
3C0000
7C0000
FFFFE0
FFFFE0
7FFFE0
ENDCHAR
STARTCHAR three
ENCODING 51
SWIDTH 600 0
DWIDTH 24 0
BBX 19 29 2 0
BITMAP
004000
0FFE00
3FFF00
7FFF80
7807C0
6003C0
0001C0
0001C0
0001C0
0001C0
0003C0
000380
000F80
03FF00
07FC00
07FF00
001FC0
0003C0
0001E0
0001E0
0000E0
0000E0
0001E0
0001E0
E003E0
FC07C0
7FFF80
3FFF00
0FFE00
ENDCHAR
STARTCHAR four
ENCODING 52
SWIDTH 600 0
DWIDTH 24 0
BBX 21 28 2 0
BITMAP
000700
000F80
000F80
001F80
003F80
007F80
007780
00F780
01E780
01C780
03C780
078780
070780
0E0780
1E0780
1C0780
380780
780780
700780
FFFFF8
FFFFF8
FFFFF8
000780
000780
000780
000780
000780
000700
ENDCHAR
STARTCHAR five
ENCODING 53
SWIDTH 600 0
DWIDTH 24 0
BBX 19 28 3 0
BITMAP
7FFFC0
7FFFC0
7FFF80
780000
780000
780000
780000
780000
780000
780000
78F000
7BFE00
7FFF80
7FBF80
7C07C0
7803E0
3001E0
0001E0
0001E0
0000E0
0001E0
0001E0
0001E0
E003C0
FC07C0
7FFF80
3FFF00
0FFC00
ENDCHAR
STARTCHAR six
ENCODING 54
SWIDTH 600 0
DWIDTH 24 0
BBX 20 29 2 0
BITMAP
001800
01FF80
07FFC0
0FFFF0
1F00F0
1E0060
3C0000
380000
780000
780000
700000
707C00
71FF00
F3FF80
F78FC0
FE03E0
FC01E0
FC00F0
7800F0
7800F0
7800F0
7800F0
7800F0
3C00E0
3E01E0
1F03E0
0FFFC0
07FF80
01FE00
ENDCHAR
STARTCHAR seven
ENCODING 55
SWIDTH 600 0
DWIDTH 24 0
BBX 20 28 2 0
BITMAP
FFFFE0
FFFFF0
7FFFE0
0001E0
0003C0
0003C0
000780
000780
000F00
000F00
001E00
001E00
003C00
003C00
007800
007800
00F000
00F000
01E000
01E000
03C000
03C000
078000
078000
0F0000
0F0000
1E0000
1E0000
ENDCHAR
STARTCHAR eight
ENCODING 56
SWIDTH 600 0
DWIDTH 24 0
BBX 20 29 2 0
BITMAP
007000
07FE00
1FFF80
3FFFC0
7C03E0
7801E0
7000E0
7000E0
7000E0
7000E0
7801E0
7801E0
3E07C0
1FFF80
07FE00
1FFF80
3F0FC0
7801E0
F000F0
F000F0
E00070
E00070
E00070
F000F0
F000F0
7C03E0
3FFFC0
1FFF80
07FE00
ENDCHAR
STARTCHAR nine
ENCODING 57
SWIDTH 600 0
DWIDTH 24 0
BBX 20 29 2 0
BITMAP
008000
07FC00
1FFE00
3FFF00
7C0780
7803C0
F003C0
F001E0
F001E0
F001E0
F001E0
F001E0
F003E0
7803F0
7C06F0
3FFEF0
1FFCE0
0FF8E0
0080E0
0001E0
0001E0
0001E0
0003C0
0003C0
E00780
F81F00
7FFF00
3FFC00
0FF800
ENDCHAR
ENDFONT
