%TF.GenerationSoftware,KiCad,Pcbnew,9.0.7*%
%TF.CreationDate,2026-06-13T17:55:31+01:00*%
%TF.ProjectId,GlucoBit-v2,476c7563-6f42-4697-942d-76322e6b6963,rev?*%
%TF.SameCoordinates,Original*%
%TF.FileFunction,Copper,L3,Inr*%
%TF.FilePolarity,Positive*%
%FSLAX46Y46*%
G04 Gerber Fmt 4.6, Leading zero omitted, Abs format (unit mm)*
G04 Created by KiCad (PCBNEW 9.0.7) date 2026-06-13 17:55:31*
%MOMM*%
%LPD*%
G01*
G04 APERTURE LIST*
%TA.AperFunction,ComponentPad*%
%ADD10O,2.100000X1.200000*%
%TD*%
%TA.AperFunction,ComponentPad*%
%ADD11O,1.800000X1.200000*%
%TD*%
%TA.AperFunction,ComponentPad*%
%ADD12C,1.397000*%
%TD*%
%TA.AperFunction,ComponentPad*%
%ADD13R,1.308000X1.308000*%
%TD*%
%TA.AperFunction,ComponentPad*%
%ADD14C,1.308000*%
%TD*%
%TA.AperFunction,ComponentPad*%
%ADD15C,0.504000*%
%TD*%
%TA.AperFunction,ComponentPad*%
%ADD16R,1.700000X1.700000*%
%TD*%
%TA.AperFunction,ComponentPad*%
%ADD17C,1.700000*%
%TD*%
%TA.AperFunction,ViaPad*%
%ADD18C,0.600000*%
%TD*%
G04 APERTURE END LIST*
D10*
%TO.N,GND*%
%TO.C,J1*%
X122380000Y-84269586D03*
X122380000Y-92909586D03*
D11*
X118200000Y-84269586D03*
X118200000Y-92909586D03*
%TD*%
D12*
%TO.N,MOSI*%
%TO.C,U6*%
X141350000Y-97643936D03*
%TO.N,CLK*%
X141350000Y-95143936D03*
%TO.N,CS*%
X141350000Y-92643936D03*
%TO.N,DC*%
X141350000Y-90143936D03*
%TO.N,RST*%
X141350000Y-87643936D03*
%TO.N,BL*%
X141350000Y-85143936D03*
%TO.N,LED*%
X141350000Y-82643936D03*
%TO.N,Touch*%
X141350000Y-80143936D03*
%TD*%
D13*
%TO.N,/VOUT*%
%TO.C,J2*%
X163400000Y-101750000D03*
D14*
%TO.N,GND*%
X161400000Y-101750000D03*
%TD*%
D13*
%TO.N,Net-(U5-OUTN)*%
%TO.C,J6*%
X150400000Y-101748836D03*
D14*
%TO.N,Net-(U5-OUTP)*%
X148400000Y-101748836D03*
%TD*%
D15*
%TO.N,GND*%
%TO.C,U2*%
X129850000Y-90048836D03*
%TD*%
D16*
%TO.N,+3V3*%
%TO.C,J3*%
X136200000Y-75700000D03*
D17*
%TO.N,GND*%
X136200000Y-78240000D03*
%TD*%
D18*
%TO.N,/5VIN*%
X125500000Y-87498836D03*
X124200000Y-90273836D03*
X125950000Y-90123836D03*
X125550000Y-85923836D03*
X131400000Y-84698836D03*
X123975000Y-86148836D03*
X128750000Y-84773836D03*
%TO.N,GND*%
X118025000Y-91573836D03*
X133396000Y-83508836D03*
X158724000Y-86810836D03*
X154152000Y-89998836D03*
X145600000Y-74898836D03*
X139475000Y-85698836D03*
X128675000Y-97973836D03*
X120370000Y-82238836D03*
X154400000Y-98800000D03*
X124850000Y-76498836D03*
X150275000Y-86798836D03*
X122150000Y-77073836D03*
X124150000Y-91898836D03*
X158724000Y-85673836D03*
X158750000Y-88423836D03*
X157500000Y-84524836D03*
X133600000Y-78773836D03*
X128575000Y-79748836D03*
X164237467Y-76413202D03*
X156200000Y-92723836D03*
X143125000Y-98748836D03*
X155168000Y-89998836D03*
X153450000Y-86048836D03*
X157200000Y-90000000D03*
X127575000Y-97986836D03*
X156175853Y-90000000D03*
X132825000Y-75173836D03*
X158750000Y-87698836D03*
X121835130Y-78898836D03*
X160150000Y-75023836D03*
X140436000Y-91382836D03*
X154425000Y-81998836D03*
X160100000Y-101748266D03*
X133411765Y-87337071D03*
X138725000Y-76573836D03*
X153475000Y-87064836D03*
X120425000Y-74798836D03*
X150325000Y-77123836D03*
X126850000Y-84723836D03*
X158343280Y-102402779D03*
X163575000Y-78073836D03*
X117925000Y-81398836D03*
X158216000Y-90000000D03*
X137225000Y-83148836D03*
X129608535Y-97986836D03*
X125625000Y-94523836D03*
X153525000Y-89096836D03*
X145300000Y-101200000D03*
X139166000Y-92398836D03*
X121850000Y-100526836D03*
X117950000Y-85398836D03*
X158775000Y-89398836D03*
X124000000Y-92848836D03*
X163725000Y-88048836D03*
X135375000Y-84198836D03*
X154032227Y-74651456D03*
X153390000Y-85032836D03*
X132800000Y-94398836D03*
X154406000Y-84524836D03*
X133987500Y-89698836D03*
X153500000Y-88080836D03*
X155422000Y-84524836D03*
X163705248Y-99885423D03*
X139052880Y-99295956D03*
X156500000Y-84524836D03*
X123575000Y-99873836D03*
X158700000Y-84524836D03*
X120450000Y-85198836D03*
%TO.N,/VOUT*%
X129650000Y-93498836D03*
%TO.N,+3V3*%
X135697538Y-89850888D03*
X155850000Y-77748836D03*
X133900000Y-97498836D03*
X135675000Y-91636836D03*
X143375000Y-80723836D03*
X127500000Y-99498836D03*
%TO.N,BOOT*%
X149200000Y-94123836D03*
X123600000Y-81248836D03*
%TO.N,ENABLE*%
X117576000Y-99002836D03*
X164000000Y-94773836D03*
%TO.N,Net-(U5-OUTP)*%
X142575000Y-100998836D03*
X127912147Y-76777804D03*
%TO.N,Net-(U5-OUTN)*%
X127725000Y-75073836D03*
X150850000Y-99548836D03*
%TO.N,PGOOD*%
X126625000Y-91498836D03*
X133875000Y-94698836D03*
X143300000Y-96048836D03*
%TO.N,CH*%
X139000000Y-93698836D03*
X147875000Y-93698836D03*
X129850000Y-92148836D03*
%TO.N,Net-(U2-ISET2)*%
X133851500Y-92125336D03*
X127525000Y-91348836D03*
%TO.N,Touch*%
X162350000Y-95498836D03*
%TO.N,BCLK*%
X145250000Y-76948836D03*
X121625000Y-74773836D03*
%TO.N,LRCLK*%
X152175000Y-78073836D03*
X150600000Y-74848836D03*
%TD*%
%TA.AperFunction,Conductor*%
%TO.N,/5VIN*%
G36*
X119696542Y-82145199D02*
G01*
X119763412Y-82165446D01*
X119808723Y-82218632D01*
X119819500Y-82269195D01*
X119819500Y-82311311D01*
X119857016Y-82451321D01*
X119857017Y-82451324D01*
X119929488Y-82576847D01*
X119929490Y-82576849D01*
X119929491Y-82576851D01*
X120031985Y-82679345D01*
X120031986Y-82679346D01*
X120031988Y-82679347D01*
X120157511Y-82751818D01*
X120157512Y-82751818D01*
X120157515Y-82751820D01*
X120297525Y-82789336D01*
X120297528Y-82789336D01*
X120442472Y-82789336D01*
X120442475Y-82789336D01*
X120582485Y-82751820D01*
X120708015Y-82679345D01*
X120810509Y-82576851D01*
X120882984Y-82451321D01*
X120920500Y-82311311D01*
X120920500Y-82280512D01*
X120940185Y-82213473D01*
X120992989Y-82167718D01*
X121045536Y-82156516D01*
X131927444Y-82247807D01*
X131994314Y-82268054D01*
X132039625Y-82321240D01*
X132050401Y-82371397D01*
X132087331Y-93646003D01*
X132067866Y-93713106D01*
X132015213Y-93759034D01*
X131962412Y-93770406D01*
X130311114Y-93758155D01*
X130244222Y-93737973D01*
X130198861Y-93684831D01*
X130189430Y-93615601D01*
X130192256Y-93602075D01*
X130200500Y-93571311D01*
X130200500Y-93426361D01*
X130162984Y-93286351D01*
X130105537Y-93186851D01*
X130090511Y-93160824D01*
X130090506Y-93160818D01*
X129988017Y-93058329D01*
X129988011Y-93058324D01*
X129862488Y-92985853D01*
X129862489Y-92985853D01*
X129851006Y-92982776D01*
X129722475Y-92948336D01*
X129577525Y-92948336D01*
X129448993Y-92982776D01*
X129437511Y-92985853D01*
X129311988Y-93058324D01*
X129311982Y-93058329D01*
X129209493Y-93160818D01*
X129209488Y-93160824D01*
X129137017Y-93286347D01*
X129136214Y-93289345D01*
X129099500Y-93426361D01*
X129099500Y-93426363D01*
X129099500Y-93571310D01*
X129105103Y-93592221D01*
X129103440Y-93662071D01*
X129064277Y-93719933D01*
X129000048Y-93747437D01*
X128984408Y-93748311D01*
X123532946Y-93707867D01*
X123519262Y-93703738D01*
X123504989Y-93704461D01*
X123486480Y-93693847D01*
X123466054Y-93687685D01*
X123456774Y-93676814D01*
X123444377Y-93669705D01*
X123434544Y-93650770D01*
X123420693Y-93634543D01*
X123418763Y-93620382D01*
X123412177Y-93607698D01*
X123414141Y-93586453D01*
X123411262Y-93565313D01*
X123417418Y-93551023D01*
X123418612Y-93538125D01*
X123431274Y-93518867D01*
X123436169Y-93507507D01*
X123440829Y-93501544D01*
X123490626Y-93451748D01*
X123554676Y-93355890D01*
X123557517Y-93352256D01*
X123582312Y-93334488D01*
X123605724Y-93314923D01*
X123610445Y-93314330D01*
X123614311Y-93311560D01*
X123644778Y-93310017D01*
X123675049Y-93306216D01*
X123680629Y-93308203D01*
X123684091Y-93308028D01*
X123690571Y-93311743D01*
X123717214Y-93321232D01*
X123787511Y-93361818D01*
X123787512Y-93361818D01*
X123787515Y-93361820D01*
X123927525Y-93399336D01*
X123927528Y-93399336D01*
X124072472Y-93399336D01*
X124072475Y-93399336D01*
X124212485Y-93361820D01*
X124338015Y-93289345D01*
X124440509Y-93186851D01*
X124512984Y-93061321D01*
X124550500Y-92921311D01*
X124550500Y-92776361D01*
X124512984Y-92636351D01*
X124501976Y-92617285D01*
X124440134Y-92510171D01*
X124423661Y-92442271D01*
X124446513Y-92376244D01*
X124481605Y-92344345D01*
X124481566Y-92344293D01*
X124482190Y-92343814D01*
X124485525Y-92340782D01*
X124488015Y-92339345D01*
X124590509Y-92236851D01*
X124662984Y-92111321D01*
X124672352Y-92076361D01*
X129299500Y-92076361D01*
X129299500Y-92221311D01*
X129333032Y-92346452D01*
X129337017Y-92361324D01*
X129409488Y-92486847D01*
X129409490Y-92486849D01*
X129409491Y-92486851D01*
X129511985Y-92589345D01*
X129511986Y-92589346D01*
X129511988Y-92589347D01*
X129637511Y-92661818D01*
X129637512Y-92661818D01*
X129637515Y-92661820D01*
X129777525Y-92699336D01*
X129777528Y-92699336D01*
X129922472Y-92699336D01*
X129922475Y-92699336D01*
X130062485Y-92661820D01*
X130188015Y-92589345D01*
X130290509Y-92486851D01*
X130362984Y-92361321D01*
X130400500Y-92221311D01*
X130400500Y-92076361D01*
X130362984Y-91936351D01*
X130341613Y-91899336D01*
X130290511Y-91810824D01*
X130290506Y-91810818D01*
X130188017Y-91708329D01*
X130188011Y-91708324D01*
X130062488Y-91635853D01*
X130062489Y-91635853D01*
X130051006Y-91632776D01*
X129922475Y-91598336D01*
X129777525Y-91598336D01*
X129648993Y-91632776D01*
X129637511Y-91635853D01*
X129511988Y-91708324D01*
X129511982Y-91708329D01*
X129409493Y-91810818D01*
X129409488Y-91810824D01*
X129337017Y-91936347D01*
X129336214Y-91939345D01*
X129299500Y-92076361D01*
X124672352Y-92076361D01*
X124700500Y-91971311D01*
X124700500Y-91826361D01*
X124662984Y-91686351D01*
X124633828Y-91635852D01*
X124590511Y-91560824D01*
X124590506Y-91560818D01*
X124488017Y-91458329D01*
X124488011Y-91458324D01*
X124432650Y-91426361D01*
X126074500Y-91426361D01*
X126074500Y-91571311D01*
X126105460Y-91686853D01*
X126112017Y-91711324D01*
X126184488Y-91836847D01*
X126184490Y-91836849D01*
X126184491Y-91836851D01*
X126286985Y-91939345D01*
X126286986Y-91939346D01*
X126286988Y-91939347D01*
X126412511Y-92011818D01*
X126412512Y-92011818D01*
X126412515Y-92011820D01*
X126552525Y-92049336D01*
X126552528Y-92049336D01*
X126697472Y-92049336D01*
X126697475Y-92049336D01*
X126837485Y-92011820D01*
X126963015Y-91939345D01*
X127065509Y-91836851D01*
X127067407Y-91833563D01*
X127078512Y-91823831D01*
X127099544Y-91814082D01*
X127118262Y-91800408D01*
X127130646Y-91799667D01*
X127141904Y-91794449D01*
X127164869Y-91797619D01*
X127188007Y-91796235D01*
X127205945Y-91803290D01*
X127211117Y-91804004D01*
X127213965Y-91806444D01*
X127222234Y-91809696D01*
X127312515Y-91861820D01*
X127452525Y-91899336D01*
X127452528Y-91899336D01*
X127597472Y-91899336D01*
X127597475Y-91899336D01*
X127737485Y-91861820D01*
X127863015Y-91789345D01*
X127965509Y-91686851D01*
X128037984Y-91561321D01*
X128075500Y-91421311D01*
X128075500Y-91276361D01*
X128037984Y-91136351D01*
X128036239Y-91133329D01*
X127965511Y-91010824D01*
X127965506Y-91010818D01*
X127863017Y-90908329D01*
X127863011Y-90908324D01*
X127737488Y-90835853D01*
X127737489Y-90835853D01*
X127726006Y-90832776D01*
X127597475Y-90798336D01*
X127452525Y-90798336D01*
X127323993Y-90832776D01*
X127312511Y-90835853D01*
X127186988Y-90908324D01*
X127186982Y-90908329D01*
X127078744Y-91016568D01*
X127076646Y-91014470D01*
X127031660Y-91047291D01*
X126961913Y-91051418D01*
X126927761Y-91037973D01*
X126837485Y-90985852D01*
X126697475Y-90948336D01*
X126552525Y-90948336D01*
X126423993Y-90982776D01*
X126412511Y-90985853D01*
X126286988Y-91058324D01*
X126286982Y-91058329D01*
X126184493Y-91160818D01*
X126184488Y-91160824D01*
X126112017Y-91286347D01*
X126112016Y-91286351D01*
X126074500Y-91426361D01*
X124432650Y-91426361D01*
X124362488Y-91385853D01*
X124362489Y-91385853D01*
X124351006Y-91382776D01*
X124222475Y-91348336D01*
X124077525Y-91348336D01*
X123948993Y-91382776D01*
X123937511Y-91385853D01*
X123811988Y-91458324D01*
X123811982Y-91458329D01*
X123709493Y-91560818D01*
X123709488Y-91560824D01*
X123637017Y-91686347D01*
X123637016Y-91686351D01*
X123599500Y-91826361D01*
X123599500Y-91971311D01*
X123637016Y-92111321D01*
X123709491Y-92236851D01*
X123709493Y-92236853D01*
X123709866Y-92237499D01*
X123712000Y-92246298D01*
X123717596Y-92253413D01*
X123720107Y-92279713D01*
X123726339Y-92305399D01*
X123723377Y-92313955D01*
X123724238Y-92322966D01*
X123712130Y-92346452D01*
X123703487Y-92371426D01*
X123695524Y-92378664D01*
X123692223Y-92385069D01*
X123664482Y-92406885D01*
X123661985Y-92408327D01*
X123661983Y-92408328D01*
X123658631Y-92410264D01*
X123590731Y-92426737D01*
X123524704Y-92403885D01*
X123493525Y-92371763D01*
X123490626Y-92367424D01*
X123490624Y-92367422D01*
X123490622Y-92367419D01*
X123372162Y-92248959D01*
X123232860Y-92155881D01*
X123078082Y-92091770D01*
X123078074Y-92091768D01*
X122913771Y-92059086D01*
X122913767Y-92059086D01*
X122456169Y-92059086D01*
X122389130Y-92039401D01*
X122343375Y-91986597D01*
X122333431Y-91917439D01*
X122360377Y-91858433D01*
X122359575Y-91857817D01*
X122362253Y-91854326D01*
X122362456Y-91853883D01*
X122363239Y-91853041D01*
X122364514Y-91851378D01*
X122364521Y-91851372D01*
X122444236Y-91713300D01*
X122485500Y-91559302D01*
X122485500Y-91399870D01*
X122444236Y-91245872D01*
X122364521Y-91107800D01*
X122251786Y-90995065D01*
X122113714Y-90915350D01*
X122113715Y-90915350D01*
X122075214Y-90905034D01*
X121959716Y-90874086D01*
X121800284Y-90874086D01*
X121684785Y-90905034D01*
X121646285Y-90915350D01*
X121508215Y-90995064D01*
X121508212Y-90995066D01*
X121395480Y-91107798D01*
X121395478Y-91107801D01*
X121315764Y-91245871D01*
X121315764Y-91245872D01*
X121274500Y-91399870D01*
X121274500Y-91559302D01*
X121315764Y-91713300D01*
X121387095Y-91836851D01*
X121395478Y-91851370D01*
X121395480Y-91851373D01*
X121508215Y-91964108D01*
X121513335Y-91968037D01*
X121554537Y-92024465D01*
X121558690Y-92094211D01*
X121524477Y-92155131D01*
X121506738Y-92169513D01*
X121387838Y-92248959D01*
X121387834Y-92248962D01*
X121269373Y-92367423D01*
X121176295Y-92506725D01*
X121112184Y-92661503D01*
X121112182Y-92661511D01*
X121079500Y-92825814D01*
X121079500Y-92993357D01*
X121112182Y-93157660D01*
X121112184Y-93157668D01*
X121176295Y-93312446D01*
X121269373Y-93451748D01*
X121296565Y-93478940D01*
X121330050Y-93540263D01*
X121325066Y-93609955D01*
X121283194Y-93665888D01*
X121217730Y-93690305D01*
X121207964Y-93690618D01*
X119234834Y-93675979D01*
X119167942Y-93655797D01*
X119122581Y-93602655D01*
X119113150Y-93533425D01*
X119142646Y-93470086D01*
X119148059Y-93464314D01*
X119160626Y-93451748D01*
X119253703Y-93312449D01*
X119317816Y-93157668D01*
X119350500Y-92993353D01*
X119350500Y-92825819D01*
X119317816Y-92661504D01*
X119268227Y-92541787D01*
X119253704Y-92506725D01*
X119160626Y-92367423D01*
X119042162Y-92248959D01*
X118902860Y-92155881D01*
X118748082Y-92091770D01*
X118748074Y-92091768D01*
X118583767Y-92059085D01*
X118582818Y-92058992D01*
X118582353Y-92058804D01*
X118577792Y-92057897D01*
X118577964Y-92057031D01*
X118518033Y-92032824D01*
X118477680Y-91975785D01*
X118474571Y-91905985D01*
X118487596Y-91873594D01*
X118537984Y-91786321D01*
X118575500Y-91646311D01*
X118575500Y-91501361D01*
X118537984Y-91361351D01*
X118494680Y-91286347D01*
X118465511Y-91235824D01*
X118465506Y-91235818D01*
X118363017Y-91133329D01*
X118363011Y-91133324D01*
X118237488Y-91060853D01*
X118237489Y-91060853D01*
X118202277Y-91051418D01*
X118097475Y-91023336D01*
X117952525Y-91023336D01*
X117847723Y-91051418D01*
X117812511Y-91060853D01*
X117686988Y-91133324D01*
X117686982Y-91133329D01*
X117584493Y-91235818D01*
X117584488Y-91235824D01*
X117512017Y-91361347D01*
X117512016Y-91361351D01*
X117474500Y-91501361D01*
X117474500Y-91646311D01*
X117492450Y-91713300D01*
X117512017Y-91786324D01*
X117584488Y-91911847D01*
X117584493Y-91911853D01*
X117600237Y-91927597D01*
X117633722Y-91988920D01*
X117628738Y-92058612D01*
X117586866Y-92114545D01*
X117560011Y-92129838D01*
X117497140Y-92155881D01*
X117497139Y-92155881D01*
X117357837Y-92248959D01*
X117357834Y-92248962D01*
X117312181Y-92294616D01*
X117250858Y-92328101D01*
X117181166Y-92323117D01*
X117125233Y-92281245D01*
X117100816Y-92215781D01*
X117100500Y-92206935D01*
X117100500Y-89998477D01*
X129467500Y-89998477D01*
X129467500Y-90099194D01*
X129493564Y-90196474D01*
X129527137Y-90254623D01*
X129543923Y-90283697D01*
X129615139Y-90354913D01*
X129702360Y-90405270D01*
X129702361Y-90405270D01*
X129702361Y-90405271D01*
X129761896Y-90421222D01*
X129799643Y-90431336D01*
X129799646Y-90431336D01*
X129900354Y-90431336D01*
X129900357Y-90431336D01*
X129959893Y-90415383D01*
X129997638Y-90405271D01*
X129997638Y-90405270D01*
X129997640Y-90405270D01*
X130084861Y-90354913D01*
X130156077Y-90283697D01*
X130206434Y-90196476D01*
X130232500Y-90099193D01*
X130232500Y-89998479D01*
X130222386Y-89960732D01*
X130206435Y-89901197D01*
X130189648Y-89872122D01*
X130156077Y-89813975D01*
X130084861Y-89742759D01*
X129997640Y-89692402D01*
X129997639Y-89692401D01*
X129997638Y-89692401D01*
X129997638Y-89692400D01*
X129900358Y-89666336D01*
X129900357Y-89666336D01*
X129799643Y-89666336D01*
X129799641Y-89666336D01*
X129702361Y-89692400D01*
X129702361Y-89692401D01*
X129615137Y-89742760D01*
X129543924Y-89813973D01*
X129493565Y-89901197D01*
X129493564Y-89901197D01*
X129467500Y-89998477D01*
X117100500Y-89998477D01*
X117100500Y-88453007D01*
X117100513Y-88451209D01*
X117150257Y-85020177D01*
X117170910Y-84953435D01*
X117224372Y-84908451D01*
X117293667Y-84899511D01*
X117344429Y-84919755D01*
X117353847Y-84926221D01*
X117357838Y-84930212D01*
X117425776Y-84975607D01*
X117426417Y-84976047D01*
X117447989Y-85002532D01*
X117469927Y-85028782D01*
X117470028Y-85029590D01*
X117470542Y-85030221D01*
X117474371Y-85064172D01*
X117478634Y-85098107D01*
X117478304Y-85099032D01*
X117478374Y-85099650D01*
X117477336Y-85101749D01*
X117463619Y-85140270D01*
X117437018Y-85186345D01*
X117437017Y-85186346D01*
X117429322Y-85215065D01*
X117399500Y-85326361D01*
X117399500Y-85471311D01*
X117437016Y-85611321D01*
X117437017Y-85611324D01*
X117509488Y-85736847D01*
X117509490Y-85736849D01*
X117509491Y-85736851D01*
X117611985Y-85839345D01*
X117611986Y-85839346D01*
X117611988Y-85839347D01*
X117737511Y-85911818D01*
X117737512Y-85911818D01*
X117737515Y-85911820D01*
X117877525Y-85949336D01*
X117877528Y-85949336D01*
X118022472Y-85949336D01*
X118022475Y-85949336D01*
X118162485Y-85911820D01*
X118288015Y-85839345D01*
X118390509Y-85736851D01*
X118462984Y-85611321D01*
X118500500Y-85471311D01*
X118500500Y-85326361D01*
X118486504Y-85274128D01*
X118488167Y-85204281D01*
X118527329Y-85146419D01*
X118569575Y-85126361D01*
X119899500Y-85126361D01*
X119899500Y-85271311D01*
X119914637Y-85327801D01*
X119937017Y-85411324D01*
X120009488Y-85536847D01*
X120009490Y-85536849D01*
X120009491Y-85536851D01*
X120111985Y-85639345D01*
X120111986Y-85639346D01*
X120111988Y-85639347D01*
X120237511Y-85711818D01*
X120237512Y-85711818D01*
X120237515Y-85711820D01*
X120377525Y-85749336D01*
X120377528Y-85749336D01*
X120522472Y-85749336D01*
X120522475Y-85749336D01*
X120662485Y-85711820D01*
X120788015Y-85639345D01*
X120890509Y-85536851D01*
X120962984Y-85411321D01*
X121000500Y-85271311D01*
X121000500Y-85126361D01*
X120962984Y-84986351D01*
X120930570Y-84930209D01*
X120890511Y-84860824D01*
X120890506Y-84860818D01*
X120788017Y-84758329D01*
X120788011Y-84758324D01*
X120662488Y-84685853D01*
X120662489Y-84685853D01*
X120651006Y-84682776D01*
X120522475Y-84648336D01*
X120377525Y-84648336D01*
X120248993Y-84682776D01*
X120237511Y-84685853D01*
X120111988Y-84758324D01*
X120111982Y-84758329D01*
X120009493Y-84860818D01*
X120009488Y-84860824D01*
X119937017Y-84986347D01*
X119937016Y-84986351D01*
X119899500Y-85126361D01*
X118569575Y-85126361D01*
X118582088Y-85120420D01*
X118583767Y-85120086D01*
X118748082Y-85087402D01*
X118902863Y-85023289D01*
X119042162Y-84930212D01*
X119160626Y-84811748D01*
X119253703Y-84672449D01*
X119317816Y-84517668D01*
X119350500Y-84353353D01*
X119350500Y-84185819D01*
X119350499Y-84185814D01*
X121079500Y-84185814D01*
X121079500Y-84353357D01*
X121112182Y-84517660D01*
X121112184Y-84517668D01*
X121176295Y-84672446D01*
X121269373Y-84811748D01*
X121387835Y-84930210D01*
X121387838Y-84930212D01*
X121506739Y-85009659D01*
X121551543Y-85063270D01*
X121560250Y-85132594D01*
X121530096Y-85195622D01*
X121513341Y-85211130D01*
X121508215Y-85215063D01*
X121395480Y-85327798D01*
X121395478Y-85327801D01*
X121315764Y-85465871D01*
X121302009Y-85517204D01*
X121274500Y-85619870D01*
X121274500Y-85779302D01*
X121315764Y-85933300D01*
X121395479Y-86071372D01*
X121508214Y-86184107D01*
X121646286Y-86263822D01*
X121800284Y-86305086D01*
X121800287Y-86305086D01*
X121959713Y-86305086D01*
X121959716Y-86305086D01*
X122113714Y-86263822D01*
X122251786Y-86184107D01*
X122364521Y-86071372D01*
X122444236Y-85933300D01*
X122485500Y-85779302D01*
X122485500Y-85619870D01*
X122444236Y-85465872D01*
X122364521Y-85327800D01*
X122364517Y-85327796D01*
X122359575Y-85321355D01*
X122361849Y-85319609D01*
X122335003Y-85270444D01*
X122339987Y-85200752D01*
X122381859Y-85144819D01*
X122447323Y-85120402D01*
X122456169Y-85120086D01*
X122913768Y-85120086D01*
X122913769Y-85120085D01*
X123078082Y-85087402D01*
X123232863Y-85023289D01*
X123372162Y-84930212D01*
X123490626Y-84811748D01*
X123583703Y-84672449D01*
X123592438Y-84651361D01*
X126299500Y-84651361D01*
X126299500Y-84796311D01*
X126327153Y-84899511D01*
X126337017Y-84936324D01*
X126409488Y-85061847D01*
X126409490Y-85061849D01*
X126409491Y-85061851D01*
X126511985Y-85164345D01*
X126511986Y-85164346D01*
X126511988Y-85164347D01*
X126637511Y-85236818D01*
X126637512Y-85236818D01*
X126637515Y-85236820D01*
X126777525Y-85274336D01*
X126777528Y-85274336D01*
X126922472Y-85274336D01*
X126922475Y-85274336D01*
X127062485Y-85236820D01*
X127188015Y-85164345D01*
X127290509Y-85061851D01*
X127362984Y-84936321D01*
X127400500Y-84796311D01*
X127400500Y-84651361D01*
X127362984Y-84511351D01*
X127290509Y-84385821D01*
X127188015Y-84283327D01*
X127188013Y-84283326D01*
X127188011Y-84283324D01*
X127062488Y-84210853D01*
X127062489Y-84210853D01*
X127051006Y-84207776D01*
X126922475Y-84173336D01*
X126777525Y-84173336D01*
X126648993Y-84207776D01*
X126637511Y-84210853D01*
X126511988Y-84283324D01*
X126511982Y-84283329D01*
X126409493Y-84385818D01*
X126409488Y-84385824D01*
X126337017Y-84511347D01*
X126337016Y-84511351D01*
X126299500Y-84651361D01*
X123592438Y-84651361D01*
X123647816Y-84517668D01*
X123680500Y-84353353D01*
X123680500Y-84185819D01*
X123647816Y-84021504D01*
X123583703Y-83866723D01*
X123552537Y-83820080D01*
X123490626Y-83727423D01*
X123372162Y-83608959D01*
X123232860Y-83515881D01*
X123078082Y-83451770D01*
X123078074Y-83451768D01*
X122913771Y-83419086D01*
X122913767Y-83419086D01*
X121846233Y-83419086D01*
X121846228Y-83419086D01*
X121681925Y-83451768D01*
X121681917Y-83451770D01*
X121527139Y-83515881D01*
X121387837Y-83608959D01*
X121269373Y-83727423D01*
X121176295Y-83866725D01*
X121112184Y-84021503D01*
X121112182Y-84021511D01*
X121079500Y-84185814D01*
X119350499Y-84185814D01*
X119317816Y-84021504D01*
X119253703Y-83866723D01*
X119222537Y-83820080D01*
X119160626Y-83727423D01*
X119042162Y-83608959D01*
X118902860Y-83515881D01*
X118748082Y-83451770D01*
X118748074Y-83451768D01*
X118583771Y-83419086D01*
X118583767Y-83419086D01*
X117816233Y-83419086D01*
X117816228Y-83419086D01*
X117651925Y-83451768D01*
X117651917Y-83451770D01*
X117497140Y-83515881D01*
X117365186Y-83604049D01*
X117298508Y-83624926D01*
X117231128Y-83606441D01*
X117184439Y-83554462D01*
X117172309Y-83499151D01*
X117178242Y-83089988D01*
X117176928Y-83045040D01*
X117179008Y-83037104D01*
X117180741Y-82917529D01*
X117180742Y-82917552D01*
X117190458Y-82247418D01*
X117211111Y-82180675D01*
X117264573Y-82135691D01*
X117315482Y-82125224D01*
X119696542Y-82145199D01*
G37*
%TD.AperFunction*%
%TD*%
M02*
