%TF.GenerationSoftware,KiCad,Pcbnew,9.0.7*%
%TF.CreationDate,2026-06-13T17:27:19+01:00*%
%TF.ProjectId,GlucoBit-v2,476c7563-6f42-4697-942d-76322e6b6963,rev?*%
%TF.SameCoordinates,Original*%
%TF.FileFunction,Legend,Bot*%
%TF.FilePolarity,Positive*%
%FSLAX46Y46*%
G04 Gerber Fmt 4.6, Leading zero omitted, Abs format (unit mm)*
G04 Created by KiCad (PCBNEW 9.0.7) date 2026-06-13 17:27:19*
%MOMM*%
%LPD*%
G01*
G04 APERTURE LIST*
%ADD10C,0.150000*%
%ADD11C,0.508000*%
G04 APERTURE END LIST*
D10*
X102654819Y-64532142D02*
X102178628Y-64198809D01*
X102654819Y-63960714D02*
X101654819Y-63960714D01*
X101654819Y-63960714D02*
X101654819Y-64341666D01*
X101654819Y-64341666D02*
X101702438Y-64436904D01*
X101702438Y-64436904D02*
X101750057Y-64484523D01*
X101750057Y-64484523D02*
X101845295Y-64532142D01*
X101845295Y-64532142D02*
X101988152Y-64532142D01*
X101988152Y-64532142D02*
X102083390Y-64484523D01*
X102083390Y-64484523D02*
X102131009Y-64436904D01*
X102131009Y-64436904D02*
X102178628Y-64341666D01*
X102178628Y-64341666D02*
X102178628Y-63960714D01*
X102654819Y-65484523D02*
X102654819Y-64913095D01*
X102654819Y-65198809D02*
X101654819Y-65198809D01*
X101654819Y-65198809D02*
X101797676Y-65103571D01*
X101797676Y-65103571D02*
X101892914Y-65008333D01*
X101892914Y-65008333D02*
X101940533Y-64913095D01*
X101988152Y-66341666D02*
X102654819Y-66341666D01*
X101607200Y-66103571D02*
X102321485Y-65865476D01*
X102321485Y-65865476D02*
X102321485Y-66484523D01*
X76554819Y-53738095D02*
X77364342Y-53738095D01*
X77364342Y-53738095D02*
X77459580Y-53785714D01*
X77459580Y-53785714D02*
X77507200Y-53833333D01*
X77507200Y-53833333D02*
X77554819Y-53928571D01*
X77554819Y-53928571D02*
X77554819Y-54119047D01*
X77554819Y-54119047D02*
X77507200Y-54214285D01*
X77507200Y-54214285D02*
X77459580Y-54261904D01*
X77459580Y-54261904D02*
X77364342Y-54309523D01*
X77364342Y-54309523D02*
X76554819Y-54309523D01*
X76554819Y-54690476D02*
X76554819Y-55309523D01*
X76554819Y-55309523D02*
X76935771Y-54976190D01*
X76935771Y-54976190D02*
X76935771Y-55119047D01*
X76935771Y-55119047D02*
X76983390Y-55214285D01*
X76983390Y-55214285D02*
X77031009Y-55261904D01*
X77031009Y-55261904D02*
X77126247Y-55309523D01*
X77126247Y-55309523D02*
X77364342Y-55309523D01*
X77364342Y-55309523D02*
X77459580Y-55261904D01*
X77459580Y-55261904D02*
X77507200Y-55214285D01*
X77507200Y-55214285D02*
X77554819Y-55119047D01*
X77554819Y-55119047D02*
X77554819Y-54833333D01*
X77554819Y-54833333D02*
X77507200Y-54738095D01*
X77507200Y-54738095D02*
X77459580Y-54690476D01*
X99259580Y-64582142D02*
X99307200Y-64534523D01*
X99307200Y-64534523D02*
X99354819Y-64391666D01*
X99354819Y-64391666D02*
X99354819Y-64296428D01*
X99354819Y-64296428D02*
X99307200Y-64153571D01*
X99307200Y-64153571D02*
X99211961Y-64058333D01*
X99211961Y-64058333D02*
X99116723Y-64010714D01*
X99116723Y-64010714D02*
X98926247Y-63963095D01*
X98926247Y-63963095D02*
X98783390Y-63963095D01*
X98783390Y-63963095D02*
X98592914Y-64010714D01*
X98592914Y-64010714D02*
X98497676Y-64058333D01*
X98497676Y-64058333D02*
X98402438Y-64153571D01*
X98402438Y-64153571D02*
X98354819Y-64296428D01*
X98354819Y-64296428D02*
X98354819Y-64391666D01*
X98354819Y-64391666D02*
X98402438Y-64534523D01*
X98402438Y-64534523D02*
X98450057Y-64582142D01*
X99354819Y-65534523D02*
X99354819Y-64963095D01*
X99354819Y-65248809D02*
X98354819Y-65248809D01*
X98354819Y-65248809D02*
X98497676Y-65153571D01*
X98497676Y-65153571D02*
X98592914Y-65058333D01*
X98592914Y-65058333D02*
X98640533Y-64963095D01*
X98354819Y-65867857D02*
X98354819Y-66486904D01*
X98354819Y-66486904D02*
X98735771Y-66153571D01*
X98735771Y-66153571D02*
X98735771Y-66296428D01*
X98735771Y-66296428D02*
X98783390Y-66391666D01*
X98783390Y-66391666D02*
X98831009Y-66439285D01*
X98831009Y-66439285D02*
X98926247Y-66486904D01*
X98926247Y-66486904D02*
X99164342Y-66486904D01*
X99164342Y-66486904D02*
X99259580Y-66439285D01*
X99259580Y-66439285D02*
X99307200Y-66391666D01*
X99307200Y-66391666D02*
X99354819Y-66296428D01*
X99354819Y-66296428D02*
X99354819Y-66010714D01*
X99354819Y-66010714D02*
X99307200Y-65915476D01*
X99307200Y-65915476D02*
X99259580Y-65867857D01*
X100954819Y-64532142D02*
X100478628Y-64198809D01*
X100954819Y-63960714D02*
X99954819Y-63960714D01*
X99954819Y-63960714D02*
X99954819Y-64341666D01*
X99954819Y-64341666D02*
X100002438Y-64436904D01*
X100002438Y-64436904D02*
X100050057Y-64484523D01*
X100050057Y-64484523D02*
X100145295Y-64532142D01*
X100145295Y-64532142D02*
X100288152Y-64532142D01*
X100288152Y-64532142D02*
X100383390Y-64484523D01*
X100383390Y-64484523D02*
X100431009Y-64436904D01*
X100431009Y-64436904D02*
X100478628Y-64341666D01*
X100478628Y-64341666D02*
X100478628Y-63960714D01*
X100954819Y-65484523D02*
X100954819Y-64913095D01*
X100954819Y-65198809D02*
X99954819Y-65198809D01*
X99954819Y-65198809D02*
X100097676Y-65103571D01*
X100097676Y-65103571D02*
X100192914Y-65008333D01*
X100192914Y-65008333D02*
X100240533Y-64913095D01*
X99954819Y-65817857D02*
X99954819Y-66436904D01*
X99954819Y-66436904D02*
X100335771Y-66103571D01*
X100335771Y-66103571D02*
X100335771Y-66246428D01*
X100335771Y-66246428D02*
X100383390Y-66341666D01*
X100383390Y-66341666D02*
X100431009Y-66389285D01*
X100431009Y-66389285D02*
X100526247Y-66436904D01*
X100526247Y-66436904D02*
X100764342Y-66436904D01*
X100764342Y-66436904D02*
X100859580Y-66389285D01*
X100859580Y-66389285D02*
X100907200Y-66341666D01*
X100907200Y-66341666D02*
X100954819Y-66246428D01*
X100954819Y-66246428D02*
X100954819Y-65960714D01*
X100954819Y-65960714D02*
X100907200Y-65865476D01*
X100907200Y-65865476D02*
X100859580Y-65817857D01*
D11*
%TO.C,U6*%
X86131000Y-66802300D02*
G75*
G02*
X85369000Y-66802300I-381000J0D01*
G01*
X85369000Y-66802300D02*
G75*
G02*
X86131000Y-66802300I381000J0D01*
G01*
%TD*%
M02*
