M48
; DRILL file {KiCad 9.0.7} date 2026-06-13T17:55:29+0100
; FORMAT={-:-/ absolute / metric / decimal}
; #@! TF.CreationDate,2026-06-13T17:55:29+01:00
; #@! TF.GenerationSoftware,Kicad,Pcbnew,9.0.7
; #@! TF.FileFunction,Plated,1,4,PTH
FMAT,2
METRIC
; #@! TA.AperFunction,Plated,PTH,ComponentDrill
T1C0.204
; #@! TA.AperFunction,Plated,PTH,ViaDrill
T2C0.290
; #@! TA.AperFunction,Plated,PTH,ComponentDrill
T3C0.800
; #@! TA.AperFunction,Plated,PTH,ComponentDrill
T4C0.820
; #@! TA.AperFunction,Plated,PTH,ComponentDrill
T5C0.889
; #@! TA.AperFunction,Plated,PTH,ComponentDrill
T6C1.000
%
G90
G05
T1
X129.85Y-90.049
T2
X117.576Y-99.003
X117.925Y-81.399
X117.95Y-85.399
X118.025Y-91.574
X120.37Y-82.239
X120.425Y-74.799
X120.45Y-85.199
X121.625Y-74.774
X121.835Y-78.899
X121.85Y-100.527
X122.15Y-77.074
X123.575Y-99.874
X123.6Y-81.249
X123.975Y-86.149
X124.0Y-92.849
X124.15Y-91.899
X124.2Y-90.274
X124.85Y-76.499
X125.5Y-87.499
X125.55Y-85.924
X125.625Y-94.524
X125.95Y-90.124
X126.625Y-91.499
X126.85Y-84.724
X127.5Y-99.499
X127.525Y-91.349
X127.575Y-97.987
X127.725Y-75.074
X127.912Y-76.778
X128.575Y-79.749
X128.675Y-97.974
X128.75Y-84.774
X129.609Y-97.987
X129.65Y-93.499
X129.85Y-92.149
X131.4Y-84.699
X132.8Y-94.399
X132.825Y-75.174
X133.396Y-83.509
X133.412Y-87.337
X133.6Y-78.774
X133.851Y-92.125
X133.875Y-94.699
X133.9Y-97.499
X133.987Y-89.699
X135.375Y-84.199
X135.675Y-91.637
X135.698Y-89.851
X137.225Y-83.149
X138.725Y-76.574
X139.0Y-93.699
X139.053Y-99.296
X139.166Y-92.399
X139.475Y-85.699
X140.436Y-91.383
X142.575Y-100.999
X143.125Y-98.749
X143.3Y-96.049
X143.375Y-80.724
X145.25Y-76.949
X145.3Y-101.2
X145.6Y-74.899
X147.875Y-93.699
X149.2Y-94.124
X150.275Y-86.799
X150.325Y-77.124
X150.6Y-74.849
X150.85Y-99.549
X152.175Y-78.074
X153.39Y-85.033
X153.45Y-86.049
X153.475Y-87.065
X153.5Y-88.081
X153.525Y-89.097
X154.032Y-74.651
X154.152Y-89.999
X154.4Y-98.8
X154.406Y-84.525
X154.425Y-81.999
X155.168Y-89.999
X155.422Y-84.525
X155.85Y-77.749
X156.176Y-90.0
X156.2Y-92.724
X156.5Y-84.525
X157.2Y-90.0
X157.5Y-84.525
X158.216Y-90.0
X158.343Y-102.403
X158.7Y-84.525
X158.724Y-85.674
X158.724Y-86.811
X158.75Y-87.699
X158.75Y-88.424
X158.775Y-89.399
X160.1Y-101.748
X160.15Y-75.024
X162.35Y-95.499
X163.575Y-78.074
X163.705Y-99.885
X163.725Y-88.049
X164.0Y-94.774
X164.237Y-76.413
T3
X148.4Y-101.749
X150.4Y-101.749
X161.4Y-101.75
X163.4Y-101.75
T5
X141.35Y-80.144
X141.35Y-82.644
X141.35Y-85.144
X141.35Y-87.644
X141.35Y-90.144
X141.35Y-92.644
X141.35Y-95.144
X141.35Y-97.644
T6
X136.2Y-75.7
X136.2Y-78.24
T4
X118.49Y-84.27G85X117.91Y-84.27
G05
X118.49Y-92.91G85X117.91Y-92.91
G05
X122.82Y-84.27G85X121.94Y-84.27
G05
X122.82Y-92.91G85X121.94Y-92.91
G05
M30
