%TF.GenerationSoftware,KiCad,Pcbnew,9.0.7*%
%TF.CreationDate,2026-06-13T17:27:19+01:00*%
%TF.ProjectId,GlucoBit-v2,476c7563-6f42-4697-942d-76322e6b6963,rev?*%
%TF.SameCoordinates,Original*%
%TF.FileFunction,Legend,Top*%
%TF.FilePolarity,Positive*%
%FSLAX46Y46*%
G04 Gerber Fmt 4.6, Leading zero omitted, Abs format (unit mm)*
G04 Created by KiCad (PCBNEW 9.0.7) date 2026-06-13 17:27:19*
%MOMM*%
%LPD*%
G01*
G04 APERTURE LIST*
%ADD10C,0.300000*%
%ADD11C,0.150000*%
%ADD12C,0.120000*%
%ADD13C,0.127000*%
%ADD14C,0.200000*%
%ADD15C,0.152400*%
%ADD16C,0.508000*%
G04 APERTURE END LIST*
D10*
X81157971Y-67113346D02*
X81229400Y-67184774D01*
X81229400Y-67184774D02*
X81300828Y-67399060D01*
X81300828Y-67399060D02*
X81300828Y-67541917D01*
X81300828Y-67541917D02*
X81229400Y-67756203D01*
X81229400Y-67756203D02*
X81086542Y-67899060D01*
X81086542Y-67899060D02*
X80943685Y-67970489D01*
X80943685Y-67970489D02*
X80657971Y-68041917D01*
X80657971Y-68041917D02*
X80443685Y-68041917D01*
X80443685Y-68041917D02*
X80157971Y-67970489D01*
X80157971Y-67970489D02*
X80015114Y-67899060D01*
X80015114Y-67899060D02*
X79872257Y-67756203D01*
X79872257Y-67756203D02*
X79800828Y-67541917D01*
X79800828Y-67541917D02*
X79800828Y-67399060D01*
X79800828Y-67399060D02*
X79872257Y-67184774D01*
X79872257Y-67184774D02*
X79943685Y-67113346D01*
X79075828Y-67995489D02*
X77575828Y-67995489D01*
X77575828Y-67995489D02*
X77575828Y-67424060D01*
X77575828Y-67424060D02*
X77647257Y-67281203D01*
X77647257Y-67281203D02*
X77718685Y-67209774D01*
X77718685Y-67209774D02*
X77861542Y-67138346D01*
X77861542Y-67138346D02*
X78075828Y-67138346D01*
X78075828Y-67138346D02*
X78218685Y-67209774D01*
X78218685Y-67209774D02*
X78290114Y-67281203D01*
X78290114Y-67281203D02*
X78361542Y-67424060D01*
X78361542Y-67424060D02*
X78361542Y-67995489D01*
D11*
X75933333Y-68079819D02*
X75600000Y-67603628D01*
X75361905Y-68079819D02*
X75361905Y-67079819D01*
X75361905Y-67079819D02*
X75742857Y-67079819D01*
X75742857Y-67079819D02*
X75838095Y-67127438D01*
X75838095Y-67127438D02*
X75885714Y-67175057D01*
X75885714Y-67175057D02*
X75933333Y-67270295D01*
X75933333Y-67270295D02*
X75933333Y-67413152D01*
X75933333Y-67413152D02*
X75885714Y-67508390D01*
X75885714Y-67508390D02*
X75838095Y-67556009D01*
X75838095Y-67556009D02*
X75742857Y-67603628D01*
X75742857Y-67603628D02*
X75361905Y-67603628D01*
X76838095Y-67079819D02*
X76361905Y-67079819D01*
X76361905Y-67079819D02*
X76314286Y-67556009D01*
X76314286Y-67556009D02*
X76361905Y-67508390D01*
X76361905Y-67508390D02*
X76457143Y-67460771D01*
X76457143Y-67460771D02*
X76695238Y-67460771D01*
X76695238Y-67460771D02*
X76790476Y-67508390D01*
X76790476Y-67508390D02*
X76838095Y-67556009D01*
X76838095Y-67556009D02*
X76885714Y-67651247D01*
X76885714Y-67651247D02*
X76885714Y-67889342D01*
X76885714Y-67889342D02*
X76838095Y-67984580D01*
X76838095Y-67984580D02*
X76790476Y-68032200D01*
X76790476Y-68032200D02*
X76695238Y-68079819D01*
X76695238Y-68079819D02*
X76457143Y-68079819D01*
X76457143Y-68079819D02*
X76361905Y-68032200D01*
X76361905Y-68032200D02*
X76314286Y-67984580D01*
X69429333Y-46428819D02*
X69096000Y-45952628D01*
X68857905Y-46428819D02*
X68857905Y-45428819D01*
X68857905Y-45428819D02*
X69238857Y-45428819D01*
X69238857Y-45428819D02*
X69334095Y-45476438D01*
X69334095Y-45476438D02*
X69381714Y-45524057D01*
X69381714Y-45524057D02*
X69429333Y-45619295D01*
X69429333Y-45619295D02*
X69429333Y-45762152D01*
X69429333Y-45762152D02*
X69381714Y-45857390D01*
X69381714Y-45857390D02*
X69334095Y-45905009D01*
X69334095Y-45905009D02*
X69238857Y-45952628D01*
X69238857Y-45952628D02*
X68857905Y-45952628D01*
X70381714Y-46428819D02*
X69810286Y-46428819D01*
X70096000Y-46428819D02*
X70096000Y-45428819D01*
X70096000Y-45428819D02*
X70000762Y-45571676D01*
X70000762Y-45571676D02*
X69905524Y-45666914D01*
X69905524Y-45666914D02*
X69810286Y-45714533D01*
X70358333Y-65854819D02*
X70025000Y-65378628D01*
X69786905Y-65854819D02*
X69786905Y-64854819D01*
X69786905Y-64854819D02*
X70167857Y-64854819D01*
X70167857Y-64854819D02*
X70263095Y-64902438D01*
X70263095Y-64902438D02*
X70310714Y-64950057D01*
X70310714Y-64950057D02*
X70358333Y-65045295D01*
X70358333Y-65045295D02*
X70358333Y-65188152D01*
X70358333Y-65188152D02*
X70310714Y-65283390D01*
X70310714Y-65283390D02*
X70263095Y-65331009D01*
X70263095Y-65331009D02*
X70167857Y-65378628D01*
X70167857Y-65378628D02*
X69786905Y-65378628D01*
X70691667Y-64854819D02*
X71358333Y-64854819D01*
X71358333Y-64854819D02*
X70929762Y-65854819D01*
X81836905Y-66579819D02*
X81836905Y-65579819D01*
X81836905Y-65579819D02*
X82075000Y-65579819D01*
X82075000Y-65579819D02*
X82217857Y-65627438D01*
X82217857Y-65627438D02*
X82313095Y-65722676D01*
X82313095Y-65722676D02*
X82360714Y-65817914D01*
X82360714Y-65817914D02*
X82408333Y-66008390D01*
X82408333Y-66008390D02*
X82408333Y-66151247D01*
X82408333Y-66151247D02*
X82360714Y-66341723D01*
X82360714Y-66341723D02*
X82313095Y-66436961D01*
X82313095Y-66436961D02*
X82217857Y-66532200D01*
X82217857Y-66532200D02*
X82075000Y-66579819D01*
X82075000Y-66579819D02*
X81836905Y-66579819D01*
X82789286Y-65675057D02*
X82836905Y-65627438D01*
X82836905Y-65627438D02*
X82932143Y-65579819D01*
X82932143Y-65579819D02*
X83170238Y-65579819D01*
X83170238Y-65579819D02*
X83265476Y-65627438D01*
X83265476Y-65627438D02*
X83313095Y-65675057D01*
X83313095Y-65675057D02*
X83360714Y-65770295D01*
X83360714Y-65770295D02*
X83360714Y-65865533D01*
X83360714Y-65865533D02*
X83313095Y-66008390D01*
X83313095Y-66008390D02*
X82741667Y-66579819D01*
X82741667Y-66579819D02*
X83360714Y-66579819D01*
X65279819Y-67488094D02*
X64279819Y-67488094D01*
X64279819Y-67488094D02*
X64279819Y-67249999D01*
X64279819Y-67249999D02*
X64327438Y-67107142D01*
X64327438Y-67107142D02*
X64422676Y-67011904D01*
X64422676Y-67011904D02*
X64517914Y-66964285D01*
X64517914Y-66964285D02*
X64708390Y-66916666D01*
X64708390Y-66916666D02*
X64851247Y-66916666D01*
X64851247Y-66916666D02*
X65041723Y-66964285D01*
X65041723Y-66964285D02*
X65136961Y-67011904D01*
X65136961Y-67011904D02*
X65232200Y-67107142D01*
X65232200Y-67107142D02*
X65279819Y-67249999D01*
X65279819Y-67249999D02*
X65279819Y-67488094D01*
X64279819Y-66583332D02*
X64279819Y-65964285D01*
X64279819Y-65964285D02*
X64660771Y-66297618D01*
X64660771Y-66297618D02*
X64660771Y-66154761D01*
X64660771Y-66154761D02*
X64708390Y-66059523D01*
X64708390Y-66059523D02*
X64756009Y-66011904D01*
X64756009Y-66011904D02*
X64851247Y-65964285D01*
X64851247Y-65964285D02*
X65089342Y-65964285D01*
X65089342Y-65964285D02*
X65184580Y-66011904D01*
X65184580Y-66011904D02*
X65232200Y-66059523D01*
X65232200Y-66059523D02*
X65279819Y-66154761D01*
X65279819Y-66154761D02*
X65279819Y-66440475D01*
X65279819Y-66440475D02*
X65232200Y-66535713D01*
X65232200Y-66535713D02*
X65184580Y-66583332D01*
X63351580Y-64650857D02*
X63399200Y-64698476D01*
X63399200Y-64698476D02*
X63446819Y-64841333D01*
X63446819Y-64841333D02*
X63446819Y-64936571D01*
X63446819Y-64936571D02*
X63399200Y-65079428D01*
X63399200Y-65079428D02*
X63303961Y-65174666D01*
X63303961Y-65174666D02*
X63208723Y-65222285D01*
X63208723Y-65222285D02*
X63018247Y-65269904D01*
X63018247Y-65269904D02*
X62875390Y-65269904D01*
X62875390Y-65269904D02*
X62684914Y-65222285D01*
X62684914Y-65222285D02*
X62589676Y-65174666D01*
X62589676Y-65174666D02*
X62494438Y-65079428D01*
X62494438Y-65079428D02*
X62446819Y-64936571D01*
X62446819Y-64936571D02*
X62446819Y-64841333D01*
X62446819Y-64841333D02*
X62494438Y-64698476D01*
X62494438Y-64698476D02*
X62542057Y-64650857D01*
X63446819Y-63698476D02*
X63446819Y-64269904D01*
X63446819Y-63984190D02*
X62446819Y-63984190D01*
X62446819Y-63984190D02*
X62589676Y-64079428D01*
X62589676Y-64079428D02*
X62684914Y-64174666D01*
X62684914Y-64174666D02*
X62732533Y-64269904D01*
X62446819Y-63079428D02*
X62446819Y-62984190D01*
X62446819Y-62984190D02*
X62494438Y-62888952D01*
X62494438Y-62888952D02*
X62542057Y-62841333D01*
X62542057Y-62841333D02*
X62637295Y-62793714D01*
X62637295Y-62793714D02*
X62827771Y-62746095D01*
X62827771Y-62746095D02*
X63065866Y-62746095D01*
X63065866Y-62746095D02*
X63256342Y-62793714D01*
X63256342Y-62793714D02*
X63351580Y-62841333D01*
X63351580Y-62841333D02*
X63399200Y-62888952D01*
X63399200Y-62888952D02*
X63446819Y-62984190D01*
X63446819Y-62984190D02*
X63446819Y-63079428D01*
X63446819Y-63079428D02*
X63399200Y-63174666D01*
X63399200Y-63174666D02*
X63351580Y-63222285D01*
X63351580Y-63222285D02*
X63256342Y-63269904D01*
X63256342Y-63269904D02*
X63065866Y-63317523D01*
X63065866Y-63317523D02*
X62827771Y-63317523D01*
X62827771Y-63317523D02*
X62637295Y-63269904D01*
X62637295Y-63269904D02*
X62542057Y-63222285D01*
X62542057Y-63222285D02*
X62494438Y-63174666D01*
X62494438Y-63174666D02*
X62446819Y-63079428D01*
X75779333Y-59795580D02*
X75731714Y-59843200D01*
X75731714Y-59843200D02*
X75588857Y-59890819D01*
X75588857Y-59890819D02*
X75493619Y-59890819D01*
X75493619Y-59890819D02*
X75350762Y-59843200D01*
X75350762Y-59843200D02*
X75255524Y-59747961D01*
X75255524Y-59747961D02*
X75207905Y-59652723D01*
X75207905Y-59652723D02*
X75160286Y-59462247D01*
X75160286Y-59462247D02*
X75160286Y-59319390D01*
X75160286Y-59319390D02*
X75207905Y-59128914D01*
X75207905Y-59128914D02*
X75255524Y-59033676D01*
X75255524Y-59033676D02*
X75350762Y-58938438D01*
X75350762Y-58938438D02*
X75493619Y-58890819D01*
X75493619Y-58890819D02*
X75588857Y-58890819D01*
X75588857Y-58890819D02*
X75731714Y-58938438D01*
X75731714Y-58938438D02*
X75779333Y-58986057D01*
X76112667Y-58890819D02*
X76731714Y-58890819D01*
X76731714Y-58890819D02*
X76398381Y-59271771D01*
X76398381Y-59271771D02*
X76541238Y-59271771D01*
X76541238Y-59271771D02*
X76636476Y-59319390D01*
X76636476Y-59319390D02*
X76684095Y-59367009D01*
X76684095Y-59367009D02*
X76731714Y-59462247D01*
X76731714Y-59462247D02*
X76731714Y-59700342D01*
X76731714Y-59700342D02*
X76684095Y-59795580D01*
X76684095Y-59795580D02*
X76636476Y-59843200D01*
X76636476Y-59843200D02*
X76541238Y-59890819D01*
X76541238Y-59890819D02*
X76255524Y-59890819D01*
X76255524Y-59890819D02*
X76160286Y-59843200D01*
X76160286Y-59843200D02*
X76112667Y-59795580D01*
X71715333Y-62081580D02*
X71667714Y-62129200D01*
X71667714Y-62129200D02*
X71524857Y-62176819D01*
X71524857Y-62176819D02*
X71429619Y-62176819D01*
X71429619Y-62176819D02*
X71286762Y-62129200D01*
X71286762Y-62129200D02*
X71191524Y-62033961D01*
X71191524Y-62033961D02*
X71143905Y-61938723D01*
X71143905Y-61938723D02*
X71096286Y-61748247D01*
X71096286Y-61748247D02*
X71096286Y-61605390D01*
X71096286Y-61605390D02*
X71143905Y-61414914D01*
X71143905Y-61414914D02*
X71191524Y-61319676D01*
X71191524Y-61319676D02*
X71286762Y-61224438D01*
X71286762Y-61224438D02*
X71429619Y-61176819D01*
X71429619Y-61176819D02*
X71524857Y-61176819D01*
X71524857Y-61176819D02*
X71667714Y-61224438D01*
X71667714Y-61224438D02*
X71715333Y-61272057D01*
X72620095Y-61176819D02*
X72143905Y-61176819D01*
X72143905Y-61176819D02*
X72096286Y-61653009D01*
X72096286Y-61653009D02*
X72143905Y-61605390D01*
X72143905Y-61605390D02*
X72239143Y-61557771D01*
X72239143Y-61557771D02*
X72477238Y-61557771D01*
X72477238Y-61557771D02*
X72572476Y-61605390D01*
X72572476Y-61605390D02*
X72620095Y-61653009D01*
X72620095Y-61653009D02*
X72667714Y-61748247D01*
X72667714Y-61748247D02*
X72667714Y-61986342D01*
X72667714Y-61986342D02*
X72620095Y-62081580D01*
X72620095Y-62081580D02*
X72572476Y-62129200D01*
X72572476Y-62129200D02*
X72477238Y-62176819D01*
X72477238Y-62176819D02*
X72239143Y-62176819D01*
X72239143Y-62176819D02*
X72143905Y-62129200D01*
X72143905Y-62129200D02*
X72096286Y-62081580D01*
X63167319Y-53583333D02*
X63881604Y-53583333D01*
X63881604Y-53583333D02*
X64024461Y-53630952D01*
X64024461Y-53630952D02*
X64119700Y-53726190D01*
X64119700Y-53726190D02*
X64167319Y-53869047D01*
X64167319Y-53869047D02*
X64167319Y-53964285D01*
X64167319Y-52583333D02*
X64167319Y-53154761D01*
X64167319Y-52869047D02*
X63167319Y-52869047D01*
X63167319Y-52869047D02*
X63310176Y-52964285D01*
X63310176Y-52964285D02*
X63405414Y-53059523D01*
X63405414Y-53059523D02*
X63453033Y-53154761D01*
X68104819Y-47466666D02*
X67628628Y-47799999D01*
X68104819Y-48038094D02*
X67104819Y-48038094D01*
X67104819Y-48038094D02*
X67104819Y-47657142D01*
X67104819Y-47657142D02*
X67152438Y-47561904D01*
X67152438Y-47561904D02*
X67200057Y-47514285D01*
X67200057Y-47514285D02*
X67295295Y-47466666D01*
X67295295Y-47466666D02*
X67438152Y-47466666D01*
X67438152Y-47466666D02*
X67533390Y-47514285D01*
X67533390Y-47514285D02*
X67581009Y-47561904D01*
X67581009Y-47561904D02*
X67628628Y-47657142D01*
X67628628Y-47657142D02*
X67628628Y-48038094D01*
X68104819Y-46990475D02*
X68104819Y-46799999D01*
X68104819Y-46799999D02*
X68057200Y-46704761D01*
X68057200Y-46704761D02*
X68009580Y-46657142D01*
X68009580Y-46657142D02*
X67866723Y-46561904D01*
X67866723Y-46561904D02*
X67676247Y-46514285D01*
X67676247Y-46514285D02*
X67295295Y-46514285D01*
X67295295Y-46514285D02*
X67200057Y-46561904D01*
X67200057Y-46561904D02*
X67152438Y-46609523D01*
X67152438Y-46609523D02*
X67104819Y-46704761D01*
X67104819Y-46704761D02*
X67104819Y-46895237D01*
X67104819Y-46895237D02*
X67152438Y-46990475D01*
X67152438Y-46990475D02*
X67200057Y-47038094D01*
X67200057Y-47038094D02*
X67295295Y-47085713D01*
X67295295Y-47085713D02*
X67533390Y-47085713D01*
X67533390Y-47085713D02*
X67628628Y-47038094D01*
X67628628Y-47038094D02*
X67676247Y-46990475D01*
X67676247Y-46990475D02*
X67723866Y-46895237D01*
X67723866Y-46895237D02*
X67723866Y-46704761D01*
X67723866Y-46704761D02*
X67676247Y-46609523D01*
X67676247Y-46609523D02*
X67628628Y-46561904D01*
X67628628Y-46561904D02*
X67533390Y-46514285D01*
X64857333Y-41761580D02*
X64809714Y-41809200D01*
X64809714Y-41809200D02*
X64666857Y-41856819D01*
X64666857Y-41856819D02*
X64571619Y-41856819D01*
X64571619Y-41856819D02*
X64428762Y-41809200D01*
X64428762Y-41809200D02*
X64333524Y-41713961D01*
X64333524Y-41713961D02*
X64285905Y-41618723D01*
X64285905Y-41618723D02*
X64238286Y-41428247D01*
X64238286Y-41428247D02*
X64238286Y-41285390D01*
X64238286Y-41285390D02*
X64285905Y-41094914D01*
X64285905Y-41094914D02*
X64333524Y-40999676D01*
X64333524Y-40999676D02*
X64428762Y-40904438D01*
X64428762Y-40904438D02*
X64571619Y-40856819D01*
X64571619Y-40856819D02*
X64666857Y-40856819D01*
X64666857Y-40856819D02*
X64809714Y-40904438D01*
X64809714Y-40904438D02*
X64857333Y-40952057D01*
X65333524Y-41856819D02*
X65524000Y-41856819D01*
X65524000Y-41856819D02*
X65619238Y-41809200D01*
X65619238Y-41809200D02*
X65666857Y-41761580D01*
X65666857Y-41761580D02*
X65762095Y-41618723D01*
X65762095Y-41618723D02*
X65809714Y-41428247D01*
X65809714Y-41428247D02*
X65809714Y-41047295D01*
X65809714Y-41047295D02*
X65762095Y-40952057D01*
X65762095Y-40952057D02*
X65714476Y-40904438D01*
X65714476Y-40904438D02*
X65619238Y-40856819D01*
X65619238Y-40856819D02*
X65428762Y-40856819D01*
X65428762Y-40856819D02*
X65333524Y-40904438D01*
X65333524Y-40904438D02*
X65285905Y-40952057D01*
X65285905Y-40952057D02*
X65238286Y-41047295D01*
X65238286Y-41047295D02*
X65238286Y-41285390D01*
X65238286Y-41285390D02*
X65285905Y-41380628D01*
X65285905Y-41380628D02*
X65333524Y-41428247D01*
X65333524Y-41428247D02*
X65428762Y-41475866D01*
X65428762Y-41475866D02*
X65619238Y-41475866D01*
X65619238Y-41475866D02*
X65714476Y-41428247D01*
X65714476Y-41428247D02*
X65762095Y-41380628D01*
X65762095Y-41380628D02*
X65809714Y-41285390D01*
X73770238Y-68083447D02*
X73436905Y-67607256D01*
X73198810Y-68083447D02*
X73198810Y-67083447D01*
X73198810Y-67083447D02*
X73579762Y-67083447D01*
X73579762Y-67083447D02*
X73675000Y-67131066D01*
X73675000Y-67131066D02*
X73722619Y-67178685D01*
X73722619Y-67178685D02*
X73770238Y-67273923D01*
X73770238Y-67273923D02*
X73770238Y-67416780D01*
X73770238Y-67416780D02*
X73722619Y-67512018D01*
X73722619Y-67512018D02*
X73675000Y-67559637D01*
X73675000Y-67559637D02*
X73579762Y-67607256D01*
X73579762Y-67607256D02*
X73198810Y-67607256D01*
X74627381Y-67083447D02*
X74436905Y-67083447D01*
X74436905Y-67083447D02*
X74341667Y-67131066D01*
X74341667Y-67131066D02*
X74294048Y-67178685D01*
X74294048Y-67178685D02*
X74198810Y-67321542D01*
X74198810Y-67321542D02*
X74151191Y-67512018D01*
X74151191Y-67512018D02*
X74151191Y-67892970D01*
X74151191Y-67892970D02*
X74198810Y-67988208D01*
X74198810Y-67988208D02*
X74246429Y-68035828D01*
X74246429Y-68035828D02*
X74341667Y-68083447D01*
X74341667Y-68083447D02*
X74532143Y-68083447D01*
X74532143Y-68083447D02*
X74627381Y-68035828D01*
X74627381Y-68035828D02*
X74675000Y-67988208D01*
X74675000Y-67988208D02*
X74722619Y-67892970D01*
X74722619Y-67892970D02*
X74722619Y-67654875D01*
X74722619Y-67654875D02*
X74675000Y-67559637D01*
X74675000Y-67559637D02*
X74627381Y-67512018D01*
X74627381Y-67512018D02*
X74532143Y-67464399D01*
X74532143Y-67464399D02*
X74341667Y-67464399D01*
X74341667Y-67464399D02*
X74246429Y-67512018D01*
X74246429Y-67512018D02*
X74198810Y-67559637D01*
X74198810Y-67559637D02*
X74151191Y-67654875D01*
X81559580Y-49866666D02*
X81607200Y-49914285D01*
X81607200Y-49914285D02*
X81654819Y-50057142D01*
X81654819Y-50057142D02*
X81654819Y-50152380D01*
X81654819Y-50152380D02*
X81607200Y-50295237D01*
X81607200Y-50295237D02*
X81511961Y-50390475D01*
X81511961Y-50390475D02*
X81416723Y-50438094D01*
X81416723Y-50438094D02*
X81226247Y-50485713D01*
X81226247Y-50485713D02*
X81083390Y-50485713D01*
X81083390Y-50485713D02*
X80892914Y-50438094D01*
X80892914Y-50438094D02*
X80797676Y-50390475D01*
X80797676Y-50390475D02*
X80702438Y-50295237D01*
X80702438Y-50295237D02*
X80654819Y-50152380D01*
X80654819Y-50152380D02*
X80654819Y-50057142D01*
X80654819Y-50057142D02*
X80702438Y-49914285D01*
X80702438Y-49914285D02*
X80750057Y-49866666D01*
X80988152Y-49009523D02*
X81654819Y-49009523D01*
X80607200Y-49247618D02*
X81321485Y-49485713D01*
X81321485Y-49485713D02*
X81321485Y-48866666D01*
X75525333Y-47450819D02*
X75192000Y-46974628D01*
X74953905Y-47450819D02*
X74953905Y-46450819D01*
X74953905Y-46450819D02*
X75334857Y-46450819D01*
X75334857Y-46450819D02*
X75430095Y-46498438D01*
X75430095Y-46498438D02*
X75477714Y-46546057D01*
X75477714Y-46546057D02*
X75525333Y-46641295D01*
X75525333Y-46641295D02*
X75525333Y-46784152D01*
X75525333Y-46784152D02*
X75477714Y-46879390D01*
X75477714Y-46879390D02*
X75430095Y-46927009D01*
X75430095Y-46927009D02*
X75334857Y-46974628D01*
X75334857Y-46974628D02*
X74953905Y-46974628D01*
X76382476Y-46784152D02*
X76382476Y-47450819D01*
X76144381Y-46403200D02*
X75906286Y-47117485D01*
X75906286Y-47117485D02*
X76525333Y-47117485D01*
X87054819Y-54211904D02*
X87864342Y-54211904D01*
X87864342Y-54211904D02*
X87959580Y-54164285D01*
X87959580Y-54164285D02*
X88007200Y-54116666D01*
X88007200Y-54116666D02*
X88054819Y-54021428D01*
X88054819Y-54021428D02*
X88054819Y-53830952D01*
X88054819Y-53830952D02*
X88007200Y-53735714D01*
X88007200Y-53735714D02*
X87959580Y-53688095D01*
X87959580Y-53688095D02*
X87864342Y-53640476D01*
X87864342Y-53640476D02*
X87054819Y-53640476D01*
X87054819Y-52735714D02*
X87054819Y-52926190D01*
X87054819Y-52926190D02*
X87102438Y-53021428D01*
X87102438Y-53021428D02*
X87150057Y-53069047D01*
X87150057Y-53069047D02*
X87292914Y-53164285D01*
X87292914Y-53164285D02*
X87483390Y-53211904D01*
X87483390Y-53211904D02*
X87864342Y-53211904D01*
X87864342Y-53211904D02*
X87959580Y-53164285D01*
X87959580Y-53164285D02*
X88007200Y-53116666D01*
X88007200Y-53116666D02*
X88054819Y-53021428D01*
X88054819Y-53021428D02*
X88054819Y-52830952D01*
X88054819Y-52830952D02*
X88007200Y-52735714D01*
X88007200Y-52735714D02*
X87959580Y-52688095D01*
X87959580Y-52688095D02*
X87864342Y-52640476D01*
X87864342Y-52640476D02*
X87626247Y-52640476D01*
X87626247Y-52640476D02*
X87531009Y-52688095D01*
X87531009Y-52688095D02*
X87483390Y-52735714D01*
X87483390Y-52735714D02*
X87435771Y-52830952D01*
X87435771Y-52830952D02*
X87435771Y-53021428D01*
X87435771Y-53021428D02*
X87483390Y-53116666D01*
X87483390Y-53116666D02*
X87531009Y-53164285D01*
X87531009Y-53164285D02*
X87626247Y-53211904D01*
X78591580Y-41028857D02*
X78639200Y-41076476D01*
X78639200Y-41076476D02*
X78686819Y-41219333D01*
X78686819Y-41219333D02*
X78686819Y-41314571D01*
X78686819Y-41314571D02*
X78639200Y-41457428D01*
X78639200Y-41457428D02*
X78543961Y-41552666D01*
X78543961Y-41552666D02*
X78448723Y-41600285D01*
X78448723Y-41600285D02*
X78258247Y-41647904D01*
X78258247Y-41647904D02*
X78115390Y-41647904D01*
X78115390Y-41647904D02*
X77924914Y-41600285D01*
X77924914Y-41600285D02*
X77829676Y-41552666D01*
X77829676Y-41552666D02*
X77734438Y-41457428D01*
X77734438Y-41457428D02*
X77686819Y-41314571D01*
X77686819Y-41314571D02*
X77686819Y-41219333D01*
X77686819Y-41219333D02*
X77734438Y-41076476D01*
X77734438Y-41076476D02*
X77782057Y-41028857D01*
X78686819Y-40076476D02*
X78686819Y-40647904D01*
X78686819Y-40362190D02*
X77686819Y-40362190D01*
X77686819Y-40362190D02*
X77829676Y-40457428D01*
X77829676Y-40457428D02*
X77924914Y-40552666D01*
X77924914Y-40552666D02*
X77972533Y-40647904D01*
X78686819Y-39124095D02*
X78686819Y-39695523D01*
X78686819Y-39409809D02*
X77686819Y-39409809D01*
X77686819Y-39409809D02*
X77829676Y-39505047D01*
X77829676Y-39505047D02*
X77924914Y-39600285D01*
X77924914Y-39600285D02*
X77972533Y-39695523D01*
X104891666Y-64129819D02*
X104891666Y-64844104D01*
X104891666Y-64844104D02*
X104844047Y-64986961D01*
X104844047Y-64986961D02*
X104748809Y-65082200D01*
X104748809Y-65082200D02*
X104605952Y-65129819D01*
X104605952Y-65129819D02*
X104510714Y-65129819D01*
X105320238Y-64225057D02*
X105367857Y-64177438D01*
X105367857Y-64177438D02*
X105463095Y-64129819D01*
X105463095Y-64129819D02*
X105701190Y-64129819D01*
X105701190Y-64129819D02*
X105796428Y-64177438D01*
X105796428Y-64177438D02*
X105844047Y-64225057D01*
X105844047Y-64225057D02*
X105891666Y-64320295D01*
X105891666Y-64320295D02*
X105891666Y-64415533D01*
X105891666Y-64415533D02*
X105844047Y-64558390D01*
X105844047Y-64558390D02*
X105272619Y-65129819D01*
X105272619Y-65129819D02*
X105891666Y-65129819D01*
X65758332Y-60267800D02*
X65615475Y-60220180D01*
X65615475Y-60220180D02*
X65377380Y-60220180D01*
X65377380Y-60220180D02*
X65282142Y-60267800D01*
X65282142Y-60267800D02*
X65234523Y-60315419D01*
X65234523Y-60315419D02*
X65186904Y-60410657D01*
X65186904Y-60410657D02*
X65186904Y-60505895D01*
X65186904Y-60505895D02*
X65234523Y-60601133D01*
X65234523Y-60601133D02*
X65282142Y-60648752D01*
X65282142Y-60648752D02*
X65377380Y-60696371D01*
X65377380Y-60696371D02*
X65567856Y-60743990D01*
X65567856Y-60743990D02*
X65663094Y-60791609D01*
X65663094Y-60791609D02*
X65710713Y-60839228D01*
X65710713Y-60839228D02*
X65758332Y-60934466D01*
X65758332Y-60934466D02*
X65758332Y-61029704D01*
X65758332Y-61029704D02*
X65710713Y-61124942D01*
X65710713Y-61124942D02*
X65663094Y-61172561D01*
X65663094Y-61172561D02*
X65567856Y-61220180D01*
X65567856Y-61220180D02*
X65329761Y-61220180D01*
X65329761Y-61220180D02*
X65186904Y-61172561D01*
X64853570Y-61220180D02*
X64615475Y-60220180D01*
X64615475Y-60220180D02*
X64424999Y-60934466D01*
X64424999Y-60934466D02*
X64234523Y-60220180D01*
X64234523Y-60220180D02*
X63996428Y-61220180D01*
X63091666Y-60220180D02*
X63663094Y-60220180D01*
X63377380Y-60220180D02*
X63377380Y-61220180D01*
X63377380Y-61220180D02*
X63472618Y-61077323D01*
X63472618Y-61077323D02*
X63567856Y-60982085D01*
X63567856Y-60982085D02*
X63663094Y-60934466D01*
X67400000Y-62679819D02*
X67400000Y-62917914D01*
X67161905Y-62822676D02*
X67400000Y-62917914D01*
X67400000Y-62917914D02*
X67638095Y-62822676D01*
X67257143Y-63108390D02*
X67400000Y-62917914D01*
X67400000Y-62917914D02*
X67542857Y-63108390D01*
X66575000Y-62704819D02*
X66575000Y-62942914D01*
X66336905Y-62847676D02*
X66575000Y-62942914D01*
X66575000Y-62942914D02*
X66813095Y-62847676D01*
X66432143Y-63133390D02*
X66575000Y-62942914D01*
X66575000Y-62942914D02*
X66717857Y-63133390D01*
X84020819Y-55284666D02*
X83544628Y-55617999D01*
X84020819Y-55856094D02*
X83020819Y-55856094D01*
X83020819Y-55856094D02*
X83020819Y-55475142D01*
X83020819Y-55475142D02*
X83068438Y-55379904D01*
X83068438Y-55379904D02*
X83116057Y-55332285D01*
X83116057Y-55332285D02*
X83211295Y-55284666D01*
X83211295Y-55284666D02*
X83354152Y-55284666D01*
X83354152Y-55284666D02*
X83449390Y-55332285D01*
X83449390Y-55332285D02*
X83497009Y-55379904D01*
X83497009Y-55379904D02*
X83544628Y-55475142D01*
X83544628Y-55475142D02*
X83544628Y-55856094D01*
X83020819Y-54951332D02*
X83020819Y-54332285D01*
X83020819Y-54332285D02*
X83401771Y-54665618D01*
X83401771Y-54665618D02*
X83401771Y-54522761D01*
X83401771Y-54522761D02*
X83449390Y-54427523D01*
X83449390Y-54427523D02*
X83497009Y-54379904D01*
X83497009Y-54379904D02*
X83592247Y-54332285D01*
X83592247Y-54332285D02*
X83830342Y-54332285D01*
X83830342Y-54332285D02*
X83925580Y-54379904D01*
X83925580Y-54379904D02*
X83973200Y-54427523D01*
X83973200Y-54427523D02*
X84020819Y-54522761D01*
X84020819Y-54522761D02*
X84020819Y-54808475D01*
X84020819Y-54808475D02*
X83973200Y-54903713D01*
X83973200Y-54903713D02*
X83925580Y-54951332D01*
X69323095Y-36964819D02*
X69323095Y-37774342D01*
X69323095Y-37774342D02*
X69370714Y-37869580D01*
X69370714Y-37869580D02*
X69418333Y-37917200D01*
X69418333Y-37917200D02*
X69513571Y-37964819D01*
X69513571Y-37964819D02*
X69704047Y-37964819D01*
X69704047Y-37964819D02*
X69799285Y-37917200D01*
X69799285Y-37917200D02*
X69846904Y-37869580D01*
X69846904Y-37869580D02*
X69894523Y-37774342D01*
X69894523Y-37774342D02*
X69894523Y-36964819D01*
X70846904Y-36964819D02*
X70370714Y-36964819D01*
X70370714Y-36964819D02*
X70323095Y-37441009D01*
X70323095Y-37441009D02*
X70370714Y-37393390D01*
X70370714Y-37393390D02*
X70465952Y-37345771D01*
X70465952Y-37345771D02*
X70704047Y-37345771D01*
X70704047Y-37345771D02*
X70799285Y-37393390D01*
X70799285Y-37393390D02*
X70846904Y-37441009D01*
X70846904Y-37441009D02*
X70894523Y-37536247D01*
X70894523Y-37536247D02*
X70894523Y-37774342D01*
X70894523Y-37774342D02*
X70846904Y-37869580D01*
X70846904Y-37869580D02*
X70799285Y-37917200D01*
X70799285Y-37917200D02*
X70704047Y-37964819D01*
X70704047Y-37964819D02*
X70465952Y-37964819D01*
X70465952Y-37964819D02*
X70370714Y-37917200D01*
X70370714Y-37917200D02*
X70323095Y-37869580D01*
X62928667Y-46381200D02*
X63071524Y-46428819D01*
X63071524Y-46428819D02*
X63309619Y-46428819D01*
X63309619Y-46428819D02*
X63404857Y-46381200D01*
X63404857Y-46381200D02*
X63452476Y-46333580D01*
X63452476Y-46333580D02*
X63500095Y-46238342D01*
X63500095Y-46238342D02*
X63500095Y-46143104D01*
X63500095Y-46143104D02*
X63452476Y-46047866D01*
X63452476Y-46047866D02*
X63404857Y-46000247D01*
X63404857Y-46000247D02*
X63309619Y-45952628D01*
X63309619Y-45952628D02*
X63119143Y-45905009D01*
X63119143Y-45905009D02*
X63023905Y-45857390D01*
X63023905Y-45857390D02*
X62976286Y-45809771D01*
X62976286Y-45809771D02*
X62928667Y-45714533D01*
X62928667Y-45714533D02*
X62928667Y-45619295D01*
X62928667Y-45619295D02*
X62976286Y-45524057D01*
X62976286Y-45524057D02*
X63023905Y-45476438D01*
X63023905Y-45476438D02*
X63119143Y-45428819D01*
X63119143Y-45428819D02*
X63357238Y-45428819D01*
X63357238Y-45428819D02*
X63500095Y-45476438D01*
X63833429Y-45428819D02*
X64071524Y-46428819D01*
X64071524Y-46428819D02*
X64262000Y-45714533D01*
X64262000Y-45714533D02*
X64452476Y-46428819D01*
X64452476Y-46428819D02*
X64690572Y-45428819D01*
X65023905Y-45524057D02*
X65071524Y-45476438D01*
X65071524Y-45476438D02*
X65166762Y-45428819D01*
X65166762Y-45428819D02*
X65404857Y-45428819D01*
X65404857Y-45428819D02*
X65500095Y-45476438D01*
X65500095Y-45476438D02*
X65547714Y-45524057D01*
X65547714Y-45524057D02*
X65595333Y-45619295D01*
X65595333Y-45619295D02*
X65595333Y-45714533D01*
X65595333Y-45714533D02*
X65547714Y-45857390D01*
X65547714Y-45857390D02*
X64976286Y-46428819D01*
X64976286Y-46428819D02*
X65595333Y-46428819D01*
X61875000Y-42979819D02*
X61875000Y-43217914D01*
X61636905Y-43122676D02*
X61875000Y-43217914D01*
X61875000Y-43217914D02*
X62113095Y-43122676D01*
X61732143Y-43408390D02*
X61875000Y-43217914D01*
X61875000Y-43217914D02*
X62017857Y-43408390D01*
X61875000Y-42279819D02*
X61875000Y-42517914D01*
X61636905Y-42422676D02*
X61875000Y-42517914D01*
X61875000Y-42517914D02*
X62113095Y-42422676D01*
X61732143Y-42708390D02*
X61875000Y-42517914D01*
X61875000Y-42517914D02*
X62017857Y-42708390D01*
X84204819Y-52416666D02*
X83728628Y-52749999D01*
X84204819Y-52988094D02*
X83204819Y-52988094D01*
X83204819Y-52988094D02*
X83204819Y-52607142D01*
X83204819Y-52607142D02*
X83252438Y-52511904D01*
X83252438Y-52511904D02*
X83300057Y-52464285D01*
X83300057Y-52464285D02*
X83395295Y-52416666D01*
X83395295Y-52416666D02*
X83538152Y-52416666D01*
X83538152Y-52416666D02*
X83633390Y-52464285D01*
X83633390Y-52464285D02*
X83681009Y-52511904D01*
X83681009Y-52511904D02*
X83728628Y-52607142D01*
X83728628Y-52607142D02*
X83728628Y-52988094D01*
X83300057Y-52035713D02*
X83252438Y-51988094D01*
X83252438Y-51988094D02*
X83204819Y-51892856D01*
X83204819Y-51892856D02*
X83204819Y-51654761D01*
X83204819Y-51654761D02*
X83252438Y-51559523D01*
X83252438Y-51559523D02*
X83300057Y-51511904D01*
X83300057Y-51511904D02*
X83395295Y-51464285D01*
X83395295Y-51464285D02*
X83490533Y-51464285D01*
X83490533Y-51464285D02*
X83633390Y-51511904D01*
X83633390Y-51511904D02*
X84204819Y-52083332D01*
X84204819Y-52083332D02*
X84204819Y-51464285D01*
X74001333Y-62081580D02*
X73953714Y-62129200D01*
X73953714Y-62129200D02*
X73810857Y-62176819D01*
X73810857Y-62176819D02*
X73715619Y-62176819D01*
X73715619Y-62176819D02*
X73572762Y-62129200D01*
X73572762Y-62129200D02*
X73477524Y-62033961D01*
X73477524Y-62033961D02*
X73429905Y-61938723D01*
X73429905Y-61938723D02*
X73382286Y-61748247D01*
X73382286Y-61748247D02*
X73382286Y-61605390D01*
X73382286Y-61605390D02*
X73429905Y-61414914D01*
X73429905Y-61414914D02*
X73477524Y-61319676D01*
X73477524Y-61319676D02*
X73572762Y-61224438D01*
X73572762Y-61224438D02*
X73715619Y-61176819D01*
X73715619Y-61176819D02*
X73810857Y-61176819D01*
X73810857Y-61176819D02*
X73953714Y-61224438D01*
X73953714Y-61224438D02*
X74001333Y-61272057D01*
X74382286Y-61272057D02*
X74429905Y-61224438D01*
X74429905Y-61224438D02*
X74525143Y-61176819D01*
X74525143Y-61176819D02*
X74763238Y-61176819D01*
X74763238Y-61176819D02*
X74858476Y-61224438D01*
X74858476Y-61224438D02*
X74906095Y-61272057D01*
X74906095Y-61272057D02*
X74953714Y-61367295D01*
X74953714Y-61367295D02*
X74953714Y-61462533D01*
X74953714Y-61462533D02*
X74906095Y-61605390D01*
X74906095Y-61605390D02*
X74334667Y-62176819D01*
X74334667Y-62176819D02*
X74953714Y-62176819D01*
X100417333Y-39983580D02*
X100369714Y-40031200D01*
X100369714Y-40031200D02*
X100226857Y-40078819D01*
X100226857Y-40078819D02*
X100131619Y-40078819D01*
X100131619Y-40078819D02*
X99988762Y-40031200D01*
X99988762Y-40031200D02*
X99893524Y-39935961D01*
X99893524Y-39935961D02*
X99845905Y-39840723D01*
X99845905Y-39840723D02*
X99798286Y-39650247D01*
X99798286Y-39650247D02*
X99798286Y-39507390D01*
X99798286Y-39507390D02*
X99845905Y-39316914D01*
X99845905Y-39316914D02*
X99893524Y-39221676D01*
X99893524Y-39221676D02*
X99988762Y-39126438D01*
X99988762Y-39126438D02*
X100131619Y-39078819D01*
X100131619Y-39078819D02*
X100226857Y-39078819D01*
X100226857Y-39078819D02*
X100369714Y-39126438D01*
X100369714Y-39126438D02*
X100417333Y-39174057D01*
X101274476Y-39078819D02*
X101084000Y-39078819D01*
X101084000Y-39078819D02*
X100988762Y-39126438D01*
X100988762Y-39126438D02*
X100941143Y-39174057D01*
X100941143Y-39174057D02*
X100845905Y-39316914D01*
X100845905Y-39316914D02*
X100798286Y-39507390D01*
X100798286Y-39507390D02*
X100798286Y-39888342D01*
X100798286Y-39888342D02*
X100845905Y-39983580D01*
X100845905Y-39983580D02*
X100893524Y-40031200D01*
X100893524Y-40031200D02*
X100988762Y-40078819D01*
X100988762Y-40078819D02*
X101179238Y-40078819D01*
X101179238Y-40078819D02*
X101274476Y-40031200D01*
X101274476Y-40031200D02*
X101322095Y-39983580D01*
X101322095Y-39983580D02*
X101369714Y-39888342D01*
X101369714Y-39888342D02*
X101369714Y-39650247D01*
X101369714Y-39650247D02*
X101322095Y-39555009D01*
X101322095Y-39555009D02*
X101274476Y-39507390D01*
X101274476Y-39507390D02*
X101179238Y-39459771D01*
X101179238Y-39459771D02*
X100988762Y-39459771D01*
X100988762Y-39459771D02*
X100893524Y-39507390D01*
X100893524Y-39507390D02*
X100845905Y-39555009D01*
X100845905Y-39555009D02*
X100798286Y-39650247D01*
X68857142Y-64134819D02*
X68523809Y-63658628D01*
X68285714Y-64134819D02*
X68285714Y-63134819D01*
X68285714Y-63134819D02*
X68666666Y-63134819D01*
X68666666Y-63134819D02*
X68761904Y-63182438D01*
X68761904Y-63182438D02*
X68809523Y-63230057D01*
X68809523Y-63230057D02*
X68857142Y-63325295D01*
X68857142Y-63325295D02*
X68857142Y-63468152D01*
X68857142Y-63468152D02*
X68809523Y-63563390D01*
X68809523Y-63563390D02*
X68761904Y-63611009D01*
X68761904Y-63611009D02*
X68666666Y-63658628D01*
X68666666Y-63658628D02*
X68285714Y-63658628D01*
X69809523Y-64134819D02*
X69238095Y-64134819D01*
X69523809Y-64134819D02*
X69523809Y-63134819D01*
X69523809Y-63134819D02*
X69428571Y-63277676D01*
X69428571Y-63277676D02*
X69333333Y-63372914D01*
X69333333Y-63372914D02*
X69238095Y-63420533D01*
X70761904Y-64134819D02*
X70190476Y-64134819D01*
X70476190Y-64134819D02*
X70476190Y-63134819D01*
X70476190Y-63134819D02*
X70380952Y-63277676D01*
X70380952Y-63277676D02*
X70285714Y-63372914D01*
X70285714Y-63372914D02*
X70190476Y-63420533D01*
X74883333Y-44047580D02*
X74835714Y-44095200D01*
X74835714Y-44095200D02*
X74692857Y-44142819D01*
X74692857Y-44142819D02*
X74597619Y-44142819D01*
X74597619Y-44142819D02*
X74454762Y-44095200D01*
X74454762Y-44095200D02*
X74359524Y-43999961D01*
X74359524Y-43999961D02*
X74311905Y-43904723D01*
X74311905Y-43904723D02*
X74264286Y-43714247D01*
X74264286Y-43714247D02*
X74264286Y-43571390D01*
X74264286Y-43571390D02*
X74311905Y-43380914D01*
X74311905Y-43380914D02*
X74359524Y-43285676D01*
X74359524Y-43285676D02*
X74454762Y-43190438D01*
X74454762Y-43190438D02*
X74597619Y-43142819D01*
X74597619Y-43142819D02*
X74692857Y-43142819D01*
X74692857Y-43142819D02*
X74835714Y-43190438D01*
X74835714Y-43190438D02*
X74883333Y-43238057D01*
X75454762Y-43571390D02*
X75359524Y-43523771D01*
X75359524Y-43523771D02*
X75311905Y-43476152D01*
X75311905Y-43476152D02*
X75264286Y-43380914D01*
X75264286Y-43380914D02*
X75264286Y-43333295D01*
X75264286Y-43333295D02*
X75311905Y-43238057D01*
X75311905Y-43238057D02*
X75359524Y-43190438D01*
X75359524Y-43190438D02*
X75454762Y-43142819D01*
X75454762Y-43142819D02*
X75645238Y-43142819D01*
X75645238Y-43142819D02*
X75740476Y-43190438D01*
X75740476Y-43190438D02*
X75788095Y-43238057D01*
X75788095Y-43238057D02*
X75835714Y-43333295D01*
X75835714Y-43333295D02*
X75835714Y-43380914D01*
X75835714Y-43380914D02*
X75788095Y-43476152D01*
X75788095Y-43476152D02*
X75740476Y-43523771D01*
X75740476Y-43523771D02*
X75645238Y-43571390D01*
X75645238Y-43571390D02*
X75454762Y-43571390D01*
X75454762Y-43571390D02*
X75359524Y-43619009D01*
X75359524Y-43619009D02*
X75311905Y-43666628D01*
X75311905Y-43666628D02*
X75264286Y-43761866D01*
X75264286Y-43761866D02*
X75264286Y-43952342D01*
X75264286Y-43952342D02*
X75311905Y-44047580D01*
X75311905Y-44047580D02*
X75359524Y-44095200D01*
X75359524Y-44095200D02*
X75454762Y-44142819D01*
X75454762Y-44142819D02*
X75645238Y-44142819D01*
X75645238Y-44142819D02*
X75740476Y-44095200D01*
X75740476Y-44095200D02*
X75788095Y-44047580D01*
X75788095Y-44047580D02*
X75835714Y-43952342D01*
X75835714Y-43952342D02*
X75835714Y-43761866D01*
X75835714Y-43761866D02*
X75788095Y-43666628D01*
X75788095Y-43666628D02*
X75740476Y-43619009D01*
X75740476Y-43619009D02*
X75645238Y-43571390D01*
X91991666Y-64329819D02*
X91991666Y-65044104D01*
X91991666Y-65044104D02*
X91944047Y-65186961D01*
X91944047Y-65186961D02*
X91848809Y-65282200D01*
X91848809Y-65282200D02*
X91705952Y-65329819D01*
X91705952Y-65329819D02*
X91610714Y-65329819D01*
X92896428Y-64329819D02*
X92705952Y-64329819D01*
X92705952Y-64329819D02*
X92610714Y-64377438D01*
X92610714Y-64377438D02*
X92563095Y-64425057D01*
X92563095Y-64425057D02*
X92467857Y-64567914D01*
X92467857Y-64567914D02*
X92420238Y-64758390D01*
X92420238Y-64758390D02*
X92420238Y-65139342D01*
X92420238Y-65139342D02*
X92467857Y-65234580D01*
X92467857Y-65234580D02*
X92515476Y-65282200D01*
X92515476Y-65282200D02*
X92610714Y-65329819D01*
X92610714Y-65329819D02*
X92801190Y-65329819D01*
X92801190Y-65329819D02*
X92896428Y-65282200D01*
X92896428Y-65282200D02*
X92944047Y-65234580D01*
X92944047Y-65234580D02*
X92991666Y-65139342D01*
X92991666Y-65139342D02*
X92991666Y-64901247D01*
X92991666Y-64901247D02*
X92944047Y-64806009D01*
X92944047Y-64806009D02*
X92896428Y-64758390D01*
X92896428Y-64758390D02*
X92801190Y-64710771D01*
X92801190Y-64710771D02*
X92610714Y-64710771D01*
X92610714Y-64710771D02*
X92515476Y-64758390D01*
X92515476Y-64758390D02*
X92467857Y-64806009D01*
X92467857Y-64806009D02*
X92420238Y-64901247D01*
X77379819Y-62617857D02*
X76903628Y-62951190D01*
X77379819Y-63189285D02*
X76379819Y-63189285D01*
X76379819Y-63189285D02*
X76379819Y-62808333D01*
X76379819Y-62808333D02*
X76427438Y-62713095D01*
X76427438Y-62713095D02*
X76475057Y-62665476D01*
X76475057Y-62665476D02*
X76570295Y-62617857D01*
X76570295Y-62617857D02*
X76713152Y-62617857D01*
X76713152Y-62617857D02*
X76808390Y-62665476D01*
X76808390Y-62665476D02*
X76856009Y-62713095D01*
X76856009Y-62713095D02*
X76903628Y-62808333D01*
X76903628Y-62808333D02*
X76903628Y-63189285D01*
X77379819Y-61665476D02*
X77379819Y-62236904D01*
X77379819Y-61951190D02*
X76379819Y-61951190D01*
X76379819Y-61951190D02*
X76522676Y-62046428D01*
X76522676Y-62046428D02*
X76617914Y-62141666D01*
X76617914Y-62141666D02*
X76665533Y-62236904D01*
X76379819Y-60760714D02*
X76379819Y-61236904D01*
X76379819Y-61236904D02*
X76856009Y-61284523D01*
X76856009Y-61284523D02*
X76808390Y-61236904D01*
X76808390Y-61236904D02*
X76760771Y-61141666D01*
X76760771Y-61141666D02*
X76760771Y-60903571D01*
X76760771Y-60903571D02*
X76808390Y-60808333D01*
X76808390Y-60808333D02*
X76856009Y-60760714D01*
X76856009Y-60760714D02*
X76951247Y-60713095D01*
X76951247Y-60713095D02*
X77189342Y-60713095D01*
X77189342Y-60713095D02*
X77284580Y-60760714D01*
X77284580Y-60760714D02*
X77332200Y-60808333D01*
X77332200Y-60808333D02*
X77379819Y-60903571D01*
X77379819Y-60903571D02*
X77379819Y-61141666D01*
X77379819Y-61141666D02*
X77332200Y-61236904D01*
X77332200Y-61236904D02*
X77284580Y-61284523D01*
X77833333Y-49759580D02*
X77785714Y-49807200D01*
X77785714Y-49807200D02*
X77642857Y-49854819D01*
X77642857Y-49854819D02*
X77547619Y-49854819D01*
X77547619Y-49854819D02*
X77404762Y-49807200D01*
X77404762Y-49807200D02*
X77309524Y-49711961D01*
X77309524Y-49711961D02*
X77261905Y-49616723D01*
X77261905Y-49616723D02*
X77214286Y-49426247D01*
X77214286Y-49426247D02*
X77214286Y-49283390D01*
X77214286Y-49283390D02*
X77261905Y-49092914D01*
X77261905Y-49092914D02*
X77309524Y-48997676D01*
X77309524Y-48997676D02*
X77404762Y-48902438D01*
X77404762Y-48902438D02*
X77547619Y-48854819D01*
X77547619Y-48854819D02*
X77642857Y-48854819D01*
X77642857Y-48854819D02*
X77785714Y-48902438D01*
X77785714Y-48902438D02*
X77833333Y-48950057D01*
X78785714Y-49854819D02*
X78214286Y-49854819D01*
X78500000Y-49854819D02*
X78500000Y-48854819D01*
X78500000Y-48854819D02*
X78404762Y-48997676D01*
X78404762Y-48997676D02*
X78309524Y-49092914D01*
X78309524Y-49092914D02*
X78214286Y-49140533D01*
X71413095Y-45554819D02*
X71413095Y-46364342D01*
X71413095Y-46364342D02*
X71460714Y-46459580D01*
X71460714Y-46459580D02*
X71508333Y-46507200D01*
X71508333Y-46507200D02*
X71603571Y-46554819D01*
X71603571Y-46554819D02*
X71794047Y-46554819D01*
X71794047Y-46554819D02*
X71889285Y-46507200D01*
X71889285Y-46507200D02*
X71936904Y-46459580D01*
X71936904Y-46459580D02*
X71984523Y-46364342D01*
X71984523Y-46364342D02*
X71984523Y-45554819D01*
X72889285Y-45888152D02*
X72889285Y-46554819D01*
X72651190Y-45507200D02*
X72413095Y-46221485D01*
X72413095Y-46221485D02*
X73032142Y-46221485D01*
X107039580Y-41568666D02*
X107087200Y-41616285D01*
X107087200Y-41616285D02*
X107134819Y-41759142D01*
X107134819Y-41759142D02*
X107134819Y-41854380D01*
X107134819Y-41854380D02*
X107087200Y-41997237D01*
X107087200Y-41997237D02*
X106991961Y-42092475D01*
X106991961Y-42092475D02*
X106896723Y-42140094D01*
X106896723Y-42140094D02*
X106706247Y-42187713D01*
X106706247Y-42187713D02*
X106563390Y-42187713D01*
X106563390Y-42187713D02*
X106372914Y-42140094D01*
X106372914Y-42140094D02*
X106277676Y-42092475D01*
X106277676Y-42092475D02*
X106182438Y-41997237D01*
X106182438Y-41997237D02*
X106134819Y-41854380D01*
X106134819Y-41854380D02*
X106134819Y-41759142D01*
X106134819Y-41759142D02*
X106182438Y-41616285D01*
X106182438Y-41616285D02*
X106230057Y-41568666D01*
X106134819Y-41235332D02*
X106134819Y-40568666D01*
X106134819Y-40568666D02*
X107134819Y-40997237D01*
X68159333Y-59454819D02*
X67826000Y-58978628D01*
X67587905Y-59454819D02*
X67587905Y-58454819D01*
X67587905Y-58454819D02*
X67968857Y-58454819D01*
X67968857Y-58454819D02*
X68064095Y-58502438D01*
X68064095Y-58502438D02*
X68111714Y-58550057D01*
X68111714Y-58550057D02*
X68159333Y-58645295D01*
X68159333Y-58645295D02*
X68159333Y-58788152D01*
X68159333Y-58788152D02*
X68111714Y-58883390D01*
X68111714Y-58883390D02*
X68064095Y-58931009D01*
X68064095Y-58931009D02*
X67968857Y-58978628D01*
X67968857Y-58978628D02*
X67587905Y-58978628D01*
X68730762Y-58883390D02*
X68635524Y-58835771D01*
X68635524Y-58835771D02*
X68587905Y-58788152D01*
X68587905Y-58788152D02*
X68540286Y-58692914D01*
X68540286Y-58692914D02*
X68540286Y-58645295D01*
X68540286Y-58645295D02*
X68587905Y-58550057D01*
X68587905Y-58550057D02*
X68635524Y-58502438D01*
X68635524Y-58502438D02*
X68730762Y-58454819D01*
X68730762Y-58454819D02*
X68921238Y-58454819D01*
X68921238Y-58454819D02*
X69016476Y-58502438D01*
X69016476Y-58502438D02*
X69064095Y-58550057D01*
X69064095Y-58550057D02*
X69111714Y-58645295D01*
X69111714Y-58645295D02*
X69111714Y-58692914D01*
X69111714Y-58692914D02*
X69064095Y-58788152D01*
X69064095Y-58788152D02*
X69016476Y-58835771D01*
X69016476Y-58835771D02*
X68921238Y-58883390D01*
X68921238Y-58883390D02*
X68730762Y-58883390D01*
X68730762Y-58883390D02*
X68635524Y-58931009D01*
X68635524Y-58931009D02*
X68587905Y-58978628D01*
X68587905Y-58978628D02*
X68540286Y-59073866D01*
X68540286Y-59073866D02*
X68540286Y-59264342D01*
X68540286Y-59264342D02*
X68587905Y-59359580D01*
X68587905Y-59359580D02*
X68635524Y-59407200D01*
X68635524Y-59407200D02*
X68730762Y-59454819D01*
X68730762Y-59454819D02*
X68921238Y-59454819D01*
X68921238Y-59454819D02*
X69016476Y-59407200D01*
X69016476Y-59407200D02*
X69064095Y-59359580D01*
X69064095Y-59359580D02*
X69111714Y-59264342D01*
X69111714Y-59264342D02*
X69111714Y-59073866D01*
X69111714Y-59073866D02*
X69064095Y-58978628D01*
X69064095Y-58978628D02*
X69016476Y-58931009D01*
X69016476Y-58931009D02*
X68921238Y-58883390D01*
X73338095Y-51754819D02*
X73338095Y-52564342D01*
X73338095Y-52564342D02*
X73385714Y-52659580D01*
X73385714Y-52659580D02*
X73433333Y-52707200D01*
X73433333Y-52707200D02*
X73528571Y-52754819D01*
X73528571Y-52754819D02*
X73719047Y-52754819D01*
X73719047Y-52754819D02*
X73814285Y-52707200D01*
X73814285Y-52707200D02*
X73861904Y-52659580D01*
X73861904Y-52659580D02*
X73909523Y-52564342D01*
X73909523Y-52564342D02*
X73909523Y-51754819D01*
X74338095Y-51850057D02*
X74385714Y-51802438D01*
X74385714Y-51802438D02*
X74480952Y-51754819D01*
X74480952Y-51754819D02*
X74719047Y-51754819D01*
X74719047Y-51754819D02*
X74814285Y-51802438D01*
X74814285Y-51802438D02*
X74861904Y-51850057D01*
X74861904Y-51850057D02*
X74909523Y-51945295D01*
X74909523Y-51945295D02*
X74909523Y-52040533D01*
X74909523Y-52040533D02*
X74861904Y-52183390D01*
X74861904Y-52183390D02*
X74290476Y-52754819D01*
X74290476Y-52754819D02*
X74909523Y-52754819D01*
X83954819Y-62342857D02*
X83478628Y-62676190D01*
X83954819Y-62914285D02*
X82954819Y-62914285D01*
X82954819Y-62914285D02*
X82954819Y-62533333D01*
X82954819Y-62533333D02*
X83002438Y-62438095D01*
X83002438Y-62438095D02*
X83050057Y-62390476D01*
X83050057Y-62390476D02*
X83145295Y-62342857D01*
X83145295Y-62342857D02*
X83288152Y-62342857D01*
X83288152Y-62342857D02*
X83383390Y-62390476D01*
X83383390Y-62390476D02*
X83431009Y-62438095D01*
X83431009Y-62438095D02*
X83478628Y-62533333D01*
X83478628Y-62533333D02*
X83478628Y-62914285D01*
X83954819Y-61390476D02*
X83954819Y-61961904D01*
X83954819Y-61676190D02*
X82954819Y-61676190D01*
X82954819Y-61676190D02*
X83097676Y-61771428D01*
X83097676Y-61771428D02*
X83192914Y-61866666D01*
X83192914Y-61866666D02*
X83240533Y-61961904D01*
X82954819Y-60533333D02*
X82954819Y-60723809D01*
X82954819Y-60723809D02*
X83002438Y-60819047D01*
X83002438Y-60819047D02*
X83050057Y-60866666D01*
X83050057Y-60866666D02*
X83192914Y-60961904D01*
X83192914Y-60961904D02*
X83383390Y-61009523D01*
X83383390Y-61009523D02*
X83764342Y-61009523D01*
X83764342Y-61009523D02*
X83859580Y-60961904D01*
X83859580Y-60961904D02*
X83907200Y-60914285D01*
X83907200Y-60914285D02*
X83954819Y-60819047D01*
X83954819Y-60819047D02*
X83954819Y-60628571D01*
X83954819Y-60628571D02*
X83907200Y-60533333D01*
X83907200Y-60533333D02*
X83859580Y-60485714D01*
X83859580Y-60485714D02*
X83764342Y-60438095D01*
X83764342Y-60438095D02*
X83526247Y-60438095D01*
X83526247Y-60438095D02*
X83431009Y-60485714D01*
X83431009Y-60485714D02*
X83383390Y-60533333D01*
X83383390Y-60533333D02*
X83335771Y-60628571D01*
X83335771Y-60628571D02*
X83335771Y-60819047D01*
X83335771Y-60819047D02*
X83383390Y-60914285D01*
X83383390Y-60914285D02*
X83431009Y-60961904D01*
X83431009Y-60961904D02*
X83526247Y-61009523D01*
X79875142Y-58112819D02*
X79541809Y-57636628D01*
X79303714Y-58112819D02*
X79303714Y-57112819D01*
X79303714Y-57112819D02*
X79684666Y-57112819D01*
X79684666Y-57112819D02*
X79779904Y-57160438D01*
X79779904Y-57160438D02*
X79827523Y-57208057D01*
X79827523Y-57208057D02*
X79875142Y-57303295D01*
X79875142Y-57303295D02*
X79875142Y-57446152D01*
X79875142Y-57446152D02*
X79827523Y-57541390D01*
X79827523Y-57541390D02*
X79779904Y-57589009D01*
X79779904Y-57589009D02*
X79684666Y-57636628D01*
X79684666Y-57636628D02*
X79303714Y-57636628D01*
X80827523Y-58112819D02*
X80256095Y-58112819D01*
X80541809Y-58112819D02*
X80541809Y-57112819D01*
X80541809Y-57112819D02*
X80446571Y-57255676D01*
X80446571Y-57255676D02*
X80351333Y-57350914D01*
X80351333Y-57350914D02*
X80256095Y-57398533D01*
X81446571Y-57112819D02*
X81541809Y-57112819D01*
X81541809Y-57112819D02*
X81637047Y-57160438D01*
X81637047Y-57160438D02*
X81684666Y-57208057D01*
X81684666Y-57208057D02*
X81732285Y-57303295D01*
X81732285Y-57303295D02*
X81779904Y-57493771D01*
X81779904Y-57493771D02*
X81779904Y-57731866D01*
X81779904Y-57731866D02*
X81732285Y-57922342D01*
X81732285Y-57922342D02*
X81684666Y-58017580D01*
X81684666Y-58017580D02*
X81637047Y-58065200D01*
X81637047Y-58065200D02*
X81541809Y-58112819D01*
X81541809Y-58112819D02*
X81446571Y-58112819D01*
X81446571Y-58112819D02*
X81351333Y-58065200D01*
X81351333Y-58065200D02*
X81303714Y-58017580D01*
X81303714Y-58017580D02*
X81256095Y-57922342D01*
X81256095Y-57922342D02*
X81208476Y-57731866D01*
X81208476Y-57731866D02*
X81208476Y-57493771D01*
X81208476Y-57493771D02*
X81256095Y-57303295D01*
X81256095Y-57303295D02*
X81303714Y-57208057D01*
X81303714Y-57208057D02*
X81351333Y-57160438D01*
X81351333Y-57160438D02*
X81446571Y-57112819D01*
X112268095Y-42888819D02*
X112268095Y-43698342D01*
X112268095Y-43698342D02*
X112315714Y-43793580D01*
X112315714Y-43793580D02*
X112363333Y-43841200D01*
X112363333Y-43841200D02*
X112458571Y-43888819D01*
X112458571Y-43888819D02*
X112649047Y-43888819D01*
X112649047Y-43888819D02*
X112744285Y-43841200D01*
X112744285Y-43841200D02*
X112791904Y-43793580D01*
X112791904Y-43793580D02*
X112839523Y-43698342D01*
X112839523Y-43698342D02*
X112839523Y-42888819D01*
X113839523Y-43888819D02*
X113268095Y-43888819D01*
X113553809Y-43888819D02*
X113553809Y-42888819D01*
X113553809Y-42888819D02*
X113458571Y-43031676D01*
X113458571Y-43031676D02*
X113363333Y-43126914D01*
X113363333Y-43126914D02*
X113268095Y-43174533D01*
X109454819Y-43499999D02*
X109692914Y-43499999D01*
X109597676Y-43738094D02*
X109692914Y-43499999D01*
X109692914Y-43499999D02*
X109597676Y-43261904D01*
X109883390Y-43642856D02*
X109692914Y-43499999D01*
X109692914Y-43499999D02*
X109883390Y-43357142D01*
X110795180Y-43500000D02*
X110557085Y-43500000D01*
X110652323Y-43261905D02*
X110557085Y-43500000D01*
X110557085Y-43500000D02*
X110652323Y-43738095D01*
X110366609Y-43357143D02*
X110557085Y-43500000D01*
X110557085Y-43500000D02*
X110366609Y-43642857D01*
X81861905Y-67929819D02*
X81861905Y-66929819D01*
X81861905Y-66929819D02*
X82100000Y-66929819D01*
X82100000Y-66929819D02*
X82242857Y-66977438D01*
X82242857Y-66977438D02*
X82338095Y-67072676D01*
X82338095Y-67072676D02*
X82385714Y-67167914D01*
X82385714Y-67167914D02*
X82433333Y-67358390D01*
X82433333Y-67358390D02*
X82433333Y-67501247D01*
X82433333Y-67501247D02*
X82385714Y-67691723D01*
X82385714Y-67691723D02*
X82338095Y-67786961D01*
X82338095Y-67786961D02*
X82242857Y-67882200D01*
X82242857Y-67882200D02*
X82100000Y-67929819D01*
X82100000Y-67929819D02*
X81861905Y-67929819D01*
X83385714Y-67929819D02*
X82814286Y-67929819D01*
X83100000Y-67929819D02*
X83100000Y-66929819D01*
X83100000Y-66929819D02*
X83004762Y-67072676D01*
X83004762Y-67072676D02*
X82909524Y-67167914D01*
X82909524Y-67167914D02*
X82814286Y-67215533D01*
X88684580Y-67367857D02*
X88732200Y-67415476D01*
X88732200Y-67415476D02*
X88779819Y-67558333D01*
X88779819Y-67558333D02*
X88779819Y-67653571D01*
X88779819Y-67653571D02*
X88732200Y-67796428D01*
X88732200Y-67796428D02*
X88636961Y-67891666D01*
X88636961Y-67891666D02*
X88541723Y-67939285D01*
X88541723Y-67939285D02*
X88351247Y-67986904D01*
X88351247Y-67986904D02*
X88208390Y-67986904D01*
X88208390Y-67986904D02*
X88017914Y-67939285D01*
X88017914Y-67939285D02*
X87922676Y-67891666D01*
X87922676Y-67891666D02*
X87827438Y-67796428D01*
X87827438Y-67796428D02*
X87779819Y-67653571D01*
X87779819Y-67653571D02*
X87779819Y-67558333D01*
X87779819Y-67558333D02*
X87827438Y-67415476D01*
X87827438Y-67415476D02*
X87875057Y-67367857D01*
X88779819Y-66415476D02*
X88779819Y-66986904D01*
X88779819Y-66701190D02*
X87779819Y-66701190D01*
X87779819Y-66701190D02*
X87922676Y-66796428D01*
X87922676Y-66796428D02*
X88017914Y-66891666D01*
X88017914Y-66891666D02*
X88065533Y-66986904D01*
X87875057Y-66034523D02*
X87827438Y-65986904D01*
X87827438Y-65986904D02*
X87779819Y-65891666D01*
X87779819Y-65891666D02*
X87779819Y-65653571D01*
X87779819Y-65653571D02*
X87827438Y-65558333D01*
X87827438Y-65558333D02*
X87875057Y-65510714D01*
X87875057Y-65510714D02*
X87970295Y-65463095D01*
X87970295Y-65463095D02*
X88065533Y-65463095D01*
X88065533Y-65463095D02*
X88208390Y-65510714D01*
X88208390Y-65510714D02*
X88779819Y-66082142D01*
X88779819Y-66082142D02*
X88779819Y-65463095D01*
X83091666Y-39179819D02*
X83091666Y-39894104D01*
X83091666Y-39894104D02*
X83044047Y-40036961D01*
X83044047Y-40036961D02*
X82948809Y-40132200D01*
X82948809Y-40132200D02*
X82805952Y-40179819D01*
X82805952Y-40179819D02*
X82710714Y-40179819D01*
X83472619Y-39179819D02*
X84091666Y-39179819D01*
X84091666Y-39179819D02*
X83758333Y-39560771D01*
X83758333Y-39560771D02*
X83901190Y-39560771D01*
X83901190Y-39560771D02*
X83996428Y-39608390D01*
X83996428Y-39608390D02*
X84044047Y-39656009D01*
X84044047Y-39656009D02*
X84091666Y-39751247D01*
X84091666Y-39751247D02*
X84091666Y-39989342D01*
X84091666Y-39989342D02*
X84044047Y-40084580D01*
X84044047Y-40084580D02*
X83996428Y-40132200D01*
X83996428Y-40132200D02*
X83901190Y-40179819D01*
X83901190Y-40179819D02*
X83615476Y-40179819D01*
X83615476Y-40179819D02*
X83520238Y-40132200D01*
X83520238Y-40132200D02*
X83472619Y-40084580D01*
D12*
%TO.C,R5*%
X75752500Y-65087742D02*
X75752500Y-65562258D01*
X76797500Y-65087742D02*
X76797500Y-65562258D01*
%TO.C,R1*%
X69312258Y-43977500D02*
X68837742Y-43977500D01*
X69312258Y-45022500D02*
X68837742Y-45022500D01*
%TO.C,R7*%
X71312258Y-66227500D02*
X70837742Y-66227500D01*
X71312258Y-67272500D02*
X70837742Y-67272500D01*
%TO.C,D2*%
X79540000Y-63502500D02*
X79540000Y-66187500D01*
X81460000Y-63502500D02*
X79540000Y-63502500D01*
X81460000Y-66187500D02*
X81460000Y-63502500D01*
%TO.C,R14*%
X101677500Y-64937742D02*
X101677500Y-65412258D01*
X102722500Y-64937742D02*
X102722500Y-65412258D01*
%TO.C,D3*%
X65627500Y-65790000D02*
X65627500Y-67710000D01*
X65627500Y-67710000D02*
X68312500Y-67710000D01*
X68312500Y-65790000D02*
X65627500Y-65790000D01*
%TO.C,C10*%
X65038748Y-63515000D02*
X65561252Y-63515000D01*
X65038748Y-64985000D02*
X65561252Y-64985000D01*
%TO.C,C3*%
X76487742Y-57477500D02*
X76962258Y-57477500D01*
X76487742Y-58522500D02*
X76962258Y-58522500D01*
%TO.C,C5*%
X71265000Y-58938748D02*
X71265000Y-59461252D01*
X72735000Y-58938748D02*
X72735000Y-59461252D01*
D13*
%TO.C,J1*%
X65350000Y-48870750D02*
X63850000Y-48870750D01*
X65350000Y-57810750D02*
X63850000Y-57810750D01*
D14*
X68600000Y-50140750D02*
G75*
G02*
X68400000Y-50140750I-100000J0D01*
G01*
X68400000Y-50140750D02*
G75*
G02*
X68600000Y-50140750I100000J0D01*
G01*
D12*
%TO.C,R9*%
X68477500Y-48812258D02*
X68477500Y-48337742D01*
X69522500Y-48812258D02*
X69522500Y-48337742D01*
%TO.C,C9*%
X63788748Y-42265000D02*
X64311252Y-42265000D01*
X63788748Y-43735000D02*
X64311252Y-43735000D01*
%TO.C,R6*%
X74152500Y-65087742D02*
X74152500Y-65562258D01*
X75197500Y-65087742D02*
X75197500Y-65562258D01*
%TO.C,C4*%
X79227500Y-51162258D02*
X79227500Y-50687742D01*
X80272500Y-51162258D02*
X80272500Y-50687742D01*
%TO.C,R4*%
X75512742Y-47737500D02*
X75987258Y-47737500D01*
X75512742Y-48782500D02*
X75987258Y-48782500D01*
D15*
%TO.C,U6*%
X82625800Y-42265900D02*
X82625800Y-65024300D01*
X82625800Y-65024300D02*
X88874200Y-65024300D01*
X88874200Y-42265900D02*
X82625800Y-42265900D01*
X88874200Y-65024300D02*
X88874200Y-42265900D01*
D16*
X86131000Y-66802300D02*
G75*
G02*
X85369000Y-66802300I-381000J0D01*
G01*
X85369000Y-66802300D02*
G75*
G02*
X86131000Y-66802300I381000J0D01*
G01*
D12*
%TO.C,C11*%
X75134420Y-39365000D02*
X75415580Y-39365000D01*
X75134420Y-40385000D02*
X75415580Y-40385000D01*
D13*
%TO.C,J2*%
X103850000Y-63650000D02*
X109750000Y-63650000D01*
X103850000Y-68150000D02*
X103850000Y-63650000D01*
X109750000Y-63650000D02*
X109750000Y-68150000D01*
X109750000Y-68150000D02*
X103850000Y-68150000D01*
D14*
X107900000Y-67700000D02*
G75*
G02*
X107700000Y-67700000I-100000J0D01*
G01*
X107700000Y-67700000D02*
G75*
G02*
X107900000Y-67700000I100000J0D01*
G01*
D15*
%TO.C,SW1*%
X61897700Y-60262940D02*
X61897700Y-61087060D01*
X63097850Y-62402200D02*
X65752150Y-62402200D01*
X65752150Y-58947800D02*
X63097850Y-58947800D01*
X66952300Y-61087060D02*
X66952300Y-60262940D01*
D12*
%TO.C,U3*%
X77477500Y-52890000D02*
X79297500Y-52890000D01*
X77477500Y-52940000D02*
X77477500Y-52890000D01*
X77477500Y-56010000D02*
X77477500Y-55960000D01*
X79297500Y-52890000D02*
X79297500Y-52940000D01*
X79297500Y-54060000D02*
X79297500Y-54840000D01*
X79297500Y-55960000D02*
X79297500Y-56010000D01*
X79297500Y-56010000D02*
X77477500Y-56010000D01*
X76937500Y-52940000D02*
X76697500Y-52610000D01*
X77177500Y-52610000D01*
X76937500Y-52940000D01*
G36*
X76937500Y-52940000D02*
G01*
X76697500Y-52610000D01*
X77177500Y-52610000D01*
X76937500Y-52940000D01*
G37*
%TO.C,C13*%
X98390000Y-65365580D02*
X98390000Y-65084420D01*
X99410000Y-65365580D02*
X99410000Y-65084420D01*
%TO.C,R3*%
X80977500Y-55337742D02*
X80977500Y-55812258D01*
X82022500Y-55337742D02*
X82022500Y-55812258D01*
D13*
%TO.C,U5*%
X67750000Y-39750000D02*
X67750000Y-40045000D01*
X67750000Y-39750000D02*
X68045000Y-39750000D01*
X67750000Y-42750000D02*
X67750000Y-42455000D01*
X67750000Y-42750000D02*
X68045000Y-42750000D01*
X70750000Y-39750000D02*
X70455000Y-39750000D01*
X70750000Y-39750000D02*
X70750000Y-40045000D01*
X70750000Y-42750000D02*
X70455000Y-42750000D01*
X70750000Y-42750000D02*
X70750000Y-42455000D01*
D14*
X66875000Y-40500000D02*
G75*
G02*
X66675000Y-40500000I-100000J0D01*
G01*
X66675000Y-40500000D02*
G75*
G02*
X66875000Y-40500000I100000J0D01*
G01*
D15*
%TO.C,SW2*%
X61722700Y-45587940D02*
X61722700Y-46412060D01*
X62922850Y-47727200D02*
X65577150Y-47727200D01*
X65577150Y-44272800D02*
X62922850Y-44272800D01*
X66777300Y-46412060D02*
X66777300Y-45587940D01*
D12*
%TO.C,R2*%
X80977500Y-52087742D02*
X80977500Y-52562258D01*
X82022500Y-52087742D02*
X82022500Y-52562258D01*
%TO.C,C2*%
X73315000Y-58938748D02*
X73315000Y-59461252D01*
X74785000Y-58938748D02*
X74785000Y-59461252D01*
%TO.C,C6*%
X101890000Y-41711252D02*
X101890000Y-40288748D01*
X103710000Y-41711252D02*
X103710000Y-40288748D01*
%TO.C,R11*%
X69412258Y-61727500D02*
X68937742Y-61727500D01*
X69412258Y-62772500D02*
X68937742Y-62772500D01*
%TO.C,C8*%
X74338748Y-40915000D02*
X75761252Y-40915000D01*
X74338748Y-42735000D02*
X75761252Y-42735000D01*
D13*
%TO.C,J6*%
X91050000Y-63700000D02*
X96950000Y-63700000D01*
X91050000Y-68200000D02*
X91050000Y-63700000D01*
X96950000Y-63700000D02*
X96950000Y-68200000D01*
X96950000Y-68200000D02*
X91050000Y-68200000D01*
D14*
X95100000Y-67750000D02*
G75*
G02*
X94900000Y-67750000I-100000J0D01*
G01*
X94900000Y-67750000D02*
G75*
G02*
X95100000Y-67750000I100000J0D01*
G01*
D12*
%TO.C,R15*%
X77777500Y-61662258D02*
X77777500Y-61187742D01*
X78822500Y-61662258D02*
X78822500Y-61187742D01*
%TO.C,C1*%
X76538748Y-50265000D02*
X77061252Y-50265000D01*
X76538748Y-51735000D02*
X77061252Y-51735000D01*
%TO.C,R13*%
X99977500Y-65412258D02*
X99977500Y-64937742D01*
X101022500Y-65412258D02*
X101022500Y-64937742D01*
D13*
%TO.C,U4*%
X70685000Y-48687500D02*
X70685000Y-50312500D01*
X73815000Y-48687500D02*
X73815000Y-50312500D01*
D14*
X71405000Y-52055000D02*
G75*
G02*
X71205000Y-52055000I-100000J0D01*
G01*
X71205000Y-52055000D02*
G75*
G02*
X71405000Y-52055000I100000J0D01*
G01*
D12*
%TO.C,C7*%
X104540000Y-41815580D02*
X104540000Y-41534420D01*
X105560000Y-41815580D02*
X105560000Y-41534420D01*
%TO.C,R8*%
X68937742Y-59977500D02*
X69412258Y-59977500D01*
X68937742Y-61022500D02*
X69412258Y-61022500D01*
D15*
%TO.C,U2*%
X72941900Y-53491900D02*
X72941900Y-56108100D01*
X75558100Y-56108100D02*
X75558100Y-53491900D01*
D12*
%TO.C,R16*%
X80102500Y-61862258D02*
X80102500Y-61387742D01*
X81147500Y-61862258D02*
X81147500Y-61387742D01*
%TO.C,R10*%
X80462258Y-58477500D02*
X79987742Y-58477500D01*
X80462258Y-59522500D02*
X79987742Y-59522500D01*
D15*
%TO.C,U1*%
X89932200Y-44218700D02*
X89932200Y-45625860D01*
X89932200Y-61074140D02*
X89932200Y-62481300D01*
X89932200Y-62481300D02*
X90820860Y-62481300D01*
X90820860Y-44218700D02*
X89932200Y-44218700D01*
X108809140Y-62481300D02*
X115687800Y-62481300D01*
X115687800Y-44218700D02*
X108809140Y-44218700D01*
X115687800Y-62481300D02*
X115687800Y-44218700D01*
D12*
%TO.C,D1*%
X77265000Y-63502500D02*
X77265000Y-66187500D01*
X79185000Y-63502500D02*
X77265000Y-63502500D01*
X79185000Y-66187500D02*
X79185000Y-63502500D01*
%TO.C,C12*%
X89490000Y-66115580D02*
X89490000Y-65834420D01*
X90510000Y-66115580D02*
X90510000Y-65834420D01*
%TO.C,J3*%
X79370000Y-41970000D02*
X79370000Y-44570000D01*
X79370000Y-41970000D02*
X82030000Y-41970000D01*
X79370000Y-44570000D02*
X82030000Y-44570000D01*
X80700000Y-39370000D02*
X82030000Y-39370000D01*
X82030000Y-39370000D02*
X82030000Y-40700000D01*
X82030000Y-41970000D02*
X82030000Y-44570000D01*
%TD*%
M02*
