%TF.GenerationSoftware,KiCad,Pcbnew,9.0.7*%
%TF.CreationDate,2026-06-15T21:49:44+01:00*%
%TF.ProjectId,GlucoBit-v2,476c7563-6f42-4697-942d-76322e6b6963,rev?*%
%TF.SameCoordinates,Original*%
%TF.FileFunction,Legend,Top*%
%TF.FilePolarity,Positive*%
%FSLAX46Y46*%
G04 Gerber Fmt 4.6, Leading zero omitted, Abs format (unit mm)*
G04 Created by KiCad (PCBNEW 9.0.7) date 2026-06-15 21:49:44*
%MOMM*%
%LPD*%
G01*
G04 APERTURE LIST*
%ADD10C,0.300000*%
%ADD11C,0.150000*%
%ADD12C,0.120000*%
%ADD13C,0.127000*%
%ADD14C,0.200000*%
%ADD15C,0.152400*%
%ADD16C,0.508000*%
G04 APERTURE END LIST*
D10*
X136757971Y-102362182D02*
X136829400Y-102433610D01*
X136829400Y-102433610D02*
X136900828Y-102647896D01*
X136900828Y-102647896D02*
X136900828Y-102790753D01*
X136900828Y-102790753D02*
X136829400Y-103005039D01*
X136829400Y-103005039D02*
X136686542Y-103147896D01*
X136686542Y-103147896D02*
X136543685Y-103219325D01*
X136543685Y-103219325D02*
X136257971Y-103290753D01*
X136257971Y-103290753D02*
X136043685Y-103290753D01*
X136043685Y-103290753D02*
X135757971Y-103219325D01*
X135757971Y-103219325D02*
X135615114Y-103147896D01*
X135615114Y-103147896D02*
X135472257Y-103005039D01*
X135472257Y-103005039D02*
X135400828Y-102790753D01*
X135400828Y-102790753D02*
X135400828Y-102647896D01*
X135400828Y-102647896D02*
X135472257Y-102433610D01*
X135472257Y-102433610D02*
X135543685Y-102362182D01*
X134675828Y-103244325D02*
X133175828Y-103244325D01*
X133175828Y-103244325D02*
X133175828Y-102672896D01*
X133175828Y-102672896D02*
X133247257Y-102530039D01*
X133247257Y-102530039D02*
X133318685Y-102458610D01*
X133318685Y-102458610D02*
X133461542Y-102387182D01*
X133461542Y-102387182D02*
X133675828Y-102387182D01*
X133675828Y-102387182D02*
X133818685Y-102458610D01*
X133818685Y-102458610D02*
X133890114Y-102530039D01*
X133890114Y-102530039D02*
X133961542Y-102672896D01*
X133961542Y-102672896D02*
X133961542Y-103244325D01*
D11*
X131533333Y-103328655D02*
X131200000Y-102852464D01*
X130961905Y-103328655D02*
X130961905Y-102328655D01*
X130961905Y-102328655D02*
X131342857Y-102328655D01*
X131342857Y-102328655D02*
X131438095Y-102376274D01*
X131438095Y-102376274D02*
X131485714Y-102423893D01*
X131485714Y-102423893D02*
X131533333Y-102519131D01*
X131533333Y-102519131D02*
X131533333Y-102661988D01*
X131533333Y-102661988D02*
X131485714Y-102757226D01*
X131485714Y-102757226D02*
X131438095Y-102804845D01*
X131438095Y-102804845D02*
X131342857Y-102852464D01*
X131342857Y-102852464D02*
X130961905Y-102852464D01*
X132438095Y-102328655D02*
X131961905Y-102328655D01*
X131961905Y-102328655D02*
X131914286Y-102804845D01*
X131914286Y-102804845D02*
X131961905Y-102757226D01*
X131961905Y-102757226D02*
X132057143Y-102709607D01*
X132057143Y-102709607D02*
X132295238Y-102709607D01*
X132295238Y-102709607D02*
X132390476Y-102757226D01*
X132390476Y-102757226D02*
X132438095Y-102804845D01*
X132438095Y-102804845D02*
X132485714Y-102900083D01*
X132485714Y-102900083D02*
X132485714Y-103138178D01*
X132485714Y-103138178D02*
X132438095Y-103233416D01*
X132438095Y-103233416D02*
X132390476Y-103281036D01*
X132390476Y-103281036D02*
X132295238Y-103328655D01*
X132295238Y-103328655D02*
X132057143Y-103328655D01*
X132057143Y-103328655D02*
X131961905Y-103281036D01*
X131961905Y-103281036D02*
X131914286Y-103233416D01*
X125029333Y-81677655D02*
X124696000Y-81201464D01*
X124457905Y-81677655D02*
X124457905Y-80677655D01*
X124457905Y-80677655D02*
X124838857Y-80677655D01*
X124838857Y-80677655D02*
X124934095Y-80725274D01*
X124934095Y-80725274D02*
X124981714Y-80772893D01*
X124981714Y-80772893D02*
X125029333Y-80868131D01*
X125029333Y-80868131D02*
X125029333Y-81010988D01*
X125029333Y-81010988D02*
X124981714Y-81106226D01*
X124981714Y-81106226D02*
X124934095Y-81153845D01*
X124934095Y-81153845D02*
X124838857Y-81201464D01*
X124838857Y-81201464D02*
X124457905Y-81201464D01*
X125981714Y-81677655D02*
X125410286Y-81677655D01*
X125696000Y-81677655D02*
X125696000Y-80677655D01*
X125696000Y-80677655D02*
X125600762Y-80820512D01*
X125600762Y-80820512D02*
X125505524Y-80915750D01*
X125505524Y-80915750D02*
X125410286Y-80963369D01*
X125958333Y-101103655D02*
X125625000Y-100627464D01*
X125386905Y-101103655D02*
X125386905Y-100103655D01*
X125386905Y-100103655D02*
X125767857Y-100103655D01*
X125767857Y-100103655D02*
X125863095Y-100151274D01*
X125863095Y-100151274D02*
X125910714Y-100198893D01*
X125910714Y-100198893D02*
X125958333Y-100294131D01*
X125958333Y-100294131D02*
X125958333Y-100436988D01*
X125958333Y-100436988D02*
X125910714Y-100532226D01*
X125910714Y-100532226D02*
X125863095Y-100579845D01*
X125863095Y-100579845D02*
X125767857Y-100627464D01*
X125767857Y-100627464D02*
X125386905Y-100627464D01*
X126291667Y-100103655D02*
X126958333Y-100103655D01*
X126958333Y-100103655D02*
X126529762Y-101103655D01*
X137436905Y-101828655D02*
X137436905Y-100828655D01*
X137436905Y-100828655D02*
X137675000Y-100828655D01*
X137675000Y-100828655D02*
X137817857Y-100876274D01*
X137817857Y-100876274D02*
X137913095Y-100971512D01*
X137913095Y-100971512D02*
X137960714Y-101066750D01*
X137960714Y-101066750D02*
X138008333Y-101257226D01*
X138008333Y-101257226D02*
X138008333Y-101400083D01*
X138008333Y-101400083D02*
X137960714Y-101590559D01*
X137960714Y-101590559D02*
X137913095Y-101685797D01*
X137913095Y-101685797D02*
X137817857Y-101781036D01*
X137817857Y-101781036D02*
X137675000Y-101828655D01*
X137675000Y-101828655D02*
X137436905Y-101828655D01*
X138389286Y-100923893D02*
X138436905Y-100876274D01*
X138436905Y-100876274D02*
X138532143Y-100828655D01*
X138532143Y-100828655D02*
X138770238Y-100828655D01*
X138770238Y-100828655D02*
X138865476Y-100876274D01*
X138865476Y-100876274D02*
X138913095Y-100923893D01*
X138913095Y-100923893D02*
X138960714Y-101019131D01*
X138960714Y-101019131D02*
X138960714Y-101114369D01*
X138960714Y-101114369D02*
X138913095Y-101257226D01*
X138913095Y-101257226D02*
X138341667Y-101828655D01*
X138341667Y-101828655D02*
X138960714Y-101828655D01*
X120879819Y-102736930D02*
X119879819Y-102736930D01*
X119879819Y-102736930D02*
X119879819Y-102498835D01*
X119879819Y-102498835D02*
X119927438Y-102355978D01*
X119927438Y-102355978D02*
X120022676Y-102260740D01*
X120022676Y-102260740D02*
X120117914Y-102213121D01*
X120117914Y-102213121D02*
X120308390Y-102165502D01*
X120308390Y-102165502D02*
X120451247Y-102165502D01*
X120451247Y-102165502D02*
X120641723Y-102213121D01*
X120641723Y-102213121D02*
X120736961Y-102260740D01*
X120736961Y-102260740D02*
X120832200Y-102355978D01*
X120832200Y-102355978D02*
X120879819Y-102498835D01*
X120879819Y-102498835D02*
X120879819Y-102736930D01*
X119879819Y-101832168D02*
X119879819Y-101213121D01*
X119879819Y-101213121D02*
X120260771Y-101546454D01*
X120260771Y-101546454D02*
X120260771Y-101403597D01*
X120260771Y-101403597D02*
X120308390Y-101308359D01*
X120308390Y-101308359D02*
X120356009Y-101260740D01*
X120356009Y-101260740D02*
X120451247Y-101213121D01*
X120451247Y-101213121D02*
X120689342Y-101213121D01*
X120689342Y-101213121D02*
X120784580Y-101260740D01*
X120784580Y-101260740D02*
X120832200Y-101308359D01*
X120832200Y-101308359D02*
X120879819Y-101403597D01*
X120879819Y-101403597D02*
X120879819Y-101689311D01*
X120879819Y-101689311D02*
X120832200Y-101784549D01*
X120832200Y-101784549D02*
X120784580Y-101832168D01*
X118951580Y-99899693D02*
X118999200Y-99947312D01*
X118999200Y-99947312D02*
X119046819Y-100090169D01*
X119046819Y-100090169D02*
X119046819Y-100185407D01*
X119046819Y-100185407D02*
X118999200Y-100328264D01*
X118999200Y-100328264D02*
X118903961Y-100423502D01*
X118903961Y-100423502D02*
X118808723Y-100471121D01*
X118808723Y-100471121D02*
X118618247Y-100518740D01*
X118618247Y-100518740D02*
X118475390Y-100518740D01*
X118475390Y-100518740D02*
X118284914Y-100471121D01*
X118284914Y-100471121D02*
X118189676Y-100423502D01*
X118189676Y-100423502D02*
X118094438Y-100328264D01*
X118094438Y-100328264D02*
X118046819Y-100185407D01*
X118046819Y-100185407D02*
X118046819Y-100090169D01*
X118046819Y-100090169D02*
X118094438Y-99947312D01*
X118094438Y-99947312D02*
X118142057Y-99899693D01*
X119046819Y-98947312D02*
X119046819Y-99518740D01*
X119046819Y-99233026D02*
X118046819Y-99233026D01*
X118046819Y-99233026D02*
X118189676Y-99328264D01*
X118189676Y-99328264D02*
X118284914Y-99423502D01*
X118284914Y-99423502D02*
X118332533Y-99518740D01*
X118046819Y-98328264D02*
X118046819Y-98233026D01*
X118046819Y-98233026D02*
X118094438Y-98137788D01*
X118094438Y-98137788D02*
X118142057Y-98090169D01*
X118142057Y-98090169D02*
X118237295Y-98042550D01*
X118237295Y-98042550D02*
X118427771Y-97994931D01*
X118427771Y-97994931D02*
X118665866Y-97994931D01*
X118665866Y-97994931D02*
X118856342Y-98042550D01*
X118856342Y-98042550D02*
X118951580Y-98090169D01*
X118951580Y-98090169D02*
X118999200Y-98137788D01*
X118999200Y-98137788D02*
X119046819Y-98233026D01*
X119046819Y-98233026D02*
X119046819Y-98328264D01*
X119046819Y-98328264D02*
X118999200Y-98423502D01*
X118999200Y-98423502D02*
X118951580Y-98471121D01*
X118951580Y-98471121D02*
X118856342Y-98518740D01*
X118856342Y-98518740D02*
X118665866Y-98566359D01*
X118665866Y-98566359D02*
X118427771Y-98566359D01*
X118427771Y-98566359D02*
X118237295Y-98518740D01*
X118237295Y-98518740D02*
X118142057Y-98471121D01*
X118142057Y-98471121D02*
X118094438Y-98423502D01*
X118094438Y-98423502D02*
X118046819Y-98328264D01*
X131379333Y-95044416D02*
X131331714Y-95092036D01*
X131331714Y-95092036D02*
X131188857Y-95139655D01*
X131188857Y-95139655D02*
X131093619Y-95139655D01*
X131093619Y-95139655D02*
X130950762Y-95092036D01*
X130950762Y-95092036D02*
X130855524Y-94996797D01*
X130855524Y-94996797D02*
X130807905Y-94901559D01*
X130807905Y-94901559D02*
X130760286Y-94711083D01*
X130760286Y-94711083D02*
X130760286Y-94568226D01*
X130760286Y-94568226D02*
X130807905Y-94377750D01*
X130807905Y-94377750D02*
X130855524Y-94282512D01*
X130855524Y-94282512D02*
X130950762Y-94187274D01*
X130950762Y-94187274D02*
X131093619Y-94139655D01*
X131093619Y-94139655D02*
X131188857Y-94139655D01*
X131188857Y-94139655D02*
X131331714Y-94187274D01*
X131331714Y-94187274D02*
X131379333Y-94234893D01*
X131712667Y-94139655D02*
X132331714Y-94139655D01*
X132331714Y-94139655D02*
X131998381Y-94520607D01*
X131998381Y-94520607D02*
X132141238Y-94520607D01*
X132141238Y-94520607D02*
X132236476Y-94568226D01*
X132236476Y-94568226D02*
X132284095Y-94615845D01*
X132284095Y-94615845D02*
X132331714Y-94711083D01*
X132331714Y-94711083D02*
X132331714Y-94949178D01*
X132331714Y-94949178D02*
X132284095Y-95044416D01*
X132284095Y-95044416D02*
X132236476Y-95092036D01*
X132236476Y-95092036D02*
X132141238Y-95139655D01*
X132141238Y-95139655D02*
X131855524Y-95139655D01*
X131855524Y-95139655D02*
X131760286Y-95092036D01*
X131760286Y-95092036D02*
X131712667Y-95044416D01*
X127315333Y-97330416D02*
X127267714Y-97378036D01*
X127267714Y-97378036D02*
X127124857Y-97425655D01*
X127124857Y-97425655D02*
X127029619Y-97425655D01*
X127029619Y-97425655D02*
X126886762Y-97378036D01*
X126886762Y-97378036D02*
X126791524Y-97282797D01*
X126791524Y-97282797D02*
X126743905Y-97187559D01*
X126743905Y-97187559D02*
X126696286Y-96997083D01*
X126696286Y-96997083D02*
X126696286Y-96854226D01*
X126696286Y-96854226D02*
X126743905Y-96663750D01*
X126743905Y-96663750D02*
X126791524Y-96568512D01*
X126791524Y-96568512D02*
X126886762Y-96473274D01*
X126886762Y-96473274D02*
X127029619Y-96425655D01*
X127029619Y-96425655D02*
X127124857Y-96425655D01*
X127124857Y-96425655D02*
X127267714Y-96473274D01*
X127267714Y-96473274D02*
X127315333Y-96520893D01*
X128220095Y-96425655D02*
X127743905Y-96425655D01*
X127743905Y-96425655D02*
X127696286Y-96901845D01*
X127696286Y-96901845D02*
X127743905Y-96854226D01*
X127743905Y-96854226D02*
X127839143Y-96806607D01*
X127839143Y-96806607D02*
X128077238Y-96806607D01*
X128077238Y-96806607D02*
X128172476Y-96854226D01*
X128172476Y-96854226D02*
X128220095Y-96901845D01*
X128220095Y-96901845D02*
X128267714Y-96997083D01*
X128267714Y-96997083D02*
X128267714Y-97235178D01*
X128267714Y-97235178D02*
X128220095Y-97330416D01*
X128220095Y-97330416D02*
X128172476Y-97378036D01*
X128172476Y-97378036D02*
X128077238Y-97425655D01*
X128077238Y-97425655D02*
X127839143Y-97425655D01*
X127839143Y-97425655D02*
X127743905Y-97378036D01*
X127743905Y-97378036D02*
X127696286Y-97330416D01*
X118767319Y-88832169D02*
X119481604Y-88832169D01*
X119481604Y-88832169D02*
X119624461Y-88879788D01*
X119624461Y-88879788D02*
X119719700Y-88975026D01*
X119719700Y-88975026D02*
X119767319Y-89117883D01*
X119767319Y-89117883D02*
X119767319Y-89213121D01*
X119767319Y-87832169D02*
X119767319Y-88403597D01*
X119767319Y-88117883D02*
X118767319Y-88117883D01*
X118767319Y-88117883D02*
X118910176Y-88213121D01*
X118910176Y-88213121D02*
X119005414Y-88308359D01*
X119005414Y-88308359D02*
X119053033Y-88403597D01*
X123704819Y-82715502D02*
X123228628Y-83048835D01*
X123704819Y-83286930D02*
X122704819Y-83286930D01*
X122704819Y-83286930D02*
X122704819Y-82905978D01*
X122704819Y-82905978D02*
X122752438Y-82810740D01*
X122752438Y-82810740D02*
X122800057Y-82763121D01*
X122800057Y-82763121D02*
X122895295Y-82715502D01*
X122895295Y-82715502D02*
X123038152Y-82715502D01*
X123038152Y-82715502D02*
X123133390Y-82763121D01*
X123133390Y-82763121D02*
X123181009Y-82810740D01*
X123181009Y-82810740D02*
X123228628Y-82905978D01*
X123228628Y-82905978D02*
X123228628Y-83286930D01*
X123704819Y-82239311D02*
X123704819Y-82048835D01*
X123704819Y-82048835D02*
X123657200Y-81953597D01*
X123657200Y-81953597D02*
X123609580Y-81905978D01*
X123609580Y-81905978D02*
X123466723Y-81810740D01*
X123466723Y-81810740D02*
X123276247Y-81763121D01*
X123276247Y-81763121D02*
X122895295Y-81763121D01*
X122895295Y-81763121D02*
X122800057Y-81810740D01*
X122800057Y-81810740D02*
X122752438Y-81858359D01*
X122752438Y-81858359D02*
X122704819Y-81953597D01*
X122704819Y-81953597D02*
X122704819Y-82144073D01*
X122704819Y-82144073D02*
X122752438Y-82239311D01*
X122752438Y-82239311D02*
X122800057Y-82286930D01*
X122800057Y-82286930D02*
X122895295Y-82334549D01*
X122895295Y-82334549D02*
X123133390Y-82334549D01*
X123133390Y-82334549D02*
X123228628Y-82286930D01*
X123228628Y-82286930D02*
X123276247Y-82239311D01*
X123276247Y-82239311D02*
X123323866Y-82144073D01*
X123323866Y-82144073D02*
X123323866Y-81953597D01*
X123323866Y-81953597D02*
X123276247Y-81858359D01*
X123276247Y-81858359D02*
X123228628Y-81810740D01*
X123228628Y-81810740D02*
X123133390Y-81763121D01*
X120457333Y-77010416D02*
X120409714Y-77058036D01*
X120409714Y-77058036D02*
X120266857Y-77105655D01*
X120266857Y-77105655D02*
X120171619Y-77105655D01*
X120171619Y-77105655D02*
X120028762Y-77058036D01*
X120028762Y-77058036D02*
X119933524Y-76962797D01*
X119933524Y-76962797D02*
X119885905Y-76867559D01*
X119885905Y-76867559D02*
X119838286Y-76677083D01*
X119838286Y-76677083D02*
X119838286Y-76534226D01*
X119838286Y-76534226D02*
X119885905Y-76343750D01*
X119885905Y-76343750D02*
X119933524Y-76248512D01*
X119933524Y-76248512D02*
X120028762Y-76153274D01*
X120028762Y-76153274D02*
X120171619Y-76105655D01*
X120171619Y-76105655D02*
X120266857Y-76105655D01*
X120266857Y-76105655D02*
X120409714Y-76153274D01*
X120409714Y-76153274D02*
X120457333Y-76200893D01*
X120933524Y-77105655D02*
X121124000Y-77105655D01*
X121124000Y-77105655D02*
X121219238Y-77058036D01*
X121219238Y-77058036D02*
X121266857Y-77010416D01*
X121266857Y-77010416D02*
X121362095Y-76867559D01*
X121362095Y-76867559D02*
X121409714Y-76677083D01*
X121409714Y-76677083D02*
X121409714Y-76296131D01*
X121409714Y-76296131D02*
X121362095Y-76200893D01*
X121362095Y-76200893D02*
X121314476Y-76153274D01*
X121314476Y-76153274D02*
X121219238Y-76105655D01*
X121219238Y-76105655D02*
X121028762Y-76105655D01*
X121028762Y-76105655D02*
X120933524Y-76153274D01*
X120933524Y-76153274D02*
X120885905Y-76200893D01*
X120885905Y-76200893D02*
X120838286Y-76296131D01*
X120838286Y-76296131D02*
X120838286Y-76534226D01*
X120838286Y-76534226D02*
X120885905Y-76629464D01*
X120885905Y-76629464D02*
X120933524Y-76677083D01*
X120933524Y-76677083D02*
X121028762Y-76724702D01*
X121028762Y-76724702D02*
X121219238Y-76724702D01*
X121219238Y-76724702D02*
X121314476Y-76677083D01*
X121314476Y-76677083D02*
X121362095Y-76629464D01*
X121362095Y-76629464D02*
X121409714Y-76534226D01*
X129370238Y-103332283D02*
X129036905Y-102856092D01*
X128798810Y-103332283D02*
X128798810Y-102332283D01*
X128798810Y-102332283D02*
X129179762Y-102332283D01*
X129179762Y-102332283D02*
X129275000Y-102379902D01*
X129275000Y-102379902D02*
X129322619Y-102427521D01*
X129322619Y-102427521D02*
X129370238Y-102522759D01*
X129370238Y-102522759D02*
X129370238Y-102665616D01*
X129370238Y-102665616D02*
X129322619Y-102760854D01*
X129322619Y-102760854D02*
X129275000Y-102808473D01*
X129275000Y-102808473D02*
X129179762Y-102856092D01*
X129179762Y-102856092D02*
X128798810Y-102856092D01*
X130227381Y-102332283D02*
X130036905Y-102332283D01*
X130036905Y-102332283D02*
X129941667Y-102379902D01*
X129941667Y-102379902D02*
X129894048Y-102427521D01*
X129894048Y-102427521D02*
X129798810Y-102570378D01*
X129798810Y-102570378D02*
X129751191Y-102760854D01*
X129751191Y-102760854D02*
X129751191Y-103141806D01*
X129751191Y-103141806D02*
X129798810Y-103237044D01*
X129798810Y-103237044D02*
X129846429Y-103284664D01*
X129846429Y-103284664D02*
X129941667Y-103332283D01*
X129941667Y-103332283D02*
X130132143Y-103332283D01*
X130132143Y-103332283D02*
X130227381Y-103284664D01*
X130227381Y-103284664D02*
X130275000Y-103237044D01*
X130275000Y-103237044D02*
X130322619Y-103141806D01*
X130322619Y-103141806D02*
X130322619Y-102903711D01*
X130322619Y-102903711D02*
X130275000Y-102808473D01*
X130275000Y-102808473D02*
X130227381Y-102760854D01*
X130227381Y-102760854D02*
X130132143Y-102713235D01*
X130132143Y-102713235D02*
X129941667Y-102713235D01*
X129941667Y-102713235D02*
X129846429Y-102760854D01*
X129846429Y-102760854D02*
X129798810Y-102808473D01*
X129798810Y-102808473D02*
X129751191Y-102903711D01*
X137159580Y-85115502D02*
X137207200Y-85163121D01*
X137207200Y-85163121D02*
X137254819Y-85305978D01*
X137254819Y-85305978D02*
X137254819Y-85401216D01*
X137254819Y-85401216D02*
X137207200Y-85544073D01*
X137207200Y-85544073D02*
X137111961Y-85639311D01*
X137111961Y-85639311D02*
X137016723Y-85686930D01*
X137016723Y-85686930D02*
X136826247Y-85734549D01*
X136826247Y-85734549D02*
X136683390Y-85734549D01*
X136683390Y-85734549D02*
X136492914Y-85686930D01*
X136492914Y-85686930D02*
X136397676Y-85639311D01*
X136397676Y-85639311D02*
X136302438Y-85544073D01*
X136302438Y-85544073D02*
X136254819Y-85401216D01*
X136254819Y-85401216D02*
X136254819Y-85305978D01*
X136254819Y-85305978D02*
X136302438Y-85163121D01*
X136302438Y-85163121D02*
X136350057Y-85115502D01*
X136588152Y-84258359D02*
X137254819Y-84258359D01*
X136207200Y-84496454D02*
X136921485Y-84734549D01*
X136921485Y-84734549D02*
X136921485Y-84115502D01*
X131125333Y-82699655D02*
X130792000Y-82223464D01*
X130553905Y-82699655D02*
X130553905Y-81699655D01*
X130553905Y-81699655D02*
X130934857Y-81699655D01*
X130934857Y-81699655D02*
X131030095Y-81747274D01*
X131030095Y-81747274D02*
X131077714Y-81794893D01*
X131077714Y-81794893D02*
X131125333Y-81890131D01*
X131125333Y-81890131D02*
X131125333Y-82032988D01*
X131125333Y-82032988D02*
X131077714Y-82128226D01*
X131077714Y-82128226D02*
X131030095Y-82175845D01*
X131030095Y-82175845D02*
X130934857Y-82223464D01*
X130934857Y-82223464D02*
X130553905Y-82223464D01*
X131982476Y-82032988D02*
X131982476Y-82699655D01*
X131744381Y-81652036D02*
X131506286Y-82366321D01*
X131506286Y-82366321D02*
X132125333Y-82366321D01*
X142654819Y-89460740D02*
X143464342Y-89460740D01*
X143464342Y-89460740D02*
X143559580Y-89413121D01*
X143559580Y-89413121D02*
X143607200Y-89365502D01*
X143607200Y-89365502D02*
X143654819Y-89270264D01*
X143654819Y-89270264D02*
X143654819Y-89079788D01*
X143654819Y-89079788D02*
X143607200Y-88984550D01*
X143607200Y-88984550D02*
X143559580Y-88936931D01*
X143559580Y-88936931D02*
X143464342Y-88889312D01*
X143464342Y-88889312D02*
X142654819Y-88889312D01*
X142654819Y-87984550D02*
X142654819Y-88175026D01*
X142654819Y-88175026D02*
X142702438Y-88270264D01*
X142702438Y-88270264D02*
X142750057Y-88317883D01*
X142750057Y-88317883D02*
X142892914Y-88413121D01*
X142892914Y-88413121D02*
X143083390Y-88460740D01*
X143083390Y-88460740D02*
X143464342Y-88460740D01*
X143464342Y-88460740D02*
X143559580Y-88413121D01*
X143559580Y-88413121D02*
X143607200Y-88365502D01*
X143607200Y-88365502D02*
X143654819Y-88270264D01*
X143654819Y-88270264D02*
X143654819Y-88079788D01*
X143654819Y-88079788D02*
X143607200Y-87984550D01*
X143607200Y-87984550D02*
X143559580Y-87936931D01*
X143559580Y-87936931D02*
X143464342Y-87889312D01*
X143464342Y-87889312D02*
X143226247Y-87889312D01*
X143226247Y-87889312D02*
X143131009Y-87936931D01*
X143131009Y-87936931D02*
X143083390Y-87984550D01*
X143083390Y-87984550D02*
X143035771Y-88079788D01*
X143035771Y-88079788D02*
X143035771Y-88270264D01*
X143035771Y-88270264D02*
X143083390Y-88365502D01*
X143083390Y-88365502D02*
X143131009Y-88413121D01*
X143131009Y-88413121D02*
X143226247Y-88460740D01*
X133618580Y-76277693D02*
X133666200Y-76325312D01*
X133666200Y-76325312D02*
X133713819Y-76468169D01*
X133713819Y-76468169D02*
X133713819Y-76563407D01*
X133713819Y-76563407D02*
X133666200Y-76706264D01*
X133666200Y-76706264D02*
X133570961Y-76801502D01*
X133570961Y-76801502D02*
X133475723Y-76849121D01*
X133475723Y-76849121D02*
X133285247Y-76896740D01*
X133285247Y-76896740D02*
X133142390Y-76896740D01*
X133142390Y-76896740D02*
X132951914Y-76849121D01*
X132951914Y-76849121D02*
X132856676Y-76801502D01*
X132856676Y-76801502D02*
X132761438Y-76706264D01*
X132761438Y-76706264D02*
X132713819Y-76563407D01*
X132713819Y-76563407D02*
X132713819Y-76468169D01*
X132713819Y-76468169D02*
X132761438Y-76325312D01*
X132761438Y-76325312D02*
X132809057Y-76277693D01*
X133713819Y-75325312D02*
X133713819Y-75896740D01*
X133713819Y-75611026D02*
X132713819Y-75611026D01*
X132713819Y-75611026D02*
X132856676Y-75706264D01*
X132856676Y-75706264D02*
X132951914Y-75801502D01*
X132951914Y-75801502D02*
X132999533Y-75896740D01*
X133713819Y-74372931D02*
X133713819Y-74944359D01*
X133713819Y-74658645D02*
X132713819Y-74658645D01*
X132713819Y-74658645D02*
X132856676Y-74753883D01*
X132856676Y-74753883D02*
X132951914Y-74849121D01*
X132951914Y-74849121D02*
X132999533Y-74944359D01*
X160491666Y-99479819D02*
X160491666Y-100194104D01*
X160491666Y-100194104D02*
X160444047Y-100336961D01*
X160444047Y-100336961D02*
X160348809Y-100432200D01*
X160348809Y-100432200D02*
X160205952Y-100479819D01*
X160205952Y-100479819D02*
X160110714Y-100479819D01*
X160920238Y-99575057D02*
X160967857Y-99527438D01*
X160967857Y-99527438D02*
X161063095Y-99479819D01*
X161063095Y-99479819D02*
X161301190Y-99479819D01*
X161301190Y-99479819D02*
X161396428Y-99527438D01*
X161396428Y-99527438D02*
X161444047Y-99575057D01*
X161444047Y-99575057D02*
X161491666Y-99670295D01*
X161491666Y-99670295D02*
X161491666Y-99765533D01*
X161491666Y-99765533D02*
X161444047Y-99908390D01*
X161444047Y-99908390D02*
X160872619Y-100479819D01*
X160872619Y-100479819D02*
X161491666Y-100479819D01*
X121358332Y-95516636D02*
X121215475Y-95469016D01*
X121215475Y-95469016D02*
X120977380Y-95469016D01*
X120977380Y-95469016D02*
X120882142Y-95516636D01*
X120882142Y-95516636D02*
X120834523Y-95564255D01*
X120834523Y-95564255D02*
X120786904Y-95659493D01*
X120786904Y-95659493D02*
X120786904Y-95754731D01*
X120786904Y-95754731D02*
X120834523Y-95849969D01*
X120834523Y-95849969D02*
X120882142Y-95897588D01*
X120882142Y-95897588D02*
X120977380Y-95945207D01*
X120977380Y-95945207D02*
X121167856Y-95992826D01*
X121167856Y-95992826D02*
X121263094Y-96040445D01*
X121263094Y-96040445D02*
X121310713Y-96088064D01*
X121310713Y-96088064D02*
X121358332Y-96183302D01*
X121358332Y-96183302D02*
X121358332Y-96278540D01*
X121358332Y-96278540D02*
X121310713Y-96373778D01*
X121310713Y-96373778D02*
X121263094Y-96421397D01*
X121263094Y-96421397D02*
X121167856Y-96469016D01*
X121167856Y-96469016D02*
X120929761Y-96469016D01*
X120929761Y-96469016D02*
X120786904Y-96421397D01*
X120453570Y-96469016D02*
X120215475Y-95469016D01*
X120215475Y-95469016D02*
X120024999Y-96183302D01*
X120024999Y-96183302D02*
X119834523Y-95469016D01*
X119834523Y-95469016D02*
X119596428Y-96469016D01*
X118691666Y-95469016D02*
X119263094Y-95469016D01*
X118977380Y-95469016D02*
X118977380Y-96469016D01*
X118977380Y-96469016D02*
X119072618Y-96326159D01*
X119072618Y-96326159D02*
X119167856Y-96230921D01*
X119167856Y-96230921D02*
X119263094Y-96183302D01*
X123000000Y-97928655D02*
X123000000Y-98166750D01*
X122761905Y-98071512D02*
X123000000Y-98166750D01*
X123000000Y-98166750D02*
X123238095Y-98071512D01*
X122857143Y-98357226D02*
X123000000Y-98166750D01*
X123000000Y-98166750D02*
X123142857Y-98357226D01*
X122175000Y-97953655D02*
X122175000Y-98191750D01*
X121936905Y-98096512D02*
X122175000Y-98191750D01*
X122175000Y-98191750D02*
X122413095Y-98096512D01*
X122032143Y-98382226D02*
X122175000Y-98191750D01*
X122175000Y-98191750D02*
X122317857Y-98382226D01*
X139620819Y-90533502D02*
X139144628Y-90866835D01*
X139620819Y-91104930D02*
X138620819Y-91104930D01*
X138620819Y-91104930D02*
X138620819Y-90723978D01*
X138620819Y-90723978D02*
X138668438Y-90628740D01*
X138668438Y-90628740D02*
X138716057Y-90581121D01*
X138716057Y-90581121D02*
X138811295Y-90533502D01*
X138811295Y-90533502D02*
X138954152Y-90533502D01*
X138954152Y-90533502D02*
X139049390Y-90581121D01*
X139049390Y-90581121D02*
X139097009Y-90628740D01*
X139097009Y-90628740D02*
X139144628Y-90723978D01*
X139144628Y-90723978D02*
X139144628Y-91104930D01*
X138620819Y-90200168D02*
X138620819Y-89581121D01*
X138620819Y-89581121D02*
X139001771Y-89914454D01*
X139001771Y-89914454D02*
X139001771Y-89771597D01*
X139001771Y-89771597D02*
X139049390Y-89676359D01*
X139049390Y-89676359D02*
X139097009Y-89628740D01*
X139097009Y-89628740D02*
X139192247Y-89581121D01*
X139192247Y-89581121D02*
X139430342Y-89581121D01*
X139430342Y-89581121D02*
X139525580Y-89628740D01*
X139525580Y-89628740D02*
X139573200Y-89676359D01*
X139573200Y-89676359D02*
X139620819Y-89771597D01*
X139620819Y-89771597D02*
X139620819Y-90057311D01*
X139620819Y-90057311D02*
X139573200Y-90152549D01*
X139573200Y-90152549D02*
X139525580Y-90200168D01*
X124923095Y-72213655D02*
X124923095Y-73023178D01*
X124923095Y-73023178D02*
X124970714Y-73118416D01*
X124970714Y-73118416D02*
X125018333Y-73166036D01*
X125018333Y-73166036D02*
X125113571Y-73213655D01*
X125113571Y-73213655D02*
X125304047Y-73213655D01*
X125304047Y-73213655D02*
X125399285Y-73166036D01*
X125399285Y-73166036D02*
X125446904Y-73118416D01*
X125446904Y-73118416D02*
X125494523Y-73023178D01*
X125494523Y-73023178D02*
X125494523Y-72213655D01*
X126446904Y-72213655D02*
X125970714Y-72213655D01*
X125970714Y-72213655D02*
X125923095Y-72689845D01*
X125923095Y-72689845D02*
X125970714Y-72642226D01*
X125970714Y-72642226D02*
X126065952Y-72594607D01*
X126065952Y-72594607D02*
X126304047Y-72594607D01*
X126304047Y-72594607D02*
X126399285Y-72642226D01*
X126399285Y-72642226D02*
X126446904Y-72689845D01*
X126446904Y-72689845D02*
X126494523Y-72785083D01*
X126494523Y-72785083D02*
X126494523Y-73023178D01*
X126494523Y-73023178D02*
X126446904Y-73118416D01*
X126446904Y-73118416D02*
X126399285Y-73166036D01*
X126399285Y-73166036D02*
X126304047Y-73213655D01*
X126304047Y-73213655D02*
X126065952Y-73213655D01*
X126065952Y-73213655D02*
X125970714Y-73166036D01*
X125970714Y-73166036D02*
X125923095Y-73118416D01*
X118528667Y-81630036D02*
X118671524Y-81677655D01*
X118671524Y-81677655D02*
X118909619Y-81677655D01*
X118909619Y-81677655D02*
X119004857Y-81630036D01*
X119004857Y-81630036D02*
X119052476Y-81582416D01*
X119052476Y-81582416D02*
X119100095Y-81487178D01*
X119100095Y-81487178D02*
X119100095Y-81391940D01*
X119100095Y-81391940D02*
X119052476Y-81296702D01*
X119052476Y-81296702D02*
X119004857Y-81249083D01*
X119004857Y-81249083D02*
X118909619Y-81201464D01*
X118909619Y-81201464D02*
X118719143Y-81153845D01*
X118719143Y-81153845D02*
X118623905Y-81106226D01*
X118623905Y-81106226D02*
X118576286Y-81058607D01*
X118576286Y-81058607D02*
X118528667Y-80963369D01*
X118528667Y-80963369D02*
X118528667Y-80868131D01*
X118528667Y-80868131D02*
X118576286Y-80772893D01*
X118576286Y-80772893D02*
X118623905Y-80725274D01*
X118623905Y-80725274D02*
X118719143Y-80677655D01*
X118719143Y-80677655D02*
X118957238Y-80677655D01*
X118957238Y-80677655D02*
X119100095Y-80725274D01*
X119433429Y-80677655D02*
X119671524Y-81677655D01*
X119671524Y-81677655D02*
X119862000Y-80963369D01*
X119862000Y-80963369D02*
X120052476Y-81677655D01*
X120052476Y-81677655D02*
X120290572Y-80677655D01*
X120623905Y-80772893D02*
X120671524Y-80725274D01*
X120671524Y-80725274D02*
X120766762Y-80677655D01*
X120766762Y-80677655D02*
X121004857Y-80677655D01*
X121004857Y-80677655D02*
X121100095Y-80725274D01*
X121100095Y-80725274D02*
X121147714Y-80772893D01*
X121147714Y-80772893D02*
X121195333Y-80868131D01*
X121195333Y-80868131D02*
X121195333Y-80963369D01*
X121195333Y-80963369D02*
X121147714Y-81106226D01*
X121147714Y-81106226D02*
X120576286Y-81677655D01*
X120576286Y-81677655D02*
X121195333Y-81677655D01*
X117475000Y-78228655D02*
X117475000Y-78466750D01*
X117236905Y-78371512D02*
X117475000Y-78466750D01*
X117475000Y-78466750D02*
X117713095Y-78371512D01*
X117332143Y-78657226D02*
X117475000Y-78466750D01*
X117475000Y-78466750D02*
X117617857Y-78657226D01*
X117475000Y-77528655D02*
X117475000Y-77766750D01*
X117236905Y-77671512D02*
X117475000Y-77766750D01*
X117475000Y-77766750D02*
X117713095Y-77671512D01*
X117332143Y-77957226D02*
X117475000Y-77766750D01*
X117475000Y-77766750D02*
X117617857Y-77957226D01*
X139804819Y-87665502D02*
X139328628Y-87998835D01*
X139804819Y-88236930D02*
X138804819Y-88236930D01*
X138804819Y-88236930D02*
X138804819Y-87855978D01*
X138804819Y-87855978D02*
X138852438Y-87760740D01*
X138852438Y-87760740D02*
X138900057Y-87713121D01*
X138900057Y-87713121D02*
X138995295Y-87665502D01*
X138995295Y-87665502D02*
X139138152Y-87665502D01*
X139138152Y-87665502D02*
X139233390Y-87713121D01*
X139233390Y-87713121D02*
X139281009Y-87760740D01*
X139281009Y-87760740D02*
X139328628Y-87855978D01*
X139328628Y-87855978D02*
X139328628Y-88236930D01*
X138900057Y-87284549D02*
X138852438Y-87236930D01*
X138852438Y-87236930D02*
X138804819Y-87141692D01*
X138804819Y-87141692D02*
X138804819Y-86903597D01*
X138804819Y-86903597D02*
X138852438Y-86808359D01*
X138852438Y-86808359D02*
X138900057Y-86760740D01*
X138900057Y-86760740D02*
X138995295Y-86713121D01*
X138995295Y-86713121D02*
X139090533Y-86713121D01*
X139090533Y-86713121D02*
X139233390Y-86760740D01*
X139233390Y-86760740D02*
X139804819Y-87332168D01*
X139804819Y-87332168D02*
X139804819Y-86713121D01*
X129601333Y-97330416D02*
X129553714Y-97378036D01*
X129553714Y-97378036D02*
X129410857Y-97425655D01*
X129410857Y-97425655D02*
X129315619Y-97425655D01*
X129315619Y-97425655D02*
X129172762Y-97378036D01*
X129172762Y-97378036D02*
X129077524Y-97282797D01*
X129077524Y-97282797D02*
X129029905Y-97187559D01*
X129029905Y-97187559D02*
X128982286Y-96997083D01*
X128982286Y-96997083D02*
X128982286Y-96854226D01*
X128982286Y-96854226D02*
X129029905Y-96663750D01*
X129029905Y-96663750D02*
X129077524Y-96568512D01*
X129077524Y-96568512D02*
X129172762Y-96473274D01*
X129172762Y-96473274D02*
X129315619Y-96425655D01*
X129315619Y-96425655D02*
X129410857Y-96425655D01*
X129410857Y-96425655D02*
X129553714Y-96473274D01*
X129553714Y-96473274D02*
X129601333Y-96520893D01*
X129982286Y-96520893D02*
X130029905Y-96473274D01*
X130029905Y-96473274D02*
X130125143Y-96425655D01*
X130125143Y-96425655D02*
X130363238Y-96425655D01*
X130363238Y-96425655D02*
X130458476Y-96473274D01*
X130458476Y-96473274D02*
X130506095Y-96520893D01*
X130506095Y-96520893D02*
X130553714Y-96616131D01*
X130553714Y-96616131D02*
X130553714Y-96711369D01*
X130553714Y-96711369D02*
X130506095Y-96854226D01*
X130506095Y-96854226D02*
X129934667Y-97425655D01*
X129934667Y-97425655D02*
X130553714Y-97425655D01*
X156017333Y-75232416D02*
X155969714Y-75280036D01*
X155969714Y-75280036D02*
X155826857Y-75327655D01*
X155826857Y-75327655D02*
X155731619Y-75327655D01*
X155731619Y-75327655D02*
X155588762Y-75280036D01*
X155588762Y-75280036D02*
X155493524Y-75184797D01*
X155493524Y-75184797D02*
X155445905Y-75089559D01*
X155445905Y-75089559D02*
X155398286Y-74899083D01*
X155398286Y-74899083D02*
X155398286Y-74756226D01*
X155398286Y-74756226D02*
X155445905Y-74565750D01*
X155445905Y-74565750D02*
X155493524Y-74470512D01*
X155493524Y-74470512D02*
X155588762Y-74375274D01*
X155588762Y-74375274D02*
X155731619Y-74327655D01*
X155731619Y-74327655D02*
X155826857Y-74327655D01*
X155826857Y-74327655D02*
X155969714Y-74375274D01*
X155969714Y-74375274D02*
X156017333Y-74422893D01*
X156874476Y-74327655D02*
X156684000Y-74327655D01*
X156684000Y-74327655D02*
X156588762Y-74375274D01*
X156588762Y-74375274D02*
X156541143Y-74422893D01*
X156541143Y-74422893D02*
X156445905Y-74565750D01*
X156445905Y-74565750D02*
X156398286Y-74756226D01*
X156398286Y-74756226D02*
X156398286Y-75137178D01*
X156398286Y-75137178D02*
X156445905Y-75232416D01*
X156445905Y-75232416D02*
X156493524Y-75280036D01*
X156493524Y-75280036D02*
X156588762Y-75327655D01*
X156588762Y-75327655D02*
X156779238Y-75327655D01*
X156779238Y-75327655D02*
X156874476Y-75280036D01*
X156874476Y-75280036D02*
X156922095Y-75232416D01*
X156922095Y-75232416D02*
X156969714Y-75137178D01*
X156969714Y-75137178D02*
X156969714Y-74899083D01*
X156969714Y-74899083D02*
X156922095Y-74803845D01*
X156922095Y-74803845D02*
X156874476Y-74756226D01*
X156874476Y-74756226D02*
X156779238Y-74708607D01*
X156779238Y-74708607D02*
X156588762Y-74708607D01*
X156588762Y-74708607D02*
X156493524Y-74756226D01*
X156493524Y-74756226D02*
X156445905Y-74803845D01*
X156445905Y-74803845D02*
X156398286Y-74899083D01*
X124457142Y-99383655D02*
X124123809Y-98907464D01*
X123885714Y-99383655D02*
X123885714Y-98383655D01*
X123885714Y-98383655D02*
X124266666Y-98383655D01*
X124266666Y-98383655D02*
X124361904Y-98431274D01*
X124361904Y-98431274D02*
X124409523Y-98478893D01*
X124409523Y-98478893D02*
X124457142Y-98574131D01*
X124457142Y-98574131D02*
X124457142Y-98716988D01*
X124457142Y-98716988D02*
X124409523Y-98812226D01*
X124409523Y-98812226D02*
X124361904Y-98859845D01*
X124361904Y-98859845D02*
X124266666Y-98907464D01*
X124266666Y-98907464D02*
X123885714Y-98907464D01*
X125409523Y-99383655D02*
X124838095Y-99383655D01*
X125123809Y-99383655D02*
X125123809Y-98383655D01*
X125123809Y-98383655D02*
X125028571Y-98526512D01*
X125028571Y-98526512D02*
X124933333Y-98621750D01*
X124933333Y-98621750D02*
X124838095Y-98669369D01*
X126361904Y-99383655D02*
X125790476Y-99383655D01*
X126076190Y-99383655D02*
X126076190Y-98383655D01*
X126076190Y-98383655D02*
X125980952Y-98526512D01*
X125980952Y-98526512D02*
X125885714Y-98621750D01*
X125885714Y-98621750D02*
X125790476Y-98669369D01*
X130133333Y-79322580D02*
X130085714Y-79370200D01*
X130085714Y-79370200D02*
X129942857Y-79417819D01*
X129942857Y-79417819D02*
X129847619Y-79417819D01*
X129847619Y-79417819D02*
X129704762Y-79370200D01*
X129704762Y-79370200D02*
X129609524Y-79274961D01*
X129609524Y-79274961D02*
X129561905Y-79179723D01*
X129561905Y-79179723D02*
X129514286Y-78989247D01*
X129514286Y-78989247D02*
X129514286Y-78846390D01*
X129514286Y-78846390D02*
X129561905Y-78655914D01*
X129561905Y-78655914D02*
X129609524Y-78560676D01*
X129609524Y-78560676D02*
X129704762Y-78465438D01*
X129704762Y-78465438D02*
X129847619Y-78417819D01*
X129847619Y-78417819D02*
X129942857Y-78417819D01*
X129942857Y-78417819D02*
X130085714Y-78465438D01*
X130085714Y-78465438D02*
X130133333Y-78513057D01*
X130704762Y-78846390D02*
X130609524Y-78798771D01*
X130609524Y-78798771D02*
X130561905Y-78751152D01*
X130561905Y-78751152D02*
X130514286Y-78655914D01*
X130514286Y-78655914D02*
X130514286Y-78608295D01*
X130514286Y-78608295D02*
X130561905Y-78513057D01*
X130561905Y-78513057D02*
X130609524Y-78465438D01*
X130609524Y-78465438D02*
X130704762Y-78417819D01*
X130704762Y-78417819D02*
X130895238Y-78417819D01*
X130895238Y-78417819D02*
X130990476Y-78465438D01*
X130990476Y-78465438D02*
X131038095Y-78513057D01*
X131038095Y-78513057D02*
X131085714Y-78608295D01*
X131085714Y-78608295D02*
X131085714Y-78655914D01*
X131085714Y-78655914D02*
X131038095Y-78751152D01*
X131038095Y-78751152D02*
X130990476Y-78798771D01*
X130990476Y-78798771D02*
X130895238Y-78846390D01*
X130895238Y-78846390D02*
X130704762Y-78846390D01*
X130704762Y-78846390D02*
X130609524Y-78894009D01*
X130609524Y-78894009D02*
X130561905Y-78941628D01*
X130561905Y-78941628D02*
X130514286Y-79036866D01*
X130514286Y-79036866D02*
X130514286Y-79227342D01*
X130514286Y-79227342D02*
X130561905Y-79322580D01*
X130561905Y-79322580D02*
X130609524Y-79370200D01*
X130609524Y-79370200D02*
X130704762Y-79417819D01*
X130704762Y-79417819D02*
X130895238Y-79417819D01*
X130895238Y-79417819D02*
X130990476Y-79370200D01*
X130990476Y-79370200D02*
X131038095Y-79322580D01*
X131038095Y-79322580D02*
X131085714Y-79227342D01*
X131085714Y-79227342D02*
X131085714Y-79036866D01*
X131085714Y-79036866D02*
X131038095Y-78941628D01*
X131038095Y-78941628D02*
X130990476Y-78894009D01*
X130990476Y-78894009D02*
X130895238Y-78846390D01*
X147291666Y-99629819D02*
X147291666Y-100344104D01*
X147291666Y-100344104D02*
X147244047Y-100486961D01*
X147244047Y-100486961D02*
X147148809Y-100582200D01*
X147148809Y-100582200D02*
X147005952Y-100629819D01*
X147005952Y-100629819D02*
X146910714Y-100629819D01*
X148196428Y-99629819D02*
X148005952Y-99629819D01*
X148005952Y-99629819D02*
X147910714Y-99677438D01*
X147910714Y-99677438D02*
X147863095Y-99725057D01*
X147863095Y-99725057D02*
X147767857Y-99867914D01*
X147767857Y-99867914D02*
X147720238Y-100058390D01*
X147720238Y-100058390D02*
X147720238Y-100439342D01*
X147720238Y-100439342D02*
X147767857Y-100534580D01*
X147767857Y-100534580D02*
X147815476Y-100582200D01*
X147815476Y-100582200D02*
X147910714Y-100629819D01*
X147910714Y-100629819D02*
X148101190Y-100629819D01*
X148101190Y-100629819D02*
X148196428Y-100582200D01*
X148196428Y-100582200D02*
X148244047Y-100534580D01*
X148244047Y-100534580D02*
X148291666Y-100439342D01*
X148291666Y-100439342D02*
X148291666Y-100201247D01*
X148291666Y-100201247D02*
X148244047Y-100106009D01*
X148244047Y-100106009D02*
X148196428Y-100058390D01*
X148196428Y-100058390D02*
X148101190Y-100010771D01*
X148101190Y-100010771D02*
X147910714Y-100010771D01*
X147910714Y-100010771D02*
X147815476Y-100058390D01*
X147815476Y-100058390D02*
X147767857Y-100106009D01*
X147767857Y-100106009D02*
X147720238Y-100201247D01*
X132979819Y-97866693D02*
X132503628Y-98200026D01*
X132979819Y-98438121D02*
X131979819Y-98438121D01*
X131979819Y-98438121D02*
X131979819Y-98057169D01*
X131979819Y-98057169D02*
X132027438Y-97961931D01*
X132027438Y-97961931D02*
X132075057Y-97914312D01*
X132075057Y-97914312D02*
X132170295Y-97866693D01*
X132170295Y-97866693D02*
X132313152Y-97866693D01*
X132313152Y-97866693D02*
X132408390Y-97914312D01*
X132408390Y-97914312D02*
X132456009Y-97961931D01*
X132456009Y-97961931D02*
X132503628Y-98057169D01*
X132503628Y-98057169D02*
X132503628Y-98438121D01*
X132979819Y-96914312D02*
X132979819Y-97485740D01*
X132979819Y-97200026D02*
X131979819Y-97200026D01*
X131979819Y-97200026D02*
X132122676Y-97295264D01*
X132122676Y-97295264D02*
X132217914Y-97390502D01*
X132217914Y-97390502D02*
X132265533Y-97485740D01*
X131979819Y-96009550D02*
X131979819Y-96485740D01*
X131979819Y-96485740D02*
X132456009Y-96533359D01*
X132456009Y-96533359D02*
X132408390Y-96485740D01*
X132408390Y-96485740D02*
X132360771Y-96390502D01*
X132360771Y-96390502D02*
X132360771Y-96152407D01*
X132360771Y-96152407D02*
X132408390Y-96057169D01*
X132408390Y-96057169D02*
X132456009Y-96009550D01*
X132456009Y-96009550D02*
X132551247Y-95961931D01*
X132551247Y-95961931D02*
X132789342Y-95961931D01*
X132789342Y-95961931D02*
X132884580Y-96009550D01*
X132884580Y-96009550D02*
X132932200Y-96057169D01*
X132932200Y-96057169D02*
X132979819Y-96152407D01*
X132979819Y-96152407D02*
X132979819Y-96390502D01*
X132979819Y-96390502D02*
X132932200Y-96485740D01*
X132932200Y-96485740D02*
X132884580Y-96533359D01*
X133433333Y-85008416D02*
X133385714Y-85056036D01*
X133385714Y-85056036D02*
X133242857Y-85103655D01*
X133242857Y-85103655D02*
X133147619Y-85103655D01*
X133147619Y-85103655D02*
X133004762Y-85056036D01*
X133004762Y-85056036D02*
X132909524Y-84960797D01*
X132909524Y-84960797D02*
X132861905Y-84865559D01*
X132861905Y-84865559D02*
X132814286Y-84675083D01*
X132814286Y-84675083D02*
X132814286Y-84532226D01*
X132814286Y-84532226D02*
X132861905Y-84341750D01*
X132861905Y-84341750D02*
X132909524Y-84246512D01*
X132909524Y-84246512D02*
X133004762Y-84151274D01*
X133004762Y-84151274D02*
X133147619Y-84103655D01*
X133147619Y-84103655D02*
X133242857Y-84103655D01*
X133242857Y-84103655D02*
X133385714Y-84151274D01*
X133385714Y-84151274D02*
X133433333Y-84198893D01*
X134385714Y-85103655D02*
X133814286Y-85103655D01*
X134100000Y-85103655D02*
X134100000Y-84103655D01*
X134100000Y-84103655D02*
X134004762Y-84246512D01*
X134004762Y-84246512D02*
X133909524Y-84341750D01*
X133909524Y-84341750D02*
X133814286Y-84389369D01*
X127013095Y-80803655D02*
X127013095Y-81613178D01*
X127013095Y-81613178D02*
X127060714Y-81708416D01*
X127060714Y-81708416D02*
X127108333Y-81756036D01*
X127108333Y-81756036D02*
X127203571Y-81803655D01*
X127203571Y-81803655D02*
X127394047Y-81803655D01*
X127394047Y-81803655D02*
X127489285Y-81756036D01*
X127489285Y-81756036D02*
X127536904Y-81708416D01*
X127536904Y-81708416D02*
X127584523Y-81613178D01*
X127584523Y-81613178D02*
X127584523Y-80803655D01*
X128489285Y-81136988D02*
X128489285Y-81803655D01*
X128251190Y-80756036D02*
X128013095Y-81470321D01*
X128013095Y-81470321D02*
X128632142Y-81470321D01*
X162639580Y-76817502D02*
X162687200Y-76865121D01*
X162687200Y-76865121D02*
X162734819Y-77007978D01*
X162734819Y-77007978D02*
X162734819Y-77103216D01*
X162734819Y-77103216D02*
X162687200Y-77246073D01*
X162687200Y-77246073D02*
X162591961Y-77341311D01*
X162591961Y-77341311D02*
X162496723Y-77388930D01*
X162496723Y-77388930D02*
X162306247Y-77436549D01*
X162306247Y-77436549D02*
X162163390Y-77436549D01*
X162163390Y-77436549D02*
X161972914Y-77388930D01*
X161972914Y-77388930D02*
X161877676Y-77341311D01*
X161877676Y-77341311D02*
X161782438Y-77246073D01*
X161782438Y-77246073D02*
X161734819Y-77103216D01*
X161734819Y-77103216D02*
X161734819Y-77007978D01*
X161734819Y-77007978D02*
X161782438Y-76865121D01*
X161782438Y-76865121D02*
X161830057Y-76817502D01*
X161734819Y-76484168D02*
X161734819Y-75817502D01*
X161734819Y-75817502D02*
X162734819Y-76246073D01*
X124083333Y-94854819D02*
X123750000Y-94378628D01*
X123511905Y-94854819D02*
X123511905Y-93854819D01*
X123511905Y-93854819D02*
X123892857Y-93854819D01*
X123892857Y-93854819D02*
X123988095Y-93902438D01*
X123988095Y-93902438D02*
X124035714Y-93950057D01*
X124035714Y-93950057D02*
X124083333Y-94045295D01*
X124083333Y-94045295D02*
X124083333Y-94188152D01*
X124083333Y-94188152D02*
X124035714Y-94283390D01*
X124035714Y-94283390D02*
X123988095Y-94331009D01*
X123988095Y-94331009D02*
X123892857Y-94378628D01*
X123892857Y-94378628D02*
X123511905Y-94378628D01*
X124654762Y-94283390D02*
X124559524Y-94235771D01*
X124559524Y-94235771D02*
X124511905Y-94188152D01*
X124511905Y-94188152D02*
X124464286Y-94092914D01*
X124464286Y-94092914D02*
X124464286Y-94045295D01*
X124464286Y-94045295D02*
X124511905Y-93950057D01*
X124511905Y-93950057D02*
X124559524Y-93902438D01*
X124559524Y-93902438D02*
X124654762Y-93854819D01*
X124654762Y-93854819D02*
X124845238Y-93854819D01*
X124845238Y-93854819D02*
X124940476Y-93902438D01*
X124940476Y-93902438D02*
X124988095Y-93950057D01*
X124988095Y-93950057D02*
X125035714Y-94045295D01*
X125035714Y-94045295D02*
X125035714Y-94092914D01*
X125035714Y-94092914D02*
X124988095Y-94188152D01*
X124988095Y-94188152D02*
X124940476Y-94235771D01*
X124940476Y-94235771D02*
X124845238Y-94283390D01*
X124845238Y-94283390D02*
X124654762Y-94283390D01*
X124654762Y-94283390D02*
X124559524Y-94331009D01*
X124559524Y-94331009D02*
X124511905Y-94378628D01*
X124511905Y-94378628D02*
X124464286Y-94473866D01*
X124464286Y-94473866D02*
X124464286Y-94664342D01*
X124464286Y-94664342D02*
X124511905Y-94759580D01*
X124511905Y-94759580D02*
X124559524Y-94807200D01*
X124559524Y-94807200D02*
X124654762Y-94854819D01*
X124654762Y-94854819D02*
X124845238Y-94854819D01*
X124845238Y-94854819D02*
X124940476Y-94807200D01*
X124940476Y-94807200D02*
X124988095Y-94759580D01*
X124988095Y-94759580D02*
X125035714Y-94664342D01*
X125035714Y-94664342D02*
X125035714Y-94473866D01*
X125035714Y-94473866D02*
X124988095Y-94378628D01*
X124988095Y-94378628D02*
X124940476Y-94331009D01*
X124940476Y-94331009D02*
X124845238Y-94283390D01*
X128938095Y-87003655D02*
X128938095Y-87813178D01*
X128938095Y-87813178D02*
X128985714Y-87908416D01*
X128985714Y-87908416D02*
X129033333Y-87956036D01*
X129033333Y-87956036D02*
X129128571Y-88003655D01*
X129128571Y-88003655D02*
X129319047Y-88003655D01*
X129319047Y-88003655D02*
X129414285Y-87956036D01*
X129414285Y-87956036D02*
X129461904Y-87908416D01*
X129461904Y-87908416D02*
X129509523Y-87813178D01*
X129509523Y-87813178D02*
X129509523Y-87003655D01*
X129938095Y-87098893D02*
X129985714Y-87051274D01*
X129985714Y-87051274D02*
X130080952Y-87003655D01*
X130080952Y-87003655D02*
X130319047Y-87003655D01*
X130319047Y-87003655D02*
X130414285Y-87051274D01*
X130414285Y-87051274D02*
X130461904Y-87098893D01*
X130461904Y-87098893D02*
X130509523Y-87194131D01*
X130509523Y-87194131D02*
X130509523Y-87289369D01*
X130509523Y-87289369D02*
X130461904Y-87432226D01*
X130461904Y-87432226D02*
X129890476Y-88003655D01*
X129890476Y-88003655D02*
X130509523Y-88003655D01*
X139554819Y-97591693D02*
X139078628Y-97925026D01*
X139554819Y-98163121D02*
X138554819Y-98163121D01*
X138554819Y-98163121D02*
X138554819Y-97782169D01*
X138554819Y-97782169D02*
X138602438Y-97686931D01*
X138602438Y-97686931D02*
X138650057Y-97639312D01*
X138650057Y-97639312D02*
X138745295Y-97591693D01*
X138745295Y-97591693D02*
X138888152Y-97591693D01*
X138888152Y-97591693D02*
X138983390Y-97639312D01*
X138983390Y-97639312D02*
X139031009Y-97686931D01*
X139031009Y-97686931D02*
X139078628Y-97782169D01*
X139078628Y-97782169D02*
X139078628Y-98163121D01*
X139554819Y-96639312D02*
X139554819Y-97210740D01*
X139554819Y-96925026D02*
X138554819Y-96925026D01*
X138554819Y-96925026D02*
X138697676Y-97020264D01*
X138697676Y-97020264D02*
X138792914Y-97115502D01*
X138792914Y-97115502D02*
X138840533Y-97210740D01*
X138554819Y-95782169D02*
X138554819Y-95972645D01*
X138554819Y-95972645D02*
X138602438Y-96067883D01*
X138602438Y-96067883D02*
X138650057Y-96115502D01*
X138650057Y-96115502D02*
X138792914Y-96210740D01*
X138792914Y-96210740D02*
X138983390Y-96258359D01*
X138983390Y-96258359D02*
X139364342Y-96258359D01*
X139364342Y-96258359D02*
X139459580Y-96210740D01*
X139459580Y-96210740D02*
X139507200Y-96163121D01*
X139507200Y-96163121D02*
X139554819Y-96067883D01*
X139554819Y-96067883D02*
X139554819Y-95877407D01*
X139554819Y-95877407D02*
X139507200Y-95782169D01*
X139507200Y-95782169D02*
X139459580Y-95734550D01*
X139459580Y-95734550D02*
X139364342Y-95686931D01*
X139364342Y-95686931D02*
X139126247Y-95686931D01*
X139126247Y-95686931D02*
X139031009Y-95734550D01*
X139031009Y-95734550D02*
X138983390Y-95782169D01*
X138983390Y-95782169D02*
X138935771Y-95877407D01*
X138935771Y-95877407D02*
X138935771Y-96067883D01*
X138935771Y-96067883D02*
X138983390Y-96163121D01*
X138983390Y-96163121D02*
X139031009Y-96210740D01*
X139031009Y-96210740D02*
X139126247Y-96258359D01*
X135475142Y-93361655D02*
X135141809Y-92885464D01*
X134903714Y-93361655D02*
X134903714Y-92361655D01*
X134903714Y-92361655D02*
X135284666Y-92361655D01*
X135284666Y-92361655D02*
X135379904Y-92409274D01*
X135379904Y-92409274D02*
X135427523Y-92456893D01*
X135427523Y-92456893D02*
X135475142Y-92552131D01*
X135475142Y-92552131D02*
X135475142Y-92694988D01*
X135475142Y-92694988D02*
X135427523Y-92790226D01*
X135427523Y-92790226D02*
X135379904Y-92837845D01*
X135379904Y-92837845D02*
X135284666Y-92885464D01*
X135284666Y-92885464D02*
X134903714Y-92885464D01*
X136427523Y-93361655D02*
X135856095Y-93361655D01*
X136141809Y-93361655D02*
X136141809Y-92361655D01*
X136141809Y-92361655D02*
X136046571Y-92504512D01*
X136046571Y-92504512D02*
X135951333Y-92599750D01*
X135951333Y-92599750D02*
X135856095Y-92647369D01*
X137046571Y-92361655D02*
X137141809Y-92361655D01*
X137141809Y-92361655D02*
X137237047Y-92409274D01*
X137237047Y-92409274D02*
X137284666Y-92456893D01*
X137284666Y-92456893D02*
X137332285Y-92552131D01*
X137332285Y-92552131D02*
X137379904Y-92742607D01*
X137379904Y-92742607D02*
X137379904Y-92980702D01*
X137379904Y-92980702D02*
X137332285Y-93171178D01*
X137332285Y-93171178D02*
X137284666Y-93266416D01*
X137284666Y-93266416D02*
X137237047Y-93314036D01*
X137237047Y-93314036D02*
X137141809Y-93361655D01*
X137141809Y-93361655D02*
X137046571Y-93361655D01*
X137046571Y-93361655D02*
X136951333Y-93314036D01*
X136951333Y-93314036D02*
X136903714Y-93266416D01*
X136903714Y-93266416D02*
X136856095Y-93171178D01*
X136856095Y-93171178D02*
X136808476Y-92980702D01*
X136808476Y-92980702D02*
X136808476Y-92742607D01*
X136808476Y-92742607D02*
X136856095Y-92552131D01*
X136856095Y-92552131D02*
X136903714Y-92456893D01*
X136903714Y-92456893D02*
X136951333Y-92409274D01*
X136951333Y-92409274D02*
X137046571Y-92361655D01*
X167868095Y-78137655D02*
X167868095Y-78947178D01*
X167868095Y-78947178D02*
X167915714Y-79042416D01*
X167915714Y-79042416D02*
X167963333Y-79090036D01*
X167963333Y-79090036D02*
X168058571Y-79137655D01*
X168058571Y-79137655D02*
X168249047Y-79137655D01*
X168249047Y-79137655D02*
X168344285Y-79090036D01*
X168344285Y-79090036D02*
X168391904Y-79042416D01*
X168391904Y-79042416D02*
X168439523Y-78947178D01*
X168439523Y-78947178D02*
X168439523Y-78137655D01*
X169439523Y-79137655D02*
X168868095Y-79137655D01*
X169153809Y-79137655D02*
X169153809Y-78137655D01*
X169153809Y-78137655D02*
X169058571Y-78280512D01*
X169058571Y-78280512D02*
X168963333Y-78375750D01*
X168963333Y-78375750D02*
X168868095Y-78423369D01*
X165054819Y-78748835D02*
X165292914Y-78748835D01*
X165197676Y-78986930D02*
X165292914Y-78748835D01*
X165292914Y-78748835D02*
X165197676Y-78510740D01*
X165483390Y-78891692D02*
X165292914Y-78748835D01*
X165292914Y-78748835D02*
X165483390Y-78605978D01*
X166395180Y-78748836D02*
X166157085Y-78748836D01*
X166252323Y-78510741D02*
X166157085Y-78748836D01*
X166157085Y-78748836D02*
X166252323Y-78986931D01*
X165966609Y-78605979D02*
X166157085Y-78748836D01*
X166157085Y-78748836D02*
X165966609Y-78891693D01*
X137461905Y-103178655D02*
X137461905Y-102178655D01*
X137461905Y-102178655D02*
X137700000Y-102178655D01*
X137700000Y-102178655D02*
X137842857Y-102226274D01*
X137842857Y-102226274D02*
X137938095Y-102321512D01*
X137938095Y-102321512D02*
X137985714Y-102416750D01*
X137985714Y-102416750D02*
X138033333Y-102607226D01*
X138033333Y-102607226D02*
X138033333Y-102750083D01*
X138033333Y-102750083D02*
X137985714Y-102940559D01*
X137985714Y-102940559D02*
X137938095Y-103035797D01*
X137938095Y-103035797D02*
X137842857Y-103131036D01*
X137842857Y-103131036D02*
X137700000Y-103178655D01*
X137700000Y-103178655D02*
X137461905Y-103178655D01*
X138985714Y-103178655D02*
X138414286Y-103178655D01*
X138700000Y-103178655D02*
X138700000Y-102178655D01*
X138700000Y-102178655D02*
X138604762Y-102321512D01*
X138604762Y-102321512D02*
X138509524Y-102416750D01*
X138509524Y-102416750D02*
X138414286Y-102464369D01*
X138591666Y-74171819D02*
X138591666Y-74886104D01*
X138591666Y-74886104D02*
X138544047Y-75028961D01*
X138544047Y-75028961D02*
X138448809Y-75124200D01*
X138448809Y-75124200D02*
X138305952Y-75171819D01*
X138305952Y-75171819D02*
X138210714Y-75171819D01*
X138972619Y-74171819D02*
X139591666Y-74171819D01*
X139591666Y-74171819D02*
X139258333Y-74552771D01*
X139258333Y-74552771D02*
X139401190Y-74552771D01*
X139401190Y-74552771D02*
X139496428Y-74600390D01*
X139496428Y-74600390D02*
X139544047Y-74648009D01*
X139544047Y-74648009D02*
X139591666Y-74743247D01*
X139591666Y-74743247D02*
X139591666Y-74981342D01*
X139591666Y-74981342D02*
X139544047Y-75076580D01*
X139544047Y-75076580D02*
X139496428Y-75124200D01*
X139496428Y-75124200D02*
X139401190Y-75171819D01*
X139401190Y-75171819D02*
X139115476Y-75171819D01*
X139115476Y-75171819D02*
X139020238Y-75124200D01*
X139020238Y-75124200D02*
X138972619Y-75076580D01*
D12*
%TO.C,R5*%
X131352500Y-100336578D02*
X131352500Y-100811094D01*
X132397500Y-100336578D02*
X132397500Y-100811094D01*
%TO.C,R1*%
X124912258Y-79226336D02*
X124437742Y-79226336D01*
X124912258Y-80271336D02*
X124437742Y-80271336D01*
%TO.C,R7*%
X126912258Y-101476336D02*
X126437742Y-101476336D01*
X126912258Y-102521336D02*
X126437742Y-102521336D01*
%TO.C,D2*%
X135140000Y-98751336D02*
X135140000Y-101436336D01*
X137060000Y-98751336D02*
X135140000Y-98751336D01*
X137060000Y-101436336D02*
X137060000Y-98751336D01*
%TO.C,R14*%
X157277500Y-100186578D02*
X157277500Y-100661094D01*
X158322500Y-100186578D02*
X158322500Y-100661094D01*
%TO.C,D3*%
X121227500Y-101038836D02*
X121227500Y-102958836D01*
X121227500Y-102958836D02*
X123912500Y-102958836D01*
X123912500Y-101038836D02*
X121227500Y-101038836D01*
%TO.C,C10*%
X120638748Y-98763836D02*
X121161252Y-98763836D01*
X120638748Y-100233836D02*
X121161252Y-100233836D01*
%TO.C,C3*%
X132087742Y-92726336D02*
X132562258Y-92726336D01*
X132087742Y-93771336D02*
X132562258Y-93771336D01*
%TO.C,C5*%
X126865000Y-94187584D02*
X126865000Y-94710088D01*
X128335000Y-94187584D02*
X128335000Y-94710088D01*
D13*
%TO.C,J1*%
X120950000Y-84119586D02*
X119450000Y-84119586D01*
X120950000Y-93059586D02*
X119450000Y-93059586D01*
D14*
X124200000Y-85389586D02*
G75*
G02*
X124000000Y-85389586I-100000J0D01*
G01*
X124000000Y-85389586D02*
G75*
G02*
X124200000Y-85389586I100000J0D01*
G01*
D12*
%TO.C,R9*%
X124077500Y-84061094D02*
X124077500Y-83586578D01*
X125122500Y-84061094D02*
X125122500Y-83586578D01*
%TO.C,C9*%
X119388748Y-77513836D02*
X119911252Y-77513836D01*
X119388748Y-78983836D02*
X119911252Y-78983836D01*
%TO.C,R6*%
X129752500Y-100336578D02*
X129752500Y-100811094D01*
X130797500Y-100336578D02*
X130797500Y-100811094D01*
%TO.C,C4*%
X134827500Y-86411094D02*
X134827500Y-85936578D01*
X135872500Y-86411094D02*
X135872500Y-85936578D01*
%TO.C,R4*%
X131112742Y-82986336D02*
X131587258Y-82986336D01*
X131112742Y-84031336D02*
X131587258Y-84031336D01*
D15*
%TO.C,U6*%
X138225800Y-77514736D02*
X138225800Y-100273136D01*
X138225800Y-100273136D02*
X144474200Y-100273136D01*
X144474200Y-77514736D02*
X138225800Y-77514736D01*
X144474200Y-100273136D02*
X144474200Y-77514736D01*
D16*
X141731000Y-102051136D02*
G75*
G02*
X140969000Y-102051136I-381000J0D01*
G01*
X140969000Y-102051136D02*
G75*
G02*
X141731000Y-102051136I381000J0D01*
G01*
D12*
%TO.C,C11*%
X130161420Y-74613836D02*
X130442580Y-74613836D01*
X130161420Y-75633836D02*
X130442580Y-75633836D01*
D13*
%TO.C,J2*%
X159450000Y-99000000D02*
X165350000Y-99000000D01*
X159450000Y-103500000D02*
X159450000Y-99000000D01*
X165350000Y-99000000D02*
X165350000Y-103500000D01*
X165350000Y-103500000D02*
X159450000Y-103500000D01*
D14*
X163500000Y-103050000D02*
G75*
G02*
X163300000Y-103050000I-100000J0D01*
G01*
X163300000Y-103050000D02*
G75*
G02*
X163500000Y-103050000I100000J0D01*
G01*
D15*
%TO.C,SW1*%
X117497700Y-95511776D02*
X117497700Y-96335896D01*
X118697850Y-97651036D02*
X121352150Y-97651036D01*
X121352150Y-94196636D02*
X118697850Y-94196636D01*
X122552300Y-96335896D02*
X122552300Y-95511776D01*
D12*
%TO.C,U3*%
X133077500Y-88138836D02*
X134897500Y-88138836D01*
X133077500Y-88188836D02*
X133077500Y-88138836D01*
X133077500Y-91258836D02*
X133077500Y-91208836D01*
X134897500Y-88138836D02*
X134897500Y-88188836D01*
X134897500Y-89308836D02*
X134897500Y-90088836D01*
X134897500Y-91208836D02*
X134897500Y-91258836D01*
X134897500Y-91258836D02*
X133077500Y-91258836D01*
X132537500Y-88188836D02*
X132297500Y-87858836D01*
X132777500Y-87858836D01*
X132537500Y-88188836D01*
G36*
X132537500Y-88188836D02*
G01*
X132297500Y-87858836D01*
X132777500Y-87858836D01*
X132537500Y-88188836D01*
G37*
%TO.C,C13*%
X153990000Y-100614416D02*
X153990000Y-100333256D01*
X155010000Y-100614416D02*
X155010000Y-100333256D01*
%TO.C,R3*%
X136577500Y-90586578D02*
X136577500Y-91061094D01*
X137622500Y-90586578D02*
X137622500Y-91061094D01*
D13*
%TO.C,U5*%
X123350000Y-74998836D02*
X123350000Y-75293836D01*
X123350000Y-74998836D02*
X123645000Y-74998836D01*
X123350000Y-77998836D02*
X123350000Y-77703836D01*
X123350000Y-77998836D02*
X123645000Y-77998836D01*
X126350000Y-74998836D02*
X126055000Y-74998836D01*
X126350000Y-74998836D02*
X126350000Y-75293836D01*
X126350000Y-77998836D02*
X126055000Y-77998836D01*
X126350000Y-77998836D02*
X126350000Y-77703836D01*
D14*
X122475000Y-75748836D02*
G75*
G02*
X122275000Y-75748836I-100000J0D01*
G01*
X122275000Y-75748836D02*
G75*
G02*
X122475000Y-75748836I100000J0D01*
G01*
D15*
%TO.C,SW2*%
X117322700Y-80836776D02*
X117322700Y-81660896D01*
X118522850Y-82976036D02*
X121177150Y-82976036D01*
X121177150Y-79521636D02*
X118522850Y-79521636D01*
X122377300Y-81660896D02*
X122377300Y-80836776D01*
D12*
%TO.C,R2*%
X136577500Y-87336578D02*
X136577500Y-87811094D01*
X137622500Y-87336578D02*
X137622500Y-87811094D01*
%TO.C,C2*%
X128915000Y-94187584D02*
X128915000Y-94710088D01*
X130385000Y-94187584D02*
X130385000Y-94710088D01*
%TO.C,C6*%
X157490000Y-76960088D02*
X157490000Y-75537584D01*
X159310000Y-76960088D02*
X159310000Y-75537584D01*
%TO.C,R11*%
X125012258Y-96976336D02*
X124537742Y-96976336D01*
X125012258Y-98021336D02*
X124537742Y-98021336D01*
%TO.C,C8*%
X129588748Y-76190000D02*
X131011252Y-76190000D01*
X129588748Y-78010000D02*
X131011252Y-78010000D01*
D13*
%TO.C,J6*%
X146350000Y-99000000D02*
X152250000Y-99000000D01*
X146350000Y-103500000D02*
X146350000Y-99000000D01*
X152250000Y-99000000D02*
X152250000Y-103500000D01*
X152250000Y-103500000D02*
X146350000Y-103500000D01*
D14*
X150400000Y-103050000D02*
G75*
G02*
X150200000Y-103050000I-100000J0D01*
G01*
X150200000Y-103050000D02*
G75*
G02*
X150400000Y-103050000I100000J0D01*
G01*
D12*
%TO.C,R15*%
X133377500Y-96911094D02*
X133377500Y-96436578D01*
X134422500Y-96911094D02*
X134422500Y-96436578D01*
%TO.C,C1*%
X132138748Y-85513836D02*
X132661252Y-85513836D01*
X132138748Y-86983836D02*
X132661252Y-86983836D01*
%TO.C,R13*%
X155577500Y-100661094D02*
X155577500Y-100186578D01*
X156622500Y-100661094D02*
X156622500Y-100186578D01*
D13*
%TO.C,U4*%
X126285000Y-83936336D02*
X126285000Y-85561336D01*
X129415000Y-83936336D02*
X129415000Y-85561336D01*
D14*
X127005000Y-87303836D02*
G75*
G02*
X126805000Y-87303836I-100000J0D01*
G01*
X126805000Y-87303836D02*
G75*
G02*
X127005000Y-87303836I100000J0D01*
G01*
D12*
%TO.C,C7*%
X160140000Y-77064416D02*
X160140000Y-76783256D01*
X161160000Y-77064416D02*
X161160000Y-76783256D01*
%TO.C,R8*%
X124537742Y-95226336D02*
X125012258Y-95226336D01*
X124537742Y-96271336D02*
X125012258Y-96271336D01*
D15*
%TO.C,U2*%
X128541900Y-88740736D02*
X128541900Y-91356936D01*
X131158100Y-91356936D02*
X131158100Y-88740736D01*
D12*
%TO.C,R16*%
X135702500Y-97111094D02*
X135702500Y-96636578D01*
X136747500Y-97111094D02*
X136747500Y-96636578D01*
%TO.C,R10*%
X136062258Y-93726336D02*
X135587742Y-93726336D01*
X136062258Y-94771336D02*
X135587742Y-94771336D01*
D15*
%TO.C,U1*%
X145532200Y-79467536D02*
X145532200Y-80874696D01*
X145532200Y-96322976D02*
X145532200Y-97730136D01*
X145532200Y-97730136D02*
X146420860Y-97730136D01*
X146420860Y-79467536D02*
X145532200Y-79467536D01*
X164409140Y-97730136D02*
X171287800Y-97730136D01*
X171287800Y-79467536D02*
X164409140Y-79467536D01*
X171287800Y-97730136D02*
X171287800Y-79467536D01*
D12*
%TO.C,D1*%
X132865000Y-98751336D02*
X132865000Y-101436336D01*
X134785000Y-98751336D02*
X132865000Y-98751336D01*
X134785000Y-101436336D02*
X134785000Y-98751336D01*
%TO.C,C12*%
X143390000Y-102140580D02*
X143390000Y-101859420D01*
X144410000Y-102140580D02*
X144410000Y-101859420D01*
%TO.C,J3*%
X134870000Y-76962000D02*
X134870000Y-79562000D01*
X134870000Y-76962000D02*
X137530000Y-76962000D01*
X134870000Y-79562000D02*
X137530000Y-79562000D01*
X136200000Y-74362000D02*
X137530000Y-74362000D01*
X137530000Y-74362000D02*
X137530000Y-75692000D01*
X137530000Y-76962000D02*
X137530000Y-79562000D01*
%TD*%
M02*
