%TF.GenerationSoftware,KiCad,Pcbnew,9.0.7*%
%TF.CreationDate,2026-06-13T16:41:19+01:00*%
%TF.ProjectId,GlucoBit-v2,476c7563-6f42-4697-942d-76322e6b6963,rev?*%
%TF.SameCoordinates,Original*%
%TF.FileFunction,Copper,L3,Inr*%
%TF.FilePolarity,Positive*%
%FSLAX46Y46*%
G04 Gerber Fmt 4.6, Leading zero omitted, Abs format (unit mm)*
G04 Created by KiCad (PCBNEW 9.0.7) date 2026-06-13 16:41:19*
%MOMM*%
%LPD*%
G01*
G04 APERTURE LIST*
%TA.AperFunction,ComponentPad*%
%ADD10O,2.100000X1.000000*%
%TD*%
%TA.AperFunction,ComponentPad*%
%ADD11O,1.800000X1.000000*%
%TD*%
%TA.AperFunction,ComponentPad*%
%ADD12C,1.397000*%
%TD*%
%TA.AperFunction,ComponentPad*%
%ADD13R,1.308000X1.308000*%
%TD*%
%TA.AperFunction,ComponentPad*%
%ADD14C,1.308000*%
%TD*%
%TA.AperFunction,ComponentPad*%
%ADD15C,0.504000*%
%TD*%
%TA.AperFunction,ComponentPad*%
%ADD16R,1.700000X1.700000*%
%TD*%
%TA.AperFunction,ComponentPad*%
%ADD17C,1.700000*%
%TD*%
%TA.AperFunction,ViaPad*%
%ADD18C,0.600000*%
%TD*%
G04 APERTURE END LIST*
D10*
%TO.N,GND*%
%TO.C,J1*%
X66780000Y-49020750D03*
X66780000Y-57660750D03*
D11*
X62600000Y-49020750D03*
X62600000Y-57660750D03*
%TD*%
D12*
%TO.N,MOSI*%
%TO.C,U6*%
X85750000Y-62395100D03*
%TO.N,CLK*%
X85750000Y-59895100D03*
%TO.N,CS*%
X85750000Y-57395100D03*
%TO.N,DC*%
X85750000Y-54895100D03*
%TO.N,RST*%
X85750000Y-52395100D03*
%TO.N,BL*%
X85750000Y-49895100D03*
%TO.N,LED*%
X85750000Y-47395100D03*
%TO.N,Touch*%
X85750000Y-44895100D03*
%TD*%
D13*
%TO.N,/VOUT*%
%TO.C,J2*%
X107500000Y-66500000D03*
D14*
%TO.N,GND*%
X105500000Y-66500000D03*
%TD*%
D13*
%TO.N,Net-(U5-OUTN)*%
%TO.C,J6*%
X95250000Y-66500000D03*
D14*
%TO.N,Net-(U5-OUTP)*%
X93250000Y-66500000D03*
%TD*%
D15*
%TO.N,GND*%
%TO.C,U2*%
X74250000Y-54800000D03*
%TD*%
D16*
%TO.N,+3V3*%
%TO.C,J3*%
X80000000Y-40700000D03*
D17*
%TO.N,GND*%
X80000000Y-43240000D03*
%TD*%
D18*
%TO.N,/5VIN*%
X69900000Y-52250000D03*
X68600000Y-55025000D03*
X70350000Y-54875000D03*
X69950000Y-50675000D03*
X75800000Y-49450000D03*
X68375000Y-50900000D03*
X73150000Y-49525000D03*
%TO.N,GND*%
X62425000Y-56325000D03*
X78050000Y-47875000D03*
X103124000Y-51562000D03*
X98552000Y-54750000D03*
X90000000Y-39650000D03*
X83875000Y-50450000D03*
X73075000Y-62725000D03*
X65475000Y-46225000D03*
X98500000Y-63400000D03*
X69250000Y-41250000D03*
X94675000Y-51550000D03*
X66550000Y-41825000D03*
X68550000Y-56650000D03*
X103124000Y-50425000D03*
X103150000Y-53175000D03*
X101854000Y-49276000D03*
X78000000Y-43525000D03*
X72975000Y-44500000D03*
X108637467Y-41164366D03*
X100600000Y-57475000D03*
X87525000Y-63500000D03*
X99568000Y-54750000D03*
X97850000Y-50800000D03*
X101600000Y-54751164D03*
X71975000Y-61600000D03*
X100575853Y-54751164D03*
X77225000Y-39925000D03*
X103150000Y-52450000D03*
X64925000Y-41550000D03*
X104550000Y-39775000D03*
X83875000Y-55000000D03*
X98825000Y-46750000D03*
X104102652Y-66499430D03*
X77925000Y-49425000D03*
X83125000Y-41325000D03*
X97875000Y-51816000D03*
X64825000Y-39550000D03*
X94725000Y-41875000D03*
X71250000Y-49475000D03*
X102743280Y-67153943D03*
X107975000Y-42825000D03*
X62325000Y-46150000D03*
X102616000Y-54751164D03*
X81625000Y-47900000D03*
X74008535Y-61426694D03*
X70025000Y-59275000D03*
X97925000Y-53848000D03*
X90000000Y-63850000D03*
X83025000Y-56450000D03*
X66250000Y-65450000D03*
X62350000Y-50150000D03*
X103175000Y-54150000D03*
X68400000Y-57600000D03*
X108125000Y-52800000D03*
X79775000Y-48950000D03*
X98432227Y-39402620D03*
X97790000Y-49784000D03*
X77200000Y-59150000D03*
X98806000Y-49276000D03*
X78387500Y-54450000D03*
X97900000Y-52832000D03*
X99822000Y-49276000D03*
X108105248Y-64636587D03*
X83650000Y-61250000D03*
X100838000Y-49276000D03*
X67975000Y-64625000D03*
X103124000Y-49276000D03*
X64850000Y-49950000D03*
%TO.N,/VOUT*%
X74050000Y-58250000D03*
%TO.N,+3V3*%
X79600000Y-54375000D03*
X100250000Y-42500000D03*
X78300000Y-62250000D03*
X80075000Y-56925000D03*
X88475000Y-44775000D03*
X71900000Y-64250000D03*
%TO.N,BOOT*%
X93600000Y-58875000D03*
X68000000Y-46000000D03*
%TO.N,ENABLE*%
X62975000Y-64300000D03*
X108400000Y-59525000D03*
%TO.N,Net-(U5-OUTP)*%
X86975000Y-65750000D03*
X72312147Y-41528968D03*
%TO.N,Net-(U5-OUTN)*%
X72125000Y-39825000D03*
X95325000Y-63800000D03*
%TO.N,PGOOD*%
X71025000Y-56250000D03*
X78275000Y-59450000D03*
X88475000Y-60294600D03*
%TO.N,CH*%
X83400000Y-58450000D03*
X92275000Y-58450000D03*
X74250000Y-56900000D03*
%TO.N,Net-(U2-ISET2)*%
X79000000Y-57625000D03*
X71925000Y-56100000D03*
%TO.N,Touch*%
X106750000Y-60250000D03*
%TO.N,BCLK*%
X89650000Y-41700000D03*
X66025000Y-39525000D03*
%TO.N,LRCLK*%
X96575000Y-42825000D03*
X95000000Y-39600000D03*
%TD*%
%TA.AperFunction,Conductor*%
%TO.N,/5VIN*%
G36*
X76327444Y-46998971D02*
G01*
X76394314Y-47019218D01*
X76439625Y-47072404D01*
X76450401Y-47122561D01*
X76487331Y-58397167D01*
X76467866Y-58464270D01*
X76415213Y-58510198D01*
X76362412Y-58521570D01*
X74711114Y-58509319D01*
X74644222Y-58489137D01*
X74598861Y-58435995D01*
X74589430Y-58366765D01*
X74592256Y-58353239D01*
X74600500Y-58322475D01*
X74600500Y-58177525D01*
X74562984Y-58037515D01*
X74505537Y-57938015D01*
X74490511Y-57911988D01*
X74490506Y-57911982D01*
X74388017Y-57809493D01*
X74388011Y-57809488D01*
X74262488Y-57737017D01*
X74262489Y-57737017D01*
X74251006Y-57733940D01*
X74122475Y-57699500D01*
X73977525Y-57699500D01*
X73848993Y-57733940D01*
X73837511Y-57737017D01*
X73711988Y-57809488D01*
X73711982Y-57809493D01*
X73609493Y-57911982D01*
X73609488Y-57911988D01*
X73537017Y-58037511D01*
X73536214Y-58040509D01*
X73499500Y-58177525D01*
X73499500Y-58177527D01*
X73499500Y-58322474D01*
X73505103Y-58343385D01*
X73503440Y-58413235D01*
X73464277Y-58471097D01*
X73400048Y-58498601D01*
X73384408Y-58499475D01*
X67891830Y-58458726D01*
X67824938Y-58438544D01*
X67779577Y-58385402D01*
X67770146Y-58316172D01*
X67799642Y-58252833D01*
X67805069Y-58247047D01*
X67808412Y-58243703D01*
X67808416Y-58243701D01*
X67912951Y-58139166D01*
X67937486Y-58102446D01*
X67991095Y-58057643D01*
X68060420Y-58048934D01*
X68102587Y-58063951D01*
X68187511Y-58112982D01*
X68187512Y-58112982D01*
X68187515Y-58112984D01*
X68327525Y-58150500D01*
X68327528Y-58150500D01*
X68472472Y-58150500D01*
X68472475Y-58150500D01*
X68612485Y-58112984D01*
X68738015Y-58040509D01*
X68840509Y-57938015D01*
X68912984Y-57812485D01*
X68950500Y-57672475D01*
X68950500Y-57527525D01*
X68912984Y-57387515D01*
X68885843Y-57340506D01*
X68840134Y-57261335D01*
X68823661Y-57193435D01*
X68846513Y-57127408D01*
X68881605Y-57095509D01*
X68881566Y-57095457D01*
X68882190Y-57094978D01*
X68885525Y-57091946D01*
X68888015Y-57090509D01*
X68990509Y-56988015D01*
X69062984Y-56862485D01*
X69072352Y-56827525D01*
X73699500Y-56827525D01*
X73699500Y-56972475D01*
X73737016Y-57112485D01*
X73737017Y-57112488D01*
X73809488Y-57238011D01*
X73809490Y-57238013D01*
X73809491Y-57238015D01*
X73911985Y-57340509D01*
X73911986Y-57340510D01*
X73911988Y-57340511D01*
X74037511Y-57412982D01*
X74037512Y-57412982D01*
X74037515Y-57412984D01*
X74177525Y-57450500D01*
X74177528Y-57450500D01*
X74322472Y-57450500D01*
X74322475Y-57450500D01*
X74462485Y-57412984D01*
X74588015Y-57340509D01*
X74690509Y-57238015D01*
X74762984Y-57112485D01*
X74800500Y-56972475D01*
X74800500Y-56827525D01*
X74762984Y-56687515D01*
X74741613Y-56650500D01*
X74690511Y-56561988D01*
X74690506Y-56561982D01*
X74588017Y-56459493D01*
X74588011Y-56459488D01*
X74462488Y-56387017D01*
X74462489Y-56387017D01*
X74451006Y-56383940D01*
X74322475Y-56349500D01*
X74177525Y-56349500D01*
X74048993Y-56383940D01*
X74037511Y-56387017D01*
X73911988Y-56459488D01*
X73911982Y-56459493D01*
X73809493Y-56561982D01*
X73809488Y-56561988D01*
X73737017Y-56687511D01*
X73736214Y-56690509D01*
X73699500Y-56827525D01*
X69072352Y-56827525D01*
X69100500Y-56722475D01*
X69100500Y-56577525D01*
X69062984Y-56437515D01*
X69033828Y-56387016D01*
X68990511Y-56311988D01*
X68990506Y-56311982D01*
X68888017Y-56209493D01*
X68888011Y-56209488D01*
X68832650Y-56177525D01*
X70474500Y-56177525D01*
X70474500Y-56322475D01*
X70505460Y-56438017D01*
X70512017Y-56462488D01*
X70584488Y-56588011D01*
X70584490Y-56588013D01*
X70584491Y-56588015D01*
X70686985Y-56690509D01*
X70686986Y-56690510D01*
X70686988Y-56690511D01*
X70812511Y-56762982D01*
X70812512Y-56762982D01*
X70812515Y-56762984D01*
X70952525Y-56800500D01*
X70952528Y-56800500D01*
X71097472Y-56800500D01*
X71097475Y-56800500D01*
X71237485Y-56762984D01*
X71363015Y-56690509D01*
X71465509Y-56588015D01*
X71467407Y-56584727D01*
X71478512Y-56574995D01*
X71499544Y-56565246D01*
X71518262Y-56551572D01*
X71530646Y-56550831D01*
X71541904Y-56545613D01*
X71564869Y-56548783D01*
X71588007Y-56547399D01*
X71605945Y-56554454D01*
X71611117Y-56555168D01*
X71613965Y-56557608D01*
X71622234Y-56560860D01*
X71712515Y-56612984D01*
X71852525Y-56650500D01*
X71852528Y-56650500D01*
X71997472Y-56650500D01*
X71997475Y-56650500D01*
X72137485Y-56612984D01*
X72263015Y-56540509D01*
X72365509Y-56438015D01*
X72437984Y-56312485D01*
X72475500Y-56172475D01*
X72475500Y-56027525D01*
X72437984Y-55887515D01*
X72436239Y-55884493D01*
X72365511Y-55761988D01*
X72365506Y-55761982D01*
X72263017Y-55659493D01*
X72263011Y-55659488D01*
X72137488Y-55587017D01*
X72137489Y-55587017D01*
X72126006Y-55583940D01*
X71997475Y-55549500D01*
X71852525Y-55549500D01*
X71723993Y-55583940D01*
X71712511Y-55587017D01*
X71586988Y-55659488D01*
X71586982Y-55659493D01*
X71478744Y-55767732D01*
X71476646Y-55765634D01*
X71431660Y-55798455D01*
X71361913Y-55802582D01*
X71327761Y-55789137D01*
X71237485Y-55737016D01*
X71097475Y-55699500D01*
X70952525Y-55699500D01*
X70823993Y-55733940D01*
X70812511Y-55737017D01*
X70686988Y-55809488D01*
X70686982Y-55809493D01*
X70584493Y-55911982D01*
X70584488Y-55911988D01*
X70512017Y-56037511D01*
X70512016Y-56037515D01*
X70474500Y-56177525D01*
X68832650Y-56177525D01*
X68762488Y-56137017D01*
X68762489Y-56137017D01*
X68751006Y-56133940D01*
X68622475Y-56099500D01*
X68477525Y-56099500D01*
X68348993Y-56133940D01*
X68337511Y-56137017D01*
X68211988Y-56209488D01*
X68211982Y-56209493D01*
X68109493Y-56311982D01*
X68109488Y-56311988D01*
X68037017Y-56437511D01*
X68037016Y-56437515D01*
X67999500Y-56577525D01*
X67999500Y-56722475D01*
X68037016Y-56862485D01*
X68109491Y-56988015D01*
X68109493Y-56988017D01*
X68109866Y-56988663D01*
X68110369Y-56990739D01*
X68111866Y-56992264D01*
X68118565Y-57024521D01*
X68126339Y-57056563D01*
X68125639Y-57058583D01*
X68126074Y-57060674D01*
X68114270Y-57091431D01*
X68103487Y-57122590D01*
X68101566Y-57124538D01*
X68101042Y-57125905D01*
X68094871Y-57131330D01*
X68075852Y-57150626D01*
X68070369Y-57154650D01*
X68061985Y-57159491D01*
X68057046Y-57164429D01*
X68049419Y-57170028D01*
X68025088Y-57178842D01*
X68002374Y-57191239D01*
X67992775Y-57190550D01*
X67983728Y-57193828D01*
X67958494Y-57188089D01*
X67932683Y-57186237D01*
X67923012Y-57180020D01*
X67915597Y-57178334D01*
X67907406Y-57169987D01*
X67888365Y-57157747D01*
X67808419Y-57077801D01*
X67808415Y-57077798D01*
X67685501Y-56995669D01*
X67685488Y-56995662D01*
X67548917Y-56939093D01*
X67548907Y-56939090D01*
X67403920Y-56910250D01*
X67403918Y-56910250D01*
X66756169Y-56910250D01*
X66689130Y-56890565D01*
X66643375Y-56837761D01*
X66633431Y-56768603D01*
X66662456Y-56705047D01*
X66668488Y-56698569D01*
X66704046Y-56663011D01*
X66764521Y-56602536D01*
X66844236Y-56464464D01*
X66885500Y-56310466D01*
X66885500Y-56151034D01*
X66844236Y-55997036D01*
X66764521Y-55858964D01*
X66651786Y-55746229D01*
X66513714Y-55666514D01*
X66513715Y-55666514D01*
X66475214Y-55656198D01*
X66359716Y-55625250D01*
X66200284Y-55625250D01*
X66084785Y-55656198D01*
X66046285Y-55666514D01*
X65908215Y-55746228D01*
X65908212Y-55746230D01*
X65795480Y-55858962D01*
X65795478Y-55858965D01*
X65715764Y-55997035D01*
X65715764Y-55997036D01*
X65674500Y-56151034D01*
X65674500Y-56310466D01*
X65715764Y-56464464D01*
X65795479Y-56602536D01*
X65908214Y-56715271D01*
X65959153Y-56744680D01*
X66007368Y-56795245D01*
X66020592Y-56863852D01*
X65994625Y-56928717D01*
X65944607Y-56966628D01*
X65874505Y-56995666D01*
X65874498Y-56995669D01*
X65751584Y-57077798D01*
X65751580Y-57077801D01*
X65647051Y-57182330D01*
X65647048Y-57182334D01*
X65564919Y-57305248D01*
X65564912Y-57305261D01*
X65508343Y-57441832D01*
X65508340Y-57441842D01*
X65479500Y-57586829D01*
X65479500Y-57586832D01*
X65479500Y-57734668D01*
X65479500Y-57734670D01*
X65479499Y-57734670D01*
X65508340Y-57879657D01*
X65508343Y-57879667D01*
X65564912Y-58016238D01*
X65564919Y-58016251D01*
X65647048Y-58139165D01*
X65647051Y-58139169D01*
X65738296Y-58230414D01*
X65771781Y-58291737D01*
X65766797Y-58361429D01*
X65724925Y-58417362D01*
X65659461Y-58441779D01*
X65649695Y-58442092D01*
X63593717Y-58426839D01*
X63526826Y-58406657D01*
X63481464Y-58353515D01*
X63472033Y-58284285D01*
X63501529Y-58220946D01*
X63506940Y-58215176D01*
X63582951Y-58139166D01*
X63665084Y-58016245D01*
X63721658Y-57879663D01*
X63735616Y-57809493D01*
X63750500Y-57734670D01*
X63750500Y-57586829D01*
X63721659Y-57441842D01*
X63721658Y-57441841D01*
X63721658Y-57441837D01*
X63699157Y-57387515D01*
X63665087Y-57305261D01*
X63665080Y-57305248D01*
X63582951Y-57182334D01*
X63582948Y-57182330D01*
X63478419Y-57077801D01*
X63478415Y-57077798D01*
X63355501Y-56995669D01*
X63355488Y-56995662D01*
X63218917Y-56939093D01*
X63218907Y-56939090D01*
X63073920Y-56910250D01*
X63073918Y-56910250D01*
X62917636Y-56910250D01*
X62850597Y-56890565D01*
X62804842Y-56837761D01*
X62794898Y-56768603D01*
X62823923Y-56705047D01*
X62829955Y-56698569D01*
X62841013Y-56687511D01*
X62865509Y-56663015D01*
X62937984Y-56537485D01*
X62975500Y-56397475D01*
X62975500Y-56252525D01*
X62937984Y-56112515D01*
X62894680Y-56037511D01*
X62865511Y-55986988D01*
X62865506Y-55986982D01*
X62763017Y-55884493D01*
X62763011Y-55884488D01*
X62637488Y-55812017D01*
X62637489Y-55812017D01*
X62602277Y-55802582D01*
X62497475Y-55774500D01*
X62352525Y-55774500D01*
X62247723Y-55802582D01*
X62212511Y-55812017D01*
X62086988Y-55884488D01*
X62086982Y-55884493D01*
X61984493Y-55986982D01*
X61984488Y-55986988D01*
X61912017Y-56112511D01*
X61912016Y-56112515D01*
X61874500Y-56252525D01*
X61874500Y-56397475D01*
X61892450Y-56464464D01*
X61912017Y-56537488D01*
X61984488Y-56663011D01*
X61984493Y-56663017D01*
X62050159Y-56728683D01*
X62083644Y-56790006D01*
X62078660Y-56859698D01*
X62036788Y-56915631D01*
X61986671Y-56937981D01*
X61981091Y-56939090D01*
X61981082Y-56939093D01*
X61844511Y-56995662D01*
X61844498Y-56995669D01*
X61721584Y-57077798D01*
X61721580Y-57077801D01*
X61712181Y-57087201D01*
X61650858Y-57120686D01*
X61581166Y-57115702D01*
X61525233Y-57073830D01*
X61500816Y-57008366D01*
X61500500Y-56999520D01*
X61500500Y-54749641D01*
X73867500Y-54749641D01*
X73867500Y-54850358D01*
X73893564Y-54947638D01*
X73927137Y-55005787D01*
X73943923Y-55034861D01*
X74015139Y-55106077D01*
X74102360Y-55156434D01*
X74102361Y-55156434D01*
X74102361Y-55156435D01*
X74161896Y-55172386D01*
X74199643Y-55182500D01*
X74199646Y-55182500D01*
X74300354Y-55182500D01*
X74300357Y-55182500D01*
X74359893Y-55166547D01*
X74397638Y-55156435D01*
X74397638Y-55156434D01*
X74397640Y-55156434D01*
X74484861Y-55106077D01*
X74556077Y-55034861D01*
X74606434Y-54947640D01*
X74632500Y-54850357D01*
X74632500Y-54749643D01*
X74622386Y-54711896D01*
X74606435Y-54652361D01*
X74589648Y-54623286D01*
X74556077Y-54565139D01*
X74484861Y-54493923D01*
X74397640Y-54443566D01*
X74397639Y-54443565D01*
X74397638Y-54443565D01*
X74397638Y-54443564D01*
X74300358Y-54417500D01*
X74300357Y-54417500D01*
X74199643Y-54417500D01*
X74199641Y-54417500D01*
X74102361Y-54443564D01*
X74102361Y-54443565D01*
X74015137Y-54493924D01*
X73943924Y-54565137D01*
X73893565Y-54652361D01*
X73893564Y-54652361D01*
X73867500Y-54749641D01*
X61500500Y-54749641D01*
X61500500Y-53204171D01*
X61500513Y-53202373D01*
X61531628Y-51056250D01*
X61551003Y-49719899D01*
X61571656Y-49653156D01*
X61625118Y-49608172D01*
X61694413Y-49599232D01*
X61743879Y-49618599D01*
X61847391Y-49687763D01*
X61892197Y-49741375D01*
X61900904Y-49810700D01*
X61885888Y-49852865D01*
X61837017Y-49937511D01*
X61837016Y-49937515D01*
X61799500Y-50077525D01*
X61799500Y-50222475D01*
X61837016Y-50362485D01*
X61837017Y-50362488D01*
X61909488Y-50488011D01*
X61909490Y-50488013D01*
X61909491Y-50488015D01*
X62011985Y-50590509D01*
X62011986Y-50590510D01*
X62011988Y-50590511D01*
X62137511Y-50662982D01*
X62137512Y-50662982D01*
X62137515Y-50662984D01*
X62277525Y-50700500D01*
X62277528Y-50700500D01*
X62422472Y-50700500D01*
X62422475Y-50700500D01*
X62562485Y-50662984D01*
X62688015Y-50590509D01*
X62790509Y-50488015D01*
X62862984Y-50362485D01*
X62900500Y-50222475D01*
X62900500Y-50077525D01*
X62862984Y-49937515D01*
X62862982Y-49937511D01*
X62860880Y-49929665D01*
X62863648Y-49928923D01*
X62862317Y-49916527D01*
X62855765Y-49891050D01*
X62858646Y-49882339D01*
X62858129Y-49877525D01*
X64299500Y-49877525D01*
X64299500Y-50022475D01*
X64314637Y-50078965D01*
X64337017Y-50162488D01*
X64409488Y-50288011D01*
X64409490Y-50288013D01*
X64409491Y-50288015D01*
X64511985Y-50390509D01*
X64511986Y-50390510D01*
X64511988Y-50390511D01*
X64637511Y-50462982D01*
X64637512Y-50462982D01*
X64637515Y-50462984D01*
X64777525Y-50500500D01*
X64777528Y-50500500D01*
X64922472Y-50500500D01*
X64922475Y-50500500D01*
X65062485Y-50462984D01*
X65188015Y-50390509D01*
X65290509Y-50288015D01*
X65362984Y-50162485D01*
X65400500Y-50022475D01*
X65400500Y-49877525D01*
X65362984Y-49737515D01*
X65352813Y-49719899D01*
X65290511Y-49611988D01*
X65290506Y-49611982D01*
X65188017Y-49509493D01*
X65188011Y-49509488D01*
X65062488Y-49437017D01*
X65062489Y-49437017D01*
X65051006Y-49433940D01*
X64922475Y-49399500D01*
X64777525Y-49399500D01*
X64648993Y-49433940D01*
X64637511Y-49437017D01*
X64511988Y-49509488D01*
X64511982Y-49509493D01*
X64409493Y-49611982D01*
X64409488Y-49611988D01*
X64337017Y-49737511D01*
X64335705Y-49742406D01*
X64299500Y-49877525D01*
X62858129Y-49877525D01*
X62857667Y-49873216D01*
X62869446Y-49849691D01*
X62877709Y-49824716D01*
X62884842Y-49818946D01*
X62888951Y-49810741D01*
X62911580Y-49797318D01*
X62932032Y-49780776D01*
X62943250Y-49778533D01*
X62949045Y-49775097D01*
X62966214Y-49771985D01*
X62972935Y-49771250D01*
X63073918Y-49771250D01*
X63218913Y-49742408D01*
X63355495Y-49685834D01*
X63478416Y-49603701D01*
X63582951Y-49499166D01*
X63665084Y-49376245D01*
X63721658Y-49239663D01*
X63742082Y-49136988D01*
X63750500Y-49094670D01*
X65479499Y-49094670D01*
X65508340Y-49239657D01*
X65508343Y-49239667D01*
X65564912Y-49376238D01*
X65564919Y-49376251D01*
X65647048Y-49499165D01*
X65647051Y-49499169D01*
X65751580Y-49603698D01*
X65751584Y-49603701D01*
X65874498Y-49685830D01*
X65874507Y-49685835D01*
X65944606Y-49714871D01*
X65999009Y-49758712D01*
X66021074Y-49825006D01*
X66003795Y-49892706D01*
X65959153Y-49936819D01*
X65908217Y-49966226D01*
X65908212Y-49966230D01*
X65795480Y-50078962D01*
X65795478Y-50078965D01*
X65715764Y-50217035D01*
X65702009Y-50268368D01*
X65674500Y-50371034D01*
X65674500Y-50530466D01*
X65715764Y-50684464D01*
X65795479Y-50822536D01*
X65908214Y-50935271D01*
X66046286Y-51014986D01*
X66200284Y-51056250D01*
X66200287Y-51056250D01*
X66359713Y-51056250D01*
X66359716Y-51056250D01*
X66513714Y-51014986D01*
X66651786Y-50935271D01*
X66764521Y-50822536D01*
X66844236Y-50684464D01*
X66885500Y-50530466D01*
X66885500Y-50371034D01*
X66844236Y-50217036D01*
X66764521Y-50078964D01*
X66668488Y-49982931D01*
X66635003Y-49921608D01*
X66639987Y-49851916D01*
X66681859Y-49795983D01*
X66747323Y-49771566D01*
X66756169Y-49771250D01*
X67403920Y-49771250D01*
X67501462Y-49751846D01*
X67548913Y-49742408D01*
X67685495Y-49685834D01*
X67808416Y-49603701D01*
X67912951Y-49499166D01*
X67977524Y-49402525D01*
X70699500Y-49402525D01*
X70699500Y-49547475D01*
X70737016Y-49687485D01*
X70737017Y-49687488D01*
X70809488Y-49813011D01*
X70809490Y-49813013D01*
X70809491Y-49813015D01*
X70911985Y-49915509D01*
X70911986Y-49915510D01*
X70911988Y-49915511D01*
X71037511Y-49987982D01*
X71037512Y-49987982D01*
X71037515Y-49987984D01*
X71177525Y-50025500D01*
X71177528Y-50025500D01*
X71322472Y-50025500D01*
X71322475Y-50025500D01*
X71462485Y-49987984D01*
X71588015Y-49915509D01*
X71690509Y-49813015D01*
X71762984Y-49687485D01*
X71800500Y-49547475D01*
X71800500Y-49402525D01*
X71762984Y-49262515D01*
X71749790Y-49239663D01*
X71690511Y-49136988D01*
X71690506Y-49136982D01*
X71588017Y-49034493D01*
X71588011Y-49034488D01*
X71462488Y-48962017D01*
X71462489Y-48962017D01*
X71451006Y-48958940D01*
X71322475Y-48924500D01*
X71177525Y-48924500D01*
X71048993Y-48958940D01*
X71037511Y-48962017D01*
X70911988Y-49034488D01*
X70911982Y-49034493D01*
X70809493Y-49136982D01*
X70809488Y-49136988D01*
X70737017Y-49262511D01*
X70737016Y-49262515D01*
X70699500Y-49402525D01*
X67977524Y-49402525D01*
X67995084Y-49376245D01*
X68051658Y-49239663D01*
X68072082Y-49136988D01*
X68080500Y-49094670D01*
X68080500Y-48946829D01*
X68051659Y-48801842D01*
X68051658Y-48801841D01*
X68051658Y-48801837D01*
X68029500Y-48748342D01*
X67995087Y-48665261D01*
X67995080Y-48665248D01*
X67912951Y-48542334D01*
X67912948Y-48542330D01*
X67808419Y-48437801D01*
X67808415Y-48437798D01*
X67685501Y-48355669D01*
X67685488Y-48355662D01*
X67548917Y-48299093D01*
X67548907Y-48299090D01*
X67403920Y-48270250D01*
X67403918Y-48270250D01*
X66156082Y-48270250D01*
X66156080Y-48270250D01*
X66011092Y-48299090D01*
X66011082Y-48299093D01*
X65874511Y-48355662D01*
X65874498Y-48355669D01*
X65751584Y-48437798D01*
X65751580Y-48437801D01*
X65647051Y-48542330D01*
X65647048Y-48542334D01*
X65564919Y-48665248D01*
X65564912Y-48665261D01*
X65508343Y-48801832D01*
X65508340Y-48801842D01*
X65479500Y-48946829D01*
X65479500Y-48946832D01*
X65479500Y-49094668D01*
X65479500Y-49094670D01*
X65479499Y-49094670D01*
X63750500Y-49094670D01*
X63750500Y-48946829D01*
X63721659Y-48801842D01*
X63721658Y-48801841D01*
X63721658Y-48801837D01*
X63699500Y-48748342D01*
X63665087Y-48665261D01*
X63665080Y-48665248D01*
X63582951Y-48542334D01*
X63582948Y-48542330D01*
X63478419Y-48437801D01*
X63478415Y-48437798D01*
X63355501Y-48355669D01*
X63355488Y-48355662D01*
X63218917Y-48299093D01*
X63218907Y-48299090D01*
X63073920Y-48270250D01*
X63073918Y-48270250D01*
X62126082Y-48270250D01*
X62126080Y-48270250D01*
X61981092Y-48299090D01*
X61981082Y-48299093D01*
X61844511Y-48355662D01*
X61844500Y-48355668D01*
X61764403Y-48409187D01*
X61697725Y-48430064D01*
X61630345Y-48411579D01*
X61583656Y-48359600D01*
X61571527Y-48304291D01*
X61578242Y-47841152D01*
X61576928Y-47796204D01*
X61579008Y-47788268D01*
X61580741Y-47668693D01*
X61580742Y-47668716D01*
X61590458Y-46998582D01*
X61611111Y-46931839D01*
X61664573Y-46886855D01*
X61715482Y-46876388D01*
X76327444Y-46998971D01*
G37*
%TD.AperFunction*%
%TD*%
M02*
