%TF.GenerationSoftware,KiCad,Pcbnew,9.0.7*%
%TF.CreationDate,2026-06-15T21:49:44+01:00*%
%TF.ProjectId,GlucoBit-v2,476c7563-6f42-4697-942d-76322e6b6963,rev?*%
%TF.SameCoordinates,Original*%
%TF.FileFunction,Copper,L1,Top*%
%TF.FilePolarity,Positive*%
%FSLAX46Y46*%
G04 Gerber Fmt 4.6, Leading zero omitted, Abs format (unit mm)*
G04 Created by KiCad (PCBNEW 9.0.7) date 2026-06-15 21:49:44*
%MOMM*%
%LPD*%
G01*
G04 APERTURE LIST*
G04 Aperture macros list*
%AMRoundRect*
0 Rectangle with rounded corners*
0 $1 Rounding radius*
0 $2 $3 $4 $5 $6 $7 $8 $9 X,Y pos of 4 corners*
0 Add a 4 corners polygon primitive as box body*
4,1,4,$2,$3,$4,$5,$6,$7,$8,$9,$2,$3,0*
0 Add four circle primitives for the rounded corners*
1,1,$1+$1,$2,$3*
1,1,$1+$1,$4,$5*
1,1,$1+$1,$6,$7*
1,1,$1+$1,$8,$9*
0 Add four rect primitives between the rounded corners*
20,1,$1+$1,$2,$3,$4,$5,0*
20,1,$1+$1,$4,$5,$6,$7,0*
20,1,$1+$1,$6,$7,$8,$9,0*
20,1,$1+$1,$8,$9,$2,$3,0*%
G04 Aperture macros list end*
%TA.AperFunction,SMDPad,CuDef*%
%ADD10RoundRect,0.200000X-0.275000X0.200000X-0.275000X-0.200000X0.275000X-0.200000X0.275000X0.200000X0*%
%TD*%
%TA.AperFunction,SMDPad,CuDef*%
%ADD11RoundRect,0.200000X0.200000X0.275000X-0.200000X0.275000X-0.200000X-0.275000X0.200000X-0.275000X0*%
%TD*%
%TA.AperFunction,SMDPad,CuDef*%
%ADD12RoundRect,0.243750X-0.456250X0.243750X-0.456250X-0.243750X0.456250X-0.243750X0.456250X0.243750X0*%
%TD*%
%TA.AperFunction,SMDPad,CuDef*%
%ADD13RoundRect,0.243750X-0.243750X-0.456250X0.243750X-0.456250X0.243750X0.456250X-0.243750X0.456250X0*%
%TD*%
%TA.AperFunction,SMDPad,CuDef*%
%ADD14RoundRect,0.250000X-0.250000X-0.475000X0.250000X-0.475000X0.250000X0.475000X-0.250000X0.475000X0*%
%TD*%
%TA.AperFunction,SMDPad,CuDef*%
%ADD15RoundRect,0.200000X-0.200000X-0.275000X0.200000X-0.275000X0.200000X0.275000X-0.200000X0.275000X0*%
%TD*%
%TA.AperFunction,SMDPad,CuDef*%
%ADD16RoundRect,0.250000X-0.475000X0.250000X-0.475000X-0.250000X0.475000X-0.250000X0.475000X0.250000X0*%
%TD*%
%TA.AperFunction,SMDPad,CuDef*%
%ADD17R,1.150000X0.600000*%
%TD*%
%TA.AperFunction,SMDPad,CuDef*%
%ADD18R,1.150000X0.300000*%
%TD*%
%TA.AperFunction,ComponentPad*%
%ADD19O,2.100000X1.200000*%
%TD*%
%TA.AperFunction,ComponentPad*%
%ADD20O,1.800000X1.200000*%
%TD*%
%TA.AperFunction,SMDPad,CuDef*%
%ADD21RoundRect,0.200000X0.275000X-0.200000X0.275000X0.200000X-0.275000X0.200000X-0.275000X-0.200000X0*%
%TD*%
%TA.AperFunction,ComponentPad*%
%ADD22C,1.397000*%
%TD*%
%TA.AperFunction,SMDPad,CuDef*%
%ADD23RoundRect,0.225000X-0.225000X-0.250000X0.225000X-0.250000X0.225000X0.250000X-0.225000X0.250000X0*%
%TD*%
%TA.AperFunction,ComponentPad*%
%ADD24R,1.308000X1.308000*%
%TD*%
%TA.AperFunction,ComponentPad*%
%ADD25C,1.308000*%
%TD*%
%TA.AperFunction,SMDPad,CuDef*%
%ADD26R,1.041400X0.660400*%
%TD*%
%TA.AperFunction,SMDPad,CuDef*%
%ADD27RoundRect,0.150000X-0.512500X-0.150000X0.512500X-0.150000X0.512500X0.150000X-0.512500X0.150000X0*%
%TD*%
%TA.AperFunction,SMDPad,CuDef*%
%ADD28RoundRect,0.225000X0.250000X-0.225000X0.250000X0.225000X-0.250000X0.225000X-0.250000X-0.225000X0*%
%TD*%
%TA.AperFunction,SMDPad,CuDef*%
%ADD29RoundRect,0.033750X-0.386250X-0.101250X0.386250X-0.101250X0.386250X0.101250X-0.386250X0.101250X0*%
%TD*%
%TA.AperFunction,SMDPad,CuDef*%
%ADD30RoundRect,0.033750X-0.101250X-0.386250X0.101250X-0.386250X0.101250X0.386250X-0.101250X0.386250X0*%
%TD*%
%TA.AperFunction,SMDPad,CuDef*%
%ADD31R,1.100000X1.100000*%
%TD*%
%TA.AperFunction,SMDPad,CuDef*%
%ADD32RoundRect,0.250000X0.650000X-0.325000X0.650000X0.325000X-0.650000X0.325000X-0.650000X-0.325000X0*%
%TD*%
%TA.AperFunction,SMDPad,CuDef*%
%ADD33RoundRect,0.250000X-0.325000X-0.650000X0.325000X-0.650000X0.325000X0.650000X-0.325000X0.650000X0*%
%TD*%
%TA.AperFunction,SMDPad,CuDef*%
%ADD34RoundRect,0.073750X0.221250X-0.531250X0.221250X0.531250X-0.221250X0.531250X-0.221250X-0.531250X0*%
%TD*%
%TA.AperFunction,SMDPad,CuDef*%
%ADD35R,0.230000X0.700000*%
%TD*%
%TA.AperFunction,SMDPad,CuDef*%
%ADD36R,1.498600X0.914400*%
%TD*%
%TA.AperFunction,ComponentPad*%
%ADD37C,0.504000*%
%TD*%
%TA.AperFunction,SMDPad,CuDef*%
%ADD38R,0.812800X1.498600*%
%TD*%
%TA.AperFunction,SMDPad,CuDef*%
%ADD39R,1.498600X0.812800*%
%TD*%
%TA.AperFunction,SMDPad,CuDef*%
%ADD40R,0.889000X0.889000*%
%TD*%
%TA.AperFunction,ComponentPad*%
%ADD41R,1.700000X1.700000*%
%TD*%
%TA.AperFunction,ComponentPad*%
%ADD42C,1.700000*%
%TD*%
%TA.AperFunction,ViaPad*%
%ADD43C,0.600000*%
%TD*%
%TA.AperFunction,Conductor*%
%ADD44C,0.152400*%
%TD*%
%TA.AperFunction,Conductor*%
%ADD45C,0.250000*%
%TD*%
%TA.AperFunction,Conductor*%
%ADD46C,0.300000*%
%TD*%
%TA.AperFunction,Conductor*%
%ADD47C,0.200000*%
%TD*%
G04 APERTURE END LIST*
D10*
%TO.P,R5,1*%
%TO.N,/VOUT*%
X131875000Y-99748836D03*
%TO.P,R5,2*%
%TO.N,Net-(D1-A)*%
X131875000Y-101398836D03*
%TD*%
D11*
%TO.P,R1,1*%
%TO.N,+3V3*%
X125500000Y-79748836D03*
%TO.P,R1,2*%
%TO.N,Net-(U5-\u002ASD_MODE)*%
X123850000Y-79748836D03*
%TD*%
%TO.P,R7,1*%
%TO.N,+3V3*%
X127500000Y-101998836D03*
%TO.P,R7,2*%
%TO.N,Net-(D3-A)*%
X125850000Y-101998836D03*
%TD*%
D12*
%TO.P,D2,1,K*%
%TO.N,CH*%
X136100000Y-99498836D03*
%TO.P,D2,2,A*%
%TO.N,Net-(D2-A)*%
X136100000Y-101373836D03*
%TD*%
D10*
%TO.P,R14,1*%
%TO.N,PER*%
X157800000Y-99598836D03*
%TO.P,R14,2*%
%TO.N,GND*%
X157800000Y-101248836D03*
%TD*%
D13*
%TO.P,D3,1,K*%
%TO.N,GND*%
X121975000Y-101998836D03*
%TO.P,D3,2,A*%
%TO.N,Net-(D3-A)*%
X123850000Y-101998836D03*
%TD*%
D14*
%TO.P,C10,1*%
%TO.N,ENABLE*%
X119950000Y-99498836D03*
%TO.P,C10,2*%
%TO.N,GND*%
X121850000Y-99498836D03*
%TD*%
D15*
%TO.P,C3,1*%
%TO.N,/VOUT*%
X131500000Y-93248836D03*
%TO.P,C3,2*%
%TO.N,GND*%
X133150000Y-93248836D03*
%TD*%
D16*
%TO.P,C5,1*%
%TO.N,/5VIN*%
X127600000Y-93498836D03*
%TO.P,C5,2*%
%TO.N,GND*%
X127600000Y-95398836D03*
%TD*%
D17*
%TO.P,J1,A1_B12,GND*%
%TO.N,GND*%
X122945000Y-85389586D03*
%TO.P,J1,A4_B9,VBUS*%
%TO.N,/5VIN*%
X122945000Y-86189586D03*
D18*
%TO.P,J1,A5,CC1*%
%TO.N,Net-(J1-CC1)*%
X122945000Y-87339586D03*
%TO.P,J1,A6,DP1*%
%TO.N,/USB_D+*%
X122945000Y-88339586D03*
%TO.P,J1,A7,DN1*%
%TO.N,/USB_D-*%
X122945000Y-88839586D03*
%TO.P,J1,A8,SBU1*%
%TO.N,unconnected-(J1-SBU1-PadA8)*%
X122945000Y-89839586D03*
D17*
%TO.P,J1,B1_A12,GND__1*%
%TO.N,GND*%
X122945000Y-91789586D03*
%TO.P,J1,B4_A9,VBUS__1*%
%TO.N,/5VIN*%
X122945000Y-90989586D03*
D18*
%TO.P,J1,B5,CC2*%
%TO.N,Net-(J1-CC2)*%
X122945000Y-90339586D03*
%TO.P,J1,B6,DP2*%
%TO.N,/USB_D+*%
X122945000Y-89339586D03*
%TO.P,J1,B7,DN2*%
%TO.N,/USB_D-*%
X122945000Y-87839586D03*
%TO.P,J1,B8,SBU2*%
%TO.N,unconnected-(J1-SBU2-PadB8)*%
X122945000Y-86839586D03*
D19*
%TO.P,J1,SH1,SHIELD*%
%TO.N,GND*%
X122380000Y-84269586D03*
%TO.P,J1,SH2,SHIELD__1*%
X122380000Y-92909586D03*
D20*
%TO.P,J1,SH3,SHIELD__2*%
X118200000Y-84269586D03*
%TO.P,J1,SH4,SHIELD__3*%
X118200000Y-92909586D03*
%TD*%
D21*
%TO.P,R9,1*%
%TO.N,Net-(J1-CC1)*%
X124600000Y-84648836D03*
%TO.P,R9,2*%
%TO.N,GND*%
X124600000Y-82998836D03*
%TD*%
D14*
%TO.P,C9,1*%
%TO.N,BOOT*%
X118700000Y-78248836D03*
%TO.P,C9,2*%
%TO.N,GND*%
X120600000Y-78248836D03*
%TD*%
D10*
%TO.P,R6,1*%
%TO.N,/VOUT*%
X130275000Y-99748836D03*
%TO.P,R6,2*%
%TO.N,Net-(D2-A)*%
X130275000Y-101398836D03*
%TD*%
D21*
%TO.P,C4,1*%
%TO.N,+3V3*%
X135350000Y-86998836D03*
%TO.P,C4,2*%
%TO.N,GND*%
X135350000Y-85348836D03*
%TD*%
D15*
%TO.P,R4,1*%
%TO.N,Net-(U2-ISET)*%
X130525000Y-83508836D03*
%TO.P,R4,2*%
%TO.N,GND*%
X132175000Y-83508836D03*
%TD*%
D22*
%TO.P,U6,1,1*%
%TO.N,MOSI*%
X141350000Y-97643936D03*
%TO.P,U6,2,2*%
%TO.N,CLK*%
X141350000Y-95143936D03*
%TO.P,U6,3,3*%
%TO.N,CS*%
X141350000Y-92643936D03*
%TO.P,U6,4,4*%
%TO.N,DC*%
X141350000Y-90143936D03*
%TO.P,U6,5,5*%
%TO.N,RST*%
X141350000Y-87643936D03*
%TO.P,U6,6,6*%
%TO.N,BL*%
X141350000Y-85143936D03*
%TO.P,U6,7,7*%
%TO.N,LED*%
X141350000Y-82643936D03*
%TO.P,U6,8,8*%
%TO.N,Touch*%
X141350000Y-80143936D03*
%TD*%
D23*
%TO.P,C11,1*%
%TO.N,+3V3*%
X129527000Y-75123836D03*
%TO.P,C11,2*%
%TO.N,GND*%
X131077000Y-75123836D03*
%TD*%
D24*
%TO.P,J2,1,1*%
%TO.N,/VOUT*%
X163400000Y-101800000D03*
D25*
%TO.P,J2,2,2*%
%TO.N,GND*%
X161400000Y-101800000D03*
%TD*%
D26*
%TO.P,SW1,1,1*%
%TO.N,ENABLE*%
X122100000Y-96998836D03*
%TO.P,SW1,2,2*%
X117950000Y-96998836D03*
%TO.P,SW1,3,K*%
%TO.N,GND*%
X122100000Y-94848836D03*
%TO.P,SW1,4,A*%
X117950000Y-94848836D03*
%TD*%
D27*
%TO.P,U3,1,IN*%
%TO.N,/VOUT*%
X132850000Y-88748836D03*
%TO.P,U3,2,GND*%
%TO.N,GND*%
X132850000Y-89698836D03*
%TO.P,U3,3,EN*%
%TO.N,/VOUT*%
X132850000Y-90648836D03*
%TO.P,U3,4,FB*%
%TO.N,Net-(U3-FB)*%
X135125000Y-90648836D03*
%TO.P,U3,5,OUT*%
%TO.N,+3V3*%
X135125000Y-88748836D03*
%TD*%
D28*
%TO.P,C13,1*%
%TO.N,Net-(U5-OUTN)*%
X154500000Y-101248836D03*
%TO.P,C13,2*%
%TO.N,GND*%
X154500000Y-99698836D03*
%TD*%
D10*
%TO.P,R3,1*%
%TO.N,Net-(U3-FB)*%
X137100000Y-89998836D03*
%TO.P,R3,2*%
%TO.N,GND*%
X137100000Y-91648836D03*
%TD*%
D29*
%TO.P,U5,1,DIN*%
%TO.N,DIN*%
X123415000Y-75748836D03*
%TO.P,U5,2,GAIN_SLOT*%
%TO.N,GND*%
X123415000Y-76248836D03*
%TO.P,U5,3,GND*%
X123415000Y-76748836D03*
%TO.P,U5,4,\u002ASD_MODE*%
%TO.N,Net-(U5-\u002ASD_MODE)*%
X123415000Y-77248836D03*
D30*
%TO.P,U5,5,N.C.*%
%TO.N,unconnected-(U5-N.C.-Pad5)*%
X124100000Y-77933836D03*
%TO.P,U5,6,N.C.*%
%TO.N,unconnected-(U5-N.C.-Pad6)*%
X124600000Y-77933836D03*
%TO.P,U5,7,VDD*%
%TO.N,+3V3*%
X125100000Y-77933836D03*
%TO.P,U5,8,VDD*%
X125600000Y-77933836D03*
D29*
%TO.P,U5,9,OUTP*%
%TO.N,Net-(U5-OUTP)*%
X126285000Y-77248836D03*
%TO.P,U5,10,OUTN*%
%TO.N,Net-(U5-OUTN)*%
X126285000Y-76748836D03*
%TO.P,U5,11,GND*%
%TO.N,GND*%
X126285000Y-76248836D03*
%TO.P,U5,12,N.C.*%
%TO.N,unconnected-(U5-N.C.-Pad12)*%
X126285000Y-75748836D03*
D30*
%TO.P,U5,13,N.C.*%
%TO.N,unconnected-(U5-N.C.-Pad13)*%
X125600000Y-75063836D03*
%TO.P,U5,14,LRCLK*%
%TO.N,LRCLK*%
X125100000Y-75063836D03*
%TO.P,U5,15,GND*%
%TO.N,GND*%
X124600000Y-75063836D03*
%TO.P,U5,16,BCLK*%
%TO.N,BCLK*%
X124100000Y-75063836D03*
D31*
%TO.P,U5,17,EPAD*%
%TO.N,GND*%
X124850000Y-76498836D03*
%TD*%
D26*
%TO.P,SW2,1,1*%
%TO.N,BOOT*%
X117775000Y-80173836D03*
%TO.P,SW2,2,2*%
X121925000Y-80173836D03*
%TO.P,SW2,3,K*%
%TO.N,GND*%
X117775000Y-82323836D03*
%TO.P,SW2,4,A*%
X121925000Y-82323836D03*
%TD*%
D10*
%TO.P,R2,1*%
%TO.N,+3V3*%
X137100000Y-86748836D03*
%TO.P,R2,2*%
%TO.N,Net-(U3-FB)*%
X137100000Y-88398836D03*
%TD*%
D16*
%TO.P,C2,1*%
%TO.N,/VOUT*%
X129650000Y-93498836D03*
%TO.P,C2,2*%
%TO.N,GND*%
X129650000Y-95398836D03*
%TD*%
D32*
%TO.P,C6,1*%
%TO.N,+3V3*%
X158400000Y-77723836D03*
%TO.P,C6,2*%
%TO.N,GND*%
X158400000Y-74773836D03*
%TD*%
D11*
%TO.P,R11,1*%
%TO.N,+3V3*%
X125600000Y-97498836D03*
%TO.P,R11,2*%
%TO.N,ENABLE*%
X123950000Y-97498836D03*
%TD*%
D33*
%TO.P,C8,1*%
%TO.N,+3V3*%
X128825000Y-77100000D03*
%TO.P,C8,2*%
%TO.N,GND*%
X131775000Y-77100000D03*
%TD*%
D24*
%TO.P,J6,1,1*%
%TO.N,Net-(U5-OUTN)*%
X150300000Y-101800000D03*
D25*
%TO.P,J6,2,2*%
%TO.N,Net-(U5-OUTP)*%
X148300000Y-101800000D03*
%TD*%
D21*
%TO.P,R15,1*%
%TO.N,+3V3*%
X133900000Y-97498836D03*
%TO.P,R15,2*%
%TO.N,PGOOD*%
X133900000Y-95848836D03*
%TD*%
D14*
%TO.P,C1,1*%
%TO.N,/5VIN*%
X131450000Y-86248836D03*
%TO.P,C1,2*%
%TO.N,GND*%
X133350000Y-86248836D03*
%TD*%
D21*
%TO.P,R13,1*%
%TO.N,/VOUT*%
X156100000Y-101248836D03*
%TO.P,R13,2*%
%TO.N,PER*%
X156100000Y-99598836D03*
%TD*%
D34*
%TO.P,U4,1*%
%TO.N,/USB_D-*%
X126900000Y-86003836D03*
%TO.P,U4,2*%
%TO.N,GND*%
X127850000Y-86003836D03*
%TO.P,U4,3*%
%TO.N,/USB_D+*%
X128800000Y-86003836D03*
%TO.P,U4,4*%
%TO.N,/USB_P*%
X128800000Y-83493836D03*
%TO.P,U4,5*%
%TO.N,/5VIN*%
X127850000Y-83493836D03*
%TO.P,U4,6*%
%TO.N,/USB_N*%
X126900000Y-83493836D03*
%TD*%
D28*
%TO.P,C7,1*%
%TO.N,+3V3*%
X160650000Y-77698836D03*
%TO.P,C7,2*%
%TO.N,GND*%
X160650000Y-76148836D03*
%TD*%
D15*
%TO.P,R8,1*%
%TO.N,Net-(J1-CC2)*%
X123950000Y-95748836D03*
%TO.P,R8,2*%
%TO.N,GND*%
X125600000Y-95748836D03*
%TD*%
D35*
%TO.P,U2,1,IN*%
%TO.N,/5VIN*%
X130650001Y-88998836D03*
%TO.P,U2,2,ISET*%
%TO.N,Net-(U2-ISET)*%
X130249999Y-88998836D03*
%TO.P,U2,3,VSS*%
%TO.N,GND*%
X129850000Y-88998836D03*
%TO.P,U2,4,PRETERM*%
%TO.N,unconnected-(U2-PRETERM-Pad4)*%
X129450001Y-88998836D03*
%TO.P,U2,5,\u002APG*%
%TO.N,PGOOD*%
X129049999Y-88998836D03*
%TO.P,U2,6,NC*%
%TO.N,unconnected-(U2-NC-Pad6)*%
X129049999Y-91098836D03*
%TO.P,U2,7,ISET2*%
%TO.N,Net-(U2-ISET2)*%
X129450001Y-91098836D03*
%TO.P,U2,8,\u002ACHG*%
%TO.N,CH*%
X129850000Y-91098836D03*
%TO.P,U2,9,TS*%
%TO.N,unconnected-(U2-TS-Pad9)*%
X130249999Y-91098836D03*
%TO.P,U2,10,OUT*%
%TO.N,/VOUT*%
X130650001Y-91098836D03*
D36*
%TO.P,U2,11,EPAD*%
%TO.N,GND*%
X129850000Y-90048836D03*
D37*
%TO.P,U2,V*%
X129850000Y-90048836D03*
%TD*%
D21*
%TO.P,R16,1*%
%TO.N,+3V3*%
X136225000Y-97698836D03*
%TO.P,R16,2*%
%TO.N,CH*%
X136225000Y-96048836D03*
%TD*%
D11*
%TO.P,R10,1*%
%TO.N,+3V3*%
X136650000Y-94248836D03*
%TO.P,R10,2*%
%TO.N,Net-(U2-ISET2)*%
X135000000Y-94248836D03*
%TD*%
D38*
%TO.P,U1,1,GND*%
%TO.N,GND*%
X163670000Y-79848836D03*
%TO.P,U1,2,3V3*%
%TO.N,+3V3*%
X162400000Y-79848836D03*
%TO.P,U1,3,EN*%
%TO.N,ENABLE*%
X161130000Y-79848836D03*
%TO.P,U1,4,IO4*%
%TO.N,unconnected-(U1-IO4-Pad4)*%
X159860000Y-79848836D03*
%TO.P,U1,5,IO5*%
%TO.N,unconnected-(U1-IO5-Pad5)*%
X158590000Y-79848836D03*
%TO.P,U1,6,IO6*%
%TO.N,unconnected-(U1-IO6-Pad6)*%
X157320000Y-79848836D03*
%TO.P,U1,7,IO7*%
%TO.N,unconnected-(U1-IO7-Pad7)*%
X156050000Y-79848836D03*
%TO.P,U1,8,IO15*%
%TO.N,unconnected-(U1-IO15-Pad8)*%
X154780000Y-79848836D03*
%TO.P,U1,9,IO16*%
%TO.N,unconnected-(U1-IO16-Pad9)*%
X153510000Y-79848836D03*
%TO.P,U1,10,IO17*%
%TO.N,LRCLK*%
X152240000Y-79848836D03*
%TO.P,U1,11,IO18*%
%TO.N,DIN*%
X150970000Y-79848836D03*
%TO.P,U1,12,IO8*%
%TO.N,BCLK*%
X149700000Y-79848836D03*
%TO.P,U1,13,IO19*%
%TO.N,/USB_N*%
X148430000Y-79848836D03*
%TO.P,U1,14,IO20*%
%TO.N,/USB_P*%
X147160000Y-79848836D03*
D39*
%TO.P,U1,15,IO3*%
%TO.N,unconnected-(U1-IO3-Pad15)*%
X145910000Y-81613836D03*
%TO.P,U1,16,IO46*%
%TO.N,unconnected-(U1-IO46-Pad16)*%
X145910000Y-82883836D03*
%TO.P,U1,17,IO9*%
%TO.N,unconnected-(U1-IO9-Pad17)*%
X145910000Y-84153836D03*
%TO.P,U1,18,IO10*%
%TO.N,LED*%
X145910000Y-85423836D03*
%TO.P,U1,19,IO11*%
%TO.N,BL*%
X145910000Y-86693836D03*
%TO.P,U1,20,IO12*%
%TO.N,RST*%
X145910000Y-87963836D03*
%TO.P,U1,21,IO13*%
%TO.N,DC*%
X145910000Y-89233836D03*
%TO.P,U1,22,IO14*%
%TO.N,CS*%
X145910000Y-90503836D03*
%TO.P,U1,23,IO21*%
%TO.N,CLK*%
X145910000Y-91773836D03*
%TO.P,U1,24,IO47*%
%TO.N,MOSI*%
X145910000Y-93043836D03*
%TO.P,U1,25,IO48*%
%TO.N,CH*%
X145910000Y-94313836D03*
%TO.P,U1,26,IO45*%
%TO.N,PGOOD*%
X145910000Y-95583836D03*
D38*
%TO.P,U1,27,IO0*%
%TO.N,BOOT*%
X147160000Y-97348836D03*
%TO.P,U1,28,IO35*%
%TO.N,unconnected-(U1-IO35-Pad28)*%
X148430000Y-97348836D03*
%TO.P,U1,29,IO36*%
%TO.N,unconnected-(U1-IO36-Pad29)*%
X149700000Y-97348836D03*
%TO.P,U1,30,IO37*%
%TO.N,unconnected-(U1-IO37-Pad30)*%
X150970000Y-97348836D03*
%TO.P,U1,31,IO38*%
%TO.N,unconnected-(U1-IO38-Pad31)*%
X152240000Y-97348836D03*
%TO.P,U1,32,IO39*%
%TO.N,unconnected-(U1-IO39-Pad32)*%
X153510000Y-97348836D03*
%TO.P,U1,33,IO40*%
%TO.N,unconnected-(U1-IO40-Pad33)*%
X154780000Y-97348836D03*
%TO.P,U1,34,IO41*%
%TO.N,PER*%
X156050000Y-97348836D03*
%TO.P,U1,35,IO42*%
%TO.N,unconnected-(U1-IO42-Pad35)*%
X157320000Y-97348836D03*
%TO.P,U1,36,RXD0*%
%TO.N,unconnected-(U1-RXD0-Pad36)*%
X158590000Y-97348836D03*
%TO.P,U1,37,TXD0*%
%TO.N,unconnected-(U1-TXD0-Pad37)*%
X159860000Y-97348836D03*
%TO.P,U1,38,IO2*%
%TO.N,unconnected-(U1-IO2-Pad38)*%
X161130000Y-97348836D03*
%TO.P,U1,39,IO1*%
%TO.N,Touch*%
X162400000Y-97348836D03*
%TO.P,U1,40,GND*%
%TO.N,GND*%
X163670000Y-97348836D03*
D40*
%TO.P,U1,41,GND*%
X155950000Y-87098836D03*
%TO.P,U1,42,GND*%
X157350000Y-85698836D03*
%TO.P,U1,43,GND*%
X155950000Y-85698836D03*
%TO.P,U1,44,GND*%
X154550000Y-85698836D03*
%TO.P,U1,45,GND*%
X154550000Y-87098836D03*
%TO.P,U1,46,GND*%
X154550000Y-88498836D03*
%TO.P,U1,47,GND*%
X155950000Y-88498836D03*
%TO.P,U1,48,GND*%
X157350000Y-88498836D03*
%TO.P,U1,49,GND*%
X157350000Y-87098836D03*
%TD*%
D12*
%TO.P,D1,1,K*%
%TO.N,PGOOD*%
X133825000Y-99498836D03*
%TO.P,D1,2,A*%
%TO.N,Net-(D1-A)*%
X133825000Y-101373836D03*
%TD*%
D28*
%TO.P,C12,1*%
%TO.N,Net-(U5-OUTP)*%
X143900000Y-102775000D03*
%TO.P,C12,2*%
%TO.N,GND*%
X143900000Y-101225000D03*
%TD*%
D41*
%TO.P,J3,1,Pin_1*%
%TO.N,+3V3*%
X136200000Y-75692000D03*
D42*
%TO.P,J3,2,Pin_2*%
%TO.N,GND*%
X136200000Y-78232000D03*
%TD*%
D43*
%TO.N,/5VIN*%
X125500000Y-87498836D03*
X124200000Y-90273836D03*
X125950000Y-90123836D03*
X125550000Y-85923836D03*
X131400000Y-84698836D03*
X123975000Y-86148836D03*
X128750000Y-84773836D03*
%TO.N,GND*%
X118025000Y-91573836D03*
X133396000Y-83508836D03*
X145600000Y-74898836D03*
X139475000Y-85698836D03*
X128675000Y-97973836D03*
X120370000Y-82238836D03*
X154400000Y-98800000D03*
X153416000Y-85598000D03*
X124850000Y-76498836D03*
X150275000Y-86798836D03*
X122150000Y-77073836D03*
X124150000Y-91898836D03*
X154686000Y-84582000D03*
X157734000Y-84582000D03*
X133600000Y-78773836D03*
X128000000Y-79100000D03*
X164237467Y-76413202D03*
X156200000Y-92723836D03*
X158750000Y-87630000D03*
X143125000Y-98748836D03*
X158750000Y-89662000D03*
X153416000Y-86614000D03*
X127575000Y-97986836D03*
X158750000Y-84582000D03*
X158750000Y-86614000D03*
X132825000Y-75173836D03*
X121835130Y-78898836D03*
X160150000Y-75023836D03*
X140436000Y-91382836D03*
X154425000Y-81998836D03*
X160100000Y-101748266D03*
X158750000Y-85598000D03*
X133411765Y-87337071D03*
X153416000Y-84582000D03*
X138725000Y-76573836D03*
X120425000Y-74798836D03*
X156718000Y-84582000D03*
X150325000Y-77123836D03*
X126850000Y-84723836D03*
X158343280Y-102402779D03*
X163575000Y-78073836D03*
X117925000Y-81398836D03*
X155702000Y-84582000D03*
X137225000Y-83148836D03*
X129608535Y-97986836D03*
X125625000Y-94523836D03*
X155702000Y-89662000D03*
X158750000Y-88646000D03*
X154686000Y-89662000D03*
X153416000Y-88646000D03*
X145300000Y-101200000D03*
X139166000Y-92398836D03*
X121850000Y-100526836D03*
X117950000Y-85398836D03*
X124000000Y-92848836D03*
X163725000Y-88048836D03*
X135375000Y-84198836D03*
X154032227Y-74651456D03*
X156718000Y-89662000D03*
X132800000Y-94398836D03*
X133987500Y-89698836D03*
X157734000Y-89662000D03*
X153416000Y-89662000D03*
X163705248Y-99885423D03*
X139052880Y-99295956D03*
X153416000Y-87630000D03*
X123575000Y-99873836D03*
X120450000Y-85198836D03*
%TO.N,/VOUT*%
X129650000Y-93498836D03*
%TO.N,+3V3*%
X135697538Y-89850888D03*
X155850000Y-77748836D03*
X133900000Y-97498836D03*
X135675000Y-91636836D03*
X143375000Y-80723836D03*
X127500000Y-99498836D03*
%TO.N,BOOT*%
X149200000Y-94123836D03*
X123600000Y-81248836D03*
%TO.N,ENABLE*%
X117576000Y-99002836D03*
X164000000Y-94773836D03*
%TO.N,Net-(U5-OUTP)*%
X142575000Y-100998836D03*
X127602016Y-76871820D03*
%TO.N,Net-(U5-OUTN)*%
X127725000Y-75184000D03*
X150850000Y-99548836D03*
%TO.N,PGOOD*%
X126625000Y-91498836D03*
X133875000Y-94698836D03*
X143300000Y-96048836D03*
%TO.N,CH*%
X139000000Y-93698836D03*
X147875000Y-93698836D03*
X129850000Y-92148836D03*
%TO.N,Net-(U2-ISET2)*%
X133851500Y-92125336D03*
X127525000Y-91348836D03*
%TO.N,Touch*%
X162350000Y-95498836D03*
%TO.N,BCLK*%
X145250000Y-76948836D03*
X121625000Y-74773836D03*
%TO.N,LRCLK*%
X152175000Y-78073836D03*
X150600000Y-74848836D03*
%TD*%
D44*
%TO.N,GND*%
X124850000Y-76498836D02*
X125100000Y-76248836D01*
X125100000Y-76248836D02*
X126285000Y-76248836D01*
X124850000Y-76498836D02*
X124600000Y-76248836D01*
X124600000Y-76248836D02*
X124600000Y-75063836D01*
D45*
%TO.N,/5VIN*%
X124275000Y-90273836D02*
X124450000Y-90098836D01*
D46*
X122985750Y-86148836D02*
X122945000Y-86189586D01*
X124200000Y-90273836D02*
X124200000Y-90348836D01*
D45*
X124200000Y-90273836D02*
X124275000Y-90273836D01*
D47*
X125500000Y-87498836D02*
X125500000Y-85973836D01*
D46*
X123975000Y-86148836D02*
X122985750Y-86148836D01*
X131450000Y-88264835D02*
X130715999Y-88998836D01*
D45*
X125925000Y-90098836D02*
X125950000Y-90123836D01*
D47*
X125500000Y-85973836D02*
X125550000Y-85923836D01*
D46*
X131400000Y-84698836D02*
X131400000Y-86198836D01*
D45*
X125150000Y-90930336D02*
X125090750Y-90989586D01*
D46*
X123559250Y-90989586D02*
X122945000Y-90989586D01*
X122945000Y-90989586D02*
X124990750Y-90989586D01*
X127850000Y-84098836D02*
X127850000Y-83493836D01*
D45*
X125950000Y-90123836D02*
X125150000Y-90923836D01*
X124450000Y-90098836D02*
X125925000Y-90098836D01*
D46*
X131400000Y-86198836D02*
X131450000Y-86248836D01*
X124990750Y-90989586D02*
X125090750Y-90989586D01*
X125090750Y-90989586D02*
X127600000Y-93498836D01*
X128525000Y-84773836D02*
X127850000Y-84098836D01*
X124275000Y-90273836D02*
X124990750Y-90989586D01*
D45*
X125150000Y-90923836D02*
X125150000Y-90930336D01*
D46*
X128750000Y-84773836D02*
X128525000Y-84773836D01*
X124200000Y-90348836D02*
X123559250Y-90989586D01*
X131450000Y-86248836D02*
X131450000Y-88264835D01*
D45*
%TO.N,GND*%
X122945000Y-85389586D02*
X122945000Y-84834586D01*
X121185130Y-78248836D02*
X120600000Y-78248836D01*
D46*
X131077000Y-75123836D02*
X131777000Y-75823836D01*
D45*
X122380000Y-84057086D02*
X122380000Y-84269586D01*
D44*
X129850000Y-90048836D02*
X129850000Y-88998836D01*
D45*
X118025000Y-91573836D02*
X118025000Y-92872086D01*
D46*
X135375000Y-84198836D02*
X135375000Y-85323836D01*
X133411765Y-87337071D02*
X133404000Y-87329306D01*
D45*
X123791750Y-92848836D02*
X122945000Y-92002086D01*
D46*
X138175000Y-76573836D02*
X138725000Y-76573836D01*
D45*
X133987500Y-89698836D02*
X132850000Y-89698836D01*
D44*
X117925000Y-81398836D02*
X117925000Y-82173836D01*
D46*
X122945000Y-91789586D02*
X122945000Y-92344586D01*
X133404000Y-86302836D02*
X133350000Y-86248836D01*
X163670000Y-99850175D02*
X163705248Y-99885423D01*
X136508836Y-78240000D02*
X138175000Y-76573836D01*
X154255191Y-85698836D02*
X154550000Y-85698836D01*
D45*
X117950000Y-84307086D02*
X117987500Y-84269586D01*
X121850000Y-100526836D02*
X121850000Y-101873836D01*
D46*
X129608535Y-95440301D02*
X129650000Y-95398836D01*
X133404000Y-87329306D02*
X133404000Y-86302836D01*
D44*
X122167500Y-94781336D02*
X122100000Y-94848836D01*
D45*
X121835130Y-78898836D02*
X121185130Y-78248836D01*
D46*
X160100000Y-101748266D02*
X161350570Y-101748266D01*
X154400000Y-98800000D02*
X154400000Y-99598836D01*
X136200000Y-78232000D02*
X136208000Y-78240000D01*
D45*
X158425000Y-74673836D02*
X158400000Y-74698836D01*
D46*
X131777000Y-76998000D02*
X131775000Y-77000000D01*
X158100000Y-101248836D02*
X157800000Y-101248836D01*
D44*
X122475000Y-76748836D02*
X123415000Y-76748836D01*
D45*
X163575000Y-78073836D02*
X163575000Y-79753836D01*
D46*
X161350570Y-101748266D02*
X161352304Y-101750000D01*
X126850000Y-84723836D02*
X127175000Y-84723836D01*
D45*
X118025000Y-92872086D02*
X118062500Y-92909586D01*
X117950000Y-85398836D02*
X117950000Y-84307086D01*
D46*
X131777000Y-75823836D02*
X131777000Y-76998000D01*
D44*
X117925000Y-82173836D02*
X117775000Y-82323836D01*
X139166000Y-92239836D02*
X138575000Y-91648836D01*
D46*
X158343280Y-102402779D02*
X158343280Y-101492116D01*
X158343280Y-101492116D02*
X158100000Y-101248836D01*
D44*
X123415000Y-76748836D02*
X123415000Y-76248836D01*
D46*
X161352304Y-101752304D02*
X161400000Y-101800000D01*
D45*
X132800000Y-93598836D02*
X133150000Y-93248836D01*
X160625000Y-75498836D02*
X160625000Y-76123836D01*
D46*
X127850000Y-85398836D02*
X127850000Y-86003836D01*
X131127000Y-75173836D02*
X131077000Y-75123836D01*
X135375000Y-85323836D02*
X135350000Y-85348836D01*
D44*
X122167500Y-93122086D02*
X122167500Y-94781336D01*
X117987500Y-94811336D02*
X117950000Y-94848836D01*
D45*
X121850000Y-101873836D02*
X121975000Y-101998836D01*
X160625000Y-76123836D02*
X160650000Y-76148836D01*
X132800000Y-94398836D02*
X132800000Y-93598836D01*
X158400000Y-74698836D02*
X158400000Y-74773836D01*
D46*
X127575000Y-97986836D02*
X127575000Y-95423836D01*
X127175000Y-84723836D02*
X127850000Y-85398836D01*
X125625000Y-95723836D02*
X125600000Y-95748836D01*
X131775000Y-77000000D02*
X131775000Y-77100000D01*
D44*
X121840000Y-82238836D02*
X121925000Y-82323836D01*
D45*
X122945000Y-92002086D02*
X122945000Y-91789586D01*
D46*
X145275000Y-101225000D02*
X143900000Y-101225000D01*
D44*
X120370000Y-82238836D02*
X121840000Y-82238836D01*
D46*
X136208000Y-78240000D02*
X136508836Y-78240000D01*
D45*
X159800000Y-74673836D02*
X158425000Y-74673836D01*
D46*
X123054250Y-91898836D02*
X122945000Y-91789586D01*
D45*
X117987500Y-84269586D02*
X118200000Y-84269586D01*
X124000000Y-92848836D02*
X123791750Y-92848836D01*
X160150000Y-75023836D02*
X159800000Y-74673836D01*
D46*
X133396000Y-83508836D02*
X132175000Y-83508836D01*
D45*
X121850000Y-99498836D02*
X121850000Y-100526836D01*
D46*
X154400000Y-99598836D02*
X154500000Y-99698836D01*
X129608535Y-97986836D02*
X129608535Y-95440301D01*
D45*
X124600000Y-82998836D02*
X123438250Y-82998836D01*
D46*
X124150000Y-91898836D02*
X123054250Y-91898836D01*
D45*
X123438250Y-82998836D02*
X122380000Y-84057086D01*
D46*
X125625000Y-94523836D02*
X125625000Y-95723836D01*
D44*
X118200000Y-92909586D02*
X117987500Y-93122086D01*
D46*
X163670000Y-97348836D02*
X163670000Y-99850175D01*
D45*
X122945000Y-84834586D02*
X122380000Y-84269586D01*
D44*
X138575000Y-91648836D02*
X137100000Y-91648836D01*
X139166000Y-92398836D02*
X139166000Y-92239836D01*
D45*
X160150000Y-75023836D02*
X160625000Y-75498836D01*
D46*
X127575000Y-95423836D02*
X127600000Y-95398836D01*
D44*
X122380000Y-92909586D02*
X122167500Y-93122086D01*
D46*
X122945000Y-92344586D02*
X122380000Y-92909586D01*
D45*
X118062500Y-92909586D02*
X118200000Y-92909586D01*
X163575000Y-79753836D02*
X163670000Y-79848836D01*
D44*
X117987500Y-93122086D02*
X117987500Y-94811336D01*
D46*
X161352304Y-101750000D02*
X161352304Y-101752304D01*
X132825000Y-75173836D02*
X131127000Y-75173836D01*
X145300000Y-101200000D02*
X145275000Y-101225000D01*
D44*
X122150000Y-77073836D02*
X122475000Y-76748836D01*
D46*
%TO.N,/VOUT*%
X130250000Y-93248836D02*
X131500000Y-93248836D01*
X130275000Y-99348836D02*
X130275000Y-99748836D01*
X163400000Y-101698836D02*
X163400000Y-101800000D01*
X130715999Y-92432837D02*
X130715999Y-91098836D01*
X131700000Y-90798836D02*
X131400000Y-91098836D01*
X132400000Y-91098836D02*
X132850000Y-90648836D01*
X131700000Y-90998836D02*
X131800000Y-91098836D01*
X131500000Y-98123836D02*
X130275000Y-99348836D01*
D45*
X129650000Y-93498836D02*
X130000000Y-93498836D01*
D46*
X158175000Y-103323836D02*
X161525000Y-103323836D01*
X131700000Y-90798836D02*
X132000000Y-91098836D01*
X156100000Y-101248836D02*
X158175000Y-103323836D01*
X131400000Y-91098836D02*
X131800000Y-91098836D01*
X131500000Y-93248836D02*
X131500000Y-98123836D01*
X163300000Y-101598836D02*
X163400000Y-101698836D01*
X131700000Y-90723836D02*
X131700000Y-90998836D01*
X131800000Y-91098836D02*
X132000000Y-91098836D01*
D45*
X130000000Y-93498836D02*
X130250000Y-93248836D01*
D46*
X131700000Y-89098836D02*
X131700000Y-90723836D01*
X161525000Y-103323836D02*
X163250000Y-101598836D01*
X131700000Y-90723836D02*
X131700000Y-90798836D01*
X130715999Y-91098836D02*
X131400000Y-91098836D01*
X129650000Y-93498836D02*
X130715999Y-92432837D01*
X132050000Y-88748836D02*
X131700000Y-89098836D01*
X163250000Y-101598836D02*
X163300000Y-101598836D01*
X132000000Y-91098836D02*
X132400000Y-91098836D01*
X132850000Y-88748836D02*
X132050000Y-88748836D01*
X130275000Y-99748836D02*
X131875000Y-99748836D01*
D45*
%TO.N,+3V3*%
X135975000Y-75623836D02*
X136051164Y-75700000D01*
X155850000Y-77748836D02*
X155950000Y-77648836D01*
X135675000Y-92173836D02*
X136650000Y-93148836D01*
X136192000Y-75700000D02*
X136200000Y-75692000D01*
X127640000Y-77933836D02*
X128525000Y-77048836D01*
X134325000Y-75623836D02*
X135975000Y-75623836D01*
X128750000Y-75823836D02*
X129450000Y-75123836D01*
X139425000Y-82723836D02*
X139425000Y-84423836D01*
X137100000Y-86748836D02*
X135600000Y-86748836D01*
D46*
X158400000Y-77723836D02*
X158475000Y-77648836D01*
X156375000Y-75623836D02*
X158400000Y-77648836D01*
D45*
X132300000Y-78823836D02*
X133425000Y-77698836D01*
X127500000Y-99498836D02*
X127500000Y-99398836D01*
X133425000Y-76523836D02*
X134325000Y-75623836D01*
X133900000Y-97498836D02*
X136025000Y-97498836D01*
D46*
X158475000Y-77648836D02*
X160600000Y-77648836D01*
D45*
X127500000Y-101998836D02*
X127500000Y-99498836D01*
X128750000Y-77023836D02*
X128750000Y-75823836D01*
X128775000Y-77473836D02*
X128775000Y-77623836D01*
D46*
X158400000Y-77648836D02*
X158400000Y-77723836D01*
D45*
X135849000Y-95049836D02*
X136650000Y-94248836D01*
X135697538Y-89850888D02*
X135200000Y-89353350D01*
X135200000Y-89353350D02*
X135200000Y-88823836D01*
X136025000Y-97498836D02*
X136225000Y-97698836D01*
D46*
X136548836Y-75700000D02*
X136625000Y-75623836D01*
D45*
X135600000Y-86748836D02*
X135350000Y-86998836D01*
X128825000Y-77100000D02*
X128825000Y-77098836D01*
X135125000Y-88748836D02*
X135125000Y-87223836D01*
X125600000Y-77933836D02*
X127640000Y-77933836D01*
X125500000Y-78033836D02*
X125600000Y-77933836D01*
X142750000Y-81348836D02*
X140800000Y-81348836D01*
X129450000Y-75123836D02*
X129527000Y-75123836D01*
X135125000Y-95423836D02*
X135499000Y-95049836D01*
X129975000Y-78823836D02*
X132300000Y-78823836D01*
D46*
X136625000Y-75623836D02*
X156375000Y-75623836D01*
D45*
X133425000Y-77698836D02*
X133425000Y-76523836D01*
X135675000Y-91636836D02*
X135675000Y-92173836D01*
X133900000Y-97498836D02*
X135125000Y-96273836D01*
X136650000Y-93148836D02*
X136650000Y-94248836D01*
X128673836Y-77048836D02*
X128725000Y-77100000D01*
X143375000Y-80723836D02*
X142750000Y-81348836D01*
X125500000Y-78333836D02*
X125500000Y-78033836D01*
D46*
X162400000Y-78848836D02*
X162400000Y-79848836D01*
D45*
X128525000Y-77048836D02*
X128673836Y-77048836D01*
X135499000Y-95049836D02*
X135849000Y-95049836D01*
D46*
X160600000Y-77648836D02*
X160650000Y-77698836D01*
D45*
X136051164Y-75700000D02*
X136192000Y-75700000D01*
D46*
X160650000Y-77698836D02*
X161250000Y-77698836D01*
D45*
X128775000Y-77623836D02*
X129975000Y-78823836D01*
X135125000Y-87223836D02*
X135350000Y-86998836D01*
X125600000Y-77933836D02*
X125100000Y-77933836D01*
X125500000Y-79748836D02*
X125500000Y-78333836D01*
X128825000Y-77200000D02*
X128827000Y-77202000D01*
X125100000Y-77933836D02*
X125500000Y-78333836D01*
D47*
X162400000Y-79848836D02*
X162600000Y-79648836D01*
D45*
X139425000Y-84423836D02*
X137100000Y-86748836D01*
X155950000Y-77648836D02*
X158325000Y-77648836D01*
X128825000Y-77100000D02*
X128825000Y-77200000D01*
X135125000Y-96273836D02*
X135125000Y-95423836D01*
X128725000Y-77100000D02*
X128825000Y-77100000D01*
D46*
X161250000Y-77698836D02*
X162400000Y-78848836D01*
X136208000Y-75700000D02*
X136548836Y-75700000D01*
D45*
X158325000Y-77648836D02*
X158400000Y-77723836D01*
X127500000Y-99398836D02*
X125600000Y-97498836D01*
X128827000Y-77421836D02*
X128775000Y-77473836D01*
X128827000Y-77202000D02*
X128827000Y-77421836D01*
X128825000Y-77098836D02*
X128750000Y-77023836D01*
D46*
X136200000Y-75692000D02*
X136208000Y-75700000D01*
D45*
X140800000Y-81348836D02*
X139425000Y-82723836D01*
X135200000Y-88823836D02*
X135125000Y-88748836D01*
D47*
%TO.N,BOOT*%
X149200000Y-94123836D02*
X147975000Y-95348836D01*
X122275000Y-80173836D02*
X121925000Y-80173836D01*
D45*
X117775000Y-80173836D02*
X117775000Y-79173836D01*
X117775000Y-79173836D02*
X118700000Y-78248836D01*
D47*
X123350000Y-81248836D02*
X122275000Y-80173836D01*
X123600000Y-81248836D02*
X123350000Y-81248836D01*
X147975000Y-95373836D02*
X147160000Y-96188836D01*
X147975000Y-95348836D02*
X147975000Y-95373836D01*
D45*
X120625000Y-80173836D02*
X121925000Y-80173836D01*
X118700000Y-78248836D02*
X120625000Y-80173836D01*
D47*
X147160000Y-96188836D02*
X147160000Y-97348836D01*
D45*
%TO.N,ENABLE*%
X122100000Y-96998836D02*
X123450000Y-96998836D01*
X117950000Y-97498836D02*
X119950000Y-99498836D01*
X122100000Y-97348836D02*
X119950000Y-99498836D01*
D44*
X119900000Y-99548836D02*
X119950000Y-99498836D01*
D45*
X123450000Y-96998836D02*
X123950000Y-97498836D01*
D44*
X117576000Y-99002836D02*
X118122000Y-99548836D01*
X118122000Y-99548836D02*
X119900000Y-99548836D01*
D45*
X117950000Y-96998836D02*
X117950000Y-97498836D01*
D44*
X161130000Y-91903836D02*
X164000000Y-94773836D01*
X161130000Y-79848836D02*
X161130000Y-91903836D01*
D45*
X122100000Y-96998836D02*
X122100000Y-97348836D01*
%TO.N,Net-(D1-A)*%
X131875000Y-101398836D02*
X133800000Y-101398836D01*
X133800000Y-101398836D02*
X133825000Y-101373836D01*
D44*
%TO.N,Net-(U5-OUTP)*%
X127225000Y-77248836D02*
X126285000Y-77248836D01*
X144000000Y-102575000D02*
X142575000Y-101150000D01*
X148248836Y-101748836D02*
X145850000Y-101748836D01*
X127602016Y-76871820D02*
X127225000Y-77248836D01*
X142575000Y-101150000D02*
X142575000Y-100998836D01*
X148300000Y-101800000D02*
X148248836Y-101748836D01*
X145850000Y-101748836D02*
X144823836Y-102775000D01*
X144823836Y-102775000D02*
X143900000Y-102775000D01*
X143900000Y-102775000D02*
X144000000Y-102675000D01*
X144000000Y-102675000D02*
X144000000Y-102575000D01*
D45*
%TO.N,Net-(D2-A)*%
X130275000Y-102373836D02*
X131125000Y-103223836D01*
X131125000Y-103223836D02*
X135400000Y-103223836D01*
X130275000Y-101398836D02*
X130275000Y-102373836D01*
X136100000Y-102523836D02*
X136100000Y-101373836D01*
X135400000Y-103223836D02*
X136100000Y-102523836D01*
D44*
%TO.N,Net-(U5-OUTN)*%
X127725000Y-75184000D02*
X127725000Y-75873836D01*
X150600000Y-101748836D02*
X150351164Y-101748836D01*
X126850000Y-76748836D02*
X126285000Y-76748836D01*
X150850000Y-101498836D02*
X150600000Y-101748836D01*
X150850000Y-99548836D02*
X150850000Y-101498836D01*
X127725000Y-75873836D02*
X126850000Y-76748836D01*
D45*
X150300000Y-101800000D02*
X150351164Y-101748836D01*
X150351164Y-101748836D02*
X154000000Y-101748836D01*
X154000000Y-101748836D02*
X154500000Y-101248836D01*
%TO.N,Net-(D3-A)*%
X125850000Y-101998836D02*
X123850000Y-101998836D01*
D44*
%TO.N,Net-(J1-CC2)*%
X123950000Y-95748836D02*
X120950000Y-95748836D01*
X120275000Y-95073836D02*
X120275000Y-90748836D01*
X120275000Y-90748836D02*
X120684250Y-90339586D01*
X120950000Y-95748836D02*
X120275000Y-95073836D01*
X120684250Y-90339586D02*
X122945000Y-90339586D01*
%TO.N,Net-(J1-CC1)*%
X124600000Y-84648836D02*
X124600000Y-86349086D01*
X124600000Y-86349086D02*
X123609500Y-87339586D01*
X123609500Y-87339586D02*
X122945000Y-87339586D01*
D45*
%TO.N,PGOOD*%
X132525000Y-97223836D02*
X133900000Y-95848836D01*
D44*
X127775000Y-88998836D02*
X129049999Y-88998836D01*
X126625000Y-91498836D02*
X126475000Y-91348836D01*
X143650000Y-95598836D02*
X145895000Y-95598836D01*
X143300000Y-96048836D02*
X143300000Y-95948836D01*
X133875000Y-94698836D02*
X133875000Y-95823836D01*
X143300000Y-95948836D02*
X143650000Y-95598836D01*
X145895000Y-95598836D02*
X145910000Y-95583836D01*
D45*
X133825000Y-99498836D02*
X132525000Y-98198836D01*
D44*
X126575000Y-90198836D02*
X127775000Y-88998836D01*
X126575000Y-91248836D02*
X126575000Y-90198836D01*
X133875000Y-95823836D02*
X133900000Y-95848836D01*
D45*
X132525000Y-98198836D02*
X132525000Y-97223836D01*
D44*
X126625000Y-91298836D02*
X126575000Y-91248836D01*
X126625000Y-91498836D02*
X126625000Y-91298836D01*
D45*
%TO.N,CH*%
X137475000Y-98123836D02*
X137475000Y-97298836D01*
D44*
X147775000Y-93798836D02*
X147775000Y-93873836D01*
D45*
X139000000Y-94748836D02*
X139000000Y-93698836D01*
D44*
X129850000Y-91098836D02*
X129850000Y-92148836D01*
X147875000Y-93698836D02*
X147775000Y-93798836D01*
X145925000Y-94298836D02*
X145910000Y-94313836D01*
D45*
X136225000Y-96048836D02*
X137700000Y-96048836D01*
X136100000Y-99498836D02*
X137475000Y-98123836D01*
D44*
X147350000Y-94298836D02*
X145925000Y-94298836D01*
D45*
X137475000Y-97298836D02*
X136225000Y-96048836D01*
X137700000Y-96048836D02*
X139000000Y-94748836D01*
D44*
X147775000Y-93873836D02*
X147350000Y-94298836D01*
D45*
%TO.N,Net-(U3-FB)*%
X136450000Y-90648836D02*
X137100000Y-89998836D01*
X135125000Y-90648836D02*
X136450000Y-90648836D01*
X137100000Y-89998836D02*
X137100000Y-88398836D01*
D44*
%TO.N,Net-(U2-ISET)*%
X130525000Y-83508836D02*
X130265000Y-83508836D01*
X130265000Y-83508836D02*
X130249999Y-83523837D01*
X130249999Y-83523837D02*
X130249999Y-88998836D01*
%TO.N,Net-(U2-ISET2)*%
X128100000Y-91923836D02*
X129125000Y-91923836D01*
X135000000Y-93273836D02*
X135000000Y-94248836D01*
X133851500Y-92125336D02*
X135000000Y-93273836D01*
X127525000Y-91348836D02*
X128100000Y-91923836D01*
X129450001Y-91598835D02*
X129450001Y-91098836D01*
X129125000Y-91923836D02*
X129450001Y-91598835D01*
D47*
%TO.N,Touch*%
X162350000Y-97298836D02*
X162400000Y-97348836D01*
X162350000Y-95498836D02*
X162350000Y-97298836D01*
%TO.N,CLK*%
X141379900Y-95143936D02*
X141350000Y-95143936D01*
X145910000Y-91773836D02*
X144750000Y-91773836D01*
X144750000Y-91773836D02*
X141379900Y-95143936D01*
%TO.N,LED*%
X141350000Y-82643936D02*
X144129900Y-85423836D01*
X144129900Y-85423836D02*
X145910000Y-85423836D01*
%TO.N,BL*%
X141350000Y-85143936D02*
X142899900Y-86693836D01*
X142899900Y-86693836D02*
X145910000Y-86693836D01*
%TO.N,DC*%
X145910000Y-89233836D02*
X145645000Y-89498836D01*
X141995100Y-89498836D02*
X141350000Y-90143936D01*
X145645000Y-89498836D02*
X141995100Y-89498836D01*
%TO.N,RST*%
X141350000Y-87643936D02*
X145590100Y-87643936D01*
X145590100Y-87643936D02*
X145910000Y-87963836D01*
%TO.N,CS*%
X143490100Y-90503836D02*
X145910000Y-90503836D01*
X141350000Y-92643936D02*
X143490100Y-90503836D01*
%TO.N,MOSI*%
X141350000Y-96998836D02*
X141350000Y-97643936D01*
X145910000Y-93043836D02*
X145305000Y-93043836D01*
X145305000Y-93043836D02*
X141350000Y-96998836D01*
D44*
%TO.N,Net-(U5-\u002ASD_MODE)*%
X123415000Y-77248836D02*
X123415000Y-78488836D01*
X123415000Y-78488836D02*
X123850000Y-78923836D01*
X123850000Y-78923836D02*
X123850000Y-79748836D01*
D45*
%TO.N,PER*%
X156100000Y-97398836D02*
X156050000Y-97348836D01*
X156100000Y-99598836D02*
X157800000Y-99598836D01*
X156100000Y-99598836D02*
X156100000Y-97398836D01*
D44*
%TO.N,BCLK*%
X149700000Y-79848836D02*
X149700000Y-78248836D01*
X121625000Y-74773836D02*
X122075000Y-74323836D01*
X123360000Y-74323836D02*
X124100000Y-75063836D01*
X122075000Y-74323836D02*
X123360000Y-74323836D01*
X148400000Y-76948836D02*
X145250000Y-76948836D01*
X149700000Y-78248836D02*
X148400000Y-76948836D01*
%TO.N,DIN*%
X148224783Y-76273836D02*
X140225000Y-76273836D01*
X122900000Y-80048836D02*
X122900000Y-79148836D01*
X121500000Y-76598836D02*
X122350000Y-75748836D01*
X121500000Y-77748836D02*
X121500000Y-76598836D01*
X122900000Y-79148836D02*
X121500000Y-77748836D01*
X150970000Y-79019053D02*
X148224783Y-76273836D01*
X128026164Y-79773836D02*
X127226164Y-80573836D01*
X123425000Y-80573836D02*
X122900000Y-80048836D01*
X150970000Y-79848836D02*
X150970000Y-79019053D01*
X136725000Y-79773836D02*
X128026164Y-79773836D01*
X127226164Y-80573836D02*
X123425000Y-80573836D01*
X140225000Y-76273836D02*
X136725000Y-79773836D01*
X122350000Y-75748836D02*
X123415000Y-75748836D01*
%TO.N,LRCLK*%
X150600000Y-74848836D02*
X150600000Y-74498836D01*
X125489016Y-74246636D02*
X125100000Y-74635652D01*
X125100000Y-74635652D02*
X125100000Y-75063836D01*
X150600000Y-74498836D02*
X150347800Y-74246636D01*
X150347800Y-74246636D02*
X125489016Y-74246636D01*
X152240000Y-79848836D02*
X152240000Y-78138836D01*
X152240000Y-78138836D02*
X152175000Y-78073836D01*
D47*
%TO.N,/USB_D+*%
X128075000Y-87592034D02*
X126352448Y-89314586D01*
X123620001Y-89314586D02*
X123595001Y-89339586D01*
X123595001Y-89339586D02*
X122945000Y-89339586D01*
D45*
X122053250Y-89339586D02*
X122945000Y-89339586D01*
X122945000Y-88339586D02*
X122021750Y-88339586D01*
D47*
X128800000Y-86003836D02*
X128800000Y-86548836D01*
D45*
X121787500Y-88573836D02*
X121787500Y-89073836D01*
D47*
X128800000Y-86548836D02*
X128075000Y-87273836D01*
X128075000Y-87273836D02*
X128075000Y-87592034D01*
D45*
X122021750Y-88339586D02*
X121787500Y-88573836D01*
X121787500Y-89073836D02*
X122053250Y-89339586D01*
D47*
X126352448Y-89314586D02*
X123620001Y-89314586D01*
D45*
%TO.N,/USB_D-*%
X123987500Y-88057086D02*
X123987500Y-88498836D01*
X123770000Y-87839586D02*
X123987500Y-88057086D01*
D47*
X123595001Y-88839586D02*
X122945000Y-88839586D01*
D45*
X123987500Y-88498836D02*
X123646750Y-88839586D01*
X123646750Y-88839586D02*
X122945000Y-88839586D01*
D47*
X126900000Y-86003836D02*
X126900000Y-86548836D01*
X126166052Y-88864586D02*
X123620001Y-88864586D01*
X123620001Y-88864586D02*
X123595001Y-88839586D01*
X127625000Y-87405638D02*
X126166052Y-88864586D01*
D45*
X122945000Y-87839586D02*
X123770000Y-87839586D01*
D47*
X126900000Y-86548836D02*
X127625000Y-87273836D01*
X127625000Y-87273836D02*
X127625000Y-87405638D01*
%TO.N,/USB_P*%
X140943198Y-78223836D02*
X146756802Y-78223836D01*
X128800000Y-83493836D02*
X128800000Y-82846356D01*
X128700000Y-82748836D02*
X128100000Y-82148836D01*
X147160000Y-78627034D02*
X147160000Y-79848836D01*
X128702480Y-82748836D02*
X128700000Y-82748836D01*
X128800000Y-82846356D02*
X128702480Y-82748836D01*
X128100000Y-81817034D02*
X128443198Y-81473836D01*
X137693198Y-81473836D02*
X140943198Y-78223836D01*
X128443198Y-81473836D02*
X137693198Y-81473836D01*
X146756802Y-78223836D02*
X147160000Y-78627034D01*
X128100000Y-82148836D02*
X128100000Y-81817034D01*
%TO.N,/USB_N*%
X147000000Y-77773836D02*
X148430000Y-79203836D01*
X137506802Y-81023836D02*
X140756802Y-77773836D01*
X140756802Y-77773836D02*
X147000000Y-77773836D01*
X127625000Y-81655638D02*
X128256802Y-81023836D01*
X126900000Y-82848836D02*
X127625000Y-82123836D01*
X127625000Y-82123836D02*
X127625000Y-81655638D01*
X128256802Y-81023836D02*
X137506802Y-81023836D01*
X126900000Y-83493836D02*
X126900000Y-82848836D01*
X148430000Y-79203836D02*
X148430000Y-79848836D01*
%TD*%
%TA.AperFunction,Conductor*%
%TO.N,GND*%
G36*
X159443232Y-83893933D02*
G01*
X159489368Y-83946404D01*
X159500946Y-83997784D01*
X159549053Y-90299832D01*
X159529881Y-90367020D01*
X159477428Y-90413177D01*
X159425996Y-90424775D01*
X153074462Y-90472893D01*
X153007276Y-90453717D01*
X152961122Y-90401261D01*
X152949524Y-90349374D01*
X152925463Y-84045055D01*
X152944891Y-83977941D01*
X152997520Y-83931985D01*
X153048560Y-83920585D01*
X159376051Y-83874734D01*
X159443232Y-83893933D01*
G37*
%TD.AperFunction*%
%TD*%
M02*
