%TF.GenerationSoftware,KiCad,Pcbnew,9.0.7*%
%TF.CreationDate,2026-06-15T21:49:44+01:00*%
%TF.ProjectId,GlucoBit-v2,476c7563-6f42-4697-942d-76322e6b6963,rev?*%
%TF.SameCoordinates,Original*%
%TF.FileFunction,Copper,L4,Bot*%
%TF.FilePolarity,Positive*%
%FSLAX46Y46*%
G04 Gerber Fmt 4.6, Leading zero omitted, Abs format (unit mm)*
G04 Created by KiCad (PCBNEW 9.0.7) date 2026-06-15 21:49:44*
%MOMM*%
%LPD*%
G01*
G04 APERTURE LIST*
%TA.AperFunction,ComponentPad*%
%ADD10O,2.100000X1.200000*%
%TD*%
%TA.AperFunction,ComponentPad*%
%ADD11O,1.800000X1.200000*%
%TD*%
%TA.AperFunction,ComponentPad*%
%ADD12C,1.397000*%
%TD*%
%TA.AperFunction,ComponentPad*%
%ADD13R,1.308000X1.308000*%
%TD*%
%TA.AperFunction,ComponentPad*%
%ADD14C,1.308000*%
%TD*%
%TA.AperFunction,ComponentPad*%
%ADD15C,0.504000*%
%TD*%
%TA.AperFunction,ComponentPad*%
%ADD16R,1.700000X1.700000*%
%TD*%
%TA.AperFunction,ComponentPad*%
%ADD17C,1.700000*%
%TD*%
%TA.AperFunction,ViaPad*%
%ADD18C,0.600000*%
%TD*%
%TA.AperFunction,Conductor*%
%ADD19C,0.152400*%
%TD*%
%TA.AperFunction,Conductor*%
%ADD20C,0.300000*%
%TD*%
%TA.AperFunction,Conductor*%
%ADD21C,0.250000*%
%TD*%
%TA.AperFunction,Conductor*%
%ADD22C,0.200000*%
%TD*%
G04 APERTURE END LIST*
D10*
%TO.P,J1,SH1,SHIELD*%
%TO.N,GND*%
X122380000Y-84269586D03*
%TO.P,J1,SH2,SHIELD__1*%
X122380000Y-92909586D03*
D11*
%TO.P,J1,SH3,SHIELD__2*%
X118200000Y-84269586D03*
%TO.P,J1,SH4,SHIELD__3*%
X118200000Y-92909586D03*
%TD*%
D12*
%TO.P,U6,1,1*%
%TO.N,MOSI*%
X141350000Y-97643936D03*
%TO.P,U6,2,2*%
%TO.N,CLK*%
X141350000Y-95143936D03*
%TO.P,U6,3,3*%
%TO.N,CS*%
X141350000Y-92643936D03*
%TO.P,U6,4,4*%
%TO.N,DC*%
X141350000Y-90143936D03*
%TO.P,U6,5,5*%
%TO.N,RST*%
X141350000Y-87643936D03*
%TO.P,U6,6,6*%
%TO.N,BL*%
X141350000Y-85143936D03*
%TO.P,U6,7,7*%
%TO.N,LED*%
X141350000Y-82643936D03*
%TO.P,U6,8,8*%
%TO.N,Touch*%
X141350000Y-80143936D03*
%TD*%
D13*
%TO.P,J2,1,1*%
%TO.N,/VOUT*%
X163400000Y-101800000D03*
D14*
%TO.P,J2,2,2*%
%TO.N,GND*%
X161400000Y-101800000D03*
%TD*%
D13*
%TO.P,J6,1,1*%
%TO.N,Net-(U5-OUTN)*%
X150300000Y-101800000D03*
D14*
%TO.P,J6,2,2*%
%TO.N,Net-(U5-OUTP)*%
X148300000Y-101800000D03*
%TD*%
D15*
%TO.P,U2,V*%
%TO.N,GND*%
X129850000Y-90048836D03*
%TD*%
D16*
%TO.P,J3,1,Pin_1*%
%TO.N,+3V3*%
X136200000Y-75692000D03*
D17*
%TO.P,J3,2,Pin_2*%
%TO.N,GND*%
X136200000Y-78232000D03*
%TD*%
D18*
%TO.N,/5VIN*%
X125500000Y-87498836D03*
X124200000Y-90273836D03*
X125950000Y-90123836D03*
X125550000Y-85923836D03*
X131400000Y-84698836D03*
X123975000Y-86148836D03*
X128750000Y-84773836D03*
%TO.N,GND*%
X118025000Y-91573836D03*
X133396000Y-83508836D03*
X145600000Y-74898836D03*
X139475000Y-85698836D03*
X128675000Y-97973836D03*
X120370000Y-82238836D03*
X154400000Y-98800000D03*
X153416000Y-85598000D03*
X124850000Y-76498836D03*
X150275000Y-86798836D03*
X122150000Y-77073836D03*
X124150000Y-91898836D03*
X154686000Y-84582000D03*
X157734000Y-84582000D03*
X133600000Y-78773836D03*
X128000000Y-79100000D03*
X164237467Y-76413202D03*
X156200000Y-92723836D03*
X158750000Y-87630000D03*
X143125000Y-98748836D03*
X158750000Y-89662000D03*
X153416000Y-86614000D03*
X127575000Y-97986836D03*
X158750000Y-84582000D03*
X158750000Y-86614000D03*
X132825000Y-75173836D03*
X121835130Y-78898836D03*
X160150000Y-75023836D03*
X140436000Y-91382836D03*
X154425000Y-81998836D03*
X160100000Y-101748266D03*
X158750000Y-85598000D03*
X133411765Y-87337071D03*
X153416000Y-84582000D03*
X138725000Y-76573836D03*
X120425000Y-74798836D03*
X156718000Y-84582000D03*
X150325000Y-77123836D03*
X126850000Y-84723836D03*
X158343280Y-102402779D03*
X163575000Y-78073836D03*
X117925000Y-81398836D03*
X155702000Y-84582000D03*
X137225000Y-83148836D03*
X129608535Y-97986836D03*
X125625000Y-94523836D03*
X155702000Y-89662000D03*
X158750000Y-88646000D03*
X154686000Y-89662000D03*
X153416000Y-88646000D03*
X145300000Y-101200000D03*
X139166000Y-92398836D03*
X121850000Y-100526836D03*
X117950000Y-85398836D03*
X124000000Y-92848836D03*
X163725000Y-88048836D03*
X135375000Y-84198836D03*
X154032227Y-74651456D03*
X156718000Y-89662000D03*
X132800000Y-94398836D03*
X133987500Y-89698836D03*
X157734000Y-89662000D03*
X153416000Y-89662000D03*
X163705248Y-99885423D03*
X139052880Y-99295956D03*
X153416000Y-87630000D03*
X123575000Y-99873836D03*
X120450000Y-85198836D03*
%TO.N,/VOUT*%
X129650000Y-93498836D03*
%TO.N,+3V3*%
X135697538Y-89850888D03*
X155850000Y-77748836D03*
X133900000Y-97498836D03*
X135675000Y-91636836D03*
X143375000Y-80723836D03*
X127500000Y-99498836D03*
%TO.N,BOOT*%
X149200000Y-94123836D03*
X123600000Y-81248836D03*
%TO.N,ENABLE*%
X117576000Y-99002836D03*
X164000000Y-94773836D03*
%TO.N,Net-(U5-OUTP)*%
X142575000Y-100998836D03*
X127602016Y-76871820D03*
%TO.N,Net-(U5-OUTN)*%
X127725000Y-75184000D03*
X150850000Y-99548836D03*
%TO.N,PGOOD*%
X126625000Y-91498836D03*
X133875000Y-94698836D03*
X143300000Y-96048836D03*
%TO.N,CH*%
X139000000Y-93698836D03*
X147875000Y-93698836D03*
X129850000Y-92148836D03*
%TO.N,Net-(U2-ISET2)*%
X133851500Y-92125336D03*
X127525000Y-91348836D03*
%TO.N,Touch*%
X162350000Y-95498836D03*
%TO.N,BCLK*%
X145250000Y-76948836D03*
X121625000Y-74773836D03*
%TO.N,LRCLK*%
X152175000Y-78073836D03*
X150600000Y-74848836D03*
%TD*%
D19*
%TO.N,GND*%
X129850000Y-90048836D02*
X130075000Y-89823836D01*
X130075000Y-89823836D02*
X133862500Y-89823836D01*
X133862500Y-89823836D02*
X133987500Y-89698836D01*
D20*
%TO.N,/VOUT*%
X161550000Y-100198836D02*
X162950000Y-101598836D01*
X137100000Y-96423836D02*
X140875000Y-100198836D01*
X129650000Y-93498836D02*
X129650000Y-93523836D01*
X140875000Y-100198836D02*
X161550000Y-100198836D01*
X129650000Y-93523836D02*
X132550000Y-96423836D01*
X163400000Y-101698836D02*
X163400000Y-101800000D01*
X132550000Y-96423836D02*
X137100000Y-96423836D01*
X163300000Y-101598836D02*
X163400000Y-101698836D01*
X162950000Y-101598836D02*
X163300000Y-101598836D01*
D21*
%TO.N,+3V3*%
X153575000Y-80023836D02*
X155850000Y-77748836D01*
X143375000Y-80723836D02*
X144075000Y-80023836D01*
X144075000Y-80023836D02*
X153575000Y-80023836D01*
X131900000Y-99498836D02*
X133900000Y-97498836D01*
X135697538Y-91614298D02*
X135675000Y-91636836D01*
X135697538Y-89850888D02*
X135697538Y-91614298D01*
X127500000Y-99498836D02*
X131900000Y-99498836D01*
D22*
%TO.N,BOOT*%
X149200000Y-94123836D02*
X149200000Y-92098836D01*
X134225000Y-88998836D02*
X126475000Y-81248836D01*
X149200000Y-92098836D02*
X146100000Y-88998836D01*
X146100000Y-88998836D02*
X134225000Y-88998836D01*
X126475000Y-81248836D02*
X123600000Y-81248836D01*
D19*
%TO.N,ENABLE*%
X164950000Y-95723836D02*
X164000000Y-94773836D01*
X164950000Y-102223836D02*
X164950000Y-95723836D01*
X122300000Y-103273836D02*
X163900000Y-103273836D01*
X118029000Y-99002836D02*
X122300000Y-103273836D01*
X163900000Y-103273836D02*
X164950000Y-102223836D01*
X117576000Y-99002836D02*
X118029000Y-99002836D01*
%TO.N,Net-(U5-OUTP)*%
X122250000Y-81998836D02*
X124900000Y-84648836D01*
X124900000Y-100373836D02*
X125525000Y-100998836D01*
X122250000Y-79498836D02*
X122250000Y-81998836D01*
X124900000Y-84648836D02*
X124900000Y-100373836D01*
X123100000Y-78448836D02*
X122225000Y-79323836D01*
X126025000Y-78448836D02*
X123100000Y-78448836D01*
X127602016Y-76871820D02*
X126025000Y-78448836D01*
X122225000Y-79473836D02*
X122250000Y-79498836D01*
X125525000Y-100998836D02*
X142575000Y-100998836D01*
X122225000Y-79323836D02*
X122225000Y-79473836D01*
%TO.N,Net-(U5-OUTN)*%
X145644400Y-86668236D02*
X153700000Y-94723836D01*
X127725000Y-75448836D02*
X138944400Y-86668236D01*
X127725000Y-75184000D02*
X127725000Y-75448836D01*
X153700000Y-94723836D02*
X153700000Y-96273836D01*
X150850000Y-99123836D02*
X150850000Y-99548836D01*
X138944400Y-86668236D02*
X145644400Y-86668236D01*
X153700000Y-96273836D02*
X150850000Y-99123836D01*
%TO.N,PGOOD*%
X143600000Y-95073836D02*
X142578400Y-94052236D01*
X129716285Y-92748836D02*
X132166285Y-95198836D01*
X139550000Y-94048836D02*
X138900000Y-94698836D01*
X133375000Y-95198836D02*
X133875000Y-94698836D01*
X141638149Y-94052236D02*
X141634750Y-94048836D01*
X142578400Y-94052236D02*
X141638149Y-94052236D01*
X141634750Y-94048836D02*
X139550000Y-94048836D01*
X143300000Y-96048836D02*
X143600000Y-95748836D01*
X132166285Y-95198836D02*
X133375000Y-95198836D01*
X126625000Y-91498836D02*
X126625000Y-91523836D01*
X143600000Y-95748836D02*
X143600000Y-95073836D01*
X138900000Y-94698836D02*
X133875000Y-94698836D01*
X127850000Y-92748836D02*
X129716285Y-92748836D01*
X126625000Y-91523836D02*
X127850000Y-92748836D01*
%TO.N,CH*%
X139400216Y-93698836D02*
X139000000Y-93698836D01*
X139000000Y-93698836D02*
X131400000Y-93698836D01*
X141781133Y-93695436D02*
X139403616Y-93695436D01*
X141784533Y-93698836D02*
X141781133Y-93695436D01*
X131400000Y-93698836D02*
X129850000Y-92148836D01*
X147875000Y-93698836D02*
X141784533Y-93698836D01*
X139403616Y-93695436D02*
X139400216Y-93698836D01*
%TO.N,Net-(U2-ISET2)*%
X133075000Y-91348836D02*
X127525000Y-91348836D01*
X133851500Y-92125336D02*
X133075000Y-91348836D01*
D22*
%TO.N,Touch*%
X156675000Y-95498836D02*
X162350000Y-95498836D01*
X146100000Y-84923836D02*
X156675000Y-95498836D01*
X141350000Y-80143936D02*
X146100000Y-84893936D01*
X146100000Y-84893936D02*
X146100000Y-84923836D01*
D19*
%TO.N,BCLK*%
X122075000Y-74323836D02*
X142625000Y-74323836D01*
X142625000Y-74323836D02*
X145250000Y-76948836D01*
X121625000Y-74773836D02*
X122075000Y-74323836D01*
%TO.N,LRCLK*%
X150600000Y-76498836D02*
X152175000Y-78073836D01*
X150600000Y-74848836D02*
X150600000Y-76498836D01*
%TD*%
%TA.AperFunction,Conductor*%
%TO.N,GND*%
G36*
X150330856Y-74159771D02*
G01*
X150376611Y-74212575D01*
X150386555Y-74281733D01*
X150357530Y-74345289D01*
X150325818Y-74371473D01*
X150261985Y-74408327D01*
X150261982Y-74408329D01*
X150159493Y-74510818D01*
X150159488Y-74510824D01*
X150087017Y-74636347D01*
X150087016Y-74636351D01*
X150049500Y-74776361D01*
X150049500Y-74921311D01*
X150087016Y-75061321D01*
X150087017Y-75061324D01*
X150159488Y-75186847D01*
X150159493Y-75186853D01*
X150236981Y-75264341D01*
X150270466Y-75325664D01*
X150273300Y-75352022D01*
X150273300Y-76455825D01*
X150273300Y-76541847D01*
X150293463Y-76617098D01*
X150295565Y-76624940D01*
X150295566Y-76624943D01*
X150315421Y-76659331D01*
X150338575Y-76699434D01*
X151588182Y-77949042D01*
X151621666Y-78010363D01*
X151624500Y-78036721D01*
X151624500Y-78146311D01*
X151655451Y-78261820D01*
X151662017Y-78286324D01*
X151734488Y-78411847D01*
X151734490Y-78411849D01*
X151734491Y-78411851D01*
X151836985Y-78514345D01*
X151836986Y-78514346D01*
X151836988Y-78514347D01*
X151962511Y-78586818D01*
X151962512Y-78586818D01*
X151962515Y-78586820D01*
X152102525Y-78624336D01*
X152102528Y-78624336D01*
X152247472Y-78624336D01*
X152247475Y-78624336D01*
X152387485Y-78586820D01*
X152513015Y-78514345D01*
X152615509Y-78411851D01*
X152687984Y-78286321D01*
X152725500Y-78146311D01*
X152725500Y-78001361D01*
X152687984Y-77861351D01*
X152615509Y-77735821D01*
X152513015Y-77633327D01*
X152513013Y-77633326D01*
X152513011Y-77633324D01*
X152387488Y-77560853D01*
X152387489Y-77560853D01*
X152376006Y-77557776D01*
X152247475Y-77523336D01*
X152137886Y-77523336D01*
X152070847Y-77503651D01*
X152050205Y-77487017D01*
X150963019Y-76399831D01*
X150929534Y-76338508D01*
X150926700Y-76312150D01*
X150926700Y-75352022D01*
X150946385Y-75284983D01*
X150963019Y-75264341D01*
X150984054Y-75243306D01*
X151040509Y-75186851D01*
X151112984Y-75061321D01*
X151150500Y-74921311D01*
X151150500Y-74776361D01*
X151112984Y-74636351D01*
X151069680Y-74561347D01*
X151040511Y-74510824D01*
X151040506Y-74510818D01*
X150938017Y-74408329D01*
X150938015Y-74408327D01*
X150874181Y-74371472D01*
X150825967Y-74320905D01*
X150812745Y-74252298D01*
X150838713Y-74187434D01*
X150895627Y-74146906D01*
X150936183Y-74140086D01*
X168729449Y-74140086D01*
X168796488Y-74159771D01*
X168842243Y-74212575D01*
X168852187Y-74281733D01*
X168823162Y-74345289D01*
X168802337Y-74364401D01*
X168622490Y-74495069D01*
X168622488Y-74495071D01*
X168622487Y-74495071D01*
X168455485Y-74662073D01*
X168455485Y-74662074D01*
X168455483Y-74662076D01*
X168411201Y-74723025D01*
X168316657Y-74853152D01*
X168209433Y-75063589D01*
X168136446Y-75288217D01*
X168099500Y-75521488D01*
X168099500Y-75757683D01*
X168136446Y-75990954D01*
X168209433Y-76215582D01*
X168311768Y-76416424D01*
X168316657Y-76426019D01*
X168455483Y-76617096D01*
X168622490Y-76784103D01*
X168813567Y-76922929D01*
X168912991Y-76973588D01*
X169024003Y-77030152D01*
X169024005Y-77030152D01*
X169024008Y-77030154D01*
X169144412Y-77069275D01*
X169248631Y-77103139D01*
X169481903Y-77140086D01*
X169481908Y-77140086D01*
X169718097Y-77140086D01*
X169951368Y-77103139D01*
X170175992Y-77030154D01*
X170386433Y-76922929D01*
X170577510Y-76784103D01*
X170744517Y-76617096D01*
X170875183Y-76437250D01*
X170930512Y-76394586D01*
X171000126Y-76388607D01*
X171061920Y-76421213D01*
X171096278Y-76482052D01*
X171099500Y-76510137D01*
X171099500Y-101169034D01*
X171079815Y-101236073D01*
X171027011Y-101281828D01*
X170957853Y-101291772D01*
X170894297Y-101262747D01*
X170875182Y-101241920D01*
X170842632Y-101197119D01*
X170744517Y-101062076D01*
X170577510Y-100895069D01*
X170386433Y-100756243D01*
X170175996Y-100649019D01*
X169951368Y-100576032D01*
X169718097Y-100539086D01*
X169718092Y-100539086D01*
X169481908Y-100539086D01*
X169481903Y-100539086D01*
X169248631Y-100576032D01*
X169024003Y-100649019D01*
X168813566Y-100756243D01*
X168704550Y-100835448D01*
X168622490Y-100895069D01*
X168622488Y-100895071D01*
X168622487Y-100895071D01*
X168455485Y-101062073D01*
X168455485Y-101062074D01*
X168455483Y-101062076D01*
X168412435Y-101121326D01*
X168316657Y-101253152D01*
X168209433Y-101463589D01*
X168136446Y-101688217D01*
X168099500Y-101921488D01*
X168099500Y-102157683D01*
X168136446Y-102390954D01*
X168209433Y-102615582D01*
X168300641Y-102794586D01*
X168316657Y-102826019D01*
X168455483Y-103017096D01*
X168622490Y-103184103D01*
X168802335Y-103314769D01*
X168845000Y-103370098D01*
X168850979Y-103439712D01*
X168818373Y-103501506D01*
X168757534Y-103535864D01*
X168729449Y-103539086D01*
X164396135Y-103539086D01*
X164329096Y-103519401D01*
X164283341Y-103466597D01*
X164273397Y-103397439D01*
X164302422Y-103333883D01*
X164308454Y-103327405D01*
X164618763Y-103017096D01*
X165211425Y-102424435D01*
X165254435Y-102349938D01*
X165254436Y-102349937D01*
X165256118Y-102343662D01*
X165260402Y-102327671D01*
X165276700Y-102266847D01*
X165276700Y-95680825D01*
X165269066Y-95652333D01*
X165254436Y-95597734D01*
X165211425Y-95523238D01*
X164586819Y-94898632D01*
X164553334Y-94837309D01*
X164550500Y-94810951D01*
X164550500Y-94701363D01*
X164550500Y-94701361D01*
X164512984Y-94561351D01*
X164500070Y-94538984D01*
X164440511Y-94435824D01*
X164440506Y-94435818D01*
X164338017Y-94333329D01*
X164338011Y-94333324D01*
X164212488Y-94260853D01*
X164212489Y-94260853D01*
X164191403Y-94255203D01*
X164072475Y-94223336D01*
X163927525Y-94223336D01*
X163808597Y-94255203D01*
X163787511Y-94260853D01*
X163661988Y-94333324D01*
X163661982Y-94333329D01*
X163559493Y-94435818D01*
X163559488Y-94435824D01*
X163487017Y-94561347D01*
X163486214Y-94564345D01*
X163449500Y-94701361D01*
X163449500Y-94846311D01*
X163487016Y-94986320D01*
X163487017Y-94986324D01*
X163559488Y-95111847D01*
X163559490Y-95111849D01*
X163559491Y-95111851D01*
X163661985Y-95214345D01*
X163661986Y-95214346D01*
X163661988Y-95214347D01*
X163787511Y-95286818D01*
X163787512Y-95286818D01*
X163787515Y-95286820D01*
X163927525Y-95324336D01*
X163927528Y-95324336D01*
X164037115Y-95324336D01*
X164104154Y-95344021D01*
X164124796Y-95360655D01*
X164586981Y-95822840D01*
X164620466Y-95884163D01*
X164623300Y-95910521D01*
X164623300Y-102037150D01*
X164614655Y-102066590D01*
X164608132Y-102096577D01*
X164604377Y-102101592D01*
X164603615Y-102104189D01*
X164586981Y-102124831D01*
X164516181Y-102195631D01*
X164454858Y-102229116D01*
X164385166Y-102224132D01*
X164329233Y-102182260D01*
X164304816Y-102116796D01*
X164304500Y-102107950D01*
X164304500Y-101121323D01*
X164304499Y-101121321D01*
X164289967Y-101048264D01*
X164289966Y-101048260D01*
X164234601Y-100965399D01*
X164179235Y-100928405D01*
X164151739Y-100910033D01*
X164151735Y-100910032D01*
X164078677Y-100895500D01*
X164078674Y-100895500D01*
X162864419Y-100895500D01*
X162797380Y-100875815D01*
X162776738Y-100859181D01*
X161795915Y-99878358D01*
X161795913Y-99878356D01*
X161750250Y-99851992D01*
X161704589Y-99825629D01*
X161653657Y-99811982D01*
X161602727Y-99798336D01*
X161602726Y-99798336D01*
X151514666Y-99798336D01*
X151447627Y-99778651D01*
X151401872Y-99725847D01*
X151391928Y-99656689D01*
X151394891Y-99642243D01*
X151400500Y-99621311D01*
X151400500Y-99476361D01*
X151362984Y-99336351D01*
X151362982Y-99336347D01*
X151362982Y-99336346D01*
X151362981Y-99336345D01*
X151314119Y-99251715D01*
X151297645Y-99183815D01*
X151320497Y-99117788D01*
X151333818Y-99102039D01*
X153961425Y-96474434D01*
X154004436Y-96399938D01*
X154026700Y-96316847D01*
X154026700Y-96230825D01*
X154026700Y-94680825D01*
X154014909Y-94636820D01*
X154004436Y-94597734D01*
X154004434Y-94597731D01*
X154004434Y-94597729D01*
X154004433Y-94597728D01*
X153961428Y-94523244D01*
X153961425Y-94523238D01*
X145844998Y-86406811D01*
X145841659Y-86404883D01*
X145770507Y-86363802D01*
X145770504Y-86363801D01*
X145770503Y-86363800D01*
X145770502Y-86363800D01*
X145687411Y-86341536D01*
X145687410Y-86341536D01*
X139131085Y-86341536D01*
X139064046Y-86321851D01*
X139043404Y-86305217D01*
X137788650Y-85050463D01*
X140401000Y-85050463D01*
X140401000Y-85237408D01*
X140437467Y-85420741D01*
X140437469Y-85420749D01*
X140509005Y-85593453D01*
X140509010Y-85593462D01*
X140612862Y-85748887D01*
X140612865Y-85748891D01*
X140745044Y-85881070D01*
X140745048Y-85881073D01*
X140900473Y-85984925D01*
X140900479Y-85984928D01*
X140900480Y-85984929D01*
X141073187Y-86056467D01*
X141173203Y-86076361D01*
X141256527Y-86092935D01*
X141256531Y-86092936D01*
X141256532Y-86092936D01*
X141443469Y-86092936D01*
X141443470Y-86092935D01*
X141626813Y-86056467D01*
X141799520Y-85984929D01*
X141954952Y-85881073D01*
X142087137Y-85748888D01*
X142190993Y-85593456D01*
X142262531Y-85420749D01*
X142299000Y-85237404D01*
X142299000Y-85050468D01*
X142262531Y-84867123D01*
X142190993Y-84694416D01*
X142190992Y-84694415D01*
X142190989Y-84694409D01*
X142087137Y-84538984D01*
X142087134Y-84538980D01*
X141954955Y-84406801D01*
X141954951Y-84406798D01*
X141799526Y-84302946D01*
X141799517Y-84302941D01*
X141626813Y-84231405D01*
X141626805Y-84231403D01*
X141443472Y-84194936D01*
X141443468Y-84194936D01*
X141256532Y-84194936D01*
X141256527Y-84194936D01*
X141073194Y-84231403D01*
X141073186Y-84231405D01*
X140900482Y-84302941D01*
X140900473Y-84302946D01*
X140745048Y-84406798D01*
X140745044Y-84406801D01*
X140612865Y-84538980D01*
X140612862Y-84538984D01*
X140509010Y-84694409D01*
X140509005Y-84694418D01*
X140437469Y-84867122D01*
X140437467Y-84867130D01*
X140401000Y-85050463D01*
X137788650Y-85050463D01*
X135288650Y-82550463D01*
X140401000Y-82550463D01*
X140401000Y-82737408D01*
X140437467Y-82920741D01*
X140437469Y-82920749D01*
X140509005Y-83093453D01*
X140509010Y-83093462D01*
X140612862Y-83248887D01*
X140612865Y-83248891D01*
X140745044Y-83381070D01*
X140745048Y-83381073D01*
X140900473Y-83484925D01*
X140900479Y-83484928D01*
X140900480Y-83484929D01*
X141073187Y-83556467D01*
X141256527Y-83592935D01*
X141256531Y-83592936D01*
X141256532Y-83592936D01*
X141443469Y-83592936D01*
X141443470Y-83592935D01*
X141626813Y-83556467D01*
X141799520Y-83484929D01*
X141954952Y-83381073D01*
X142087137Y-83248888D01*
X142190993Y-83093456D01*
X142262531Y-82920749D01*
X142299000Y-82737404D01*
X142299000Y-82550468D01*
X142262531Y-82367123D01*
X142207199Y-82233541D01*
X142190994Y-82194418D01*
X142190989Y-82194409D01*
X142087137Y-82038984D01*
X142087134Y-82038980D01*
X141954955Y-81906801D01*
X141954951Y-81906798D01*
X141799526Y-81802946D01*
X141799517Y-81802941D01*
X141626813Y-81731405D01*
X141626805Y-81731403D01*
X141443472Y-81694936D01*
X141443468Y-81694936D01*
X141256532Y-81694936D01*
X141256527Y-81694936D01*
X141073194Y-81731403D01*
X141073186Y-81731405D01*
X140900482Y-81802941D01*
X140900473Y-81802946D01*
X140745048Y-81906798D01*
X140745044Y-81906801D01*
X140612865Y-82038980D01*
X140612862Y-82038984D01*
X140509010Y-82194409D01*
X140509005Y-82194418D01*
X140437469Y-82367122D01*
X140437467Y-82367130D01*
X140401000Y-82550463D01*
X135288650Y-82550463D01*
X132788650Y-80050463D01*
X140401000Y-80050463D01*
X140401000Y-80237408D01*
X140437467Y-80420741D01*
X140437469Y-80420749D01*
X140509005Y-80593453D01*
X140509010Y-80593462D01*
X140612862Y-80748887D01*
X140612865Y-80748891D01*
X140745044Y-80881070D01*
X140745048Y-80881073D01*
X140900473Y-80984925D01*
X140900479Y-80984928D01*
X140900480Y-80984929D01*
X141073187Y-81056467D01*
X141256527Y-81092935D01*
X141256531Y-81092936D01*
X141256532Y-81092936D01*
X141443469Y-81092936D01*
X141443470Y-81092935D01*
X141626813Y-81056467D01*
X141649286Y-81047157D01*
X141718755Y-81039689D01*
X141781234Y-81070964D01*
X141784420Y-81074038D01*
X145767140Y-85056757D01*
X145786846Y-85082438D01*
X145819530Y-85139048D01*
X156394531Y-95714048D01*
X156459788Y-95779305D01*
X156459791Y-95779306D01*
X156459794Y-95779309D01*
X156539706Y-95825447D01*
X156539707Y-95825447D01*
X156539712Y-95825450D01*
X156628856Y-95849336D01*
X161870614Y-95849336D01*
X161937653Y-95869021D01*
X161958295Y-95885655D01*
X162011985Y-95939345D01*
X162011986Y-95939346D01*
X162011988Y-95939347D01*
X162137511Y-96011818D01*
X162137512Y-96011818D01*
X162137515Y-96011820D01*
X162277525Y-96049336D01*
X162277528Y-96049336D01*
X162422472Y-96049336D01*
X162422475Y-96049336D01*
X162562485Y-96011820D01*
X162688015Y-95939345D01*
X162790509Y-95836851D01*
X162862984Y-95711321D01*
X162900500Y-95571311D01*
X162900500Y-95426361D01*
X162862984Y-95286351D01*
X162841613Y-95249336D01*
X162790511Y-95160824D01*
X162790506Y-95160818D01*
X162688017Y-95058329D01*
X162688011Y-95058324D01*
X162562488Y-94985853D01*
X162562489Y-94985853D01*
X162551006Y-94982776D01*
X162422475Y-94948336D01*
X162277525Y-94948336D01*
X162148993Y-94982776D01*
X162137511Y-94985853D01*
X162011988Y-95058324D01*
X162011982Y-95058329D01*
X161958295Y-95112017D01*
X161896972Y-95145502D01*
X161870614Y-95148336D01*
X156871543Y-95148336D01*
X156804504Y-95128651D01*
X156783862Y-95112017D01*
X146432857Y-84761011D01*
X146423585Y-84750636D01*
X146417796Y-84743376D01*
X146380469Y-84678724D01*
X146315212Y-84613467D01*
X144795198Y-83093453D01*
X143183825Y-81482079D01*
X143150340Y-81420756D01*
X143155324Y-81351064D01*
X143197196Y-81295131D01*
X143262660Y-81270714D01*
X143294406Y-81273746D01*
X143294469Y-81273275D01*
X143302523Y-81274335D01*
X143302525Y-81274336D01*
X143302527Y-81274336D01*
X143447472Y-81274336D01*
X143447475Y-81274336D01*
X143587485Y-81236820D01*
X143713015Y-81164345D01*
X143815509Y-81061851D01*
X143887984Y-80936321D01*
X143925500Y-80796311D01*
X143925500Y-80755735D01*
X143945185Y-80688696D01*
X143961819Y-80668054D01*
X144194218Y-80435655D01*
X144255541Y-80402170D01*
X144281899Y-80399336D01*
X153624434Y-80399336D01*
X153624436Y-80399336D01*
X153666075Y-80388178D01*
X153674875Y-80385821D01*
X153689895Y-80381796D01*
X153719938Y-80373746D01*
X153805562Y-80324311D01*
X153875475Y-80254398D01*
X153875474Y-80254398D01*
X153934043Y-80195829D01*
X155794219Y-78335655D01*
X155855542Y-78302170D01*
X155881900Y-78299336D01*
X155922472Y-78299336D01*
X155922475Y-78299336D01*
X156062485Y-78261820D01*
X156188015Y-78189345D01*
X156290509Y-78086851D01*
X156362984Y-77961321D01*
X156400500Y-77821311D01*
X156400500Y-77676361D01*
X156362984Y-77536351D01*
X156341613Y-77499336D01*
X156290511Y-77410824D01*
X156290506Y-77410818D01*
X156188017Y-77308329D01*
X156188011Y-77308324D01*
X156062488Y-77235853D01*
X156062489Y-77235853D01*
X156051006Y-77232776D01*
X155922475Y-77198336D01*
X155777525Y-77198336D01*
X155648993Y-77232776D01*
X155637511Y-77235853D01*
X155511988Y-77308324D01*
X155511982Y-77308329D01*
X155409493Y-77410818D01*
X155409488Y-77410824D01*
X155337017Y-77536347D01*
X155337016Y-77536351D01*
X155299500Y-77676361D01*
X155299500Y-77676363D01*
X155299500Y-77716936D01*
X155279815Y-77783975D01*
X155263181Y-77804617D01*
X153455782Y-79612017D01*
X153394459Y-79645502D01*
X153368101Y-79648336D01*
X144025564Y-79648336D01*
X143977812Y-79661131D01*
X143977811Y-79661130D01*
X143930063Y-79673925D01*
X143930062Y-79673925D01*
X143844435Y-79723363D01*
X143430782Y-80137017D01*
X143369459Y-80170502D01*
X143343101Y-80173336D01*
X143302525Y-80173336D01*
X143173993Y-80207776D01*
X143162511Y-80210853D01*
X143036988Y-80283324D01*
X143036982Y-80283329D01*
X142934493Y-80385818D01*
X142934488Y-80385824D01*
X142862017Y-80511347D01*
X142862016Y-80511351D01*
X142824500Y-80651361D01*
X142824500Y-80651363D01*
X142824500Y-80796309D01*
X142825561Y-80804367D01*
X142823990Y-80804573D01*
X142822547Y-80865091D01*
X142783382Y-80922952D01*
X142719152Y-80950453D01*
X142650250Y-80938863D01*
X142616756Y-80915010D01*
X142280102Y-80578356D01*
X142246617Y-80517033D01*
X142251601Y-80447341D01*
X142253222Y-80443222D01*
X142262531Y-80420749D01*
X142299000Y-80237404D01*
X142299000Y-80050468D01*
X142262531Y-79867123D01*
X142202983Y-79723362D01*
X142190994Y-79694418D01*
X142190989Y-79694409D01*
X142087137Y-79538984D01*
X142087134Y-79538980D01*
X141954955Y-79406801D01*
X141954951Y-79406798D01*
X141799526Y-79302946D01*
X141799517Y-79302941D01*
X141626813Y-79231405D01*
X141626805Y-79231403D01*
X141443472Y-79194936D01*
X141443468Y-79194936D01*
X141256532Y-79194936D01*
X141256527Y-79194936D01*
X141073194Y-79231403D01*
X141073186Y-79231405D01*
X140900482Y-79302941D01*
X140900473Y-79302946D01*
X140745048Y-79406798D01*
X140745044Y-79406801D01*
X140612865Y-79538980D01*
X140612862Y-79538984D01*
X140509010Y-79694409D01*
X140509005Y-79694418D01*
X140437469Y-79867122D01*
X140437467Y-79867130D01*
X140401000Y-80050463D01*
X132788650Y-80050463D01*
X128266311Y-75528124D01*
X128232826Y-75466801D01*
X128237266Y-75404706D01*
X128235880Y-75404335D01*
X128237807Y-75397140D01*
X128237810Y-75397109D01*
X128237829Y-75397059D01*
X128237981Y-75396488D01*
X128237984Y-75396485D01*
X128275500Y-75256475D01*
X128275500Y-75111525D01*
X128237984Y-74971515D01*
X128165509Y-74845985D01*
X128165508Y-74845984D01*
X128161445Y-74838946D01*
X128163798Y-74837587D01*
X128143412Y-74784845D01*
X128157455Y-74716401D01*
X128206273Y-74666415D01*
X128266983Y-74650536D01*
X134981582Y-74650536D01*
X135048621Y-74670221D01*
X135094376Y-74723025D01*
X135104320Y-74792183D01*
X135103199Y-74798728D01*
X135099500Y-74817323D01*
X135099500Y-76566678D01*
X135114032Y-76639735D01*
X135114033Y-76639739D01*
X135114034Y-76639740D01*
X135169399Y-76722601D01*
X135252260Y-76777966D01*
X135252264Y-76777967D01*
X135325321Y-76792499D01*
X135325324Y-76792500D01*
X135325326Y-76792500D01*
X137074676Y-76792500D01*
X137074677Y-76792499D01*
X137147740Y-76777966D01*
X137230601Y-76722601D01*
X137285966Y-76639740D01*
X137300500Y-76566674D01*
X137300500Y-74817326D01*
X137300500Y-74817323D01*
X137296801Y-74798728D01*
X137303028Y-74729136D01*
X137345891Y-74673959D01*
X137411780Y-74650714D01*
X137418418Y-74650536D01*
X142438315Y-74650536D01*
X142505354Y-74670221D01*
X142525996Y-74686855D01*
X144663181Y-76824040D01*
X144696666Y-76885363D01*
X144699500Y-76911721D01*
X144699500Y-77021311D01*
X144721426Y-77103139D01*
X144737017Y-77161324D01*
X144809488Y-77286847D01*
X144809490Y-77286849D01*
X144809491Y-77286851D01*
X144911985Y-77389345D01*
X144911986Y-77389346D01*
X144911988Y-77389347D01*
X145037511Y-77461818D01*
X145037512Y-77461818D01*
X145037515Y-77461820D01*
X145177525Y-77499336D01*
X145177528Y-77499336D01*
X145322472Y-77499336D01*
X145322475Y-77499336D01*
X145462485Y-77461820D01*
X145588015Y-77389345D01*
X145690509Y-77286851D01*
X145762984Y-77161321D01*
X145800500Y-77021311D01*
X145800500Y-76876361D01*
X145762984Y-76736351D01*
X145755045Y-76722601D01*
X145690511Y-76610824D01*
X145690506Y-76610818D01*
X145588017Y-76508329D01*
X145588011Y-76508324D01*
X145462488Y-76435853D01*
X145462489Y-76435853D01*
X145425788Y-76426019D01*
X145322475Y-76398336D01*
X145212885Y-76398336D01*
X145145846Y-76378651D01*
X145125204Y-76362017D01*
X143114954Y-74351767D01*
X143081469Y-74290444D01*
X143086453Y-74220752D01*
X143128325Y-74164819D01*
X143193789Y-74140402D01*
X143202635Y-74140086D01*
X150263817Y-74140086D01*
X150330856Y-74159771D01*
G37*
%TD.AperFunction*%
%TA.AperFunction,Conductor*%
G36*
X121247903Y-74159771D02*
G01*
X121293658Y-74212575D01*
X121303602Y-74281733D01*
X121274577Y-74345289D01*
X121268545Y-74351767D01*
X121184493Y-74435818D01*
X121184488Y-74435824D01*
X121112017Y-74561347D01*
X121112016Y-74561351D01*
X121074500Y-74701361D01*
X121074500Y-74846311D01*
X121108048Y-74971511D01*
X121112017Y-74986324D01*
X121184488Y-75111847D01*
X121184490Y-75111849D01*
X121184491Y-75111851D01*
X121286985Y-75214345D01*
X121286986Y-75214346D01*
X121286988Y-75214347D01*
X121412511Y-75286818D01*
X121412512Y-75286818D01*
X121412515Y-75286820D01*
X121552525Y-75324336D01*
X121552528Y-75324336D01*
X121697472Y-75324336D01*
X121697475Y-75324336D01*
X121837485Y-75286820D01*
X121963015Y-75214345D01*
X122065509Y-75111851D01*
X122137984Y-74986321D01*
X122175500Y-74846311D01*
X122175500Y-74774536D01*
X122195185Y-74707497D01*
X122247989Y-74661742D01*
X122299500Y-74650536D01*
X127183017Y-74650536D01*
X127250056Y-74670221D01*
X127295811Y-74723025D01*
X127305755Y-74792183D01*
X127286548Y-74837787D01*
X127288555Y-74838946D01*
X127212017Y-74971511D01*
X127212016Y-74971515D01*
X127174500Y-75111525D01*
X127174500Y-75256475D01*
X127195678Y-75335510D01*
X127212017Y-75396488D01*
X127284488Y-75522011D01*
X127284490Y-75522013D01*
X127284491Y-75522015D01*
X127386985Y-75624509D01*
X127495090Y-75686923D01*
X127520769Y-75706628D01*
X127996659Y-76182518D01*
X128030144Y-76243841D01*
X128025160Y-76313533D01*
X127983288Y-76369466D01*
X127917824Y-76393883D01*
X127849551Y-76379031D01*
X127846978Y-76377586D01*
X127814504Y-76358837D01*
X127814505Y-76358837D01*
X127803022Y-76355760D01*
X127674491Y-76321320D01*
X127529541Y-76321320D01*
X127401009Y-76355760D01*
X127389527Y-76358837D01*
X127264004Y-76431308D01*
X127263998Y-76431313D01*
X127161509Y-76533802D01*
X127161504Y-76533808D01*
X127089033Y-76659331D01*
X127089032Y-76659335D01*
X127051516Y-76799345D01*
X127051516Y-76799347D01*
X127051516Y-76908933D01*
X127031831Y-76975972D01*
X127015196Y-76996614D01*
X126190502Y-77821311D01*
X125925996Y-78085817D01*
X125864673Y-78119302D01*
X125838315Y-78122136D01*
X123143011Y-78122136D01*
X123056989Y-78122136D01*
X122973898Y-78144400D01*
X122973897Y-78144400D01*
X122973895Y-78144401D01*
X122973892Y-78144402D01*
X122899408Y-78187407D01*
X122899399Y-78187413D01*
X121963577Y-79123235D01*
X121963571Y-79123244D01*
X121920566Y-79197728D01*
X121920565Y-79197729D01*
X121920564Y-79197734D01*
X121911542Y-79231405D01*
X121898300Y-79280825D01*
X121898300Y-79430825D01*
X121898300Y-79516847D01*
X121904232Y-79538984D01*
X121919075Y-79594381D01*
X121923300Y-79626474D01*
X121923300Y-82041846D01*
X121945565Y-82124940D01*
X121945566Y-82124943D01*
X121985674Y-82194409D01*
X121988575Y-82199434D01*
X121988577Y-82199436D01*
X124536981Y-84747840D01*
X124570466Y-84809163D01*
X124573300Y-84835521D01*
X124573300Y-85669250D01*
X124553615Y-85736289D01*
X124500811Y-85782044D01*
X124431653Y-85791988D01*
X124368097Y-85762963D01*
X124361619Y-85756931D01*
X124313017Y-85708329D01*
X124313011Y-85708324D01*
X124187488Y-85635853D01*
X124187489Y-85635853D01*
X124176006Y-85632776D01*
X124047475Y-85598336D01*
X123902525Y-85598336D01*
X123773993Y-85632776D01*
X123762511Y-85635853D01*
X123636988Y-85708324D01*
X123636982Y-85708329D01*
X123534493Y-85810818D01*
X123534488Y-85810824D01*
X123462017Y-85936347D01*
X123462016Y-85936351D01*
X123424500Y-86076361D01*
X123424500Y-86221311D01*
X123446948Y-86305086D01*
X123462017Y-86361324D01*
X123534488Y-86486847D01*
X123534490Y-86486849D01*
X123534491Y-86486851D01*
X123636985Y-86589345D01*
X123636986Y-86589346D01*
X123636988Y-86589347D01*
X123762511Y-86661818D01*
X123762512Y-86661818D01*
X123762515Y-86661820D01*
X123902525Y-86699336D01*
X123902528Y-86699336D01*
X124047472Y-86699336D01*
X124047475Y-86699336D01*
X124187485Y-86661820D01*
X124313015Y-86589345D01*
X124361619Y-86540741D01*
X124422942Y-86507256D01*
X124492634Y-86512240D01*
X124548567Y-86554112D01*
X124572984Y-86619576D01*
X124573300Y-86628422D01*
X124573300Y-89642342D01*
X124553615Y-89709381D01*
X124500811Y-89755136D01*
X124431653Y-89765080D01*
X124417207Y-89762117D01*
X124344470Y-89742627D01*
X124272475Y-89723336D01*
X124127525Y-89723336D01*
X124008847Y-89755136D01*
X123987511Y-89760853D01*
X123861988Y-89833324D01*
X123861982Y-89833329D01*
X123759493Y-89935818D01*
X123759488Y-89935824D01*
X123687017Y-90061347D01*
X123687016Y-90061351D01*
X123649500Y-90201361D01*
X123649500Y-90346311D01*
X123680460Y-90461853D01*
X123687017Y-90486324D01*
X123759488Y-90611847D01*
X123759490Y-90611849D01*
X123759491Y-90611851D01*
X123861985Y-90714345D01*
X123861986Y-90714346D01*
X123861988Y-90714347D01*
X123987511Y-90786818D01*
X123987512Y-90786818D01*
X123987515Y-90786820D01*
X124127525Y-90824336D01*
X124127528Y-90824336D01*
X124272472Y-90824336D01*
X124272475Y-90824336D01*
X124412485Y-90786820D01*
X124412488Y-90786818D01*
X124417206Y-90785554D01*
X124487056Y-90787217D01*
X124544918Y-90826379D01*
X124572423Y-90890607D01*
X124573300Y-90905329D01*
X124573300Y-100416846D01*
X124595565Y-100499940D01*
X124595566Y-100499943D01*
X124636647Y-100571095D01*
X124638575Y-100574434D01*
X125324401Y-101260261D01*
X125324403Y-101260262D01*
X125324407Y-101260265D01*
X125355735Y-101278352D01*
X125355738Y-101278353D01*
X125355743Y-101278356D01*
X125398899Y-101303272D01*
X125481989Y-101325536D01*
X142071813Y-101325536D01*
X142138852Y-101345221D01*
X142159494Y-101361854D01*
X142236985Y-101439345D01*
X142236987Y-101439346D01*
X142236988Y-101439347D01*
X142362511Y-101511818D01*
X142362512Y-101511818D01*
X142362515Y-101511820D01*
X142502525Y-101549336D01*
X142502528Y-101549336D01*
X142647472Y-101549336D01*
X142647475Y-101549336D01*
X142787485Y-101511820D01*
X142913015Y-101439345D01*
X143015509Y-101336851D01*
X143087984Y-101211321D01*
X143125500Y-101071311D01*
X143125500Y-100926361D01*
X143087984Y-100786351D01*
X143087982Y-100786348D01*
X143087982Y-100786346D01*
X143087981Y-100786343D01*
X143087397Y-100785332D01*
X143087163Y-100784370D01*
X143084872Y-100778837D01*
X143085734Y-100778479D01*
X143070927Y-100717431D01*
X143093781Y-100651405D01*
X143148704Y-100608217D01*
X143194786Y-100599336D01*
X161332745Y-100599336D01*
X161399784Y-100619021D01*
X161420426Y-100635655D01*
X162459181Y-101674410D01*
X162492666Y-101735733D01*
X162495500Y-101762091D01*
X162495500Y-102478678D01*
X162510032Y-102551735D01*
X162510033Y-102551739D01*
X162510034Y-102551740D01*
X162565399Y-102634601D01*
X162617991Y-102669741D01*
X162648260Y-102689966D01*
X162648263Y-102689967D01*
X162706337Y-102701519D01*
X162768247Y-102733904D01*
X162802822Y-102794620D01*
X162799082Y-102864389D01*
X162758215Y-102921061D01*
X162693197Y-102946642D01*
X162682145Y-102947136D01*
X151017855Y-102947136D01*
X150950816Y-102927451D01*
X150905061Y-102874647D01*
X150895117Y-102805489D01*
X150924142Y-102741933D01*
X150982920Y-102704159D01*
X150993663Y-102701519D01*
X151051736Y-102689967D01*
X151051737Y-102689966D01*
X151051740Y-102689966D01*
X151134601Y-102634601D01*
X151189966Y-102551740D01*
X151204500Y-102478674D01*
X151204500Y-101121326D01*
X151204500Y-101121323D01*
X151204499Y-101121321D01*
X151189967Y-101048264D01*
X151189966Y-101048260D01*
X151134601Y-100965399D01*
X151079235Y-100928405D01*
X151051739Y-100910033D01*
X151051735Y-100910032D01*
X150978677Y-100895500D01*
X150978674Y-100895500D01*
X149621326Y-100895500D01*
X149621323Y-100895500D01*
X149548264Y-100910032D01*
X149548260Y-100910033D01*
X149465399Y-100965399D01*
X149410033Y-101048260D01*
X149410032Y-101048264D01*
X149395500Y-101121321D01*
X149395500Y-101457809D01*
X149375815Y-101524848D01*
X149323011Y-101570603D01*
X149253853Y-101580547D01*
X149190297Y-101551522D01*
X149156939Y-101505262D01*
X149101558Y-101371560D01*
X149002569Y-101223412D01*
X148876587Y-101097430D01*
X148802513Y-101047936D01*
X148728441Y-100998443D01*
X148563833Y-100930260D01*
X148563827Y-100930258D01*
X148389087Y-100895500D01*
X148389085Y-100895500D01*
X148210915Y-100895500D01*
X148210913Y-100895500D01*
X148036172Y-100930258D01*
X148036166Y-100930260D01*
X147871560Y-100998442D01*
X147723412Y-101097430D01*
X147597430Y-101223412D01*
X147498442Y-101371560D01*
X147430260Y-101536166D01*
X147430258Y-101536172D01*
X147395500Y-101710912D01*
X147395500Y-101710915D01*
X147395500Y-101889085D01*
X147395500Y-101889087D01*
X147395499Y-101889087D01*
X147430258Y-102063827D01*
X147430260Y-102063833D01*
X147484852Y-102195631D01*
X147498443Y-102228441D01*
X147524104Y-102266845D01*
X147597430Y-102376587D01*
X147723412Y-102502569D01*
X147723415Y-102502571D01*
X147871559Y-102601557D01*
X148036167Y-102669740D01*
X148036171Y-102669740D01*
X148036172Y-102669741D01*
X148195926Y-102701519D01*
X148257837Y-102733904D01*
X148292411Y-102794620D01*
X148288671Y-102864389D01*
X148247804Y-102921061D01*
X148182786Y-102946643D01*
X148171734Y-102947136D01*
X122486686Y-102947136D01*
X122419647Y-102927451D01*
X122399005Y-102910817D01*
X118229600Y-98741413D01*
X118229598Y-98741411D01*
X118226259Y-98739483D01*
X118155107Y-98698402D01*
X118155104Y-98698401D01*
X118155103Y-98698400D01*
X118155102Y-98698400D01*
X118072011Y-98676136D01*
X118072010Y-98676136D01*
X118063951Y-98675075D01*
X118064383Y-98671789D01*
X118012148Y-98656451D01*
X117991506Y-98639818D01*
X117914015Y-98562327D01*
X117914012Y-98562325D01*
X117914011Y-98562324D01*
X117788488Y-98489853D01*
X117788489Y-98489853D01*
X117770097Y-98484925D01*
X117648475Y-98452336D01*
X117503525Y-98452336D01*
X117381903Y-98484925D01*
X117363511Y-98489853D01*
X117286500Y-98534316D01*
X117218600Y-98550789D01*
X117152573Y-98527936D01*
X117109382Y-98473015D01*
X117100500Y-98426929D01*
X117100500Y-91399870D01*
X121274500Y-91399870D01*
X121274500Y-91559302D01*
X121315764Y-91713300D01*
X121395479Y-91851372D01*
X121508214Y-91964107D01*
X121646286Y-92043822D01*
X121800284Y-92085086D01*
X121800287Y-92085086D01*
X121959713Y-92085086D01*
X121959716Y-92085086D01*
X122113714Y-92043822D01*
X122251786Y-91964107D01*
X122364521Y-91851372D01*
X122444236Y-91713300D01*
X122485500Y-91559302D01*
X122485500Y-91399870D01*
X122444236Y-91245872D01*
X122364521Y-91107800D01*
X122251786Y-90995065D01*
X122113714Y-90915350D01*
X122113715Y-90915350D01*
X122075214Y-90905034D01*
X121959716Y-90874086D01*
X121800284Y-90874086D01*
X121684785Y-90905034D01*
X121646285Y-90915350D01*
X121508215Y-90995064D01*
X121508212Y-90995066D01*
X121395480Y-91107798D01*
X121395478Y-91107801D01*
X121315764Y-91245871D01*
X121315764Y-91245872D01*
X121274500Y-91399870D01*
X117100500Y-91399870D01*
X117100500Y-85619870D01*
X121274500Y-85619870D01*
X121274500Y-85779302D01*
X121315764Y-85933300D01*
X121395479Y-86071372D01*
X121508214Y-86184107D01*
X121646286Y-86263822D01*
X121800284Y-86305086D01*
X121800287Y-86305086D01*
X121959713Y-86305086D01*
X121959716Y-86305086D01*
X122113714Y-86263822D01*
X122251786Y-86184107D01*
X122364521Y-86071372D01*
X122444236Y-85933300D01*
X122485500Y-85779302D01*
X122485500Y-85619870D01*
X122444236Y-85465872D01*
X122364521Y-85327800D01*
X122251786Y-85215065D01*
X122113714Y-85135350D01*
X122113715Y-85135350D01*
X122075214Y-85125034D01*
X121959716Y-85094086D01*
X121800284Y-85094086D01*
X121684785Y-85125034D01*
X121646285Y-85135350D01*
X121508215Y-85215064D01*
X121508212Y-85215066D01*
X121395480Y-85327798D01*
X121395478Y-85327801D01*
X121315764Y-85465871D01*
X121315764Y-85465872D01*
X121274500Y-85619870D01*
X117100500Y-85619870D01*
X117100500Y-76510137D01*
X117120185Y-76443098D01*
X117172989Y-76397343D01*
X117242147Y-76387399D01*
X117305703Y-76416424D01*
X117324815Y-76437248D01*
X117455483Y-76617096D01*
X117622490Y-76784103D01*
X117813567Y-76922929D01*
X117912991Y-76973588D01*
X118024003Y-77030152D01*
X118024005Y-77030152D01*
X118024008Y-77030154D01*
X118144412Y-77069275D01*
X118248631Y-77103139D01*
X118481903Y-77140086D01*
X118481908Y-77140086D01*
X118718097Y-77140086D01*
X118951368Y-77103139D01*
X119175992Y-77030154D01*
X119386433Y-76922929D01*
X119577510Y-76784103D01*
X119744517Y-76617096D01*
X119883343Y-76426019D01*
X119990568Y-76215578D01*
X120063553Y-75990954D01*
X120088929Y-75830736D01*
X120100500Y-75757683D01*
X120100500Y-75521488D01*
X120063553Y-75288217D01*
X120006248Y-75111853D01*
X119990568Y-75063594D01*
X119990566Y-75063591D01*
X119990566Y-75063589D01*
X119899358Y-74884585D01*
X119883343Y-74853153D01*
X119744517Y-74662076D01*
X119577510Y-74495069D01*
X119397664Y-74364402D01*
X119355000Y-74309074D01*
X119349021Y-74239460D01*
X119381627Y-74177666D01*
X119442466Y-74143308D01*
X119470551Y-74140086D01*
X121180864Y-74140086D01*
X121247903Y-74159771D01*
G37*
%TD.AperFunction*%
%TA.AperFunction,Conductor*%
G36*
X128289205Y-76475113D02*
G01*
X128291317Y-76477176D01*
X138743802Y-86929661D01*
X138776148Y-86948336D01*
X138818292Y-86972669D01*
X138818293Y-86972669D01*
X138818298Y-86972672D01*
X138901389Y-86994936D01*
X140410307Y-86994936D01*
X140477346Y-87014621D01*
X140523101Y-87067425D01*
X140533045Y-87136583D01*
X140513409Y-87187827D01*
X140509010Y-87194409D01*
X140509005Y-87194418D01*
X140437469Y-87367122D01*
X140437467Y-87367130D01*
X140401000Y-87550463D01*
X140401000Y-87737408D01*
X140437467Y-87920741D01*
X140437469Y-87920749D01*
X140509005Y-88093453D01*
X140509010Y-88093462D01*
X140612862Y-88248887D01*
X140612865Y-88248891D01*
X140745044Y-88381070D01*
X140745052Y-88381076D01*
X140805152Y-88421234D01*
X140849958Y-88474846D01*
X140858665Y-88544171D01*
X140828511Y-88607198D01*
X140769068Y-88643918D01*
X140736262Y-88648336D01*
X134421544Y-88648336D01*
X134354505Y-88628651D01*
X134333863Y-88612017D01*
X131167981Y-85446135D01*
X131134496Y-85384812D01*
X131139480Y-85315120D01*
X131181352Y-85259187D01*
X131246816Y-85234770D01*
X131287751Y-85238678D01*
X131327525Y-85249336D01*
X131327528Y-85249336D01*
X131472472Y-85249336D01*
X131472475Y-85249336D01*
X131612485Y-85211820D01*
X131738015Y-85139345D01*
X131840509Y-85036851D01*
X131912984Y-84911321D01*
X131950500Y-84771311D01*
X131950500Y-84626361D01*
X131912984Y-84486351D01*
X131890979Y-84448238D01*
X131840511Y-84360824D01*
X131840506Y-84360818D01*
X131738017Y-84258329D01*
X131738011Y-84258324D01*
X131612488Y-84185853D01*
X131612489Y-84185853D01*
X131601006Y-84182776D01*
X131472475Y-84148336D01*
X131327525Y-84148336D01*
X131198993Y-84182776D01*
X131187511Y-84185853D01*
X131061988Y-84258324D01*
X131061982Y-84258329D01*
X130959493Y-84360818D01*
X130959488Y-84360824D01*
X130887017Y-84486347D01*
X130887016Y-84486351D01*
X130849500Y-84626361D01*
X130849500Y-84626363D01*
X130849500Y-84771312D01*
X130860156Y-84811081D01*
X130858493Y-84880930D01*
X130819330Y-84938793D01*
X130755101Y-84966296D01*
X130686199Y-84954709D01*
X130652700Y-84930854D01*
X126690213Y-80968367D01*
X126690208Y-80968363D01*
X126610290Y-80922223D01*
X126610289Y-80922222D01*
X126610288Y-80922222D01*
X126521144Y-80898336D01*
X126521143Y-80898336D01*
X124079386Y-80898336D01*
X124012347Y-80878651D01*
X123991705Y-80862017D01*
X123938017Y-80808329D01*
X123938011Y-80808324D01*
X123812488Y-80735853D01*
X123812489Y-80735853D01*
X123801006Y-80732776D01*
X123672475Y-80698336D01*
X123527525Y-80698336D01*
X123398993Y-80732776D01*
X123387511Y-80735853D01*
X123261988Y-80808324D01*
X123261982Y-80808329D01*
X123159493Y-80910818D01*
X123159488Y-80910824D01*
X123087017Y-81036347D01*
X123087016Y-81036351D01*
X123049500Y-81176361D01*
X123049500Y-81321311D01*
X123076147Y-81420756D01*
X123087017Y-81461324D01*
X123159488Y-81586847D01*
X123159490Y-81586849D01*
X123159491Y-81586851D01*
X123261985Y-81689345D01*
X123261986Y-81689346D01*
X123261988Y-81689347D01*
X123387511Y-81761818D01*
X123387512Y-81761818D01*
X123387515Y-81761820D01*
X123527525Y-81799336D01*
X123527528Y-81799336D01*
X123672472Y-81799336D01*
X123672475Y-81799336D01*
X123812485Y-81761820D01*
X123938015Y-81689345D01*
X123991705Y-81635655D01*
X124053028Y-81602170D01*
X124079386Y-81599336D01*
X126278456Y-81599336D01*
X126345495Y-81619021D01*
X126366137Y-81635655D01*
X128743875Y-84013393D01*
X128777360Y-84074716D01*
X128772376Y-84144408D01*
X128730504Y-84200341D01*
X128684770Y-84218972D01*
X128685376Y-84221233D01*
X128677527Y-84223336D01*
X128677525Y-84223336D01*
X128551386Y-84257135D01*
X128537511Y-84260853D01*
X128411988Y-84333324D01*
X128411982Y-84333329D01*
X128309493Y-84435818D01*
X128309488Y-84435824D01*
X128237017Y-84561347D01*
X128237016Y-84561351D01*
X128199500Y-84701361D01*
X128199500Y-84846311D01*
X128237016Y-84986321D01*
X128237017Y-84986324D01*
X128309488Y-85111847D01*
X128309490Y-85111849D01*
X128309491Y-85111851D01*
X128411985Y-85214345D01*
X128411986Y-85214346D01*
X128411988Y-85214347D01*
X128537511Y-85286818D01*
X128537512Y-85286818D01*
X128537515Y-85286820D01*
X128677525Y-85324336D01*
X128677528Y-85324336D01*
X128822472Y-85324336D01*
X128822475Y-85324336D01*
X128962485Y-85286820D01*
X129088015Y-85214345D01*
X129190509Y-85111851D01*
X129262984Y-84986321D01*
X129300500Y-84846311D01*
X129300500Y-84846308D01*
X129302603Y-84838460D01*
X129305260Y-84839171D01*
X129328075Y-84787575D01*
X129386393Y-84749094D01*
X129456257Y-84748251D01*
X129510442Y-84779960D01*
X134009788Y-89279306D01*
X134050729Y-89302943D01*
X134050730Y-89302944D01*
X134089706Y-89325447D01*
X134089707Y-89325447D01*
X134089712Y-89325450D01*
X134178856Y-89349336D01*
X135136673Y-89349336D01*
X135203712Y-89369021D01*
X135249467Y-89421825D01*
X135259411Y-89490983D01*
X135244060Y-89535334D01*
X135184554Y-89638403D01*
X135147038Y-89778413D01*
X135147038Y-89923363D01*
X135181336Y-90051363D01*
X135184555Y-90063376D01*
X135257026Y-90188899D01*
X135257031Y-90188905D01*
X135285719Y-90217593D01*
X135319204Y-90278916D01*
X135322038Y-90305274D01*
X135322038Y-91159912D01*
X135302353Y-91226951D01*
X135285719Y-91247593D01*
X135234493Y-91298818D01*
X135234488Y-91298824D01*
X135162017Y-91424347D01*
X135162016Y-91424351D01*
X135124500Y-91564361D01*
X135124500Y-91709311D01*
X135149589Y-91802943D01*
X135162017Y-91849324D01*
X135234488Y-91974847D01*
X135234490Y-91974849D01*
X135234491Y-91974851D01*
X135336985Y-92077345D01*
X135336986Y-92077346D01*
X135336988Y-92077347D01*
X135462511Y-92149818D01*
X135462512Y-92149818D01*
X135462515Y-92149820D01*
X135602525Y-92187336D01*
X135602528Y-92187336D01*
X135747472Y-92187336D01*
X135747475Y-92187336D01*
X135887485Y-92149820D01*
X136013015Y-92077345D01*
X136115509Y-91974851D01*
X136187984Y-91849321D01*
X136225500Y-91709311D01*
X136225500Y-91564361D01*
X136187984Y-91424351D01*
X136115509Y-91298821D01*
X136109357Y-91292669D01*
X136075872Y-91231346D01*
X136073038Y-91204988D01*
X136073038Y-90305274D01*
X136092723Y-90238235D01*
X136109357Y-90217593D01*
X136138047Y-90188903D01*
X136210522Y-90063373D01*
X136248038Y-89923363D01*
X136248038Y-89778413D01*
X136210522Y-89638403D01*
X136151015Y-89535335D01*
X136134543Y-89467437D01*
X136157395Y-89401410D01*
X136212316Y-89358219D01*
X136258403Y-89349336D01*
X140507594Y-89349336D01*
X140574633Y-89369021D01*
X140620388Y-89421825D01*
X140630332Y-89490983D01*
X140610696Y-89542227D01*
X140509010Y-89694409D01*
X140509005Y-89694418D01*
X140437469Y-89867122D01*
X140437467Y-89867130D01*
X140401000Y-90050463D01*
X140401000Y-90237408D01*
X140437467Y-90420741D01*
X140437469Y-90420749D01*
X140509005Y-90593453D01*
X140509010Y-90593462D01*
X140612862Y-90748887D01*
X140612865Y-90748891D01*
X140745044Y-90881070D01*
X140745048Y-90881073D01*
X140900473Y-90984925D01*
X140900482Y-90984930D01*
X140924948Y-90995064D01*
X141073187Y-91056467D01*
X141228756Y-91087411D01*
X141256527Y-91092935D01*
X141256531Y-91092936D01*
X141256532Y-91092936D01*
X141443469Y-91092936D01*
X141443470Y-91092935D01*
X141626813Y-91056467D01*
X141799520Y-90984929D01*
X141954952Y-90881073D01*
X142087137Y-90748888D01*
X142190993Y-90593456D01*
X142262531Y-90420749D01*
X142299000Y-90237404D01*
X142299000Y-90050468D01*
X142262531Y-89867123D01*
X142190993Y-89694416D01*
X142190992Y-89694415D01*
X142190989Y-89694409D01*
X142089304Y-89542227D01*
X142068426Y-89475549D01*
X142086911Y-89408169D01*
X142138889Y-89361479D01*
X142192406Y-89349336D01*
X145903456Y-89349336D01*
X145970495Y-89369021D01*
X145991137Y-89385655D01*
X148813181Y-92207699D01*
X148846666Y-92269022D01*
X148849500Y-92295380D01*
X148849500Y-93644450D01*
X148829815Y-93711489D01*
X148813181Y-93732131D01*
X148759493Y-93785818D01*
X148759488Y-93785824D01*
X148687017Y-93911347D01*
X148687016Y-93911351D01*
X148649500Y-94051361D01*
X148649500Y-94196311D01*
X148686213Y-94333324D01*
X148687017Y-94336324D01*
X148759488Y-94461847D01*
X148759490Y-94461849D01*
X148759491Y-94461851D01*
X148861985Y-94564345D01*
X148861986Y-94564346D01*
X148861988Y-94564347D01*
X148987511Y-94636818D01*
X148987512Y-94636818D01*
X148987515Y-94636820D01*
X149127525Y-94674336D01*
X149127528Y-94674336D01*
X149272472Y-94674336D01*
X149272475Y-94674336D01*
X149412485Y-94636820D01*
X149538015Y-94564345D01*
X149640509Y-94461851D01*
X149712984Y-94336321D01*
X149750500Y-94196311D01*
X149750500Y-94051361D01*
X149712984Y-93911351D01*
X149712968Y-93911324D01*
X149640511Y-93785824D01*
X149640506Y-93785818D01*
X149586819Y-93732131D01*
X149553334Y-93670808D01*
X149550500Y-93644450D01*
X149550500Y-92052694D01*
X149550500Y-92052692D01*
X149526614Y-91963548D01*
X149512640Y-91939345D01*
X149480470Y-91883624D01*
X146315212Y-88718366D01*
X146315211Y-88718365D01*
X146315208Y-88718363D01*
X146235290Y-88672223D01*
X146235289Y-88672222D01*
X146235288Y-88672222D01*
X146146144Y-88648336D01*
X146146143Y-88648336D01*
X141963738Y-88648336D01*
X141896699Y-88628651D01*
X141850944Y-88575847D01*
X141841000Y-88506689D01*
X141870025Y-88443133D01*
X141894848Y-88421234D01*
X141938742Y-88391903D01*
X141954952Y-88381073D01*
X142087137Y-88248888D01*
X142190993Y-88093456D01*
X142262531Y-87920749D01*
X142299000Y-87737404D01*
X142299000Y-87550468D01*
X142262531Y-87367123D01*
X142190993Y-87194416D01*
X142190992Y-87194415D01*
X142190989Y-87194409D01*
X142186591Y-87187827D01*
X142165713Y-87121150D01*
X142184197Y-87053769D01*
X142236176Y-87007079D01*
X142289693Y-86994936D01*
X145457715Y-86994936D01*
X145524754Y-87014621D01*
X145545396Y-87031255D01*
X153336981Y-94822840D01*
X153370466Y-94884163D01*
X153373300Y-94910521D01*
X153373300Y-96087151D01*
X153353615Y-96154190D01*
X153336981Y-96174832D01*
X150588577Y-98923235D01*
X150588571Y-98923244D01*
X150545566Y-98997728D01*
X150545564Y-98997731D01*
X150535895Y-99033818D01*
X150532672Y-99045847D01*
X150532672Y-99045848D01*
X150532671Y-99045847D01*
X150525975Y-99070841D01*
X150493882Y-99126430D01*
X150409488Y-99210824D01*
X150337017Y-99336347D01*
X150337016Y-99336351D01*
X150299500Y-99476361D01*
X150299500Y-99476363D01*
X150299500Y-99621310D01*
X150305109Y-99642243D01*
X150303446Y-99712093D01*
X150264283Y-99769955D01*
X150200055Y-99797459D01*
X150185334Y-99798336D01*
X141092255Y-99798336D01*
X141025216Y-99778651D01*
X141004574Y-99762017D01*
X138793020Y-97550463D01*
X140401000Y-97550463D01*
X140401000Y-97737408D01*
X140437467Y-97920741D01*
X140437469Y-97920749D01*
X140509005Y-98093453D01*
X140509010Y-98093462D01*
X140612862Y-98248887D01*
X140612865Y-98248891D01*
X140745044Y-98381070D01*
X140745048Y-98381073D01*
X140900473Y-98484925D01*
X140900482Y-98484930D01*
X140939605Y-98501135D01*
X141073187Y-98556467D01*
X141256527Y-98592935D01*
X141256531Y-98592936D01*
X141256532Y-98592936D01*
X141443469Y-98592936D01*
X141443470Y-98592935D01*
X141626813Y-98556467D01*
X141799520Y-98484929D01*
X141954952Y-98381073D01*
X142087137Y-98248888D01*
X142190993Y-98093456D01*
X142262531Y-97920749D01*
X142299000Y-97737404D01*
X142299000Y-97550468D01*
X142262531Y-97367123D01*
X142190993Y-97194416D01*
X142190992Y-97194415D01*
X142190989Y-97194409D01*
X142087137Y-97038984D01*
X142087134Y-97038980D01*
X141954955Y-96906801D01*
X141954951Y-96906798D01*
X141799526Y-96802946D01*
X141799517Y-96802941D01*
X141626813Y-96731405D01*
X141626805Y-96731403D01*
X141443472Y-96694936D01*
X141443468Y-96694936D01*
X141256532Y-96694936D01*
X141256527Y-96694936D01*
X141073194Y-96731403D01*
X141073186Y-96731405D01*
X140900482Y-96802941D01*
X140900473Y-96802946D01*
X140745048Y-96906798D01*
X140745044Y-96906801D01*
X140612865Y-97038980D01*
X140612862Y-97038984D01*
X140509010Y-97194409D01*
X140509005Y-97194418D01*
X140437469Y-97367122D01*
X140437467Y-97367130D01*
X140401000Y-97550463D01*
X138793020Y-97550463D01*
X137345915Y-96103358D01*
X137345913Y-96103356D01*
X137300250Y-96076992D01*
X137254589Y-96050629D01*
X137203657Y-96036982D01*
X137152727Y-96023336D01*
X137152726Y-96023336D01*
X132767255Y-96023336D01*
X132700216Y-96003651D01*
X132679574Y-95987017D01*
X132429774Y-95737217D01*
X132396289Y-95675894D01*
X132401273Y-95606202D01*
X132443145Y-95550269D01*
X132508609Y-95525852D01*
X132517455Y-95525536D01*
X133418009Y-95525536D01*
X133418011Y-95525536D01*
X133501102Y-95503272D01*
X133575598Y-95460261D01*
X133750204Y-95285653D01*
X133811525Y-95252170D01*
X133837884Y-95249336D01*
X133947472Y-95249336D01*
X133947475Y-95249336D01*
X134087485Y-95211820D01*
X134213015Y-95139345D01*
X134290506Y-95061854D01*
X134351830Y-95028370D01*
X134378187Y-95025536D01*
X138943009Y-95025536D01*
X138943011Y-95025536D01*
X139026102Y-95003272D01*
X139100598Y-94960261D01*
X139649004Y-94411855D01*
X139710327Y-94378370D01*
X139736685Y-94375536D01*
X140490087Y-94375536D01*
X140557126Y-94395221D01*
X140602881Y-94448025D01*
X140612825Y-94517183D01*
X140593189Y-94568426D01*
X140509013Y-94694404D01*
X140509005Y-94694418D01*
X140437469Y-94867122D01*
X140437467Y-94867130D01*
X140401000Y-95050463D01*
X140401000Y-95237408D01*
X140437467Y-95420741D01*
X140437469Y-95420749D01*
X140509005Y-95593453D01*
X140509010Y-95593462D01*
X140612862Y-95748887D01*
X140612865Y-95748891D01*
X140745044Y-95881070D01*
X140745048Y-95881073D01*
X140900473Y-95984925D01*
X140900482Y-95984930D01*
X140939605Y-96001135D01*
X141073187Y-96056467D01*
X141256527Y-96092935D01*
X141256531Y-96092936D01*
X141256532Y-96092936D01*
X141443469Y-96092936D01*
X141443470Y-96092935D01*
X141626813Y-96056467D01*
X141799520Y-95984929D01*
X141954952Y-95881073D01*
X142087137Y-95748888D01*
X142190993Y-95593456D01*
X142262531Y-95420749D01*
X142299000Y-95237404D01*
X142299000Y-95050468D01*
X142262531Y-94867123D01*
X142190993Y-94694416D01*
X142190992Y-94694415D01*
X142190989Y-94694409D01*
X142109082Y-94571827D01*
X142106044Y-94562126D01*
X142099390Y-94554447D01*
X142095781Y-94529347D01*
X142088204Y-94505149D01*
X142090892Y-94495348D01*
X142089446Y-94485289D01*
X142099979Y-94462224D01*
X142106688Y-94437769D01*
X142114249Y-94430976D01*
X142118471Y-94421733D01*
X142139801Y-94408024D01*
X142158667Y-94391079D01*
X142170264Y-94388447D01*
X142177249Y-94383959D01*
X142212184Y-94378936D01*
X142391715Y-94378936D01*
X142458754Y-94398621D01*
X142479396Y-94415255D01*
X143236981Y-95172840D01*
X143270466Y-95234163D01*
X143273300Y-95260521D01*
X143273300Y-95390922D01*
X143253615Y-95457961D01*
X143200811Y-95503716D01*
X143181394Y-95510697D01*
X143087511Y-95535853D01*
X142961988Y-95608324D01*
X142961982Y-95608329D01*
X142859493Y-95710818D01*
X142859488Y-95710824D01*
X142787017Y-95836347D01*
X142787016Y-95836351D01*
X142749500Y-95976361D01*
X142749500Y-96121311D01*
X142778845Y-96230825D01*
X142787017Y-96261324D01*
X142859488Y-96386847D01*
X142859490Y-96386849D01*
X142859491Y-96386851D01*
X142961985Y-96489345D01*
X142961986Y-96489346D01*
X142961988Y-96489347D01*
X143087511Y-96561818D01*
X143087512Y-96561818D01*
X143087515Y-96561820D01*
X143227525Y-96599336D01*
X143227528Y-96599336D01*
X143372472Y-96599336D01*
X143372475Y-96599336D01*
X143512485Y-96561820D01*
X143638015Y-96489345D01*
X143740509Y-96386851D01*
X143812984Y-96261321D01*
X143850500Y-96121311D01*
X143850500Y-96001583D01*
X143867113Y-95939582D01*
X143867252Y-95939342D01*
X143904436Y-95874938D01*
X143926700Y-95791847D01*
X143926700Y-95705825D01*
X143926700Y-95030825D01*
X143914775Y-94986321D01*
X143914775Y-94986320D01*
X143914775Y-94986319D01*
X143904436Y-94947735D01*
X143904432Y-94947726D01*
X143876086Y-94898632D01*
X143861425Y-94873238D01*
X143225404Y-94237217D01*
X143191919Y-94175894D01*
X143196903Y-94106202D01*
X143238775Y-94050269D01*
X143304239Y-94025852D01*
X143313085Y-94025536D01*
X147371813Y-94025536D01*
X147438852Y-94045221D01*
X147459494Y-94061854D01*
X147536985Y-94139345D01*
X147536987Y-94139346D01*
X147536988Y-94139347D01*
X147662511Y-94211818D01*
X147662512Y-94211818D01*
X147662515Y-94211820D01*
X147802525Y-94249336D01*
X147802528Y-94249336D01*
X147947472Y-94249336D01*
X147947475Y-94249336D01*
X148087485Y-94211820D01*
X148213015Y-94139345D01*
X148315509Y-94036851D01*
X148387984Y-93911321D01*
X148425500Y-93771311D01*
X148425500Y-93626361D01*
X148387984Y-93486351D01*
X148315509Y-93360821D01*
X148213015Y-93258327D01*
X148213013Y-93258326D01*
X148213011Y-93258324D01*
X148087488Y-93185853D01*
X148087489Y-93185853D01*
X148076006Y-93182776D01*
X147947475Y-93148336D01*
X147802525Y-93148336D01*
X147673993Y-93182776D01*
X147662511Y-93185853D01*
X147536988Y-93258324D01*
X147459494Y-93335818D01*
X147398170Y-93369302D01*
X147371813Y-93372136D01*
X142236773Y-93372136D01*
X142169734Y-93352451D01*
X142123979Y-93299647D01*
X142114035Y-93230489D01*
X142133671Y-93179245D01*
X142190989Y-93093462D01*
X142190989Y-93093461D01*
X142190993Y-93093456D01*
X142262531Y-92920749D01*
X142299000Y-92737404D01*
X142299000Y-92550468D01*
X142262531Y-92367123D01*
X142190993Y-92194416D01*
X142190992Y-92194415D01*
X142190989Y-92194409D01*
X142087137Y-92038984D01*
X142087134Y-92038980D01*
X141954955Y-91906801D01*
X141954951Y-91906798D01*
X141799526Y-91802946D01*
X141799517Y-91802941D01*
X141626813Y-91731405D01*
X141626805Y-91731403D01*
X141443472Y-91694936D01*
X141443468Y-91694936D01*
X141256532Y-91694936D01*
X141256527Y-91694936D01*
X141073194Y-91731403D01*
X141073186Y-91731405D01*
X140900482Y-91802941D01*
X140900473Y-91802946D01*
X140745048Y-91906798D01*
X140745044Y-91906801D01*
X140612865Y-92038980D01*
X140612862Y-92038984D01*
X140509010Y-92194409D01*
X140509005Y-92194418D01*
X140437469Y-92367122D01*
X140437467Y-92367130D01*
X140401000Y-92550463D01*
X140401000Y-92737408D01*
X140437467Y-92920741D01*
X140437469Y-92920749D01*
X140509005Y-93093453D01*
X140509010Y-93093462D01*
X140564057Y-93175845D01*
X140584935Y-93242523D01*
X140566450Y-93309903D01*
X140514472Y-93356593D01*
X140460955Y-93368736D01*
X139499787Y-93368736D01*
X139432748Y-93349051D01*
X139412106Y-93332418D01*
X139379335Y-93299647D01*
X139338015Y-93258327D01*
X139338012Y-93258325D01*
X139338011Y-93258324D01*
X139212488Y-93185853D01*
X139212489Y-93185853D01*
X139201006Y-93182776D01*
X139072475Y-93148336D01*
X138927525Y-93148336D01*
X138798993Y-93182776D01*
X138787511Y-93185853D01*
X138661988Y-93258324D01*
X138584494Y-93335818D01*
X138523170Y-93369302D01*
X138496813Y-93372136D01*
X131586685Y-93372136D01*
X131519646Y-93352451D01*
X131499004Y-93335817D01*
X130436819Y-92273632D01*
X130403334Y-92212309D01*
X130400500Y-92185951D01*
X130400500Y-92076363D01*
X130400500Y-92076361D01*
X130362984Y-91936351D01*
X130362982Y-91936347D01*
X130319790Y-91861536D01*
X130303317Y-91793636D01*
X130326169Y-91727609D01*
X130381091Y-91684418D01*
X130427177Y-91675536D01*
X132888315Y-91675536D01*
X132955354Y-91695221D01*
X132975996Y-91711855D01*
X133264681Y-92000540D01*
X133298166Y-92061863D01*
X133301000Y-92088221D01*
X133301000Y-92197811D01*
X133338516Y-92337821D01*
X133338517Y-92337824D01*
X133410988Y-92463347D01*
X133410990Y-92463349D01*
X133410991Y-92463351D01*
X133513485Y-92565845D01*
X133513486Y-92565846D01*
X133513488Y-92565847D01*
X133639011Y-92638318D01*
X133639012Y-92638318D01*
X133639015Y-92638320D01*
X133779025Y-92675836D01*
X133779028Y-92675836D01*
X133923972Y-92675836D01*
X133923975Y-92675836D01*
X134063985Y-92638320D01*
X134189515Y-92565845D01*
X134292009Y-92463351D01*
X134364484Y-92337821D01*
X134402000Y-92197811D01*
X134402000Y-92052861D01*
X134364484Y-91912851D01*
X134360989Y-91906798D01*
X134292011Y-91787324D01*
X134292006Y-91787318D01*
X134189517Y-91684829D01*
X134189511Y-91684824D01*
X134063988Y-91612353D01*
X134063989Y-91612353D01*
X134052506Y-91609276D01*
X133923975Y-91574836D01*
X133814385Y-91574836D01*
X133747346Y-91555151D01*
X133726704Y-91538517D01*
X133275600Y-91087413D01*
X133275598Y-91087411D01*
X133272259Y-91085483D01*
X133201107Y-91044402D01*
X133201104Y-91044401D01*
X133201103Y-91044400D01*
X133201102Y-91044400D01*
X133118011Y-91022136D01*
X133118010Y-91022136D01*
X128028187Y-91022136D01*
X127961148Y-91002451D01*
X127940506Y-90985818D01*
X127903024Y-90948336D01*
X127863015Y-90908327D01*
X127863012Y-90908325D01*
X127863011Y-90908324D01*
X127737488Y-90835853D01*
X127737489Y-90835853D01*
X127726006Y-90832776D01*
X127597475Y-90798336D01*
X127452525Y-90798336D01*
X127323993Y-90832776D01*
X127312511Y-90835853D01*
X127186988Y-90908324D01*
X127186982Y-90908329D01*
X127078744Y-91016568D01*
X127076646Y-91014470D01*
X127031660Y-91047291D01*
X126961913Y-91051418D01*
X126927761Y-91037973D01*
X126837485Y-90985852D01*
X126697475Y-90948336D01*
X126552525Y-90948336D01*
X126423993Y-90982776D01*
X126412511Y-90985853D01*
X126286988Y-91058324D01*
X126286982Y-91058329D01*
X126184493Y-91160818D01*
X126184488Y-91160824D01*
X126112017Y-91286347D01*
X126112016Y-91286351D01*
X126074500Y-91426361D01*
X126074500Y-91571311D01*
X126112016Y-91711321D01*
X126112017Y-91711324D01*
X126184488Y-91836847D01*
X126184490Y-91836849D01*
X126184491Y-91836851D01*
X126286985Y-91939345D01*
X126286986Y-91939346D01*
X126286988Y-91939347D01*
X126412511Y-92011818D01*
X126412512Y-92011818D01*
X126412515Y-92011820D01*
X126552525Y-92049336D01*
X126637115Y-92049336D01*
X126704154Y-92069021D01*
X126724796Y-92085655D01*
X127649402Y-93010261D01*
X127686650Y-93031766D01*
X127723892Y-93053269D01*
X127723893Y-93053269D01*
X127723898Y-93053272D01*
X127806989Y-93075536D01*
X127893011Y-93075536D01*
X129043956Y-93075536D01*
X129110995Y-93095221D01*
X129156750Y-93148025D01*
X129166694Y-93217183D01*
X129151342Y-93261538D01*
X129137017Y-93286348D01*
X129137016Y-93286350D01*
X129137016Y-93286351D01*
X129099500Y-93426361D01*
X129099500Y-93571311D01*
X129137016Y-93711321D01*
X129137017Y-93711324D01*
X129209488Y-93836847D01*
X129209490Y-93836849D01*
X129209491Y-93836851D01*
X129311985Y-93939345D01*
X129311986Y-93939346D01*
X129311988Y-93939347D01*
X129437511Y-94011818D01*
X129437512Y-94011818D01*
X129437515Y-94011820D01*
X129577525Y-94049336D01*
X129577528Y-94049336D01*
X129585376Y-94051439D01*
X129584647Y-94054158D01*
X129636031Y-94076872D01*
X129643658Y-94083887D01*
X132229519Y-96669748D01*
X132229520Y-96669749D01*
X132304087Y-96744316D01*
X132395413Y-96797043D01*
X132497273Y-96824336D01*
X133504495Y-96824336D01*
X133571534Y-96844021D01*
X133617289Y-96896825D01*
X133627233Y-96965983D01*
X133598208Y-97029539D01*
X133566496Y-97055722D01*
X133561991Y-97058322D01*
X133561982Y-97058329D01*
X133459493Y-97160818D01*
X133459488Y-97160824D01*
X133387017Y-97286347D01*
X133387016Y-97286351D01*
X133349500Y-97426361D01*
X133349500Y-97426363D01*
X133349500Y-97466937D01*
X133329815Y-97533976D01*
X133313181Y-97554618D01*
X131780782Y-99087017D01*
X131719459Y-99120502D01*
X131693101Y-99123336D01*
X127954386Y-99123336D01*
X127887347Y-99103651D01*
X127866705Y-99087017D01*
X127838017Y-99058329D01*
X127838011Y-99058324D01*
X127712488Y-98985853D01*
X127712489Y-98985853D01*
X127701006Y-98982776D01*
X127572475Y-98948336D01*
X127427525Y-98948336D01*
X127298993Y-98982776D01*
X127287511Y-98985853D01*
X127161988Y-99058324D01*
X127161982Y-99058329D01*
X127059493Y-99160818D01*
X127059488Y-99160824D01*
X126987017Y-99286347D01*
X126987016Y-99286351D01*
X126949500Y-99426361D01*
X126949500Y-99571311D01*
X126987016Y-99711321D01*
X126987017Y-99711324D01*
X127059488Y-99836847D01*
X127059490Y-99836849D01*
X127059491Y-99836851D01*
X127161985Y-99939345D01*
X127161986Y-99939346D01*
X127161988Y-99939347D01*
X127287511Y-100011818D01*
X127287512Y-100011818D01*
X127287515Y-100011820D01*
X127427525Y-100049336D01*
X127427528Y-100049336D01*
X127572472Y-100049336D01*
X127572475Y-100049336D01*
X127712485Y-100011820D01*
X127838015Y-99939345D01*
X127866705Y-99910655D01*
X127928028Y-99877170D01*
X127954386Y-99874336D01*
X131949435Y-99874336D01*
X131949436Y-99874336D01*
X131997186Y-99861541D01*
X132044938Y-99848746D01*
X132130562Y-99799311D01*
X132200475Y-99729398D01*
X133844218Y-98085655D01*
X133905541Y-98052170D01*
X133931899Y-98049336D01*
X133972472Y-98049336D01*
X133972475Y-98049336D01*
X134112485Y-98011820D01*
X134238015Y-97939345D01*
X134340509Y-97836851D01*
X134412984Y-97711321D01*
X134450500Y-97571311D01*
X134450500Y-97426361D01*
X134412984Y-97286351D01*
X134359906Y-97194418D01*
X134340511Y-97160824D01*
X134340506Y-97160818D01*
X134238017Y-97058329D01*
X134238015Y-97058327D01*
X134238012Y-97058325D01*
X134238008Y-97058322D01*
X134233504Y-97055722D01*
X134185289Y-97005155D01*
X134172067Y-96936548D01*
X134198035Y-96871683D01*
X134254950Y-96831155D01*
X134295505Y-96824336D01*
X136882745Y-96824336D01*
X136949784Y-96844021D01*
X136970426Y-96860655D01*
X140570226Y-100460455D01*
X140603711Y-100521778D01*
X140598727Y-100591470D01*
X140556855Y-100647403D01*
X140491391Y-100671820D01*
X140482545Y-100672136D01*
X125711686Y-100672136D01*
X125644647Y-100652451D01*
X125624005Y-100635817D01*
X125263019Y-100274831D01*
X125229534Y-100213508D01*
X125226700Y-100187150D01*
X125226700Y-90434817D01*
X125246385Y-90367778D01*
X125299189Y-90322023D01*
X125368347Y-90312079D01*
X125431903Y-90341104D01*
X125458087Y-90372817D01*
X125509491Y-90461851D01*
X125611985Y-90564345D01*
X125611986Y-90564346D01*
X125611988Y-90564347D01*
X125737511Y-90636818D01*
X125737512Y-90636818D01*
X125737515Y-90636820D01*
X125877525Y-90674336D01*
X125877528Y-90674336D01*
X126022472Y-90674336D01*
X126022475Y-90674336D01*
X126162485Y-90636820D01*
X126288015Y-90564345D01*
X126390509Y-90461851D01*
X126462984Y-90336321D01*
X126500500Y-90196311D01*
X126500500Y-90051361D01*
X126462984Y-89911351D01*
X126437448Y-89867122D01*
X126390511Y-89785824D01*
X126390506Y-89785818D01*
X126288017Y-89683329D01*
X126288011Y-89683324D01*
X126162488Y-89610853D01*
X126162489Y-89610853D01*
X126151006Y-89607776D01*
X126022475Y-89573336D01*
X125877525Y-89573336D01*
X125748993Y-89607776D01*
X125737511Y-89610853D01*
X125611988Y-89683324D01*
X125611982Y-89683329D01*
X125509493Y-89785818D01*
X125509491Y-89785821D01*
X125458087Y-89874855D01*
X125407519Y-89923070D01*
X125338912Y-89936292D01*
X125274048Y-89910324D01*
X125233520Y-89853410D01*
X125226700Y-89812854D01*
X125226700Y-88157124D01*
X125246385Y-88090085D01*
X125299189Y-88044330D01*
X125368347Y-88034386D01*
X125382787Y-88037348D01*
X125427525Y-88049336D01*
X125427527Y-88049336D01*
X125572472Y-88049336D01*
X125572475Y-88049336D01*
X125712485Y-88011820D01*
X125838015Y-87939345D01*
X125940509Y-87836851D01*
X126012984Y-87711321D01*
X126050500Y-87571311D01*
X126050500Y-87426361D01*
X126012984Y-87286351D01*
X125959906Y-87194418D01*
X125940511Y-87160824D01*
X125940506Y-87160818D01*
X125838017Y-87058329D01*
X125838011Y-87058324D01*
X125712488Y-86985853D01*
X125712489Y-86985853D01*
X125701006Y-86982776D01*
X125572475Y-86948336D01*
X125427525Y-86948336D01*
X125382793Y-86960322D01*
X125312943Y-86958659D01*
X125255081Y-86919496D01*
X125227577Y-86855267D01*
X125226700Y-86840547D01*
X125226700Y-86568726D01*
X125246385Y-86501687D01*
X125299189Y-86455932D01*
X125368347Y-86445988D01*
X125382780Y-86448949D01*
X125477525Y-86474336D01*
X125477527Y-86474336D01*
X125622472Y-86474336D01*
X125622475Y-86474336D01*
X125762485Y-86436820D01*
X125888015Y-86364345D01*
X125990509Y-86261851D01*
X126062984Y-86136321D01*
X126100500Y-85996311D01*
X126100500Y-85851361D01*
X126062984Y-85711351D01*
X126061239Y-85708329D01*
X125990511Y-85585824D01*
X125990506Y-85585818D01*
X125888017Y-85483329D01*
X125888011Y-85483324D01*
X125762488Y-85410853D01*
X125762489Y-85410853D01*
X125751006Y-85407776D01*
X125622475Y-85373336D01*
X125477525Y-85373336D01*
X125382791Y-85398719D01*
X125312944Y-85397057D01*
X125255081Y-85357895D01*
X125227577Y-85293666D01*
X125226700Y-85278945D01*
X125226700Y-84605827D01*
X125226700Y-84605825D01*
X125204436Y-84522735D01*
X125204436Y-84522734D01*
X125161425Y-84448238D01*
X122613019Y-81899832D01*
X122579534Y-81838509D01*
X122576700Y-81812151D01*
X122576700Y-79485520D01*
X122596385Y-79418481D01*
X122613019Y-79397839D01*
X123199004Y-78811855D01*
X123260327Y-78778370D01*
X123286685Y-78775536D01*
X126068009Y-78775536D01*
X126068011Y-78775536D01*
X126151102Y-78753272D01*
X126225598Y-78710261D01*
X127477220Y-77458639D01*
X127538543Y-77425154D01*
X127564901Y-77422320D01*
X127674488Y-77422320D01*
X127674491Y-77422320D01*
X127814501Y-77384804D01*
X127940031Y-77312329D01*
X128042525Y-77209835D01*
X128115000Y-77084305D01*
X128152516Y-76944295D01*
X128152516Y-76799345D01*
X128115000Y-76659335D01*
X128096248Y-76626856D01*
X128079776Y-76558958D01*
X128102628Y-76492931D01*
X128157549Y-76449740D01*
X128227102Y-76443098D01*
X128289205Y-76475113D01*
G37*
%TD.AperFunction*%
%TA.AperFunction,Conductor*%
G36*
X133480347Y-94026396D02*
G01*
X133483318Y-94025676D01*
X133513666Y-94036180D01*
X133544456Y-94045221D01*
X133546455Y-94047529D01*
X133549345Y-94048529D01*
X133569197Y-94073774D01*
X133590211Y-94098025D01*
X133590645Y-94101048D01*
X133592535Y-94103451D01*
X133595586Y-94135410D01*
X133600155Y-94167183D01*
X133598885Y-94169962D01*
X133599176Y-94173004D01*
X133584469Y-94201529D01*
X133571130Y-94230739D01*
X133568135Y-94233211D01*
X133567159Y-94235106D01*
X133539418Y-94256921D01*
X133536987Y-94258326D01*
X133536985Y-94258327D01*
X133536982Y-94258329D01*
X133434493Y-94360818D01*
X133434488Y-94360824D01*
X133362017Y-94486347D01*
X133362016Y-94486351D01*
X133324500Y-94626361D01*
X133324500Y-94626363D01*
X133324500Y-94735949D01*
X133315857Y-94765381D01*
X133309335Y-94795371D01*
X133305577Y-94800390D01*
X133304815Y-94802988D01*
X133288185Y-94823627D01*
X133275999Y-94835814D01*
X133214677Y-94869301D01*
X133188314Y-94872136D01*
X132352971Y-94872136D01*
X132285932Y-94852451D01*
X132265290Y-94835817D01*
X131666690Y-94237217D01*
X131633205Y-94175894D01*
X131638189Y-94106202D01*
X131680061Y-94050269D01*
X131745525Y-94025852D01*
X131754371Y-94025536D01*
X133477417Y-94025536D01*
X133480347Y-94026396D01*
G37*
%TD.AperFunction*%
%TD*%
M02*
