%TF.GenerationSoftware,KiCad,Pcbnew,9.0.7*%
%TF.CreationDate,2026-06-13T17:55:31+01:00*%
%TF.ProjectId,GlucoBit-v2,476c7563-6f42-4697-942d-76322e6b6963,rev?*%
%TF.SameCoordinates,Original*%
%TF.FileFunction,Copper,L2,Inr*%
%TF.FilePolarity,Positive*%
%FSLAX46Y46*%
G04 Gerber Fmt 4.6, Leading zero omitted, Abs format (unit mm)*
G04 Created by KiCad (PCBNEW 9.0.7) date 2026-06-13 17:55:31*
%MOMM*%
%LPD*%
G01*
G04 APERTURE LIST*
%TA.AperFunction,ComponentPad*%
%ADD10O,2.100000X1.200000*%
%TD*%
%TA.AperFunction,ComponentPad*%
%ADD11O,1.800000X1.200000*%
%TD*%
%TA.AperFunction,ComponentPad*%
%ADD12C,1.397000*%
%TD*%
%TA.AperFunction,ComponentPad*%
%ADD13R,1.308000X1.308000*%
%TD*%
%TA.AperFunction,ComponentPad*%
%ADD14C,1.308000*%
%TD*%
%TA.AperFunction,ComponentPad*%
%ADD15C,0.504000*%
%TD*%
%TA.AperFunction,ComponentPad*%
%ADD16R,1.700000X1.700000*%
%TD*%
%TA.AperFunction,ComponentPad*%
%ADD17C,1.700000*%
%TD*%
%TA.AperFunction,ViaPad*%
%ADD18C,0.600000*%
%TD*%
G04 APERTURE END LIST*
D10*
%TO.N,GND*%
%TO.C,J1*%
X122380000Y-84269586D03*
X122380000Y-92909586D03*
D11*
X118200000Y-84269586D03*
X118200000Y-92909586D03*
%TD*%
D12*
%TO.N,MOSI*%
%TO.C,U6*%
X141350000Y-97643936D03*
%TO.N,CLK*%
X141350000Y-95143936D03*
%TO.N,CS*%
X141350000Y-92643936D03*
%TO.N,DC*%
X141350000Y-90143936D03*
%TO.N,RST*%
X141350000Y-87643936D03*
%TO.N,BL*%
X141350000Y-85143936D03*
%TO.N,LED*%
X141350000Y-82643936D03*
%TO.N,Touch*%
X141350000Y-80143936D03*
%TD*%
D13*
%TO.N,/VOUT*%
%TO.C,J2*%
X163400000Y-101750000D03*
D14*
%TO.N,GND*%
X161400000Y-101750000D03*
%TD*%
D13*
%TO.N,Net-(U5-OUTN)*%
%TO.C,J6*%
X150400000Y-101748836D03*
D14*
%TO.N,Net-(U5-OUTP)*%
X148400000Y-101748836D03*
%TD*%
D15*
%TO.N,GND*%
%TO.C,U2*%
X129850000Y-90048836D03*
%TD*%
D16*
%TO.N,+3V3*%
%TO.C,J3*%
X136200000Y-75700000D03*
D17*
%TO.N,GND*%
X136200000Y-78240000D03*
%TD*%
D18*
%TO.N,/5VIN*%
X125500000Y-87498836D03*
X124200000Y-90273836D03*
X125950000Y-90123836D03*
X125550000Y-85923836D03*
X131400000Y-84698836D03*
X123975000Y-86148836D03*
X128750000Y-84773836D03*
%TO.N,GND*%
X118025000Y-91573836D03*
X133396000Y-83508836D03*
X158724000Y-86810836D03*
X154152000Y-89998836D03*
X145600000Y-74898836D03*
X139475000Y-85698836D03*
X128675000Y-97973836D03*
X120370000Y-82238836D03*
X154400000Y-98800000D03*
X124850000Y-76498836D03*
X150275000Y-86798836D03*
X122150000Y-77073836D03*
X124150000Y-91898836D03*
X158724000Y-85673836D03*
X158750000Y-88423836D03*
X157500000Y-84524836D03*
X133600000Y-78773836D03*
X128575000Y-79748836D03*
X164237467Y-76413202D03*
X156200000Y-92723836D03*
X143125000Y-98748836D03*
X155168000Y-89998836D03*
X153450000Y-86048836D03*
X157200000Y-90000000D03*
X127575000Y-97986836D03*
X156175853Y-90000000D03*
X132825000Y-75173836D03*
X158750000Y-87698836D03*
X121835130Y-78898836D03*
X160150000Y-75023836D03*
X140436000Y-91382836D03*
X154425000Y-81998836D03*
X160100000Y-101748266D03*
X133411765Y-87337071D03*
X138725000Y-76573836D03*
X153475000Y-87064836D03*
X120425000Y-74798836D03*
X150325000Y-77123836D03*
X126850000Y-84723836D03*
X158343280Y-102402779D03*
X163575000Y-78073836D03*
X117925000Y-81398836D03*
X158216000Y-90000000D03*
X137225000Y-83148836D03*
X129608535Y-97986836D03*
X125625000Y-94523836D03*
X153525000Y-89096836D03*
X145300000Y-101200000D03*
X139166000Y-92398836D03*
X121850000Y-100526836D03*
X117950000Y-85398836D03*
X158775000Y-89398836D03*
X124000000Y-92848836D03*
X163725000Y-88048836D03*
X135375000Y-84198836D03*
X154032227Y-74651456D03*
X153390000Y-85032836D03*
X132800000Y-94398836D03*
X154406000Y-84524836D03*
X133987500Y-89698836D03*
X153500000Y-88080836D03*
X155422000Y-84524836D03*
X163705248Y-99885423D03*
X139052880Y-99295956D03*
X156500000Y-84524836D03*
X123575000Y-99873836D03*
X158700000Y-84524836D03*
X120450000Y-85198836D03*
%TO.N,/VOUT*%
X129650000Y-93498836D03*
%TO.N,+3V3*%
X135697538Y-89850888D03*
X155850000Y-77748836D03*
X133900000Y-97498836D03*
X135675000Y-91636836D03*
X143375000Y-80723836D03*
X127500000Y-99498836D03*
%TO.N,BOOT*%
X149200000Y-94123836D03*
X123600000Y-81248836D03*
%TO.N,ENABLE*%
X117576000Y-99002836D03*
X164000000Y-94773836D03*
%TO.N,Net-(U5-OUTP)*%
X142575000Y-100998836D03*
X127912147Y-76777804D03*
%TO.N,Net-(U5-OUTN)*%
X127725000Y-75073836D03*
X150850000Y-99548836D03*
%TO.N,PGOOD*%
X126625000Y-91498836D03*
X133875000Y-94698836D03*
X143300000Y-96048836D03*
%TO.N,CH*%
X139000000Y-93698836D03*
X147875000Y-93698836D03*
X129850000Y-92148836D03*
%TO.N,Net-(U2-ISET2)*%
X133851500Y-92125336D03*
X127525000Y-91348836D03*
%TO.N,Touch*%
X162350000Y-95498836D03*
%TO.N,BCLK*%
X145250000Y-76948836D03*
X121625000Y-74773836D03*
%TO.N,LRCLK*%
X152175000Y-78073836D03*
X150600000Y-74848836D03*
%TD*%
%TA.AperFunction,Conductor*%
%TO.N,GND*%
G36*
X121247903Y-74159771D02*
G01*
X121293658Y-74212575D01*
X121303602Y-74281733D01*
X121274577Y-74345289D01*
X121268545Y-74351767D01*
X121184493Y-74435818D01*
X121184488Y-74435824D01*
X121112017Y-74561347D01*
X121112016Y-74561351D01*
X121074500Y-74701361D01*
X121074500Y-74846311D01*
X121112016Y-74986321D01*
X121112017Y-74986324D01*
X121184488Y-75111847D01*
X121184490Y-75111849D01*
X121184491Y-75111851D01*
X121286985Y-75214345D01*
X121286986Y-75214346D01*
X121286988Y-75214347D01*
X121412511Y-75286818D01*
X121412512Y-75286818D01*
X121412515Y-75286820D01*
X121552525Y-75324336D01*
X121552528Y-75324336D01*
X121697472Y-75324336D01*
X121697475Y-75324336D01*
X121837485Y-75286820D01*
X121963015Y-75214345D01*
X122065509Y-75111851D01*
X122129301Y-75001361D01*
X127174500Y-75001361D01*
X127174500Y-75146311D01*
X127200490Y-75243306D01*
X127212017Y-75286324D01*
X127284488Y-75411847D01*
X127284490Y-75411849D01*
X127284491Y-75411851D01*
X127386985Y-75514345D01*
X127386986Y-75514346D01*
X127386988Y-75514347D01*
X127512511Y-75586818D01*
X127512512Y-75586818D01*
X127512515Y-75586820D01*
X127652525Y-75624336D01*
X127652528Y-75624336D01*
X127797472Y-75624336D01*
X127797475Y-75624336D01*
X127937485Y-75586820D01*
X128063015Y-75514345D01*
X128165509Y-75411851D01*
X128237984Y-75286321D01*
X128275500Y-75146311D01*
X128275500Y-75001361D01*
X128237984Y-74861351D01*
X128233250Y-74853152D01*
X128217182Y-74825321D01*
X135099500Y-74825321D01*
X135099500Y-76574678D01*
X135114032Y-76647735D01*
X135114033Y-76647739D01*
X135114034Y-76647740D01*
X135169399Y-76730601D01*
X135221078Y-76765131D01*
X135252260Y-76785966D01*
X135252264Y-76785967D01*
X135325321Y-76800499D01*
X135325324Y-76800500D01*
X135325326Y-76800500D01*
X137074676Y-76800500D01*
X137074677Y-76800499D01*
X137147740Y-76785966D01*
X137230601Y-76730601D01*
X137285966Y-76647740D01*
X137300500Y-76574674D01*
X137300500Y-74825326D01*
X137300500Y-74825323D01*
X137300499Y-74825321D01*
X137285967Y-74752264D01*
X137285966Y-74752260D01*
X137251958Y-74701363D01*
X137230601Y-74669399D01*
X137147740Y-74614034D01*
X137147739Y-74614033D01*
X137147735Y-74614032D01*
X137074677Y-74599500D01*
X137074674Y-74599500D01*
X135325326Y-74599500D01*
X135325323Y-74599500D01*
X135252264Y-74614032D01*
X135252260Y-74614033D01*
X135169399Y-74669399D01*
X135114033Y-74752260D01*
X135114032Y-74752264D01*
X135099500Y-74825321D01*
X128217182Y-74825321D01*
X128165511Y-74735824D01*
X128165506Y-74735818D01*
X128063017Y-74633329D01*
X128063011Y-74633324D01*
X127937488Y-74560853D01*
X127937489Y-74560853D01*
X127926006Y-74557776D01*
X127797475Y-74523336D01*
X127652525Y-74523336D01*
X127523993Y-74557776D01*
X127512511Y-74560853D01*
X127386988Y-74633324D01*
X127386982Y-74633329D01*
X127284493Y-74735818D01*
X127284488Y-74735824D01*
X127212017Y-74861347D01*
X127212016Y-74861351D01*
X127174500Y-75001361D01*
X122129301Y-75001361D01*
X122137984Y-74986321D01*
X122175500Y-74846311D01*
X122175500Y-74701361D01*
X122137984Y-74561351D01*
X122137696Y-74560853D01*
X122065511Y-74435824D01*
X122065506Y-74435818D01*
X121981455Y-74351767D01*
X121947970Y-74290444D01*
X121952954Y-74220752D01*
X121994826Y-74164819D01*
X122060290Y-74140402D01*
X122069136Y-74140086D01*
X150263817Y-74140086D01*
X150330856Y-74159771D01*
X150376611Y-74212575D01*
X150386555Y-74281733D01*
X150357530Y-74345289D01*
X150325818Y-74371473D01*
X150261985Y-74408327D01*
X150261982Y-74408329D01*
X150159493Y-74510818D01*
X150159488Y-74510824D01*
X150087017Y-74636347D01*
X150087016Y-74636351D01*
X150049500Y-74776361D01*
X150049500Y-74921311D01*
X150087016Y-75061321D01*
X150087017Y-75061324D01*
X150159488Y-75186847D01*
X150159490Y-75186849D01*
X150159491Y-75186851D01*
X150261985Y-75289345D01*
X150261986Y-75289346D01*
X150261988Y-75289347D01*
X150387511Y-75361818D01*
X150387512Y-75361818D01*
X150387515Y-75361820D01*
X150527525Y-75399336D01*
X150527528Y-75399336D01*
X150672472Y-75399336D01*
X150672475Y-75399336D01*
X150812485Y-75361820D01*
X150938015Y-75289345D01*
X151040509Y-75186851D01*
X151112984Y-75061321D01*
X151150500Y-74921311D01*
X151150500Y-74776361D01*
X151112984Y-74636351D01*
X151111239Y-74633329D01*
X151040511Y-74510824D01*
X151040506Y-74510818D01*
X150938017Y-74408329D01*
X150938015Y-74408327D01*
X150874181Y-74371472D01*
X150825967Y-74320905D01*
X150812745Y-74252298D01*
X150838713Y-74187434D01*
X150895627Y-74146906D01*
X150936183Y-74140086D01*
X168729449Y-74140086D01*
X168796488Y-74159771D01*
X168842243Y-74212575D01*
X168852187Y-74281733D01*
X168823162Y-74345289D01*
X168802337Y-74364401D01*
X168622490Y-74495069D01*
X168622488Y-74495071D01*
X168622487Y-74495071D01*
X168455485Y-74662073D01*
X168455485Y-74662074D01*
X168455483Y-74662076D01*
X168401906Y-74735818D01*
X168316657Y-74853152D01*
X168209433Y-75063589D01*
X168136446Y-75288217D01*
X168099500Y-75521488D01*
X168099500Y-75757683D01*
X168136446Y-75990954D01*
X168209433Y-76215582D01*
X168300641Y-76394586D01*
X168316657Y-76426019D01*
X168455483Y-76617096D01*
X168622490Y-76784103D01*
X168813567Y-76922929D01*
X168912991Y-76973588D01*
X169024003Y-77030152D01*
X169024005Y-77030152D01*
X169024008Y-77030154D01*
X169144412Y-77069275D01*
X169248631Y-77103139D01*
X169481903Y-77140086D01*
X169481908Y-77140086D01*
X169718097Y-77140086D01*
X169951368Y-77103139D01*
X170175992Y-77030154D01*
X170386433Y-76922929D01*
X170577510Y-76784103D01*
X170744517Y-76617096D01*
X170875183Y-76437250D01*
X170930512Y-76394586D01*
X171000126Y-76388607D01*
X171061920Y-76421213D01*
X171096278Y-76482052D01*
X171099500Y-76510137D01*
X171099500Y-101169034D01*
X171079815Y-101236073D01*
X171027011Y-101281828D01*
X170957853Y-101291772D01*
X170894297Y-101262747D01*
X170875182Y-101241920D01*
X170824564Y-101172251D01*
X170744517Y-101062076D01*
X170577510Y-100895069D01*
X170386433Y-100756243D01*
X170175996Y-100649019D01*
X169951368Y-100576032D01*
X169718097Y-100539086D01*
X169718092Y-100539086D01*
X169481908Y-100539086D01*
X169481903Y-100539086D01*
X169248631Y-100576032D01*
X169024003Y-100649019D01*
X168813566Y-100756243D01*
X168704550Y-100835448D01*
X168622490Y-100895069D01*
X168622488Y-100895071D01*
X168622487Y-100895071D01*
X168455485Y-101062073D01*
X168455485Y-101062074D01*
X168455483Y-101062076D01*
X168395862Y-101144136D01*
X168316657Y-101253152D01*
X168209433Y-101463589D01*
X168136446Y-101688217D01*
X168099500Y-101921488D01*
X168099500Y-102157683D01*
X168136446Y-102390954D01*
X168209433Y-102615582D01*
X168300641Y-102794586D01*
X168316657Y-102826019D01*
X168455483Y-103017096D01*
X168622490Y-103184103D01*
X168802335Y-103314769D01*
X168845000Y-103370098D01*
X168850979Y-103439712D01*
X168818373Y-103501506D01*
X168757534Y-103535864D01*
X168729449Y-103539086D01*
X119470551Y-103539086D01*
X119403512Y-103519401D01*
X119357757Y-103466597D01*
X119347813Y-103397439D01*
X119376838Y-103333883D01*
X119397662Y-103314770D01*
X119577510Y-103184103D01*
X119744517Y-103017096D01*
X119883343Y-102826019D01*
X119990568Y-102615578D01*
X120063553Y-102390954D01*
X120073932Y-102325423D01*
X120100500Y-102157683D01*
X120100500Y-101921488D01*
X120087264Y-101837923D01*
X147495499Y-101837923D01*
X147530258Y-102012663D01*
X147530260Y-102012669D01*
X147598442Y-102177275D01*
X147697430Y-102325423D01*
X147823412Y-102451405D01*
X147823415Y-102451407D01*
X147971559Y-102550393D01*
X148136167Y-102618576D01*
X148136171Y-102618576D01*
X148136172Y-102618577D01*
X148310912Y-102653336D01*
X148310915Y-102653336D01*
X148489087Y-102653336D01*
X148606649Y-102629950D01*
X148663833Y-102618576D01*
X148828441Y-102550393D01*
X148976585Y-102451407D01*
X149102571Y-102325421D01*
X149201557Y-102177277D01*
X149256939Y-102043572D01*
X149300780Y-101989170D01*
X149367074Y-101967105D01*
X149434773Y-101984384D01*
X149482384Y-102035521D01*
X149495500Y-102091026D01*
X149495500Y-102427514D01*
X149510032Y-102500571D01*
X149510033Y-102500575D01*
X149528405Y-102528071D01*
X149565399Y-102583437D01*
X149617991Y-102618577D01*
X149648260Y-102638802D01*
X149648264Y-102638803D01*
X149721321Y-102653335D01*
X149721324Y-102653336D01*
X149721326Y-102653336D01*
X151078676Y-102653336D01*
X151078677Y-102653335D01*
X151151740Y-102638802D01*
X151234601Y-102583437D01*
X151289966Y-102500576D01*
X151304500Y-102427510D01*
X151304500Y-101071321D01*
X162495500Y-101071321D01*
X162495500Y-102428678D01*
X162510032Y-102501735D01*
X162510033Y-102501739D01*
X162510034Y-102501740D01*
X162565399Y-102584601D01*
X162616249Y-102618577D01*
X162648260Y-102639966D01*
X162648264Y-102639967D01*
X162721321Y-102654499D01*
X162721324Y-102654500D01*
X162721326Y-102654500D01*
X164078676Y-102654500D01*
X164078677Y-102654499D01*
X164151740Y-102639966D01*
X164234601Y-102584601D01*
X164289966Y-102501740D01*
X164304500Y-102428674D01*
X164304500Y-101071326D01*
X164304500Y-101071323D01*
X164304499Y-101071321D01*
X164289967Y-100998264D01*
X164289966Y-100998260D01*
X164255902Y-100947279D01*
X164234601Y-100915399D01*
X164151740Y-100860034D01*
X164151739Y-100860033D01*
X164151735Y-100860032D01*
X164078677Y-100845500D01*
X164078674Y-100845500D01*
X162721326Y-100845500D01*
X162721323Y-100845500D01*
X162648264Y-100860032D01*
X162648260Y-100860033D01*
X162565399Y-100915399D01*
X162510033Y-100998260D01*
X162510032Y-100998264D01*
X162495500Y-101071321D01*
X151304500Y-101071321D01*
X151304500Y-101070162D01*
X151304500Y-101070159D01*
X151304499Y-101070157D01*
X151289967Y-100997100D01*
X151289966Y-100997096D01*
X151234601Y-100914235D01*
X151179235Y-100877241D01*
X151151739Y-100858869D01*
X151151735Y-100858868D01*
X151078677Y-100844336D01*
X151078674Y-100844336D01*
X149721326Y-100844336D01*
X149721323Y-100844336D01*
X149648264Y-100858868D01*
X149648260Y-100858869D01*
X149565399Y-100914235D01*
X149510033Y-100997096D01*
X149510032Y-100997100D01*
X149495500Y-101070157D01*
X149495500Y-101406645D01*
X149475815Y-101473684D01*
X149423011Y-101519439D01*
X149353853Y-101529383D01*
X149290297Y-101500358D01*
X149256939Y-101454098D01*
X149201558Y-101320396D01*
X149102569Y-101172248D01*
X148976587Y-101046266D01*
X148902513Y-100996772D01*
X148828441Y-100947279D01*
X148777945Y-100926363D01*
X148663833Y-100879096D01*
X148663827Y-100879094D01*
X148489087Y-100844336D01*
X148489085Y-100844336D01*
X148310915Y-100844336D01*
X148310913Y-100844336D01*
X148136172Y-100879094D01*
X148136166Y-100879096D01*
X147971560Y-100947278D01*
X147823412Y-101046266D01*
X147697430Y-101172248D01*
X147598442Y-101320396D01*
X147530260Y-101485002D01*
X147530258Y-101485008D01*
X147495500Y-101659748D01*
X147495500Y-101659751D01*
X147495500Y-101837921D01*
X147495500Y-101837923D01*
X147495499Y-101837923D01*
X120087264Y-101837923D01*
X120063553Y-101688217D01*
X120008713Y-101519439D01*
X119990568Y-101463594D01*
X119990566Y-101463591D01*
X119990566Y-101463589D01*
X119899358Y-101284585D01*
X119883343Y-101253153D01*
X119744517Y-101062076D01*
X119608802Y-100926361D01*
X142024500Y-100926361D01*
X142024500Y-101071311D01*
X142051547Y-101172251D01*
X142062017Y-101211324D01*
X142134488Y-101336847D01*
X142134490Y-101336849D01*
X142134491Y-101336851D01*
X142236985Y-101439345D01*
X142236986Y-101439346D01*
X142236988Y-101439347D01*
X142362511Y-101511818D01*
X142362512Y-101511818D01*
X142362515Y-101511820D01*
X142502525Y-101549336D01*
X142502528Y-101549336D01*
X142647472Y-101549336D01*
X142647475Y-101549336D01*
X142787485Y-101511820D01*
X142913015Y-101439345D01*
X143015509Y-101336851D01*
X143087984Y-101211321D01*
X143125500Y-101071311D01*
X143125500Y-100926361D01*
X143087984Y-100786351D01*
X143015509Y-100660821D01*
X142913015Y-100558327D01*
X142913013Y-100558326D01*
X142913011Y-100558324D01*
X142787488Y-100485853D01*
X142787489Y-100485853D01*
X142776006Y-100482776D01*
X142647475Y-100448336D01*
X142502525Y-100448336D01*
X142373993Y-100482776D01*
X142362511Y-100485853D01*
X142236988Y-100558324D01*
X142236982Y-100558329D01*
X142134493Y-100660818D01*
X142134488Y-100660824D01*
X142062017Y-100786347D01*
X142062016Y-100786351D01*
X142024500Y-100926361D01*
X119608802Y-100926361D01*
X119577510Y-100895069D01*
X119386433Y-100756243D01*
X119175996Y-100649019D01*
X118951368Y-100576032D01*
X118718097Y-100539086D01*
X118718092Y-100539086D01*
X118481908Y-100539086D01*
X118481903Y-100539086D01*
X118248631Y-100576032D01*
X118024003Y-100649019D01*
X117813566Y-100756243D01*
X117704550Y-100835448D01*
X117622490Y-100895069D01*
X117622488Y-100895071D01*
X117622487Y-100895071D01*
X117455485Y-101062073D01*
X117455485Y-101062074D01*
X117455483Y-101062076D01*
X117377773Y-101169034D01*
X117324818Y-101241920D01*
X117269488Y-101284585D01*
X117199874Y-101290564D01*
X117138079Y-101257958D01*
X117103722Y-101197119D01*
X117100500Y-101169034D01*
X117100500Y-99578742D01*
X117120185Y-99511703D01*
X117172989Y-99465948D01*
X117242147Y-99456004D01*
X117286497Y-99471353D01*
X117363515Y-99515820D01*
X117503525Y-99553336D01*
X117503528Y-99553336D01*
X117648472Y-99553336D01*
X117648475Y-99553336D01*
X117788485Y-99515820D01*
X117914015Y-99443345D01*
X117930999Y-99426361D01*
X126949500Y-99426361D01*
X126949500Y-99571311D01*
X126962897Y-99621308D01*
X126987017Y-99711324D01*
X127059488Y-99836847D01*
X127059490Y-99836849D01*
X127059491Y-99836851D01*
X127161985Y-99939345D01*
X127161986Y-99939346D01*
X127161988Y-99939347D01*
X127287511Y-100011818D01*
X127287512Y-100011818D01*
X127287515Y-100011820D01*
X127427525Y-100049336D01*
X127427528Y-100049336D01*
X127572472Y-100049336D01*
X127572475Y-100049336D01*
X127712485Y-100011820D01*
X127838015Y-99939345D01*
X127940509Y-99836851D01*
X128012984Y-99711321D01*
X128050500Y-99571311D01*
X128050500Y-99476361D01*
X150299500Y-99476361D01*
X150299500Y-99621311D01*
X150337016Y-99761321D01*
X150337017Y-99761324D01*
X150409488Y-99886847D01*
X150409490Y-99886849D01*
X150409491Y-99886851D01*
X150511985Y-99989345D01*
X150511986Y-99989346D01*
X150511988Y-99989347D01*
X150637511Y-100061818D01*
X150637512Y-100061818D01*
X150637515Y-100061820D01*
X150777525Y-100099336D01*
X150777528Y-100099336D01*
X150922472Y-100099336D01*
X150922475Y-100099336D01*
X151062485Y-100061820D01*
X151188015Y-99989345D01*
X151290509Y-99886851D01*
X151362984Y-99761321D01*
X151400500Y-99621311D01*
X151400500Y-99476361D01*
X151362984Y-99336351D01*
X151334116Y-99286351D01*
X151290511Y-99210824D01*
X151290506Y-99210818D01*
X151188017Y-99108329D01*
X151188011Y-99108324D01*
X151062488Y-99035853D01*
X151062489Y-99035853D01*
X151051006Y-99032776D01*
X150922475Y-98998336D01*
X150777525Y-98998336D01*
X150648993Y-99032776D01*
X150637511Y-99035853D01*
X150511988Y-99108324D01*
X150511982Y-99108329D01*
X150409493Y-99210818D01*
X150409488Y-99210824D01*
X150337017Y-99336347D01*
X150337016Y-99336351D01*
X150299500Y-99476361D01*
X128050500Y-99476361D01*
X128050500Y-99426361D01*
X128012984Y-99286351D01*
X127971976Y-99215324D01*
X127940511Y-99160824D01*
X127940506Y-99160818D01*
X127838017Y-99058329D01*
X127838011Y-99058324D01*
X127712488Y-98985853D01*
X127712489Y-98985853D01*
X127701006Y-98982776D01*
X127572475Y-98948336D01*
X127427525Y-98948336D01*
X127298993Y-98982776D01*
X127287511Y-98985853D01*
X127161988Y-99058324D01*
X127161982Y-99058329D01*
X127059493Y-99160818D01*
X127059488Y-99160824D01*
X126987017Y-99286347D01*
X126987016Y-99286351D01*
X126949500Y-99426361D01*
X117930999Y-99426361D01*
X118016509Y-99340851D01*
X118088984Y-99215321D01*
X118126500Y-99075311D01*
X118126500Y-98930361D01*
X118088984Y-98790351D01*
X118016509Y-98664821D01*
X117914015Y-98562327D01*
X117914013Y-98562326D01*
X117914011Y-98562324D01*
X117788488Y-98489853D01*
X117788489Y-98489853D01*
X117770097Y-98484925D01*
X117648475Y-98452336D01*
X117503525Y-98452336D01*
X117381903Y-98484925D01*
X117363511Y-98489853D01*
X117286500Y-98534316D01*
X117218600Y-98550789D01*
X117152573Y-98527936D01*
X117109382Y-98473015D01*
X117100500Y-98426929D01*
X117100500Y-97426361D01*
X133349500Y-97426361D01*
X133349500Y-97571311D01*
X133387016Y-97711321D01*
X133387017Y-97711324D01*
X133459488Y-97836847D01*
X133459490Y-97836849D01*
X133459491Y-97836851D01*
X133561985Y-97939345D01*
X133561986Y-97939346D01*
X133561988Y-97939347D01*
X133687511Y-98011818D01*
X133687512Y-98011818D01*
X133687515Y-98011820D01*
X133827525Y-98049336D01*
X133827528Y-98049336D01*
X133972472Y-98049336D01*
X133972475Y-98049336D01*
X134112485Y-98011820D01*
X134238015Y-97939345D01*
X134340509Y-97836851D01*
X134412984Y-97711321D01*
X134450500Y-97571311D01*
X134450500Y-97550463D01*
X140401000Y-97550463D01*
X140401000Y-97737408D01*
X140437467Y-97920741D01*
X140437469Y-97920749D01*
X140509005Y-98093453D01*
X140509010Y-98093462D01*
X140612862Y-98248887D01*
X140612865Y-98248891D01*
X140745044Y-98381070D01*
X140745048Y-98381073D01*
X140900473Y-98484925D01*
X140900482Y-98484930D01*
X140939605Y-98501135D01*
X141073187Y-98556467D01*
X141256527Y-98592935D01*
X141256531Y-98592936D01*
X141256532Y-98592936D01*
X141443469Y-98592936D01*
X141443470Y-98592935D01*
X141626813Y-98556467D01*
X141799520Y-98484929D01*
X141954952Y-98381073D01*
X142087137Y-98248888D01*
X142190993Y-98093456D01*
X142262531Y-97920749D01*
X142299000Y-97737404D01*
X142299000Y-97550468D01*
X142262531Y-97367123D01*
X142190993Y-97194416D01*
X142190992Y-97194415D01*
X142190989Y-97194409D01*
X142087137Y-97038984D01*
X142087134Y-97038980D01*
X141954955Y-96906801D01*
X141954951Y-96906798D01*
X141799526Y-96802946D01*
X141799517Y-96802941D01*
X141626813Y-96731405D01*
X141626805Y-96731403D01*
X141443472Y-96694936D01*
X141443468Y-96694936D01*
X141256532Y-96694936D01*
X141256527Y-96694936D01*
X141073194Y-96731403D01*
X141073186Y-96731405D01*
X140900482Y-96802941D01*
X140900473Y-96802946D01*
X140745048Y-96906798D01*
X140745044Y-96906801D01*
X140612865Y-97038980D01*
X140612862Y-97038984D01*
X140509010Y-97194409D01*
X140509005Y-97194418D01*
X140437469Y-97367122D01*
X140437467Y-97367130D01*
X140401000Y-97550463D01*
X134450500Y-97550463D01*
X134450500Y-97426361D01*
X134412984Y-97286351D01*
X134359906Y-97194418D01*
X134340511Y-97160824D01*
X134340506Y-97160818D01*
X134238017Y-97058329D01*
X134238011Y-97058324D01*
X134112488Y-96985853D01*
X134112489Y-96985853D01*
X134101006Y-96982776D01*
X133972475Y-96948336D01*
X133827525Y-96948336D01*
X133698993Y-96982776D01*
X133687511Y-96985853D01*
X133561988Y-97058324D01*
X133561982Y-97058329D01*
X133459493Y-97160818D01*
X133459488Y-97160824D01*
X133387017Y-97286347D01*
X133387016Y-97286351D01*
X133349500Y-97426361D01*
X117100500Y-97426361D01*
X117100500Y-94626361D01*
X133324500Y-94626361D01*
X133324500Y-94771311D01*
X133350173Y-94867122D01*
X133362017Y-94911324D01*
X133434488Y-95036847D01*
X133434490Y-95036849D01*
X133434491Y-95036851D01*
X133536985Y-95139345D01*
X133536986Y-95139346D01*
X133536988Y-95139347D01*
X133662511Y-95211818D01*
X133662512Y-95211818D01*
X133662515Y-95211820D01*
X133802525Y-95249336D01*
X133802528Y-95249336D01*
X133947472Y-95249336D01*
X133947475Y-95249336D01*
X134087485Y-95211820D01*
X134213015Y-95139345D01*
X134301897Y-95050463D01*
X140401000Y-95050463D01*
X140401000Y-95237408D01*
X140437467Y-95420741D01*
X140437469Y-95420749D01*
X140509005Y-95593453D01*
X140509010Y-95593462D01*
X140612862Y-95748887D01*
X140612865Y-95748891D01*
X140745044Y-95881070D01*
X140745048Y-95881073D01*
X140900473Y-95984925D01*
X140900479Y-95984928D01*
X140900480Y-95984929D01*
X141073187Y-96056467D01*
X141256527Y-96092935D01*
X141256531Y-96092936D01*
X141256532Y-96092936D01*
X141443469Y-96092936D01*
X141443470Y-96092935D01*
X141626813Y-96056467D01*
X141799520Y-95984929D01*
X141812343Y-95976361D01*
X142749500Y-95976361D01*
X142749500Y-96121311D01*
X142787016Y-96261321D01*
X142787017Y-96261324D01*
X142859488Y-96386847D01*
X142859490Y-96386849D01*
X142859491Y-96386851D01*
X142961985Y-96489345D01*
X142961986Y-96489346D01*
X142961988Y-96489347D01*
X143087511Y-96561818D01*
X143087512Y-96561818D01*
X143087515Y-96561820D01*
X143227525Y-96599336D01*
X143227528Y-96599336D01*
X143372472Y-96599336D01*
X143372475Y-96599336D01*
X143512485Y-96561820D01*
X143638015Y-96489345D01*
X143740509Y-96386851D01*
X143812984Y-96261321D01*
X143850500Y-96121311D01*
X143850500Y-95976361D01*
X143812984Y-95836351D01*
X143762486Y-95748887D01*
X143740511Y-95710824D01*
X143740506Y-95710818D01*
X143638017Y-95608329D01*
X143638011Y-95608324D01*
X143512490Y-95535854D01*
X143512487Y-95535853D01*
X143512485Y-95535852D01*
X143372475Y-95498336D01*
X143227525Y-95498336D01*
X143098993Y-95532776D01*
X143087511Y-95535853D01*
X142961988Y-95608324D01*
X142961982Y-95608329D01*
X142859493Y-95710818D01*
X142859488Y-95710824D01*
X142787017Y-95836347D01*
X142787016Y-95836351D01*
X142749500Y-95976361D01*
X141812343Y-95976361D01*
X141954952Y-95881073D01*
X141954955Y-95881070D01*
X141955473Y-95880553D01*
X142087134Y-95748891D01*
X142087137Y-95748888D01*
X142190993Y-95593456D01*
X142260206Y-95426361D01*
X161799500Y-95426361D01*
X161799500Y-95571311D01*
X161836881Y-95710818D01*
X161837017Y-95711324D01*
X161909488Y-95836847D01*
X161909490Y-95836849D01*
X161909491Y-95836851D01*
X162011985Y-95939345D01*
X162011986Y-95939346D01*
X162011988Y-95939347D01*
X162137511Y-96011818D01*
X162137512Y-96011818D01*
X162137515Y-96011820D01*
X162277525Y-96049336D01*
X162277528Y-96049336D01*
X162422472Y-96049336D01*
X162422475Y-96049336D01*
X162562485Y-96011820D01*
X162688015Y-95939345D01*
X162790509Y-95836851D01*
X162862984Y-95711321D01*
X162900500Y-95571311D01*
X162900500Y-95426361D01*
X162862984Y-95286351D01*
X162841613Y-95249336D01*
X162790511Y-95160824D01*
X162790506Y-95160818D01*
X162688017Y-95058329D01*
X162688011Y-95058324D01*
X162562488Y-94985853D01*
X162562489Y-94985853D01*
X162549509Y-94982375D01*
X162422475Y-94948336D01*
X162277525Y-94948336D01*
X162150491Y-94982375D01*
X162137511Y-94985853D01*
X162011988Y-95058324D01*
X162011982Y-95058329D01*
X161909493Y-95160818D01*
X161909488Y-95160824D01*
X161837017Y-95286347D01*
X161837016Y-95286351D01*
X161799500Y-95426361D01*
X142260206Y-95426361D01*
X142262531Y-95420749D01*
X142299000Y-95237404D01*
X142299000Y-95050468D01*
X142262531Y-94867123D01*
X142193870Y-94701361D01*
X163449500Y-94701361D01*
X163449500Y-94846311D01*
X163486891Y-94985853D01*
X163487017Y-94986324D01*
X163559488Y-95111847D01*
X163559490Y-95111849D01*
X163559491Y-95111851D01*
X163661985Y-95214345D01*
X163661986Y-95214346D01*
X163661988Y-95214347D01*
X163787511Y-95286818D01*
X163787512Y-95286818D01*
X163787515Y-95286820D01*
X163927525Y-95324336D01*
X163927528Y-95324336D01*
X164072472Y-95324336D01*
X164072475Y-95324336D01*
X164212485Y-95286820D01*
X164338015Y-95214345D01*
X164440509Y-95111851D01*
X164512984Y-94986321D01*
X164550500Y-94846311D01*
X164550500Y-94701361D01*
X164512984Y-94561351D01*
X164500070Y-94538984D01*
X164440511Y-94435824D01*
X164440506Y-94435818D01*
X164338017Y-94333329D01*
X164338011Y-94333324D01*
X164212488Y-94260853D01*
X164212489Y-94260853D01*
X164201006Y-94257776D01*
X164072475Y-94223336D01*
X163927525Y-94223336D01*
X163798993Y-94257776D01*
X163787511Y-94260853D01*
X163661988Y-94333324D01*
X163661982Y-94333329D01*
X163559493Y-94435818D01*
X163559488Y-94435824D01*
X163487017Y-94561347D01*
X163486214Y-94564344D01*
X163449500Y-94701361D01*
X142193870Y-94701361D01*
X142190993Y-94694416D01*
X142190992Y-94694415D01*
X142190989Y-94694409D01*
X142087137Y-94538984D01*
X142087134Y-94538980D01*
X141954955Y-94406801D01*
X141954951Y-94406798D01*
X141799526Y-94302946D01*
X141799517Y-94302941D01*
X141626813Y-94231405D01*
X141626805Y-94231403D01*
X141443472Y-94194936D01*
X141443468Y-94194936D01*
X141256532Y-94194936D01*
X141256527Y-94194936D01*
X141073194Y-94231403D01*
X141073186Y-94231405D01*
X140900482Y-94302941D01*
X140900473Y-94302946D01*
X140745048Y-94406798D01*
X140745044Y-94406801D01*
X140612865Y-94538980D01*
X140612862Y-94538984D01*
X140509010Y-94694409D01*
X140509005Y-94694418D01*
X140437469Y-94867122D01*
X140437467Y-94867130D01*
X140401000Y-95050463D01*
X134301897Y-95050463D01*
X134315509Y-95036851D01*
X134330316Y-95011203D01*
X134346962Y-94982375D01*
X134387982Y-94911324D01*
X134387981Y-94911324D01*
X134387984Y-94911321D01*
X134425500Y-94771311D01*
X134425500Y-94626361D01*
X134387984Y-94486351D01*
X134358810Y-94435821D01*
X134315511Y-94360824D01*
X134315506Y-94360818D01*
X134213017Y-94258329D01*
X134213011Y-94258324D01*
X134087488Y-94185853D01*
X134087489Y-94185853D01*
X134076006Y-94182776D01*
X133947475Y-94148336D01*
X133802525Y-94148336D01*
X133673993Y-94182776D01*
X133662511Y-94185853D01*
X133536988Y-94258324D01*
X133536982Y-94258329D01*
X133434493Y-94360818D01*
X133434488Y-94360824D01*
X133362017Y-94486347D01*
X133362016Y-94486351D01*
X133324500Y-94626361D01*
X117100500Y-94626361D01*
X117100500Y-93426361D01*
X129099500Y-93426361D01*
X129099500Y-93571311D01*
X129137016Y-93711321D01*
X129137017Y-93711324D01*
X129209488Y-93836847D01*
X129209490Y-93836849D01*
X129209491Y-93836851D01*
X129311985Y-93939345D01*
X129311986Y-93939346D01*
X129311988Y-93939347D01*
X129437511Y-94011818D01*
X129437512Y-94011818D01*
X129437515Y-94011820D01*
X129577525Y-94049336D01*
X129577528Y-94049336D01*
X129722472Y-94049336D01*
X129722475Y-94049336D01*
X129862485Y-94011820D01*
X129988015Y-93939345D01*
X130090509Y-93836851D01*
X130162984Y-93711321D01*
X130185749Y-93626361D01*
X138449500Y-93626361D01*
X138449500Y-93771311D01*
X138487016Y-93911321D01*
X138487017Y-93911324D01*
X138559488Y-94036847D01*
X138559490Y-94036849D01*
X138559491Y-94036851D01*
X138661985Y-94139345D01*
X138661986Y-94139346D01*
X138661988Y-94139347D01*
X138787511Y-94211818D01*
X138787512Y-94211818D01*
X138787515Y-94211820D01*
X138927525Y-94249336D01*
X138927528Y-94249336D01*
X139072472Y-94249336D01*
X139072475Y-94249336D01*
X139212485Y-94211820D01*
X139338015Y-94139345D01*
X139440509Y-94036851D01*
X139512984Y-93911321D01*
X139550500Y-93771311D01*
X139550500Y-93626361D01*
X147324500Y-93626361D01*
X147324500Y-93771311D01*
X147362016Y-93911321D01*
X147362017Y-93911324D01*
X147434488Y-94036847D01*
X147434490Y-94036849D01*
X147434491Y-94036851D01*
X147536985Y-94139345D01*
X147536986Y-94139346D01*
X147536988Y-94139347D01*
X147662511Y-94211818D01*
X147662512Y-94211818D01*
X147662515Y-94211820D01*
X147802525Y-94249336D01*
X147802528Y-94249336D01*
X147947472Y-94249336D01*
X147947475Y-94249336D01*
X148087485Y-94211820D01*
X148213015Y-94139345D01*
X148300999Y-94051361D01*
X148649500Y-94051361D01*
X148649500Y-94196311D01*
X148678073Y-94302946D01*
X148687017Y-94336324D01*
X148759488Y-94461847D01*
X148759490Y-94461849D01*
X148759491Y-94461851D01*
X148861985Y-94564345D01*
X148861986Y-94564346D01*
X148861988Y-94564347D01*
X148987511Y-94636818D01*
X148987512Y-94636818D01*
X148987515Y-94636820D01*
X149127525Y-94674336D01*
X149127528Y-94674336D01*
X149272472Y-94674336D01*
X149272475Y-94674336D01*
X149412485Y-94636820D01*
X149538015Y-94564345D01*
X149640509Y-94461851D01*
X149712984Y-94336321D01*
X149750500Y-94196311D01*
X149750500Y-94051361D01*
X149712984Y-93911351D01*
X149712968Y-93911324D01*
X149640511Y-93785824D01*
X149640506Y-93785818D01*
X149538017Y-93683329D01*
X149538011Y-93683324D01*
X149412488Y-93610853D01*
X149412489Y-93610853D01*
X149401006Y-93607776D01*
X149272475Y-93573336D01*
X149127525Y-93573336D01*
X148998993Y-93607776D01*
X148987511Y-93610853D01*
X148861988Y-93683324D01*
X148861982Y-93683329D01*
X148759493Y-93785818D01*
X148759488Y-93785824D01*
X148687017Y-93911347D01*
X148687016Y-93911351D01*
X148649500Y-94051361D01*
X148300999Y-94051361D01*
X148315509Y-94036851D01*
X148387984Y-93911321D01*
X148425500Y-93771311D01*
X148425500Y-93626361D01*
X148387984Y-93486351D01*
X148315509Y-93360821D01*
X148213015Y-93258327D01*
X148213013Y-93258326D01*
X148213011Y-93258324D01*
X148087488Y-93185853D01*
X148087489Y-93185853D01*
X148076006Y-93182776D01*
X147947475Y-93148336D01*
X147802525Y-93148336D01*
X147673993Y-93182776D01*
X147662511Y-93185853D01*
X147536988Y-93258324D01*
X147536982Y-93258329D01*
X147434493Y-93360818D01*
X147434488Y-93360824D01*
X147362017Y-93486347D01*
X147362016Y-93486351D01*
X147324500Y-93626361D01*
X139550500Y-93626361D01*
X139512984Y-93486351D01*
X139440509Y-93360821D01*
X139338015Y-93258327D01*
X139338013Y-93258326D01*
X139338011Y-93258324D01*
X139212488Y-93185853D01*
X139212489Y-93185853D01*
X139201006Y-93182776D01*
X139072475Y-93148336D01*
X138927525Y-93148336D01*
X138798993Y-93182776D01*
X138787511Y-93185853D01*
X138661988Y-93258324D01*
X138661982Y-93258329D01*
X138559493Y-93360818D01*
X138559488Y-93360824D01*
X138487017Y-93486347D01*
X138487016Y-93486351D01*
X138449500Y-93626361D01*
X130185749Y-93626361D01*
X130200500Y-93571311D01*
X130200500Y-93426361D01*
X130162984Y-93286351D01*
X130146805Y-93258329D01*
X130090511Y-93160824D01*
X130090506Y-93160818D01*
X129988017Y-93058329D01*
X129988011Y-93058324D01*
X129862488Y-92985853D01*
X129862489Y-92985853D01*
X129851006Y-92982776D01*
X129722475Y-92948336D01*
X129577525Y-92948336D01*
X129448993Y-92982776D01*
X129437511Y-92985853D01*
X129311988Y-93058324D01*
X129311982Y-93058329D01*
X129209493Y-93160818D01*
X129209488Y-93160824D01*
X129137017Y-93286347D01*
X129137016Y-93286351D01*
X129099500Y-93426361D01*
X117100500Y-93426361D01*
X117100500Y-91399870D01*
X121274500Y-91399870D01*
X121274500Y-91559302D01*
X121315764Y-91713300D01*
X121395479Y-91851372D01*
X121508214Y-91964107D01*
X121646286Y-92043822D01*
X121800284Y-92085086D01*
X121800287Y-92085086D01*
X121959713Y-92085086D01*
X121959716Y-92085086D01*
X121992278Y-92076361D01*
X129299500Y-92076361D01*
X129299500Y-92221311D01*
X129330719Y-92337821D01*
X129337017Y-92361324D01*
X129409488Y-92486847D01*
X129409490Y-92486849D01*
X129409491Y-92486851D01*
X129511985Y-92589345D01*
X129511986Y-92589346D01*
X129511988Y-92589347D01*
X129637511Y-92661818D01*
X129637512Y-92661818D01*
X129637515Y-92661820D01*
X129777525Y-92699336D01*
X129777528Y-92699336D01*
X129922472Y-92699336D01*
X129922475Y-92699336D01*
X130062485Y-92661820D01*
X130188015Y-92589345D01*
X130290509Y-92486851D01*
X130362984Y-92361321D01*
X130400500Y-92221311D01*
X130400500Y-92076361D01*
X130394203Y-92052861D01*
X133301000Y-92052861D01*
X133301000Y-92197811D01*
X133338516Y-92337821D01*
X133338517Y-92337824D01*
X133410988Y-92463347D01*
X133410990Y-92463349D01*
X133410991Y-92463351D01*
X133513485Y-92565845D01*
X133513486Y-92565846D01*
X133513488Y-92565847D01*
X133639011Y-92638318D01*
X133639012Y-92638318D01*
X133639015Y-92638320D01*
X133779025Y-92675836D01*
X133779028Y-92675836D01*
X133923972Y-92675836D01*
X133923975Y-92675836D01*
X134063985Y-92638320D01*
X134189515Y-92565845D01*
X134204897Y-92550463D01*
X140401000Y-92550463D01*
X140401000Y-92737408D01*
X140437467Y-92920741D01*
X140437469Y-92920749D01*
X140509005Y-93093453D01*
X140509010Y-93093462D01*
X140612862Y-93248887D01*
X140612865Y-93248891D01*
X140745044Y-93381070D01*
X140745048Y-93381073D01*
X140900473Y-93484925D01*
X140900479Y-93484928D01*
X140900480Y-93484929D01*
X141073187Y-93556467D01*
X141222361Y-93586139D01*
X141256527Y-93592935D01*
X141256531Y-93592936D01*
X141256532Y-93592936D01*
X141443469Y-93592936D01*
X141443470Y-93592935D01*
X141626813Y-93556467D01*
X141799520Y-93484929D01*
X141954952Y-93381073D01*
X142087137Y-93248888D01*
X142190993Y-93093456D01*
X142262531Y-92920749D01*
X142299000Y-92737404D01*
X142299000Y-92550468D01*
X142262531Y-92367123D01*
X142190993Y-92194416D01*
X142190992Y-92194415D01*
X142190989Y-92194409D01*
X142087137Y-92038984D01*
X142087134Y-92038980D01*
X141954955Y-91906801D01*
X141954951Y-91906798D01*
X141799526Y-91802946D01*
X141799517Y-91802941D01*
X141626813Y-91731405D01*
X141626805Y-91731403D01*
X141443472Y-91694936D01*
X141443468Y-91694936D01*
X141256532Y-91694936D01*
X141256527Y-91694936D01*
X141073194Y-91731403D01*
X141073186Y-91731405D01*
X140900482Y-91802941D01*
X140900473Y-91802946D01*
X140745048Y-91906798D01*
X140745044Y-91906801D01*
X140612865Y-92038980D01*
X140612862Y-92038984D01*
X140509010Y-92194409D01*
X140509005Y-92194418D01*
X140437469Y-92367122D01*
X140437467Y-92367130D01*
X140401000Y-92550463D01*
X134204897Y-92550463D01*
X134292009Y-92463351D01*
X134364484Y-92337821D01*
X134402000Y-92197811D01*
X134402000Y-92052861D01*
X134364484Y-91912851D01*
X134360989Y-91906798D01*
X134292011Y-91787324D01*
X134292006Y-91787318D01*
X134189517Y-91684829D01*
X134189515Y-91684827D01*
X134152784Y-91663620D01*
X134152783Y-91663619D01*
X134063988Y-91612353D01*
X134063989Y-91612353D01*
X134052506Y-91609276D01*
X133923975Y-91574836D01*
X133779025Y-91574836D01*
X133650493Y-91609276D01*
X133639011Y-91612353D01*
X133513488Y-91684824D01*
X133513482Y-91684829D01*
X133410993Y-91787318D01*
X133410988Y-91787324D01*
X133338517Y-91912847D01*
X133338516Y-91912851D01*
X133301000Y-92052861D01*
X130394203Y-92052861D01*
X130362984Y-91936351D01*
X130349416Y-91912851D01*
X130290511Y-91810824D01*
X130290506Y-91810818D01*
X130188017Y-91708329D01*
X130188011Y-91708324D01*
X130062488Y-91635853D01*
X130062489Y-91635853D01*
X130051006Y-91632776D01*
X129922475Y-91598336D01*
X129777525Y-91598336D01*
X129648993Y-91632776D01*
X129637511Y-91635853D01*
X129511988Y-91708324D01*
X129511982Y-91708329D01*
X129409493Y-91810818D01*
X129409488Y-91810824D01*
X129337017Y-91936347D01*
X129336214Y-91939345D01*
X129299500Y-92076361D01*
X121992278Y-92076361D01*
X122113714Y-92043822D01*
X122251786Y-91964107D01*
X122364521Y-91851372D01*
X122444236Y-91713300D01*
X122485500Y-91559302D01*
X122485500Y-91426361D01*
X126074500Y-91426361D01*
X126074500Y-91571311D01*
X126112016Y-91711321D01*
X126112017Y-91711324D01*
X126184488Y-91836847D01*
X126184490Y-91836849D01*
X126184491Y-91836851D01*
X126286985Y-91939345D01*
X126286986Y-91939346D01*
X126286988Y-91939347D01*
X126412511Y-92011818D01*
X126412512Y-92011818D01*
X126412515Y-92011820D01*
X126552525Y-92049336D01*
X126552528Y-92049336D01*
X126697472Y-92049336D01*
X126697475Y-92049336D01*
X126837485Y-92011820D01*
X126963015Y-91939345D01*
X127065509Y-91836851D01*
X127067407Y-91833563D01*
X127078512Y-91823831D01*
X127099544Y-91814082D01*
X127118262Y-91800408D01*
X127130646Y-91799667D01*
X127141904Y-91794449D01*
X127164869Y-91797619D01*
X127188007Y-91796235D01*
X127205945Y-91803290D01*
X127211117Y-91804004D01*
X127213965Y-91806444D01*
X127222234Y-91809696D01*
X127312515Y-91861820D01*
X127452525Y-91899336D01*
X127452528Y-91899336D01*
X127597472Y-91899336D01*
X127597475Y-91899336D01*
X127737485Y-91861820D01*
X127863015Y-91789345D01*
X127965509Y-91686851D01*
X128036229Y-91564361D01*
X135124500Y-91564361D01*
X135124500Y-91709311D01*
X135151699Y-91810818D01*
X135162017Y-91849324D01*
X135234488Y-91974847D01*
X135234490Y-91974849D01*
X135234491Y-91974851D01*
X135336985Y-92077345D01*
X135336986Y-92077346D01*
X135336988Y-92077347D01*
X135462511Y-92149818D01*
X135462512Y-92149818D01*
X135462515Y-92149820D01*
X135602525Y-92187336D01*
X135602528Y-92187336D01*
X135747472Y-92187336D01*
X135747475Y-92187336D01*
X135887485Y-92149820D01*
X136013015Y-92077345D01*
X136115509Y-91974851D01*
X136187984Y-91849321D01*
X136225500Y-91709311D01*
X136225500Y-91564361D01*
X136187984Y-91424351D01*
X136115509Y-91298821D01*
X136013015Y-91196327D01*
X136013013Y-91196326D01*
X136013011Y-91196324D01*
X135887488Y-91123853D01*
X135887489Y-91123853D01*
X135865462Y-91117951D01*
X135747475Y-91086336D01*
X135602525Y-91086336D01*
X135484538Y-91117951D01*
X135462511Y-91123853D01*
X135336988Y-91196324D01*
X135336982Y-91196329D01*
X135234493Y-91298818D01*
X135234488Y-91298824D01*
X135162017Y-91424347D01*
X135162016Y-91424351D01*
X135124500Y-91564361D01*
X128036229Y-91564361D01*
X128037984Y-91561321D01*
X128075500Y-91421311D01*
X128075500Y-91276361D01*
X128037984Y-91136351D01*
X128030768Y-91123853D01*
X127965511Y-91010824D01*
X127965506Y-91010818D01*
X127863017Y-90908329D01*
X127863011Y-90908324D01*
X127737488Y-90835853D01*
X127737489Y-90835853D01*
X127726006Y-90832776D01*
X127597475Y-90798336D01*
X127452525Y-90798336D01*
X127323993Y-90832776D01*
X127312511Y-90835853D01*
X127186988Y-90908324D01*
X127186982Y-90908329D01*
X127078744Y-91016568D01*
X127076646Y-91014470D01*
X127031660Y-91047291D01*
X126961913Y-91051418D01*
X126927761Y-91037973D01*
X126837485Y-90985852D01*
X126697475Y-90948336D01*
X126552525Y-90948336D01*
X126423993Y-90982776D01*
X126412511Y-90985853D01*
X126286988Y-91058324D01*
X126286982Y-91058329D01*
X126184493Y-91160818D01*
X126184488Y-91160824D01*
X126112017Y-91286347D01*
X126112016Y-91286351D01*
X126074500Y-91426361D01*
X122485500Y-91426361D01*
X122485500Y-91399870D01*
X122444236Y-91245872D01*
X122364521Y-91107800D01*
X122251786Y-90995065D01*
X122113714Y-90915350D01*
X122113715Y-90915350D01*
X122075214Y-90905034D01*
X121959716Y-90874086D01*
X121800284Y-90874086D01*
X121684785Y-90905034D01*
X121646285Y-90915350D01*
X121508215Y-90995064D01*
X121508212Y-90995066D01*
X121395480Y-91107798D01*
X121395478Y-91107801D01*
X121315764Y-91245871D01*
X121315764Y-91245872D01*
X121274500Y-91399870D01*
X117100500Y-91399870D01*
X117100500Y-90201361D01*
X123649500Y-90201361D01*
X123649500Y-90346311D01*
X123680460Y-90461853D01*
X123687017Y-90486324D01*
X123759488Y-90611847D01*
X123759490Y-90611849D01*
X123759491Y-90611851D01*
X123861985Y-90714345D01*
X123861986Y-90714346D01*
X123861988Y-90714347D01*
X123987511Y-90786818D01*
X123987512Y-90786818D01*
X123987515Y-90786820D01*
X124127525Y-90824336D01*
X124127528Y-90824336D01*
X124272472Y-90824336D01*
X124272475Y-90824336D01*
X124412485Y-90786820D01*
X124538015Y-90714345D01*
X124640509Y-90611851D01*
X124712984Y-90486321D01*
X124750500Y-90346311D01*
X124750500Y-90201361D01*
X124712984Y-90061351D01*
X124707217Y-90051363D01*
X124707216Y-90051361D01*
X125399500Y-90051361D01*
X125399500Y-90196311D01*
X125424978Y-90291394D01*
X125437017Y-90336324D01*
X125509488Y-90461847D01*
X125509490Y-90461849D01*
X125509491Y-90461851D01*
X125611985Y-90564345D01*
X125611986Y-90564346D01*
X125611988Y-90564347D01*
X125737511Y-90636818D01*
X125737512Y-90636818D01*
X125737515Y-90636820D01*
X125877525Y-90674336D01*
X125877528Y-90674336D01*
X126022472Y-90674336D01*
X126022475Y-90674336D01*
X126162485Y-90636820D01*
X126288015Y-90564345D01*
X126390509Y-90461851D01*
X126462984Y-90336321D01*
X126500500Y-90196311D01*
X126500500Y-90051361D01*
X126462984Y-89911351D01*
X126437448Y-89867122D01*
X126417337Y-89832288D01*
X126417336Y-89832287D01*
X126390509Y-89785821D01*
X126383101Y-89778413D01*
X135147038Y-89778413D01*
X135147038Y-89923363D01*
X135181336Y-90051363D01*
X135184555Y-90063376D01*
X135257026Y-90188899D01*
X135257028Y-90188901D01*
X135257029Y-90188903D01*
X135359523Y-90291397D01*
X135359524Y-90291398D01*
X135359526Y-90291399D01*
X135485049Y-90363870D01*
X135485050Y-90363870D01*
X135485053Y-90363872D01*
X135625063Y-90401388D01*
X135625066Y-90401388D01*
X135770010Y-90401388D01*
X135770013Y-90401388D01*
X135910023Y-90363872D01*
X136035553Y-90291397D01*
X136138047Y-90188903D01*
X136210522Y-90063373D01*
X136213981Y-90050463D01*
X140401000Y-90050463D01*
X140401000Y-90237408D01*
X140437467Y-90420741D01*
X140437469Y-90420749D01*
X140509005Y-90593453D01*
X140509010Y-90593462D01*
X140612862Y-90748887D01*
X140612865Y-90748891D01*
X140745044Y-90881070D01*
X140745048Y-90881073D01*
X140900473Y-90984925D01*
X140900482Y-90984930D01*
X140924948Y-90995064D01*
X141073187Y-91056467D01*
X141223351Y-91086336D01*
X141256527Y-91092935D01*
X141256531Y-91092936D01*
X141256532Y-91092936D01*
X141443469Y-91092936D01*
X141443470Y-91092935D01*
X141626813Y-91056467D01*
X141799520Y-90984929D01*
X141954952Y-90881073D01*
X142087137Y-90748888D01*
X142190993Y-90593456D01*
X142262531Y-90420749D01*
X142299000Y-90237404D01*
X142299000Y-90050468D01*
X142262531Y-89867123D01*
X142190993Y-89694416D01*
X142190992Y-89694415D01*
X142190989Y-89694409D01*
X142087137Y-89538984D01*
X142087134Y-89538980D01*
X141954955Y-89406801D01*
X141954951Y-89406798D01*
X141799526Y-89302946D01*
X141799517Y-89302941D01*
X141626813Y-89231405D01*
X141626805Y-89231403D01*
X141443472Y-89194936D01*
X141443468Y-89194936D01*
X141256532Y-89194936D01*
X141256527Y-89194936D01*
X141073194Y-89231403D01*
X141073186Y-89231405D01*
X140900482Y-89302941D01*
X140900473Y-89302946D01*
X140745048Y-89406798D01*
X140745044Y-89406801D01*
X140612865Y-89538980D01*
X140612862Y-89538984D01*
X140509010Y-89694409D01*
X140509005Y-89694418D01*
X140437469Y-89867122D01*
X140437467Y-89867130D01*
X140401000Y-90050463D01*
X136213981Y-90050463D01*
X136248038Y-89923363D01*
X136248038Y-89778413D01*
X136210522Y-89638403D01*
X136194615Y-89610852D01*
X136138049Y-89512876D01*
X136138044Y-89512870D01*
X136035555Y-89410381D01*
X136035549Y-89410376D01*
X135910026Y-89337905D01*
X135910027Y-89337905D01*
X135898544Y-89334828D01*
X135770013Y-89300388D01*
X135625063Y-89300388D01*
X135496531Y-89334828D01*
X135485049Y-89337905D01*
X135359526Y-89410376D01*
X135359520Y-89410381D01*
X135257031Y-89512870D01*
X135257026Y-89512876D01*
X135184555Y-89638399D01*
X135184554Y-89638403D01*
X135147038Y-89778413D01*
X126383101Y-89778413D01*
X126288015Y-89683327D01*
X126288013Y-89683326D01*
X126288011Y-89683324D01*
X126162488Y-89610853D01*
X126162489Y-89610853D01*
X126151006Y-89607776D01*
X126022475Y-89573336D01*
X125877525Y-89573336D01*
X125748993Y-89607776D01*
X125737511Y-89610853D01*
X125611988Y-89683324D01*
X125611982Y-89683329D01*
X125509493Y-89785818D01*
X125509488Y-89785824D01*
X125437017Y-89911347D01*
X125437016Y-89911351D01*
X125399500Y-90051361D01*
X124707216Y-90051361D01*
X124640511Y-89935824D01*
X124640506Y-89935818D01*
X124538017Y-89833329D01*
X124538011Y-89833324D01*
X124412488Y-89760853D01*
X124412489Y-89760853D01*
X124401006Y-89757776D01*
X124272475Y-89723336D01*
X124127525Y-89723336D01*
X123998993Y-89757776D01*
X123987511Y-89760853D01*
X123861988Y-89833324D01*
X123861982Y-89833329D01*
X123759493Y-89935818D01*
X123759488Y-89935824D01*
X123687017Y-90061347D01*
X123687016Y-90061351D01*
X123649500Y-90201361D01*
X117100500Y-90201361D01*
X117100500Y-87426361D01*
X124949500Y-87426361D01*
X124949500Y-87571311D01*
X124987016Y-87711321D01*
X124987017Y-87711324D01*
X125059488Y-87836847D01*
X125059490Y-87836849D01*
X125059491Y-87836851D01*
X125161985Y-87939345D01*
X125161986Y-87939346D01*
X125161988Y-87939347D01*
X125287511Y-88011818D01*
X125287512Y-88011818D01*
X125287515Y-88011820D01*
X125427525Y-88049336D01*
X125427528Y-88049336D01*
X125572472Y-88049336D01*
X125572475Y-88049336D01*
X125712485Y-88011820D01*
X125838015Y-87939345D01*
X125940509Y-87836851D01*
X126012984Y-87711321D01*
X126050500Y-87571311D01*
X126050500Y-87550463D01*
X140401000Y-87550463D01*
X140401000Y-87737408D01*
X140437467Y-87920741D01*
X140437469Y-87920749D01*
X140509005Y-88093453D01*
X140509010Y-88093462D01*
X140612862Y-88248887D01*
X140612865Y-88248891D01*
X140745044Y-88381070D01*
X140745048Y-88381073D01*
X140900473Y-88484925D01*
X140900479Y-88484928D01*
X140900480Y-88484929D01*
X141073187Y-88556467D01*
X141256527Y-88592935D01*
X141256531Y-88592936D01*
X141256532Y-88592936D01*
X141443469Y-88592936D01*
X141443470Y-88592935D01*
X141626813Y-88556467D01*
X141799520Y-88484929D01*
X141954952Y-88381073D01*
X142087137Y-88248888D01*
X142190993Y-88093456D01*
X142262531Y-87920749D01*
X142299000Y-87737404D01*
X142299000Y-87550468D01*
X142262531Y-87367123D01*
X142190993Y-87194416D01*
X142190992Y-87194415D01*
X142190989Y-87194409D01*
X142087137Y-87038984D01*
X142087134Y-87038980D01*
X141954955Y-86906801D01*
X141954951Y-86906798D01*
X141799526Y-86802946D01*
X141799517Y-86802941D01*
X141626813Y-86731405D01*
X141626805Y-86731403D01*
X141443472Y-86694936D01*
X141443468Y-86694936D01*
X141256532Y-86694936D01*
X141256527Y-86694936D01*
X141073194Y-86731403D01*
X141073186Y-86731405D01*
X140900482Y-86802941D01*
X140900473Y-86802946D01*
X140745048Y-86906798D01*
X140745044Y-86906801D01*
X140612865Y-87038980D01*
X140612862Y-87038984D01*
X140509010Y-87194409D01*
X140509005Y-87194418D01*
X140437469Y-87367122D01*
X140437467Y-87367130D01*
X140401000Y-87550463D01*
X126050500Y-87550463D01*
X126050500Y-87426361D01*
X126012984Y-87286351D01*
X125959906Y-87194418D01*
X125940511Y-87160824D01*
X125940506Y-87160818D01*
X125838017Y-87058329D01*
X125838011Y-87058324D01*
X125712488Y-86985853D01*
X125712489Y-86985853D01*
X125701006Y-86982776D01*
X125572475Y-86948336D01*
X125427525Y-86948336D01*
X125298993Y-86982776D01*
X125287511Y-86985853D01*
X125161988Y-87058324D01*
X125161982Y-87058329D01*
X125059493Y-87160818D01*
X125059488Y-87160824D01*
X124987017Y-87286347D01*
X124987016Y-87286351D01*
X124949500Y-87426361D01*
X117100500Y-87426361D01*
X117100500Y-85619870D01*
X121274500Y-85619870D01*
X121274500Y-85779302D01*
X121315764Y-85933300D01*
X121395479Y-86071372D01*
X121508214Y-86184107D01*
X121646286Y-86263822D01*
X121800284Y-86305086D01*
X121800287Y-86305086D01*
X121959713Y-86305086D01*
X121959716Y-86305086D01*
X122113714Y-86263822D01*
X122251786Y-86184107D01*
X122359532Y-86076361D01*
X123424500Y-86076361D01*
X123424500Y-86221311D01*
X123446948Y-86305086D01*
X123462017Y-86361324D01*
X123534488Y-86486847D01*
X123534490Y-86486849D01*
X123534491Y-86486851D01*
X123636985Y-86589345D01*
X123636986Y-86589346D01*
X123636988Y-86589347D01*
X123762511Y-86661818D01*
X123762512Y-86661818D01*
X123762515Y-86661820D01*
X123902525Y-86699336D01*
X123902528Y-86699336D01*
X124047472Y-86699336D01*
X124047475Y-86699336D01*
X124187485Y-86661820D01*
X124313015Y-86589345D01*
X124415509Y-86486851D01*
X124487984Y-86361321D01*
X124525500Y-86221311D01*
X124525500Y-86076361D01*
X124487984Y-85936351D01*
X124486222Y-85933300D01*
X124470020Y-85905236D01*
X124470019Y-85905235D01*
X124456067Y-85881070D01*
X124438915Y-85851361D01*
X124999500Y-85851361D01*
X124999500Y-85996311D01*
X125025391Y-86092935D01*
X125037017Y-86136324D01*
X125109488Y-86261847D01*
X125109490Y-86261849D01*
X125109491Y-86261851D01*
X125211985Y-86364345D01*
X125211986Y-86364346D01*
X125211988Y-86364347D01*
X125337511Y-86436818D01*
X125337512Y-86436818D01*
X125337515Y-86436820D01*
X125477525Y-86474336D01*
X125477528Y-86474336D01*
X125622472Y-86474336D01*
X125622475Y-86474336D01*
X125762485Y-86436820D01*
X125888015Y-86364345D01*
X125990509Y-86261851D01*
X126062984Y-86136321D01*
X126100500Y-85996311D01*
X126100500Y-85851361D01*
X126062984Y-85711351D01*
X126061239Y-85708329D01*
X125990511Y-85585824D01*
X125990506Y-85585818D01*
X125888017Y-85483329D01*
X125888011Y-85483324D01*
X125762488Y-85410853D01*
X125762489Y-85410853D01*
X125751006Y-85407776D01*
X125622475Y-85373336D01*
X125477525Y-85373336D01*
X125348993Y-85407776D01*
X125337511Y-85410853D01*
X125211988Y-85483324D01*
X125211982Y-85483329D01*
X125109493Y-85585818D01*
X125109488Y-85585824D01*
X125037017Y-85711347D01*
X125037016Y-85711351D01*
X124999500Y-85851361D01*
X124438915Y-85851361D01*
X124415509Y-85810821D01*
X124313015Y-85708327D01*
X124313013Y-85708326D01*
X124313011Y-85708324D01*
X124187488Y-85635853D01*
X124187489Y-85635853D01*
X124176006Y-85632776D01*
X124047475Y-85598336D01*
X123902525Y-85598336D01*
X123773993Y-85632776D01*
X123762511Y-85635853D01*
X123636988Y-85708324D01*
X123636982Y-85708329D01*
X123534493Y-85810818D01*
X123534488Y-85810824D01*
X123462017Y-85936347D01*
X123462016Y-85936351D01*
X123424500Y-86076361D01*
X122359532Y-86076361D01*
X122364521Y-86071372D01*
X122444236Y-85933300D01*
X122485500Y-85779302D01*
X122485500Y-85619870D01*
X122444236Y-85465872D01*
X122364521Y-85327800D01*
X122251786Y-85215065D01*
X122113714Y-85135350D01*
X122113715Y-85135350D01*
X122075214Y-85125034D01*
X121959716Y-85094086D01*
X121800284Y-85094086D01*
X121684785Y-85125034D01*
X121646285Y-85135350D01*
X121508215Y-85215064D01*
X121508212Y-85215066D01*
X121395480Y-85327798D01*
X121395478Y-85327801D01*
X121315764Y-85465871D01*
X121315764Y-85465872D01*
X121274500Y-85619870D01*
X117100500Y-85619870D01*
X117100500Y-84701361D01*
X128199500Y-84701361D01*
X128199500Y-84846311D01*
X128235959Y-84982375D01*
X128237017Y-84986324D01*
X128309488Y-85111847D01*
X128309490Y-85111849D01*
X128309491Y-85111851D01*
X128411985Y-85214345D01*
X128411986Y-85214346D01*
X128411988Y-85214347D01*
X128537511Y-85286818D01*
X128537512Y-85286818D01*
X128537515Y-85286820D01*
X128677525Y-85324336D01*
X128677528Y-85324336D01*
X128822472Y-85324336D01*
X128822475Y-85324336D01*
X128962485Y-85286820D01*
X129088015Y-85214345D01*
X129190509Y-85111851D01*
X129262984Y-84986321D01*
X129300500Y-84846311D01*
X129300500Y-84701361D01*
X129280404Y-84626361D01*
X130849500Y-84626361D01*
X130849500Y-84771311D01*
X130875173Y-84867122D01*
X130887017Y-84911324D01*
X130959488Y-85036847D01*
X130959490Y-85036849D01*
X130959491Y-85036851D01*
X131061985Y-85139345D01*
X131061986Y-85139346D01*
X131061988Y-85139347D01*
X131187511Y-85211818D01*
X131187512Y-85211818D01*
X131187515Y-85211820D01*
X131327525Y-85249336D01*
X131327528Y-85249336D01*
X131472472Y-85249336D01*
X131472475Y-85249336D01*
X131612485Y-85211820D01*
X131738015Y-85139345D01*
X131826897Y-85050463D01*
X140401000Y-85050463D01*
X140401000Y-85237408D01*
X140437467Y-85420741D01*
X140437469Y-85420749D01*
X140509005Y-85593453D01*
X140509010Y-85593462D01*
X140612862Y-85748887D01*
X140612865Y-85748891D01*
X140745044Y-85881070D01*
X140745048Y-85881073D01*
X140900473Y-85984925D01*
X140900479Y-85984928D01*
X140900480Y-85984929D01*
X141073187Y-86056467D01*
X141173203Y-86076361D01*
X141256527Y-86092935D01*
X141256531Y-86092936D01*
X141256532Y-86092936D01*
X141443469Y-86092936D01*
X141443470Y-86092935D01*
X141626813Y-86056467D01*
X141799520Y-85984929D01*
X141954952Y-85881073D01*
X142087137Y-85748888D01*
X142190993Y-85593456D01*
X142262531Y-85420749D01*
X142299000Y-85237404D01*
X142299000Y-85050468D01*
X142262531Y-84867123D01*
X142190993Y-84694416D01*
X142190992Y-84694415D01*
X142190989Y-84694409D01*
X142087137Y-84538984D01*
X142087134Y-84538980D01*
X141954955Y-84406801D01*
X141954951Y-84406798D01*
X141799526Y-84302946D01*
X141799517Y-84302941D01*
X141626813Y-84231405D01*
X141626805Y-84231403D01*
X141443472Y-84194936D01*
X141443468Y-84194936D01*
X141256532Y-84194936D01*
X141256527Y-84194936D01*
X141073194Y-84231403D01*
X141073186Y-84231405D01*
X140900482Y-84302941D01*
X140900473Y-84302946D01*
X140745048Y-84406798D01*
X140745044Y-84406801D01*
X140612865Y-84538980D01*
X140612862Y-84538984D01*
X140509010Y-84694409D01*
X140509005Y-84694418D01*
X140437469Y-84867122D01*
X140437467Y-84867130D01*
X140401000Y-85050463D01*
X131826897Y-85050463D01*
X131840509Y-85036851D01*
X131855316Y-85011203D01*
X131871962Y-84982375D01*
X131912982Y-84911324D01*
X131912981Y-84911324D01*
X131912984Y-84911321D01*
X131950500Y-84771311D01*
X131950500Y-84626361D01*
X131912984Y-84486351D01*
X131883810Y-84435821D01*
X131840511Y-84360824D01*
X131840506Y-84360818D01*
X131738017Y-84258329D01*
X131738011Y-84258324D01*
X131612488Y-84185853D01*
X131612489Y-84185853D01*
X131601006Y-84182776D01*
X131472475Y-84148336D01*
X131327525Y-84148336D01*
X131198993Y-84182776D01*
X131187511Y-84185853D01*
X131061988Y-84258324D01*
X131061982Y-84258329D01*
X130959493Y-84360818D01*
X130959488Y-84360824D01*
X130887017Y-84486347D01*
X130887016Y-84486351D01*
X130849500Y-84626361D01*
X129280404Y-84626361D01*
X129262984Y-84561351D01*
X129250070Y-84538984D01*
X129190511Y-84435824D01*
X129190506Y-84435818D01*
X129088017Y-84333329D01*
X129088011Y-84333324D01*
X128962488Y-84260853D01*
X128962489Y-84260853D01*
X128951006Y-84257776D01*
X128822475Y-84223336D01*
X128677525Y-84223336D01*
X128548993Y-84257776D01*
X128537511Y-84260853D01*
X128411988Y-84333324D01*
X128411982Y-84333329D01*
X128309493Y-84435818D01*
X128309488Y-84435824D01*
X128237017Y-84561347D01*
X128237016Y-84561351D01*
X128199500Y-84701361D01*
X117100500Y-84701361D01*
X117100500Y-82550463D01*
X140401000Y-82550463D01*
X140401000Y-82737408D01*
X140437467Y-82920741D01*
X140437469Y-82920749D01*
X140509005Y-83093453D01*
X140509010Y-83093462D01*
X140612862Y-83248887D01*
X140612865Y-83248891D01*
X140745044Y-83381070D01*
X140745048Y-83381073D01*
X140900473Y-83484925D01*
X140900479Y-83484928D01*
X140900480Y-83484929D01*
X141073187Y-83556467D01*
X141256527Y-83592935D01*
X141256531Y-83592936D01*
X141256532Y-83592936D01*
X141443469Y-83592936D01*
X141443470Y-83592935D01*
X141626813Y-83556467D01*
X141799520Y-83484929D01*
X141954952Y-83381073D01*
X142087137Y-83248888D01*
X142190993Y-83093456D01*
X142262531Y-82920749D01*
X142299000Y-82737404D01*
X142299000Y-82550468D01*
X142262531Y-82367123D01*
X142190993Y-82194416D01*
X142190992Y-82194415D01*
X142190989Y-82194409D01*
X142087137Y-82038984D01*
X142087134Y-82038980D01*
X141954955Y-81906801D01*
X141954951Y-81906798D01*
X141799526Y-81802946D01*
X141799517Y-81802941D01*
X141626813Y-81731405D01*
X141626805Y-81731403D01*
X141443472Y-81694936D01*
X141443468Y-81694936D01*
X141256532Y-81694936D01*
X141256527Y-81694936D01*
X141073194Y-81731403D01*
X141073186Y-81731405D01*
X140900482Y-81802941D01*
X140900473Y-81802946D01*
X140745048Y-81906798D01*
X140745044Y-81906801D01*
X140612865Y-82038980D01*
X140612862Y-82038984D01*
X140509010Y-82194409D01*
X140509005Y-82194418D01*
X140437469Y-82367122D01*
X140437467Y-82367130D01*
X140401000Y-82550463D01*
X117100500Y-82550463D01*
X117100500Y-81176361D01*
X123049500Y-81176361D01*
X123049500Y-81321311D01*
X123087016Y-81461321D01*
X123087017Y-81461324D01*
X123159488Y-81586847D01*
X123159490Y-81586849D01*
X123159491Y-81586851D01*
X123261985Y-81689345D01*
X123261986Y-81689346D01*
X123261988Y-81689347D01*
X123387511Y-81761818D01*
X123387512Y-81761818D01*
X123387515Y-81761820D01*
X123527525Y-81799336D01*
X123527528Y-81799336D01*
X123672472Y-81799336D01*
X123672475Y-81799336D01*
X123812485Y-81761820D01*
X123938015Y-81689345D01*
X124040509Y-81586851D01*
X124112984Y-81461321D01*
X124150500Y-81321311D01*
X124150500Y-81176361D01*
X124112984Y-81036351D01*
X124083295Y-80984929D01*
X124040511Y-80910824D01*
X124040506Y-80910818D01*
X123938017Y-80808329D01*
X123938011Y-80808324D01*
X123812488Y-80735853D01*
X123812489Y-80735853D01*
X123801006Y-80732776D01*
X123672475Y-80698336D01*
X123527525Y-80698336D01*
X123398993Y-80732776D01*
X123387511Y-80735853D01*
X123261988Y-80808324D01*
X123261982Y-80808329D01*
X123159493Y-80910818D01*
X123159488Y-80910824D01*
X123087017Y-81036347D01*
X123087016Y-81036351D01*
X123049500Y-81176361D01*
X117100500Y-81176361D01*
X117100500Y-80050463D01*
X140401000Y-80050463D01*
X140401000Y-80237408D01*
X140437467Y-80420741D01*
X140437469Y-80420749D01*
X140509005Y-80593453D01*
X140509010Y-80593462D01*
X140612862Y-80748887D01*
X140612865Y-80748891D01*
X140745044Y-80881070D01*
X140745048Y-80881073D01*
X140900473Y-80984925D01*
X140900479Y-80984928D01*
X140900480Y-80984929D01*
X141073187Y-81056467D01*
X141256527Y-81092935D01*
X141256531Y-81092936D01*
X141256532Y-81092936D01*
X141443469Y-81092936D01*
X141443470Y-81092935D01*
X141626813Y-81056467D01*
X141799520Y-80984929D01*
X141954952Y-80881073D01*
X142087137Y-80748888D01*
X142152302Y-80651361D01*
X142824500Y-80651361D01*
X142824500Y-80796311D01*
X142855184Y-80910824D01*
X142862017Y-80936324D01*
X142934488Y-81061847D01*
X142934490Y-81061849D01*
X142934491Y-81061851D01*
X143036985Y-81164345D01*
X143036986Y-81164346D01*
X143036988Y-81164347D01*
X143162511Y-81236818D01*
X143162512Y-81236818D01*
X143162515Y-81236820D01*
X143302525Y-81274336D01*
X143302528Y-81274336D01*
X143447472Y-81274336D01*
X143447475Y-81274336D01*
X143587485Y-81236820D01*
X143713015Y-81164345D01*
X143815509Y-81061851D01*
X143887984Y-80936321D01*
X143925500Y-80796311D01*
X143925500Y-80651361D01*
X143887984Y-80511351D01*
X143815509Y-80385821D01*
X143713015Y-80283327D01*
X143713013Y-80283326D01*
X143713011Y-80283324D01*
X143587488Y-80210853D01*
X143587489Y-80210853D01*
X143576006Y-80207776D01*
X143447475Y-80173336D01*
X143302525Y-80173336D01*
X143173993Y-80207776D01*
X143162511Y-80210853D01*
X143036988Y-80283324D01*
X143036982Y-80283329D01*
X142934493Y-80385818D01*
X142934488Y-80385824D01*
X142862017Y-80511347D01*
X142862016Y-80511351D01*
X142824500Y-80651361D01*
X142152302Y-80651361D01*
X142190993Y-80593456D01*
X142262531Y-80420749D01*
X142299000Y-80237404D01*
X142299000Y-80050468D01*
X142262531Y-79867123D01*
X142190993Y-79694416D01*
X142190992Y-79694415D01*
X142190989Y-79694409D01*
X142087137Y-79538984D01*
X142087134Y-79538980D01*
X141954955Y-79406801D01*
X141954951Y-79406798D01*
X141799526Y-79302946D01*
X141799517Y-79302941D01*
X141626813Y-79231405D01*
X141626805Y-79231403D01*
X141443472Y-79194936D01*
X141443468Y-79194936D01*
X141256532Y-79194936D01*
X141256527Y-79194936D01*
X141073194Y-79231403D01*
X141073186Y-79231405D01*
X140900482Y-79302941D01*
X140900473Y-79302946D01*
X140745048Y-79406798D01*
X140745044Y-79406801D01*
X140612865Y-79538980D01*
X140612862Y-79538984D01*
X140509010Y-79694409D01*
X140509005Y-79694418D01*
X140437469Y-79867122D01*
X140437467Y-79867130D01*
X140401000Y-80050463D01*
X117100500Y-80050463D01*
X117100500Y-78001361D01*
X151624500Y-78001361D01*
X151624500Y-78146311D01*
X151655451Y-78261820D01*
X151662017Y-78286324D01*
X151734488Y-78411847D01*
X151734490Y-78411849D01*
X151734491Y-78411851D01*
X151836985Y-78514345D01*
X151836986Y-78514346D01*
X151836988Y-78514347D01*
X151962511Y-78586818D01*
X151962512Y-78586818D01*
X151962515Y-78586820D01*
X152102525Y-78624336D01*
X152102528Y-78624336D01*
X152247472Y-78624336D01*
X152247475Y-78624336D01*
X152387485Y-78586820D01*
X152513015Y-78514345D01*
X152615509Y-78411851D01*
X152687984Y-78286321D01*
X152725500Y-78146311D01*
X152725500Y-78001361D01*
X152687984Y-77861351D01*
X152615509Y-77735821D01*
X152556049Y-77676361D01*
X155299500Y-77676361D01*
X155299500Y-77821311D01*
X155310229Y-77861351D01*
X155337017Y-77961324D01*
X155409488Y-78086847D01*
X155409490Y-78086849D01*
X155409491Y-78086851D01*
X155511985Y-78189345D01*
X155511986Y-78189346D01*
X155511988Y-78189347D01*
X155637511Y-78261818D01*
X155637512Y-78261818D01*
X155637515Y-78261820D01*
X155777525Y-78299336D01*
X155777528Y-78299336D01*
X155922472Y-78299336D01*
X155922475Y-78299336D01*
X156062485Y-78261820D01*
X156188015Y-78189345D01*
X156290509Y-78086851D01*
X156362984Y-77961321D01*
X156400500Y-77821311D01*
X156400500Y-77676361D01*
X156362984Y-77536351D01*
X156341613Y-77499336D01*
X156290511Y-77410824D01*
X156290506Y-77410818D01*
X156188017Y-77308329D01*
X156188011Y-77308324D01*
X156062488Y-77235853D01*
X156062489Y-77235853D01*
X156051006Y-77232776D01*
X155922475Y-77198336D01*
X155777525Y-77198336D01*
X155648993Y-77232776D01*
X155637511Y-77235853D01*
X155511988Y-77308324D01*
X155511982Y-77308329D01*
X155409493Y-77410818D01*
X155409488Y-77410824D01*
X155337017Y-77536347D01*
X155337016Y-77536351D01*
X155299500Y-77676361D01*
X152556049Y-77676361D01*
X152513015Y-77633327D01*
X152513013Y-77633326D01*
X152513011Y-77633324D01*
X152387488Y-77560853D01*
X152387489Y-77560853D01*
X152376006Y-77557776D01*
X152247475Y-77523336D01*
X152102525Y-77523336D01*
X151973993Y-77557776D01*
X151962511Y-77560853D01*
X151836988Y-77633324D01*
X151836982Y-77633329D01*
X151734493Y-77735818D01*
X151734488Y-77735824D01*
X151662017Y-77861347D01*
X151662016Y-77861351D01*
X151624500Y-78001361D01*
X117100500Y-78001361D01*
X117100500Y-76510137D01*
X117120185Y-76443098D01*
X117172989Y-76397343D01*
X117242147Y-76387399D01*
X117305703Y-76416424D01*
X117324815Y-76437248D01*
X117455483Y-76617096D01*
X117622490Y-76784103D01*
X117813567Y-76922929D01*
X117912991Y-76973588D01*
X118024003Y-77030152D01*
X118024005Y-77030152D01*
X118024008Y-77030154D01*
X118144412Y-77069275D01*
X118248631Y-77103139D01*
X118481903Y-77140086D01*
X118481908Y-77140086D01*
X118718097Y-77140086D01*
X118951368Y-77103139D01*
X119175992Y-77030154D01*
X119386433Y-76922929D01*
X119577510Y-76784103D01*
X119656284Y-76705329D01*
X127361647Y-76705329D01*
X127361647Y-76850279D01*
X127381114Y-76922929D01*
X127399164Y-76990292D01*
X127471635Y-77115815D01*
X127471637Y-77115817D01*
X127471638Y-77115819D01*
X127574132Y-77218313D01*
X127574133Y-77218314D01*
X127574135Y-77218315D01*
X127699658Y-77290786D01*
X127699659Y-77290786D01*
X127699662Y-77290788D01*
X127839672Y-77328304D01*
X127839675Y-77328304D01*
X127984619Y-77328304D01*
X127984622Y-77328304D01*
X128124632Y-77290788D01*
X128250162Y-77218313D01*
X128352656Y-77115819D01*
X128425131Y-76990289D01*
X128455658Y-76876361D01*
X144699500Y-76876361D01*
X144699500Y-77021311D01*
X144731326Y-77140086D01*
X144737017Y-77161324D01*
X144809488Y-77286847D01*
X144809490Y-77286849D01*
X144809491Y-77286851D01*
X144911985Y-77389345D01*
X144911986Y-77389346D01*
X144911988Y-77389347D01*
X145037511Y-77461818D01*
X145037512Y-77461818D01*
X145037515Y-77461820D01*
X145177525Y-77499336D01*
X145177528Y-77499336D01*
X145322472Y-77499336D01*
X145322475Y-77499336D01*
X145462485Y-77461820D01*
X145588015Y-77389345D01*
X145690509Y-77286851D01*
X145762984Y-77161321D01*
X145800500Y-77021311D01*
X145800500Y-76876361D01*
X145762984Y-76736351D01*
X145759664Y-76730601D01*
X145690511Y-76610824D01*
X145690506Y-76610818D01*
X145588017Y-76508329D01*
X145588011Y-76508324D01*
X145462488Y-76435853D01*
X145462489Y-76435853D01*
X145425788Y-76426019D01*
X145322475Y-76398336D01*
X145177525Y-76398336D01*
X145074212Y-76426019D01*
X145037511Y-76435853D01*
X144911988Y-76508324D01*
X144911982Y-76508329D01*
X144809493Y-76610818D01*
X144809488Y-76610824D01*
X144737017Y-76736347D01*
X144737016Y-76736351D01*
X144699500Y-76876361D01*
X128455658Y-76876361D01*
X128462647Y-76850279D01*
X128462647Y-76705329D01*
X128425131Y-76565319D01*
X128354566Y-76443098D01*
X128352658Y-76439792D01*
X128352653Y-76439786D01*
X128250164Y-76337297D01*
X128250158Y-76337292D01*
X128124635Y-76264821D01*
X128124636Y-76264821D01*
X128113153Y-76261744D01*
X127984622Y-76227304D01*
X127839672Y-76227304D01*
X127711140Y-76261744D01*
X127699658Y-76264821D01*
X127574135Y-76337292D01*
X127574129Y-76337297D01*
X127471640Y-76439786D01*
X127471635Y-76439792D01*
X127399164Y-76565315D01*
X127399163Y-76565319D01*
X127361647Y-76705329D01*
X119656284Y-76705329D01*
X119744517Y-76617096D01*
X119883343Y-76426019D01*
X119990568Y-76215578D01*
X120063553Y-75990954D01*
X120088929Y-75830736D01*
X120100500Y-75757683D01*
X120100500Y-75521488D01*
X120063553Y-75288217D01*
X120006248Y-75111853D01*
X119990568Y-75063594D01*
X119990566Y-75063591D01*
X119990566Y-75063589D01*
X119899358Y-74884585D01*
X119883343Y-74853153D01*
X119744517Y-74662076D01*
X119577510Y-74495069D01*
X119397664Y-74364402D01*
X119355000Y-74309074D01*
X119349021Y-74239460D01*
X119381627Y-74177666D01*
X119442466Y-74143308D01*
X119470551Y-74140086D01*
X121180864Y-74140086D01*
X121247903Y-74159771D01*
G37*
%TD.AperFunction*%
%TD*%
M02*
