%TF.GenerationSoftware,KiCad,Pcbnew,9.0.7*%
%TF.CreationDate,2026-06-13T17:55:31+01:00*%
%TF.ProjectId,GlucoBit-v2,476c7563-6f42-4697-942d-76322e6b6963,rev?*%
%TF.SameCoordinates,Original*%
%TF.FileFunction,Legend,Bot*%
%TF.FilePolarity,Positive*%
%FSLAX46Y46*%
G04 Gerber Fmt 4.6, Leading zero omitted, Abs format (unit mm)*
G04 Created by KiCad (PCBNEW 9.0.7) date 2026-06-13 17:55:31*
%MOMM*%
%LPD*%
G01*
G04 APERTURE LIST*
%ADD10C,0.150000*%
%ADD11C,0.508000*%
G04 APERTURE END LIST*
D10*
X158254819Y-99780978D02*
X157778628Y-99447645D01*
X158254819Y-99209550D02*
X157254819Y-99209550D01*
X157254819Y-99209550D02*
X157254819Y-99590502D01*
X157254819Y-99590502D02*
X157302438Y-99685740D01*
X157302438Y-99685740D02*
X157350057Y-99733359D01*
X157350057Y-99733359D02*
X157445295Y-99780978D01*
X157445295Y-99780978D02*
X157588152Y-99780978D01*
X157588152Y-99780978D02*
X157683390Y-99733359D01*
X157683390Y-99733359D02*
X157731009Y-99685740D01*
X157731009Y-99685740D02*
X157778628Y-99590502D01*
X157778628Y-99590502D02*
X157778628Y-99209550D01*
X158254819Y-100733359D02*
X158254819Y-100161931D01*
X158254819Y-100447645D02*
X157254819Y-100447645D01*
X157254819Y-100447645D02*
X157397676Y-100352407D01*
X157397676Y-100352407D02*
X157492914Y-100257169D01*
X157492914Y-100257169D02*
X157540533Y-100161931D01*
X157588152Y-101590502D02*
X158254819Y-101590502D01*
X157207200Y-101352407D02*
X157921485Y-101114312D01*
X157921485Y-101114312D02*
X157921485Y-101733359D01*
X132154819Y-88986931D02*
X132964342Y-88986931D01*
X132964342Y-88986931D02*
X133059580Y-89034550D01*
X133059580Y-89034550D02*
X133107200Y-89082169D01*
X133107200Y-89082169D02*
X133154819Y-89177407D01*
X133154819Y-89177407D02*
X133154819Y-89367883D01*
X133154819Y-89367883D02*
X133107200Y-89463121D01*
X133107200Y-89463121D02*
X133059580Y-89510740D01*
X133059580Y-89510740D02*
X132964342Y-89558359D01*
X132964342Y-89558359D02*
X132154819Y-89558359D01*
X132154819Y-89939312D02*
X132154819Y-90558359D01*
X132154819Y-90558359D02*
X132535771Y-90225026D01*
X132535771Y-90225026D02*
X132535771Y-90367883D01*
X132535771Y-90367883D02*
X132583390Y-90463121D01*
X132583390Y-90463121D02*
X132631009Y-90510740D01*
X132631009Y-90510740D02*
X132726247Y-90558359D01*
X132726247Y-90558359D02*
X132964342Y-90558359D01*
X132964342Y-90558359D02*
X133059580Y-90510740D01*
X133059580Y-90510740D02*
X133107200Y-90463121D01*
X133107200Y-90463121D02*
X133154819Y-90367883D01*
X133154819Y-90367883D02*
X133154819Y-90082169D01*
X133154819Y-90082169D02*
X133107200Y-89986931D01*
X133107200Y-89986931D02*
X133059580Y-89939312D01*
X154859580Y-99830978D02*
X154907200Y-99783359D01*
X154907200Y-99783359D02*
X154954819Y-99640502D01*
X154954819Y-99640502D02*
X154954819Y-99545264D01*
X154954819Y-99545264D02*
X154907200Y-99402407D01*
X154907200Y-99402407D02*
X154811961Y-99307169D01*
X154811961Y-99307169D02*
X154716723Y-99259550D01*
X154716723Y-99259550D02*
X154526247Y-99211931D01*
X154526247Y-99211931D02*
X154383390Y-99211931D01*
X154383390Y-99211931D02*
X154192914Y-99259550D01*
X154192914Y-99259550D02*
X154097676Y-99307169D01*
X154097676Y-99307169D02*
X154002438Y-99402407D01*
X154002438Y-99402407D02*
X153954819Y-99545264D01*
X153954819Y-99545264D02*
X153954819Y-99640502D01*
X153954819Y-99640502D02*
X154002438Y-99783359D01*
X154002438Y-99783359D02*
X154050057Y-99830978D01*
X154954819Y-100783359D02*
X154954819Y-100211931D01*
X154954819Y-100497645D02*
X153954819Y-100497645D01*
X153954819Y-100497645D02*
X154097676Y-100402407D01*
X154097676Y-100402407D02*
X154192914Y-100307169D01*
X154192914Y-100307169D02*
X154240533Y-100211931D01*
X153954819Y-101116693D02*
X153954819Y-101735740D01*
X153954819Y-101735740D02*
X154335771Y-101402407D01*
X154335771Y-101402407D02*
X154335771Y-101545264D01*
X154335771Y-101545264D02*
X154383390Y-101640502D01*
X154383390Y-101640502D02*
X154431009Y-101688121D01*
X154431009Y-101688121D02*
X154526247Y-101735740D01*
X154526247Y-101735740D02*
X154764342Y-101735740D01*
X154764342Y-101735740D02*
X154859580Y-101688121D01*
X154859580Y-101688121D02*
X154907200Y-101640502D01*
X154907200Y-101640502D02*
X154954819Y-101545264D01*
X154954819Y-101545264D02*
X154954819Y-101259550D01*
X154954819Y-101259550D02*
X154907200Y-101164312D01*
X154907200Y-101164312D02*
X154859580Y-101116693D01*
X156554819Y-99780978D02*
X156078628Y-99447645D01*
X156554819Y-99209550D02*
X155554819Y-99209550D01*
X155554819Y-99209550D02*
X155554819Y-99590502D01*
X155554819Y-99590502D02*
X155602438Y-99685740D01*
X155602438Y-99685740D02*
X155650057Y-99733359D01*
X155650057Y-99733359D02*
X155745295Y-99780978D01*
X155745295Y-99780978D02*
X155888152Y-99780978D01*
X155888152Y-99780978D02*
X155983390Y-99733359D01*
X155983390Y-99733359D02*
X156031009Y-99685740D01*
X156031009Y-99685740D02*
X156078628Y-99590502D01*
X156078628Y-99590502D02*
X156078628Y-99209550D01*
X156554819Y-100733359D02*
X156554819Y-100161931D01*
X156554819Y-100447645D02*
X155554819Y-100447645D01*
X155554819Y-100447645D02*
X155697676Y-100352407D01*
X155697676Y-100352407D02*
X155792914Y-100257169D01*
X155792914Y-100257169D02*
X155840533Y-100161931D01*
X155554819Y-101066693D02*
X155554819Y-101685740D01*
X155554819Y-101685740D02*
X155935771Y-101352407D01*
X155935771Y-101352407D02*
X155935771Y-101495264D01*
X155935771Y-101495264D02*
X155983390Y-101590502D01*
X155983390Y-101590502D02*
X156031009Y-101638121D01*
X156031009Y-101638121D02*
X156126247Y-101685740D01*
X156126247Y-101685740D02*
X156364342Y-101685740D01*
X156364342Y-101685740D02*
X156459580Y-101638121D01*
X156459580Y-101638121D02*
X156507200Y-101590502D01*
X156507200Y-101590502D02*
X156554819Y-101495264D01*
X156554819Y-101495264D02*
X156554819Y-101209550D01*
X156554819Y-101209550D02*
X156507200Y-101114312D01*
X156507200Y-101114312D02*
X156459580Y-101066693D01*
X144359580Y-101357142D02*
X144407200Y-101309523D01*
X144407200Y-101309523D02*
X144454819Y-101166666D01*
X144454819Y-101166666D02*
X144454819Y-101071428D01*
X144454819Y-101071428D02*
X144407200Y-100928571D01*
X144407200Y-100928571D02*
X144311961Y-100833333D01*
X144311961Y-100833333D02*
X144216723Y-100785714D01*
X144216723Y-100785714D02*
X144026247Y-100738095D01*
X144026247Y-100738095D02*
X143883390Y-100738095D01*
X143883390Y-100738095D02*
X143692914Y-100785714D01*
X143692914Y-100785714D02*
X143597676Y-100833333D01*
X143597676Y-100833333D02*
X143502438Y-100928571D01*
X143502438Y-100928571D02*
X143454819Y-101071428D01*
X143454819Y-101071428D02*
X143454819Y-101166666D01*
X143454819Y-101166666D02*
X143502438Y-101309523D01*
X143502438Y-101309523D02*
X143550057Y-101357142D01*
X144454819Y-102309523D02*
X144454819Y-101738095D01*
X144454819Y-102023809D02*
X143454819Y-102023809D01*
X143454819Y-102023809D02*
X143597676Y-101928571D01*
X143597676Y-101928571D02*
X143692914Y-101833333D01*
X143692914Y-101833333D02*
X143740533Y-101738095D01*
X143550057Y-102690476D02*
X143502438Y-102738095D01*
X143502438Y-102738095D02*
X143454819Y-102833333D01*
X143454819Y-102833333D02*
X143454819Y-103071428D01*
X143454819Y-103071428D02*
X143502438Y-103166666D01*
X143502438Y-103166666D02*
X143550057Y-103214285D01*
X143550057Y-103214285D02*
X143645295Y-103261904D01*
X143645295Y-103261904D02*
X143740533Y-103261904D01*
X143740533Y-103261904D02*
X143883390Y-103214285D01*
X143883390Y-103214285D02*
X144454819Y-102642857D01*
X144454819Y-102642857D02*
X144454819Y-103261904D01*
D11*
%TO.C,U6*%
X141731000Y-102051136D02*
G75*
G02*
X140969000Y-102051136I-381000J0D01*
G01*
X140969000Y-102051136D02*
G75*
G02*
X141731000Y-102051136I381000J0D01*
G01*
%TD*%
M02*
