%TF.GenerationSoftware,KiCad,Pcbnew,9.0.7*%
%TF.CreationDate,2026-06-13T17:55:31+01:00*%
%TF.ProjectId,GlucoBit-v2,476c7563-6f42-4697-942d-76322e6b6963,rev?*%
%TF.SameCoordinates,Original*%
%TF.FileFunction,Soldermask,Top*%
%TF.FilePolarity,Negative*%
%FSLAX46Y46*%
G04 Gerber Fmt 4.6, Leading zero omitted, Abs format (unit mm)*
G04 Created by KiCad (PCBNEW 9.0.7) date 2026-06-13 17:55:31*
%MOMM*%
%LPD*%
G01*
G04 APERTURE LIST*
G04 Aperture macros list*
%AMRoundRect*
0 Rectangle with rounded corners*
0 $1 Rounding radius*
0 $2 $3 $4 $5 $6 $7 $8 $9 X,Y pos of 4 corners*
0 Add a 4 corners polygon primitive as box body*
4,1,4,$2,$3,$4,$5,$6,$7,$8,$9,$2,$3,0*
0 Add four circle primitives for the rounded corners*
1,1,$1+$1,$2,$3*
1,1,$1+$1,$4,$5*
1,1,$1+$1,$6,$7*
1,1,$1+$1,$8,$9*
0 Add four rect primitives between the rounded corners*
20,1,$1+$1,$2,$3,$4,$5,0*
20,1,$1+$1,$4,$5,$6,$7,0*
20,1,$1+$1,$6,$7,$8,$9,0*
20,1,$1+$1,$8,$9,$2,$3,0*%
G04 Aperture macros list end*
%ADD10C,0.000000*%
%ADD11C,0.650000*%
%ADD12RoundRect,0.102000X-0.575000X0.300000X-0.575000X-0.300000X0.575000X-0.300000X0.575000X0.300000X0*%
%ADD13RoundRect,0.102000X-0.575000X0.150000X-0.575000X-0.150000X0.575000X-0.150000X0.575000X0.150000X0*%
%ADD14O,2.304000X1.404000*%
%ADD15O,2.004000X1.404000*%
%ADD16RoundRect,0.200000X-0.275000X0.200000X-0.275000X-0.200000X0.275000X-0.200000X0.275000X0.200000X0*%
%ADD17RoundRect,0.200000X0.200000X0.275000X-0.200000X0.275000X-0.200000X-0.275000X0.200000X-0.275000X0*%
%ADD18RoundRect,0.243750X-0.456250X0.243750X-0.456250X-0.243750X0.456250X-0.243750X0.456250X0.243750X0*%
%ADD19RoundRect,0.243750X-0.243750X-0.456250X0.243750X-0.456250X0.243750X0.456250X-0.243750X0.456250X0*%
%ADD20RoundRect,0.250000X-0.250000X-0.475000X0.250000X-0.475000X0.250000X0.475000X-0.250000X0.475000X0*%
%ADD21RoundRect,0.200000X-0.200000X-0.275000X0.200000X-0.275000X0.200000X0.275000X-0.200000X0.275000X0*%
%ADD22RoundRect,0.250000X-0.475000X0.250000X-0.475000X-0.250000X0.475000X-0.250000X0.475000X0.250000X0*%
%ADD23RoundRect,0.200000X0.275000X-0.200000X0.275000X0.200000X-0.275000X0.200000X-0.275000X-0.200000X0*%
%ADD24C,1.397000*%
%ADD25RoundRect,0.225000X-0.225000X-0.250000X0.225000X-0.250000X0.225000X0.250000X-0.225000X0.250000X0*%
%ADD26RoundRect,0.102000X-0.654000X-0.654000X0.654000X-0.654000X0.654000X0.654000X-0.654000X0.654000X0*%
%ADD27C,1.512000*%
%ADD28R,1.041400X0.660400*%
%ADD29RoundRect,0.150000X-0.512500X-0.150000X0.512500X-0.150000X0.512500X0.150000X-0.512500X0.150000X0*%
%ADD30RoundRect,0.225000X0.250000X-0.225000X0.250000X0.225000X-0.250000X0.225000X-0.250000X-0.225000X0*%
%ADD31RoundRect,0.059250X-0.462750X-0.177750X0.462750X-0.177750X0.462750X0.177750X-0.462750X0.177750X0*%
%ADD32RoundRect,0.059250X-0.177750X-0.462750X0.177750X-0.462750X0.177750X0.462750X-0.177750X0.462750X0*%
%ADD33RoundRect,0.102000X-0.550000X-0.550000X0.550000X-0.550000X0.550000X0.550000X-0.550000X0.550000X0*%
%ADD34RoundRect,0.250000X0.650000X-0.325000X0.650000X0.325000X-0.650000X0.325000X-0.650000X-0.325000X0*%
%ADD35RoundRect,0.250000X-0.325000X-0.650000X0.325000X-0.650000X0.325000X0.650000X-0.325000X0.650000X0*%
%ADD36RoundRect,0.099250X0.297750X-0.607750X0.297750X0.607750X-0.297750X0.607750X-0.297750X-0.607750X0*%
%ADD37R,0.230000X0.700000*%
%ADD38C,0.504000*%
%ADD39R,0.812800X1.498600*%
%ADD40R,1.498600X0.812800*%
%ADD41R,0.889000X0.889000*%
%ADD42R,1.700000X1.700000*%
%ADD43C,1.700000*%
G04 APERTURE END LIST*
D10*
%TO.C,U2*%
G36*
X129235000Y-89418837D02*
G01*
X128865001Y-89418837D01*
X128865001Y-88578836D01*
X129235000Y-88578836D01*
X129235000Y-89418837D01*
G37*
G36*
X129235000Y-91518836D02*
G01*
X128865001Y-91518836D01*
X128865001Y-90678835D01*
X129235000Y-90678835D01*
X129235000Y-91518836D01*
G37*
G36*
X129634999Y-89418837D02*
G01*
X129265000Y-89418837D01*
X129265000Y-88578836D01*
X129634999Y-88578836D01*
X129634999Y-89418837D01*
G37*
G36*
X129634999Y-91518836D02*
G01*
X129265000Y-91518836D01*
X129265000Y-90678835D01*
X129634999Y-90678835D01*
X129634999Y-91518836D01*
G37*
G36*
X129650000Y-90569536D02*
G01*
X129037200Y-90569536D01*
X129037200Y-89528136D01*
X129650000Y-89528136D01*
X129650000Y-90569536D01*
G37*
G36*
X130035001Y-89418837D02*
G01*
X129664999Y-89418837D01*
X129664999Y-88578836D01*
X130035001Y-88578836D01*
X130035001Y-89418837D01*
G37*
G36*
X130035001Y-91518836D02*
G01*
X129664999Y-91518836D01*
X129664999Y-90678835D01*
X130035001Y-90678835D01*
X130035001Y-91518836D01*
G37*
G36*
X130435000Y-89418837D02*
G01*
X130065001Y-89418837D01*
X130065001Y-88578836D01*
X130435000Y-88578836D01*
X130435000Y-89418837D01*
G37*
G36*
X130435000Y-91518836D02*
G01*
X130065001Y-91518836D01*
X130065001Y-90678835D01*
X130435000Y-90678835D01*
X130435000Y-91518836D01*
G37*
G36*
X130662800Y-89848836D02*
G01*
X129037200Y-89848836D01*
X129037200Y-89528136D01*
X130662800Y-89528136D01*
X130662800Y-89848836D01*
G37*
G36*
X130662800Y-90569536D02*
G01*
X130050000Y-90569536D01*
X130050000Y-89528136D01*
X130662800Y-89528136D01*
X130662800Y-90569536D01*
G37*
G36*
X130662800Y-90569536D02*
G01*
X129037200Y-90569536D01*
X129037200Y-90248836D01*
X130662800Y-90248836D01*
X130662800Y-90569536D01*
G37*
G36*
X130834999Y-89418837D02*
G01*
X130465000Y-89418837D01*
X130465000Y-88578836D01*
X130834999Y-88578836D01*
X130834999Y-89418837D01*
G37*
G36*
X130834999Y-91518836D02*
G01*
X130465000Y-91518836D01*
X130465000Y-90678835D01*
X130834999Y-90678835D01*
X130834999Y-91518836D01*
G37*
%TD*%
D11*
%TO.C,J1*%
X121880000Y-85699586D03*
X121880000Y-91479586D03*
D12*
X122945000Y-85389586D03*
X122945000Y-86189586D03*
D13*
X122945000Y-87339586D03*
X122945000Y-88339586D03*
X122945000Y-88839586D03*
X122945000Y-89839586D03*
D12*
X122945000Y-91789586D03*
X122945000Y-90989586D03*
D13*
X122945000Y-90339586D03*
X122945000Y-89339586D03*
X122945000Y-87839586D03*
X122945000Y-86839586D03*
D14*
X122380000Y-84269586D03*
X122380000Y-92909586D03*
D15*
X118200000Y-84269586D03*
X118200000Y-92909586D03*
%TD*%
D16*
%TO.C,R5*%
X131875000Y-99748836D03*
X131875000Y-101398836D03*
%TD*%
D17*
%TO.C,R1*%
X125500000Y-79748836D03*
X123850000Y-79748836D03*
%TD*%
%TO.C,R7*%
X127500000Y-101998836D03*
X125850000Y-101998836D03*
%TD*%
D18*
%TO.C,D2*%
X136100000Y-99498836D03*
X136100000Y-101373836D03*
%TD*%
D16*
%TO.C,R14*%
X157800000Y-99598836D03*
X157800000Y-101248836D03*
%TD*%
D19*
%TO.C,D3*%
X121975000Y-101998836D03*
X123850000Y-101998836D03*
%TD*%
D20*
%TO.C,C10*%
X119950000Y-99498836D03*
X121850000Y-99498836D03*
%TD*%
D21*
%TO.C,C3*%
X131500000Y-93248836D03*
X133150000Y-93248836D03*
%TD*%
D22*
%TO.C,C5*%
X127600000Y-93498836D03*
X127600000Y-95398836D03*
%TD*%
D23*
%TO.C,R9*%
X124600000Y-84648836D03*
X124600000Y-82998836D03*
%TD*%
D20*
%TO.C,C9*%
X118700000Y-78248836D03*
X120600000Y-78248836D03*
%TD*%
D16*
%TO.C,R6*%
X130275000Y-99748836D03*
X130275000Y-101398836D03*
%TD*%
D23*
%TO.C,C4*%
X135350000Y-86998836D03*
X135350000Y-85348836D03*
%TD*%
D21*
%TO.C,R4*%
X130525000Y-83508836D03*
X132175000Y-83508836D03*
%TD*%
D24*
%TO.C,U6*%
X141350000Y-97643936D03*
X141350000Y-95143936D03*
X141350000Y-92643936D03*
X141350000Y-90143936D03*
X141350000Y-87643936D03*
X141350000Y-85143936D03*
X141350000Y-82643936D03*
X141350000Y-80143936D03*
%TD*%
D25*
%TO.C,C11*%
X130100000Y-75123836D03*
X131650000Y-75123836D03*
%TD*%
D26*
%TO.C,J2*%
X163400000Y-101750000D03*
D27*
X161400000Y-101750000D03*
%TD*%
D28*
%TO.C,SW1*%
X122100000Y-96998836D03*
X117950000Y-96998836D03*
X122100000Y-94848836D03*
X117950000Y-94848836D03*
%TD*%
D29*
%TO.C,U3*%
X132850000Y-88748836D03*
X132850000Y-89698836D03*
X132850000Y-90648836D03*
X135125000Y-90648836D03*
X135125000Y-88748836D03*
%TD*%
D30*
%TO.C,C13*%
X154500000Y-101248836D03*
X154500000Y-99698836D03*
%TD*%
D16*
%TO.C,R3*%
X137100000Y-89998836D03*
X137100000Y-91648836D03*
%TD*%
D31*
%TO.C,U5*%
X123415000Y-75748836D03*
X123415000Y-76248836D03*
X123415000Y-76748836D03*
X123415000Y-77248836D03*
D32*
X124100000Y-77933836D03*
X124600000Y-77933836D03*
X125100000Y-77933836D03*
X125600000Y-77933836D03*
D31*
X126285000Y-77248836D03*
X126285000Y-76748836D03*
X126285000Y-76248836D03*
X126285000Y-75748836D03*
D32*
X125600000Y-75063836D03*
X125100000Y-75063836D03*
X124600000Y-75063836D03*
X124100000Y-75063836D03*
D33*
X124850000Y-76498836D03*
%TD*%
D28*
%TO.C,SW2*%
X117775000Y-80173836D03*
X121925000Y-80173836D03*
X117775000Y-82323836D03*
X121925000Y-82323836D03*
%TD*%
D16*
%TO.C,R2*%
X137100000Y-86748836D03*
X137100000Y-88398836D03*
%TD*%
D22*
%TO.C,C2*%
X129650000Y-93498836D03*
X129650000Y-95398836D03*
%TD*%
D34*
%TO.C,C6*%
X158400000Y-77723836D03*
X158400000Y-74773836D03*
%TD*%
D17*
%TO.C,R11*%
X125600000Y-97498836D03*
X123950000Y-97498836D03*
%TD*%
D35*
%TO.C,C8*%
X129175000Y-77073836D03*
X132125000Y-77073836D03*
%TD*%
D26*
%TO.C,J6*%
X150400000Y-101748836D03*
D27*
X148400000Y-101748836D03*
%TD*%
D23*
%TO.C,R15*%
X133900000Y-97498836D03*
X133900000Y-95848836D03*
%TD*%
D20*
%TO.C,C1*%
X131450000Y-86248836D03*
X133350000Y-86248836D03*
%TD*%
D23*
%TO.C,R13*%
X156100000Y-101248836D03*
X156100000Y-99598836D03*
%TD*%
D36*
%TO.C,U4*%
X126900000Y-86003836D03*
X127850000Y-86003836D03*
X128800000Y-86003836D03*
X128800000Y-83493836D03*
X127850000Y-83493836D03*
X126900000Y-83493836D03*
%TD*%
D30*
%TO.C,C7*%
X160650000Y-77698836D03*
X160650000Y-76148836D03*
%TD*%
D21*
%TO.C,R8*%
X123950000Y-95748836D03*
X125600000Y-95748836D03*
%TD*%
D37*
%TO.C,U2*%
X130650001Y-88998836D03*
X130249999Y-88998836D03*
X129850000Y-88998836D03*
X129450001Y-88998836D03*
X129049999Y-88998836D03*
X129049999Y-91098836D03*
X129450001Y-91098836D03*
X129850000Y-91098836D03*
X130249999Y-91098836D03*
X130650001Y-91098836D03*
D38*
X129850000Y-90048836D03*
%TD*%
D23*
%TO.C,R16*%
X136225000Y-97698836D03*
X136225000Y-96048836D03*
%TD*%
D17*
%TO.C,R10*%
X136650000Y-94248836D03*
X135000000Y-94248836D03*
%TD*%
D39*
%TO.C,U1*%
X163670000Y-79848836D03*
X162400000Y-79848836D03*
X161130000Y-79848836D03*
X159860000Y-79848836D03*
X158590000Y-79848836D03*
X157320000Y-79848836D03*
X156050000Y-79848836D03*
X154780000Y-79848836D03*
X153510000Y-79848836D03*
X152240000Y-79848836D03*
X150970000Y-79848836D03*
X149700000Y-79848836D03*
X148430000Y-79848836D03*
X147160000Y-79848836D03*
D40*
X145910000Y-81613836D03*
X145910000Y-82883836D03*
X145910000Y-84153836D03*
X145910000Y-85423836D03*
X145910000Y-86693836D03*
X145910000Y-87963836D03*
X145910000Y-89233836D03*
X145910000Y-90503836D03*
X145910000Y-91773836D03*
X145910000Y-93043836D03*
X145910000Y-94313836D03*
X145910000Y-95583836D03*
D39*
X147160000Y-97348836D03*
X148430000Y-97348836D03*
X149700000Y-97348836D03*
X150970000Y-97348836D03*
X152240000Y-97348836D03*
X153510000Y-97348836D03*
X154780000Y-97348836D03*
X156050000Y-97348836D03*
X157320000Y-97348836D03*
X158590000Y-97348836D03*
X159860000Y-97348836D03*
X161130000Y-97348836D03*
X162400000Y-97348836D03*
X163670000Y-97348836D03*
D41*
X155950000Y-87098836D03*
X157350000Y-85698836D03*
X155950000Y-85698836D03*
X154550000Y-85698836D03*
X154550000Y-87098836D03*
X154550000Y-88498836D03*
X155950000Y-88498836D03*
X157350000Y-88498836D03*
X157350000Y-87098836D03*
%TD*%
D18*
%TO.C,D1*%
X133825000Y-99498836D03*
X133825000Y-101373836D03*
%TD*%
D30*
%TO.C,C12*%
X144000000Y-102775000D03*
X144000000Y-101225000D03*
%TD*%
D42*
%TO.C,J3*%
X136200000Y-75700000D03*
D43*
X136200000Y-78240000D03*
%TD*%
M02*
