%TF.GenerationSoftware,KiCad,Pcbnew,9.0.7*%
%TF.CreationDate,2026-06-13T16:41:19+01:00*%
%TF.ProjectId,GlucoBit-v2,476c7563-6f42-4697-942d-76322e6b6963,rev?*%
%TF.SameCoordinates,Original*%
%TF.FileFunction,Copper,L2,Inr*%
%TF.FilePolarity,Positive*%
%FSLAX46Y46*%
G04 Gerber Fmt 4.6, Leading zero omitted, Abs format (unit mm)*
G04 Created by KiCad (PCBNEW 9.0.7) date 2026-06-13 16:41:19*
%MOMM*%
%LPD*%
G01*
G04 APERTURE LIST*
%TA.AperFunction,ComponentPad*%
%ADD10O,2.100000X1.000000*%
%TD*%
%TA.AperFunction,ComponentPad*%
%ADD11O,1.800000X1.000000*%
%TD*%
%TA.AperFunction,ComponentPad*%
%ADD12C,1.397000*%
%TD*%
%TA.AperFunction,ComponentPad*%
%ADD13R,1.308000X1.308000*%
%TD*%
%TA.AperFunction,ComponentPad*%
%ADD14C,1.308000*%
%TD*%
%TA.AperFunction,ComponentPad*%
%ADD15C,0.504000*%
%TD*%
%TA.AperFunction,ComponentPad*%
%ADD16R,1.700000X1.700000*%
%TD*%
%TA.AperFunction,ComponentPad*%
%ADD17C,1.700000*%
%TD*%
%TA.AperFunction,ViaPad*%
%ADD18C,0.600000*%
%TD*%
G04 APERTURE END LIST*
D10*
%TO.N,GND*%
%TO.C,J1*%
X66780000Y-49020750D03*
X66780000Y-57660750D03*
D11*
X62600000Y-49020750D03*
X62600000Y-57660750D03*
%TD*%
D12*
%TO.N,MOSI*%
%TO.C,U6*%
X85750000Y-62395100D03*
%TO.N,CLK*%
X85750000Y-59895100D03*
%TO.N,CS*%
X85750000Y-57395100D03*
%TO.N,DC*%
X85750000Y-54895100D03*
%TO.N,RST*%
X85750000Y-52395100D03*
%TO.N,BL*%
X85750000Y-49895100D03*
%TO.N,LED*%
X85750000Y-47395100D03*
%TO.N,Touch*%
X85750000Y-44895100D03*
%TD*%
D13*
%TO.N,/VOUT*%
%TO.C,J2*%
X107500000Y-66500000D03*
D14*
%TO.N,GND*%
X105500000Y-66500000D03*
%TD*%
D13*
%TO.N,Net-(U5-OUTN)*%
%TO.C,J6*%
X95250000Y-66500000D03*
D14*
%TO.N,Net-(U5-OUTP)*%
X93250000Y-66500000D03*
%TD*%
D15*
%TO.N,GND*%
%TO.C,U2*%
X74250000Y-54800000D03*
%TD*%
D16*
%TO.N,+3V3*%
%TO.C,J3*%
X80000000Y-40700000D03*
D17*
%TO.N,GND*%
X80000000Y-43240000D03*
%TD*%
D18*
%TO.N,/5VIN*%
X69900000Y-52250000D03*
X68600000Y-55025000D03*
X70350000Y-54875000D03*
X69950000Y-50675000D03*
X75800000Y-49450000D03*
X68375000Y-50900000D03*
X73150000Y-49525000D03*
%TO.N,GND*%
X62425000Y-56325000D03*
X78050000Y-47875000D03*
X103124000Y-51562000D03*
X98552000Y-54750000D03*
X90000000Y-39650000D03*
X83875000Y-50450000D03*
X73075000Y-62725000D03*
X65475000Y-46225000D03*
X98500000Y-63400000D03*
X69250000Y-41250000D03*
X94675000Y-51550000D03*
X66550000Y-41825000D03*
X68550000Y-56650000D03*
X103124000Y-50425000D03*
X103150000Y-53175000D03*
X101854000Y-49276000D03*
X78000000Y-43525000D03*
X72975000Y-44500000D03*
X108637467Y-41164366D03*
X100600000Y-57475000D03*
X87525000Y-63500000D03*
X99568000Y-54750000D03*
X97850000Y-50800000D03*
X101600000Y-54751164D03*
X71975000Y-61600000D03*
X100575853Y-54751164D03*
X77225000Y-39925000D03*
X103150000Y-52450000D03*
X64925000Y-41550000D03*
X104550000Y-39775000D03*
X83875000Y-55000000D03*
X98825000Y-46750000D03*
X104102652Y-66499430D03*
X77925000Y-49425000D03*
X83125000Y-41325000D03*
X97875000Y-51816000D03*
X64825000Y-39550000D03*
X94725000Y-41875000D03*
X71250000Y-49475000D03*
X102743280Y-67153943D03*
X107975000Y-42825000D03*
X62325000Y-46150000D03*
X102616000Y-54751164D03*
X81625000Y-47900000D03*
X74008535Y-61426694D03*
X70025000Y-59275000D03*
X97925000Y-53848000D03*
X90000000Y-63850000D03*
X83025000Y-56450000D03*
X66250000Y-65450000D03*
X62350000Y-50150000D03*
X103175000Y-54150000D03*
X68400000Y-57600000D03*
X108125000Y-52800000D03*
X79775000Y-48950000D03*
X98432227Y-39402620D03*
X97790000Y-49784000D03*
X77200000Y-59150000D03*
X98806000Y-49276000D03*
X78387500Y-54450000D03*
X97900000Y-52832000D03*
X99822000Y-49276000D03*
X108105248Y-64636587D03*
X83650000Y-61250000D03*
X100838000Y-49276000D03*
X67975000Y-64625000D03*
X103124000Y-49276000D03*
X64850000Y-49950000D03*
%TO.N,/VOUT*%
X74050000Y-58250000D03*
%TO.N,+3V3*%
X79600000Y-54375000D03*
X100250000Y-42500000D03*
X78300000Y-62250000D03*
X80075000Y-56925000D03*
X88475000Y-44775000D03*
X71900000Y-64250000D03*
%TO.N,BOOT*%
X93600000Y-58875000D03*
X68000000Y-46000000D03*
%TO.N,ENABLE*%
X62975000Y-64300000D03*
X108400000Y-59525000D03*
%TO.N,Net-(U5-OUTP)*%
X86975000Y-65750000D03*
X72312147Y-41528968D03*
%TO.N,Net-(U5-OUTN)*%
X72125000Y-39825000D03*
X95325000Y-63800000D03*
%TO.N,PGOOD*%
X71025000Y-56250000D03*
X78275000Y-59450000D03*
X88475000Y-60294600D03*
%TO.N,CH*%
X83400000Y-58450000D03*
X92275000Y-58450000D03*
X74250000Y-56900000D03*
%TO.N,Net-(U2-ISET2)*%
X79000000Y-57625000D03*
X71925000Y-56100000D03*
%TO.N,Touch*%
X106750000Y-60250000D03*
%TO.N,BCLK*%
X89650000Y-41700000D03*
X66025000Y-39525000D03*
%TO.N,LRCLK*%
X96575000Y-42825000D03*
X95000000Y-39600000D03*
%TD*%
%TA.AperFunction,Conductor*%
%TO.N,GND*%
G36*
X65647903Y-38910935D02*
G01*
X65693658Y-38963739D01*
X65703602Y-39032897D01*
X65674577Y-39096453D01*
X65668545Y-39102931D01*
X65584493Y-39186982D01*
X65584488Y-39186988D01*
X65512017Y-39312511D01*
X65512016Y-39312515D01*
X65474500Y-39452525D01*
X65474500Y-39597475D01*
X65512016Y-39737485D01*
X65512017Y-39737488D01*
X65584488Y-39863011D01*
X65584490Y-39863013D01*
X65584491Y-39863015D01*
X65686985Y-39965509D01*
X65686986Y-39965510D01*
X65686988Y-39965511D01*
X65812511Y-40037982D01*
X65812512Y-40037982D01*
X65812515Y-40037984D01*
X65952525Y-40075500D01*
X65952528Y-40075500D01*
X66097472Y-40075500D01*
X66097475Y-40075500D01*
X66237485Y-40037984D01*
X66363015Y-39965509D01*
X66465509Y-39863015D01*
X66529301Y-39752525D01*
X71574500Y-39752525D01*
X71574500Y-39897475D01*
X71600490Y-39994470D01*
X71612017Y-40037488D01*
X71684488Y-40163011D01*
X71684490Y-40163013D01*
X71684491Y-40163015D01*
X71786985Y-40265509D01*
X71786986Y-40265510D01*
X71786988Y-40265511D01*
X71912511Y-40337982D01*
X71912512Y-40337982D01*
X71912515Y-40337984D01*
X72052525Y-40375500D01*
X72052528Y-40375500D01*
X72197472Y-40375500D01*
X72197475Y-40375500D01*
X72337485Y-40337984D01*
X72463015Y-40265509D01*
X72565509Y-40163015D01*
X72637984Y-40037485D01*
X72675500Y-39897475D01*
X72675500Y-39825321D01*
X78899500Y-39825321D01*
X78899500Y-41574678D01*
X78914032Y-41647735D01*
X78914033Y-41647739D01*
X78914034Y-41647740D01*
X78969399Y-41730601D01*
X79032069Y-41772475D01*
X79052260Y-41785966D01*
X79052264Y-41785967D01*
X79125321Y-41800499D01*
X79125324Y-41800500D01*
X79125326Y-41800500D01*
X80874676Y-41800500D01*
X80874677Y-41800499D01*
X80947740Y-41785966D01*
X81030601Y-41730601D01*
X81085966Y-41647740D01*
X81089987Y-41627525D01*
X89099500Y-41627525D01*
X89099500Y-41772475D01*
X89131326Y-41891250D01*
X89137017Y-41912488D01*
X89209488Y-42038011D01*
X89209490Y-42038013D01*
X89209491Y-42038015D01*
X89311985Y-42140509D01*
X89311986Y-42140510D01*
X89311988Y-42140511D01*
X89437511Y-42212982D01*
X89437512Y-42212982D01*
X89437515Y-42212984D01*
X89577525Y-42250500D01*
X89577528Y-42250500D01*
X89722472Y-42250500D01*
X89722475Y-42250500D01*
X89862485Y-42212984D01*
X89988015Y-42140509D01*
X90090509Y-42038015D01*
X90162984Y-41912485D01*
X90200500Y-41772475D01*
X90200500Y-41627525D01*
X90162984Y-41487515D01*
X90145073Y-41456493D01*
X90090511Y-41361988D01*
X90090506Y-41361982D01*
X89988017Y-41259493D01*
X89988011Y-41259488D01*
X89862488Y-41187017D01*
X89862489Y-41187017D01*
X89825788Y-41177183D01*
X89722475Y-41149500D01*
X89577525Y-41149500D01*
X89474212Y-41177183D01*
X89437511Y-41187017D01*
X89311988Y-41259488D01*
X89311982Y-41259493D01*
X89209493Y-41361982D01*
X89209488Y-41361988D01*
X89137017Y-41487511D01*
X89137016Y-41487515D01*
X89099500Y-41627525D01*
X81089987Y-41627525D01*
X81096416Y-41595207D01*
X81096416Y-41595205D01*
X81100500Y-41574675D01*
X81100500Y-39825323D01*
X81100499Y-39825321D01*
X81085967Y-39752264D01*
X81085966Y-39752260D01*
X81059276Y-39712315D01*
X81030601Y-39669399D01*
X80947740Y-39614034D01*
X80947739Y-39614033D01*
X80947735Y-39614032D01*
X80874677Y-39599500D01*
X80874674Y-39599500D01*
X79125326Y-39599500D01*
X79125323Y-39599500D01*
X79052264Y-39614032D01*
X79052260Y-39614033D01*
X78969399Y-39669399D01*
X78914033Y-39752260D01*
X78914032Y-39752264D01*
X78899500Y-39825321D01*
X72675500Y-39825321D01*
X72675500Y-39752525D01*
X72637984Y-39612515D01*
X72633250Y-39604316D01*
X72565511Y-39486988D01*
X72565506Y-39486982D01*
X72463017Y-39384493D01*
X72463011Y-39384488D01*
X72337488Y-39312017D01*
X72337489Y-39312017D01*
X72326006Y-39308940D01*
X72197475Y-39274500D01*
X72052525Y-39274500D01*
X71923993Y-39308940D01*
X71912511Y-39312017D01*
X71786988Y-39384488D01*
X71786982Y-39384493D01*
X71684493Y-39486982D01*
X71684488Y-39486988D01*
X71612017Y-39612511D01*
X71611609Y-39614033D01*
X71574500Y-39752525D01*
X66529301Y-39752525D01*
X66537984Y-39737485D01*
X66575500Y-39597475D01*
X66575500Y-39452525D01*
X66537984Y-39312515D01*
X66537696Y-39312017D01*
X66465511Y-39186988D01*
X66465506Y-39186982D01*
X66381455Y-39102931D01*
X66347970Y-39041608D01*
X66352954Y-38971916D01*
X66394826Y-38915983D01*
X66460290Y-38891566D01*
X66469136Y-38891250D01*
X94663817Y-38891250D01*
X94730856Y-38910935D01*
X94776611Y-38963739D01*
X94786555Y-39032897D01*
X94757530Y-39096453D01*
X94725818Y-39122637D01*
X94661985Y-39159491D01*
X94661982Y-39159493D01*
X94559493Y-39261982D01*
X94559488Y-39261988D01*
X94487017Y-39387511D01*
X94487016Y-39387515D01*
X94449500Y-39527525D01*
X94449500Y-39672475D01*
X94487016Y-39812485D01*
X94487017Y-39812488D01*
X94559488Y-39938011D01*
X94559490Y-39938013D01*
X94559491Y-39938015D01*
X94661985Y-40040509D01*
X94661986Y-40040510D01*
X94661988Y-40040511D01*
X94787511Y-40112982D01*
X94787512Y-40112982D01*
X94787515Y-40112984D01*
X94927525Y-40150500D01*
X94927528Y-40150500D01*
X95072472Y-40150500D01*
X95072475Y-40150500D01*
X95212485Y-40112984D01*
X95338015Y-40040509D01*
X95440509Y-39938015D01*
X95512984Y-39812485D01*
X95550500Y-39672475D01*
X95550500Y-39527525D01*
X95512984Y-39387515D01*
X95511239Y-39384493D01*
X95440511Y-39261988D01*
X95440506Y-39261982D01*
X95338017Y-39159493D01*
X95338015Y-39159491D01*
X95274181Y-39122636D01*
X95225967Y-39072069D01*
X95212745Y-39003462D01*
X95238713Y-38938598D01*
X95295627Y-38898070D01*
X95336183Y-38891250D01*
X113129449Y-38891250D01*
X113196488Y-38910935D01*
X113242243Y-38963739D01*
X113252187Y-39032897D01*
X113223162Y-39096453D01*
X113202337Y-39115565D01*
X113022490Y-39246233D01*
X113022488Y-39246235D01*
X113022487Y-39246235D01*
X112855485Y-39413237D01*
X112855485Y-39413238D01*
X112855483Y-39413240D01*
X112801906Y-39486982D01*
X112716657Y-39604316D01*
X112609433Y-39814753D01*
X112536446Y-40039381D01*
X112499500Y-40272652D01*
X112499500Y-40508847D01*
X112536446Y-40742118D01*
X112609433Y-40966746D01*
X112700641Y-41145750D01*
X112716657Y-41177183D01*
X112855483Y-41368260D01*
X113022490Y-41535267D01*
X113213567Y-41674093D01*
X113312991Y-41724752D01*
X113424003Y-41781316D01*
X113424005Y-41781316D01*
X113424008Y-41781318D01*
X113544412Y-41820439D01*
X113648631Y-41854303D01*
X113881903Y-41891250D01*
X113881908Y-41891250D01*
X114118097Y-41891250D01*
X114351368Y-41854303D01*
X114575992Y-41781318D01*
X114786433Y-41674093D01*
X114977510Y-41535267D01*
X115144517Y-41368260D01*
X115275183Y-41188414D01*
X115330512Y-41145750D01*
X115400126Y-41139771D01*
X115461920Y-41172377D01*
X115496278Y-41233216D01*
X115499500Y-41261301D01*
X115499500Y-65920198D01*
X115479815Y-65987237D01*
X115427011Y-66032992D01*
X115357853Y-66042936D01*
X115294297Y-66013911D01*
X115275182Y-65993084D01*
X115224564Y-65923415D01*
X115144517Y-65813240D01*
X114977510Y-65646233D01*
X114786433Y-65507407D01*
X114575996Y-65400183D01*
X114351368Y-65327196D01*
X114118097Y-65290250D01*
X114118092Y-65290250D01*
X113881908Y-65290250D01*
X113881903Y-65290250D01*
X113648631Y-65327196D01*
X113424003Y-65400183D01*
X113213566Y-65507407D01*
X113104550Y-65586612D01*
X113022490Y-65646233D01*
X113022488Y-65646235D01*
X113022487Y-65646235D01*
X112855485Y-65813237D01*
X112855485Y-65813238D01*
X112855483Y-65813240D01*
X112795862Y-65895300D01*
X112716657Y-66004316D01*
X112609433Y-66214753D01*
X112536446Y-66439381D01*
X112499500Y-66672652D01*
X112499500Y-66908847D01*
X112536446Y-67142118D01*
X112609433Y-67366746D01*
X112700641Y-67545750D01*
X112716657Y-67577183D01*
X112855483Y-67768260D01*
X113022490Y-67935267D01*
X113202335Y-68065933D01*
X113245000Y-68121262D01*
X113250979Y-68190876D01*
X113218373Y-68252670D01*
X113157534Y-68287028D01*
X113129449Y-68290250D01*
X63870551Y-68290250D01*
X63803512Y-68270565D01*
X63757757Y-68217761D01*
X63747813Y-68148603D01*
X63776838Y-68085047D01*
X63797662Y-68065934D01*
X63977510Y-67935267D01*
X64144517Y-67768260D01*
X64283343Y-67577183D01*
X64390568Y-67366742D01*
X64463553Y-67142118D01*
X64473932Y-67076587D01*
X64500500Y-66908847D01*
X64500500Y-66672652D01*
X64487264Y-66589087D01*
X92345499Y-66589087D01*
X92380258Y-66763827D01*
X92380260Y-66763833D01*
X92448442Y-66928439D01*
X92547430Y-67076587D01*
X92673412Y-67202569D01*
X92673415Y-67202571D01*
X92821559Y-67301557D01*
X92986167Y-67369740D01*
X92986171Y-67369740D01*
X92986172Y-67369741D01*
X93160912Y-67404500D01*
X93160915Y-67404500D01*
X93339087Y-67404500D01*
X93456649Y-67381114D01*
X93513833Y-67369740D01*
X93678441Y-67301557D01*
X93826585Y-67202571D01*
X93952571Y-67076585D01*
X94051557Y-66928441D01*
X94106939Y-66794736D01*
X94150780Y-66740334D01*
X94217074Y-66718269D01*
X94284773Y-66735548D01*
X94332384Y-66786685D01*
X94345500Y-66842190D01*
X94345500Y-67178678D01*
X94360032Y-67251735D01*
X94360033Y-67251739D01*
X94360034Y-67251740D01*
X94415399Y-67334601D01*
X94467991Y-67369741D01*
X94498260Y-67389966D01*
X94498264Y-67389967D01*
X94571321Y-67404499D01*
X94571324Y-67404500D01*
X94571326Y-67404500D01*
X95928676Y-67404500D01*
X95928677Y-67404499D01*
X96001740Y-67389966D01*
X96084601Y-67334601D01*
X96139966Y-67251740D01*
X96154500Y-67178674D01*
X96154500Y-65821326D01*
X96154500Y-65821323D01*
X96154499Y-65821321D01*
X106595500Y-65821321D01*
X106595500Y-67178678D01*
X106610032Y-67251735D01*
X106610033Y-67251739D01*
X106610034Y-67251740D01*
X106665399Y-67334601D01*
X106717991Y-67369741D01*
X106748260Y-67389966D01*
X106748264Y-67389967D01*
X106821321Y-67404499D01*
X106821324Y-67404500D01*
X106821326Y-67404500D01*
X108178676Y-67404500D01*
X108178677Y-67404499D01*
X108251740Y-67389966D01*
X108334601Y-67334601D01*
X108389966Y-67251740D01*
X108404500Y-67178674D01*
X108404500Y-65821326D01*
X108404500Y-65821323D01*
X108404499Y-65821321D01*
X108389967Y-65748264D01*
X108389966Y-65748260D01*
X108334601Y-65665399D01*
X108251740Y-65610034D01*
X108251739Y-65610033D01*
X108251735Y-65610032D01*
X108178677Y-65595500D01*
X108178674Y-65595500D01*
X106821326Y-65595500D01*
X106821323Y-65595500D01*
X106748264Y-65610032D01*
X106748260Y-65610033D01*
X106665399Y-65665399D01*
X106610033Y-65748260D01*
X106610032Y-65748264D01*
X106595500Y-65821321D01*
X96154499Y-65821321D01*
X96139967Y-65748264D01*
X96139966Y-65748260D01*
X96084601Y-65665399D01*
X96001740Y-65610034D01*
X96001739Y-65610033D01*
X96001735Y-65610032D01*
X95928677Y-65595500D01*
X95928674Y-65595500D01*
X94571326Y-65595500D01*
X94571323Y-65595500D01*
X94498264Y-65610032D01*
X94498260Y-65610033D01*
X94415399Y-65665399D01*
X94360033Y-65748260D01*
X94360032Y-65748264D01*
X94345500Y-65821321D01*
X94345500Y-66157809D01*
X94325815Y-66224848D01*
X94273011Y-66270603D01*
X94203853Y-66280547D01*
X94140297Y-66251522D01*
X94106939Y-66205262D01*
X94051558Y-66071560D01*
X93952569Y-65923412D01*
X93826587Y-65797430D01*
X93752513Y-65747936D01*
X93678441Y-65698443D01*
X93627945Y-65677527D01*
X93513833Y-65630260D01*
X93513827Y-65630258D01*
X93339087Y-65595500D01*
X93339085Y-65595500D01*
X93160915Y-65595500D01*
X93160913Y-65595500D01*
X92986172Y-65630258D01*
X92986166Y-65630260D01*
X92821560Y-65698442D01*
X92673412Y-65797430D01*
X92547430Y-65923412D01*
X92448442Y-66071560D01*
X92380260Y-66236166D01*
X92380258Y-66236172D01*
X92345500Y-66410912D01*
X92345500Y-66410915D01*
X92345500Y-66589085D01*
X92345500Y-66589087D01*
X92345499Y-66589087D01*
X64487264Y-66589087D01*
X64463553Y-66439381D01*
X64408713Y-66270603D01*
X64390568Y-66214758D01*
X64390566Y-66214755D01*
X64390566Y-66214753D01*
X64299358Y-66035749D01*
X64283343Y-66004317D01*
X64144517Y-65813240D01*
X64008802Y-65677525D01*
X86424500Y-65677525D01*
X86424500Y-65822475D01*
X86451547Y-65923415D01*
X86462017Y-65962488D01*
X86534488Y-66088011D01*
X86534490Y-66088013D01*
X86534491Y-66088015D01*
X86636985Y-66190509D01*
X86636986Y-66190510D01*
X86636988Y-66190511D01*
X86762511Y-66262982D01*
X86762512Y-66262982D01*
X86762515Y-66262984D01*
X86902525Y-66300500D01*
X86902528Y-66300500D01*
X87047472Y-66300500D01*
X87047475Y-66300500D01*
X87187485Y-66262984D01*
X87313015Y-66190509D01*
X87415509Y-66088015D01*
X87487984Y-65962485D01*
X87525500Y-65822475D01*
X87525500Y-65677525D01*
X87487984Y-65537515D01*
X87415509Y-65411985D01*
X87313015Y-65309491D01*
X87313013Y-65309490D01*
X87313011Y-65309488D01*
X87187488Y-65237017D01*
X87187489Y-65237017D01*
X87176006Y-65233940D01*
X87047475Y-65199500D01*
X86902525Y-65199500D01*
X86773993Y-65233940D01*
X86762511Y-65237017D01*
X86636988Y-65309488D01*
X86636982Y-65309493D01*
X86534493Y-65411982D01*
X86534488Y-65411988D01*
X86462017Y-65537511D01*
X86462016Y-65537515D01*
X86424500Y-65677525D01*
X64008802Y-65677525D01*
X63977510Y-65646233D01*
X63786433Y-65507407D01*
X63575996Y-65400183D01*
X63351368Y-65327196D01*
X63118097Y-65290250D01*
X63118092Y-65290250D01*
X62881908Y-65290250D01*
X62881903Y-65290250D01*
X62648631Y-65327196D01*
X62424003Y-65400183D01*
X62213566Y-65507407D01*
X62104550Y-65586612D01*
X62022490Y-65646233D01*
X62022488Y-65646235D01*
X62022487Y-65646235D01*
X61855485Y-65813237D01*
X61855485Y-65813238D01*
X61855483Y-65813240D01*
X61777773Y-65920198D01*
X61724818Y-65993084D01*
X61669488Y-66035749D01*
X61599874Y-66041728D01*
X61538079Y-66009122D01*
X61503722Y-65948283D01*
X61500500Y-65920198D01*
X61500500Y-64227525D01*
X62424500Y-64227525D01*
X62424500Y-64372475D01*
X62462016Y-64512485D01*
X62462017Y-64512488D01*
X62534488Y-64638011D01*
X62534490Y-64638013D01*
X62534491Y-64638015D01*
X62636985Y-64740509D01*
X62636986Y-64740510D01*
X62636988Y-64740511D01*
X62762511Y-64812982D01*
X62762512Y-64812982D01*
X62762515Y-64812984D01*
X62902525Y-64850500D01*
X62902528Y-64850500D01*
X63047472Y-64850500D01*
X63047475Y-64850500D01*
X63187485Y-64812984D01*
X63313015Y-64740509D01*
X63415509Y-64638015D01*
X63487984Y-64512485D01*
X63525500Y-64372475D01*
X63525500Y-64227525D01*
X63512102Y-64177525D01*
X71349500Y-64177525D01*
X71349500Y-64322475D01*
X71362897Y-64372472D01*
X71387017Y-64462488D01*
X71459488Y-64588011D01*
X71459490Y-64588013D01*
X71459491Y-64588015D01*
X71561985Y-64690509D01*
X71561986Y-64690510D01*
X71561988Y-64690511D01*
X71687511Y-64762982D01*
X71687512Y-64762982D01*
X71687515Y-64762984D01*
X71827525Y-64800500D01*
X71827528Y-64800500D01*
X71972472Y-64800500D01*
X71972475Y-64800500D01*
X72112485Y-64762984D01*
X72238015Y-64690509D01*
X72340509Y-64588015D01*
X72412984Y-64462485D01*
X72450500Y-64322475D01*
X72450500Y-64177525D01*
X72412984Y-64037515D01*
X72369378Y-63961988D01*
X72340511Y-63911988D01*
X72340506Y-63911982D01*
X72238017Y-63809493D01*
X72238011Y-63809488D01*
X72112488Y-63737017D01*
X72112489Y-63737017D01*
X72101006Y-63733940D01*
X72077065Y-63727525D01*
X94774500Y-63727525D01*
X94774500Y-63872475D01*
X94812016Y-64012485D01*
X94812017Y-64012488D01*
X94884488Y-64138011D01*
X94884490Y-64138013D01*
X94884491Y-64138015D01*
X94986985Y-64240509D01*
X94986986Y-64240510D01*
X94986988Y-64240511D01*
X95112511Y-64312982D01*
X95112512Y-64312982D01*
X95112515Y-64312984D01*
X95252525Y-64350500D01*
X95252528Y-64350500D01*
X95397472Y-64350500D01*
X95397475Y-64350500D01*
X95537485Y-64312984D01*
X95663015Y-64240509D01*
X95765509Y-64138015D01*
X95837984Y-64012485D01*
X95875500Y-63872475D01*
X95875500Y-63727525D01*
X95837984Y-63587515D01*
X95765509Y-63461985D01*
X95663015Y-63359491D01*
X95663013Y-63359490D01*
X95663011Y-63359488D01*
X95537488Y-63287017D01*
X95537489Y-63287017D01*
X95526006Y-63283940D01*
X95397475Y-63249500D01*
X95252525Y-63249500D01*
X95123993Y-63283940D01*
X95112511Y-63287017D01*
X94986988Y-63359488D01*
X94986982Y-63359493D01*
X94884493Y-63461982D01*
X94884488Y-63461988D01*
X94812017Y-63587511D01*
X94812016Y-63587515D01*
X94774500Y-63727525D01*
X72077065Y-63727525D01*
X71972475Y-63699500D01*
X71827525Y-63699500D01*
X71698993Y-63733940D01*
X71687511Y-63737017D01*
X71561988Y-63809488D01*
X71561982Y-63809493D01*
X71459493Y-63911982D01*
X71459488Y-63911988D01*
X71387017Y-64037511D01*
X71387016Y-64037515D01*
X71349500Y-64177525D01*
X63512102Y-64177525D01*
X63487984Y-64087515D01*
X63459116Y-64037515D01*
X63415511Y-63961988D01*
X63415506Y-63961982D01*
X63313017Y-63859493D01*
X63313011Y-63859488D01*
X63187488Y-63787017D01*
X63187489Y-63787017D01*
X63176006Y-63783940D01*
X63047475Y-63749500D01*
X62902525Y-63749500D01*
X62773993Y-63783940D01*
X62762511Y-63787017D01*
X62636988Y-63859488D01*
X62636982Y-63859493D01*
X62534493Y-63961982D01*
X62534488Y-63961988D01*
X62462017Y-64087511D01*
X62462016Y-64087515D01*
X62424500Y-64227525D01*
X61500500Y-64227525D01*
X61500500Y-62177525D01*
X77749500Y-62177525D01*
X77749500Y-62322475D01*
X77787016Y-62462485D01*
X77787017Y-62462488D01*
X77859488Y-62588011D01*
X77859490Y-62588013D01*
X77859491Y-62588015D01*
X77961985Y-62690509D01*
X77961986Y-62690510D01*
X77961988Y-62690511D01*
X78087511Y-62762982D01*
X78087512Y-62762982D01*
X78087515Y-62762984D01*
X78227525Y-62800500D01*
X78227528Y-62800500D01*
X78372472Y-62800500D01*
X78372475Y-62800500D01*
X78512485Y-62762984D01*
X78638015Y-62690509D01*
X78740509Y-62588015D01*
X78812984Y-62462485D01*
X78850500Y-62322475D01*
X78850500Y-62301627D01*
X84801000Y-62301627D01*
X84801000Y-62488572D01*
X84837467Y-62671905D01*
X84837469Y-62671913D01*
X84909005Y-62844617D01*
X84909010Y-62844626D01*
X85012862Y-63000051D01*
X85012865Y-63000055D01*
X85145044Y-63132234D01*
X85145048Y-63132237D01*
X85300473Y-63236089D01*
X85300479Y-63236092D01*
X85300480Y-63236093D01*
X85473187Y-63307631D01*
X85656527Y-63344099D01*
X85656531Y-63344100D01*
X85656532Y-63344100D01*
X85843469Y-63344100D01*
X85843470Y-63344099D01*
X86026813Y-63307631D01*
X86199520Y-63236093D01*
X86354952Y-63132237D01*
X86487137Y-63000052D01*
X86590993Y-62844620D01*
X86662531Y-62671913D01*
X86699000Y-62488568D01*
X86699000Y-62301632D01*
X86662531Y-62118287D01*
X86590993Y-61945580D01*
X86590992Y-61945579D01*
X86590989Y-61945573D01*
X86487137Y-61790148D01*
X86487134Y-61790144D01*
X86354955Y-61657965D01*
X86354951Y-61657962D01*
X86199526Y-61554110D01*
X86199517Y-61554105D01*
X86026813Y-61482569D01*
X86026805Y-61482567D01*
X85843472Y-61446100D01*
X85843468Y-61446100D01*
X85656532Y-61446100D01*
X85656527Y-61446100D01*
X85473194Y-61482567D01*
X85473186Y-61482569D01*
X85300482Y-61554105D01*
X85300473Y-61554110D01*
X85145048Y-61657962D01*
X85145044Y-61657965D01*
X85012865Y-61790144D01*
X85012862Y-61790148D01*
X84909010Y-61945573D01*
X84909005Y-61945582D01*
X84837469Y-62118286D01*
X84837467Y-62118294D01*
X84801000Y-62301627D01*
X78850500Y-62301627D01*
X78850500Y-62177525D01*
X78812984Y-62037515D01*
X78759906Y-61945582D01*
X78740511Y-61911988D01*
X78740506Y-61911982D01*
X78638017Y-61809493D01*
X78638011Y-61809488D01*
X78512488Y-61737017D01*
X78512489Y-61737017D01*
X78501006Y-61733940D01*
X78372475Y-61699500D01*
X78227525Y-61699500D01*
X78098993Y-61733940D01*
X78087511Y-61737017D01*
X77961988Y-61809488D01*
X77961982Y-61809493D01*
X77859493Y-61911982D01*
X77859488Y-61911988D01*
X77787017Y-62037511D01*
X77787016Y-62037515D01*
X77749500Y-62177525D01*
X61500500Y-62177525D01*
X61500500Y-59377525D01*
X77724500Y-59377525D01*
X77724500Y-59522475D01*
X77750173Y-59618286D01*
X77762017Y-59662488D01*
X77834488Y-59788011D01*
X77834490Y-59788013D01*
X77834491Y-59788015D01*
X77936985Y-59890509D01*
X77936986Y-59890510D01*
X77936988Y-59890511D01*
X78062511Y-59962982D01*
X78062512Y-59962982D01*
X78062515Y-59962984D01*
X78202525Y-60000500D01*
X78202528Y-60000500D01*
X78347472Y-60000500D01*
X78347475Y-60000500D01*
X78487485Y-59962984D01*
X78613015Y-59890509D01*
X78701897Y-59801627D01*
X84801000Y-59801627D01*
X84801000Y-59988572D01*
X84837467Y-60171905D01*
X84837469Y-60171913D01*
X84909005Y-60344617D01*
X84909010Y-60344626D01*
X85012859Y-60500047D01*
X85012865Y-60500055D01*
X85145044Y-60632234D01*
X85145048Y-60632237D01*
X85300473Y-60736089D01*
X85300479Y-60736092D01*
X85300480Y-60736093D01*
X85473187Y-60807631D01*
X85656527Y-60844099D01*
X85656531Y-60844100D01*
X85656532Y-60844100D01*
X85843469Y-60844100D01*
X85843470Y-60844099D01*
X86026813Y-60807631D01*
X86199520Y-60736093D01*
X86354952Y-60632237D01*
X86487137Y-60500052D01*
X86487138Y-60500050D01*
X86487141Y-60500047D01*
X86590989Y-60344626D01*
X86590989Y-60344625D01*
X86590993Y-60344620D01*
X86641732Y-60222125D01*
X87924500Y-60222125D01*
X87924500Y-60367075D01*
X87962016Y-60507085D01*
X87962017Y-60507088D01*
X88034488Y-60632611D01*
X88034490Y-60632613D01*
X88034491Y-60632615D01*
X88136985Y-60735109D01*
X88136986Y-60735110D01*
X88136988Y-60735111D01*
X88262511Y-60807582D01*
X88262512Y-60807582D01*
X88262515Y-60807584D01*
X88402525Y-60845100D01*
X88402528Y-60845100D01*
X88547472Y-60845100D01*
X88547475Y-60845100D01*
X88687485Y-60807584D01*
X88813015Y-60735109D01*
X88915509Y-60632615D01*
X88987984Y-60507085D01*
X89025500Y-60367075D01*
X89025500Y-60222125D01*
X89013549Y-60177525D01*
X106199500Y-60177525D01*
X106199500Y-60322475D01*
X106211450Y-60367072D01*
X106237017Y-60462488D01*
X106309488Y-60588011D01*
X106309490Y-60588013D01*
X106309491Y-60588015D01*
X106411985Y-60690509D01*
X106411986Y-60690510D01*
X106411988Y-60690511D01*
X106537511Y-60762982D01*
X106537512Y-60762982D01*
X106537515Y-60762984D01*
X106677525Y-60800500D01*
X106677528Y-60800500D01*
X106822472Y-60800500D01*
X106822475Y-60800500D01*
X106962485Y-60762984D01*
X107088015Y-60690509D01*
X107190509Y-60588015D01*
X107262984Y-60462485D01*
X107300500Y-60322475D01*
X107300500Y-60177525D01*
X107262984Y-60037515D01*
X107241613Y-60000500D01*
X107190511Y-59911988D01*
X107190506Y-59911982D01*
X107088017Y-59809493D01*
X107088011Y-59809488D01*
X106962488Y-59737017D01*
X106962489Y-59737017D01*
X106949509Y-59733539D01*
X106822475Y-59699500D01*
X106677525Y-59699500D01*
X106550491Y-59733539D01*
X106537511Y-59737017D01*
X106411988Y-59809488D01*
X106411982Y-59809493D01*
X106309493Y-59911982D01*
X106309488Y-59911988D01*
X106237017Y-60037511D01*
X106237016Y-60037515D01*
X106199500Y-60177525D01*
X89013549Y-60177525D01*
X88987984Y-60082115D01*
X88940863Y-60000500D01*
X88915511Y-59956588D01*
X88915506Y-59956582D01*
X88813017Y-59854093D01*
X88813011Y-59854088D01*
X88687488Y-59781617D01*
X88687489Y-59781617D01*
X88676006Y-59778540D01*
X88547475Y-59744100D01*
X88402525Y-59744100D01*
X88273993Y-59778540D01*
X88262511Y-59781617D01*
X88136988Y-59854088D01*
X88136982Y-59854093D01*
X88034493Y-59956582D01*
X88034488Y-59956588D01*
X87962017Y-60082111D01*
X87962016Y-60082115D01*
X87924500Y-60222125D01*
X86641732Y-60222125D01*
X86662531Y-60171913D01*
X86699000Y-59988568D01*
X86699000Y-59801632D01*
X86662531Y-59618287D01*
X86593870Y-59452525D01*
X107849500Y-59452525D01*
X107849500Y-59597475D01*
X107886891Y-59737017D01*
X107887017Y-59737488D01*
X107959488Y-59863011D01*
X107959490Y-59863013D01*
X107959491Y-59863015D01*
X108061985Y-59965509D01*
X108061986Y-59965510D01*
X108061988Y-59965511D01*
X108187511Y-60037982D01*
X108187512Y-60037982D01*
X108187515Y-60037984D01*
X108327525Y-60075500D01*
X108327528Y-60075500D01*
X108472472Y-60075500D01*
X108472475Y-60075500D01*
X108612485Y-60037984D01*
X108738015Y-59965509D01*
X108840509Y-59863015D01*
X108912984Y-59737485D01*
X108950500Y-59597475D01*
X108950500Y-59452525D01*
X108912984Y-59312515D01*
X108900070Y-59290148D01*
X108840511Y-59186988D01*
X108840506Y-59186982D01*
X108738017Y-59084493D01*
X108738011Y-59084488D01*
X108612488Y-59012017D01*
X108612489Y-59012017D01*
X108601006Y-59008940D01*
X108472475Y-58974500D01*
X108327525Y-58974500D01*
X108198993Y-59008940D01*
X108187511Y-59012017D01*
X108061988Y-59084488D01*
X108061982Y-59084493D01*
X107959493Y-59186982D01*
X107959488Y-59186988D01*
X107887017Y-59312511D01*
X107886214Y-59315508D01*
X107849500Y-59452525D01*
X86593870Y-59452525D01*
X86590993Y-59445580D01*
X86590992Y-59445579D01*
X86590989Y-59445573D01*
X86487137Y-59290148D01*
X86487134Y-59290144D01*
X86354955Y-59157965D01*
X86354951Y-59157962D01*
X86199526Y-59054110D01*
X86199517Y-59054105D01*
X86026813Y-58982569D01*
X86026805Y-58982567D01*
X85843472Y-58946100D01*
X85843468Y-58946100D01*
X85656532Y-58946100D01*
X85656527Y-58946100D01*
X85473194Y-58982567D01*
X85473186Y-58982569D01*
X85300482Y-59054105D01*
X85300473Y-59054110D01*
X85145048Y-59157962D01*
X85145044Y-59157965D01*
X85012865Y-59290144D01*
X85012862Y-59290148D01*
X84909010Y-59445573D01*
X84909005Y-59445582D01*
X84837469Y-59618286D01*
X84837467Y-59618294D01*
X84801000Y-59801627D01*
X78701897Y-59801627D01*
X78715509Y-59788015D01*
X78730316Y-59762367D01*
X78746962Y-59733539D01*
X78787982Y-59662488D01*
X78787981Y-59662488D01*
X78787984Y-59662485D01*
X78825500Y-59522475D01*
X78825500Y-59377525D01*
X78787984Y-59237515D01*
X78758810Y-59186985D01*
X78715511Y-59111988D01*
X78715506Y-59111982D01*
X78613017Y-59009493D01*
X78613011Y-59009488D01*
X78487488Y-58937017D01*
X78487489Y-58937017D01*
X78476006Y-58933940D01*
X78347475Y-58899500D01*
X78202525Y-58899500D01*
X78073993Y-58933940D01*
X78062511Y-58937017D01*
X77936988Y-59009488D01*
X77936982Y-59009493D01*
X77834493Y-59111982D01*
X77834488Y-59111988D01*
X77762017Y-59237511D01*
X77762016Y-59237515D01*
X77724500Y-59377525D01*
X61500500Y-59377525D01*
X61500500Y-58177525D01*
X73499500Y-58177525D01*
X73499500Y-58322475D01*
X73537016Y-58462485D01*
X73537017Y-58462488D01*
X73609488Y-58588011D01*
X73609490Y-58588013D01*
X73609491Y-58588015D01*
X73711985Y-58690509D01*
X73711986Y-58690510D01*
X73711988Y-58690511D01*
X73837511Y-58762982D01*
X73837512Y-58762982D01*
X73837515Y-58762984D01*
X73977525Y-58800500D01*
X73977528Y-58800500D01*
X74122472Y-58800500D01*
X74122475Y-58800500D01*
X74262485Y-58762984D01*
X74388015Y-58690509D01*
X74490509Y-58588015D01*
X74562984Y-58462485D01*
X74585749Y-58377525D01*
X82849500Y-58377525D01*
X82849500Y-58522475D01*
X82887016Y-58662485D01*
X82887017Y-58662488D01*
X82959488Y-58788011D01*
X82959490Y-58788013D01*
X82959491Y-58788015D01*
X83061985Y-58890509D01*
X83061986Y-58890510D01*
X83061988Y-58890511D01*
X83187511Y-58962982D01*
X83187512Y-58962982D01*
X83187515Y-58962984D01*
X83327525Y-59000500D01*
X83327528Y-59000500D01*
X83472472Y-59000500D01*
X83472475Y-59000500D01*
X83612485Y-58962984D01*
X83738015Y-58890509D01*
X83840509Y-58788015D01*
X83912984Y-58662485D01*
X83950500Y-58522475D01*
X83950500Y-58377525D01*
X91724500Y-58377525D01*
X91724500Y-58522475D01*
X91762016Y-58662485D01*
X91762017Y-58662488D01*
X91834488Y-58788011D01*
X91834490Y-58788013D01*
X91834491Y-58788015D01*
X91936985Y-58890509D01*
X91936986Y-58890510D01*
X91936988Y-58890511D01*
X92062511Y-58962982D01*
X92062512Y-58962982D01*
X92062515Y-58962984D01*
X92202525Y-59000500D01*
X92202528Y-59000500D01*
X92347472Y-59000500D01*
X92347475Y-59000500D01*
X92487485Y-58962984D01*
X92613015Y-58890509D01*
X92700999Y-58802525D01*
X93049500Y-58802525D01*
X93049500Y-58947475D01*
X93078073Y-59054110D01*
X93087017Y-59087488D01*
X93159488Y-59213011D01*
X93159490Y-59213013D01*
X93159491Y-59213015D01*
X93261985Y-59315509D01*
X93261986Y-59315510D01*
X93261988Y-59315511D01*
X93387511Y-59387982D01*
X93387512Y-59387982D01*
X93387515Y-59387984D01*
X93527525Y-59425500D01*
X93527528Y-59425500D01*
X93672472Y-59425500D01*
X93672475Y-59425500D01*
X93812485Y-59387984D01*
X93938015Y-59315509D01*
X94040509Y-59213015D01*
X94112984Y-59087485D01*
X94150500Y-58947475D01*
X94150500Y-58802525D01*
X94112984Y-58662515D01*
X94112968Y-58662488D01*
X94040511Y-58536988D01*
X94040506Y-58536982D01*
X93938017Y-58434493D01*
X93938011Y-58434488D01*
X93812488Y-58362017D01*
X93812489Y-58362017D01*
X93801006Y-58358940D01*
X93672475Y-58324500D01*
X93527525Y-58324500D01*
X93398993Y-58358940D01*
X93387511Y-58362017D01*
X93261988Y-58434488D01*
X93261982Y-58434493D01*
X93159493Y-58536982D01*
X93159488Y-58536988D01*
X93087017Y-58662511D01*
X93087016Y-58662515D01*
X93049500Y-58802525D01*
X92700999Y-58802525D01*
X92715509Y-58788015D01*
X92787984Y-58662485D01*
X92825500Y-58522475D01*
X92825500Y-58377525D01*
X92787984Y-58237515D01*
X92730518Y-58137982D01*
X92715511Y-58111988D01*
X92715506Y-58111982D01*
X92613017Y-58009493D01*
X92613011Y-58009488D01*
X92487488Y-57937017D01*
X92487489Y-57937017D01*
X92476006Y-57933940D01*
X92347475Y-57899500D01*
X92202525Y-57899500D01*
X92073993Y-57933940D01*
X92062511Y-57937017D01*
X91936988Y-58009488D01*
X91936982Y-58009493D01*
X91834493Y-58111982D01*
X91834488Y-58111988D01*
X91762017Y-58237511D01*
X91762016Y-58237515D01*
X91724500Y-58377525D01*
X83950500Y-58377525D01*
X83912984Y-58237515D01*
X83855518Y-58137982D01*
X83840511Y-58111988D01*
X83840506Y-58111982D01*
X83738017Y-58009493D01*
X83738011Y-58009488D01*
X83612488Y-57937017D01*
X83612489Y-57937017D01*
X83601006Y-57933940D01*
X83472475Y-57899500D01*
X83327525Y-57899500D01*
X83198993Y-57933940D01*
X83187511Y-57937017D01*
X83061988Y-58009488D01*
X83061982Y-58009493D01*
X82959493Y-58111982D01*
X82959488Y-58111988D01*
X82887017Y-58237511D01*
X82887016Y-58237515D01*
X82849500Y-58377525D01*
X74585749Y-58377525D01*
X74600500Y-58322475D01*
X74600500Y-58177525D01*
X74562984Y-58037515D01*
X74546805Y-58009493D01*
X74490511Y-57911988D01*
X74490506Y-57911982D01*
X74388017Y-57809493D01*
X74388011Y-57809488D01*
X74262488Y-57737017D01*
X74262489Y-57737017D01*
X74251006Y-57733940D01*
X74122475Y-57699500D01*
X73977525Y-57699500D01*
X73848993Y-57733940D01*
X73837511Y-57737017D01*
X73711988Y-57809488D01*
X73711982Y-57809493D01*
X73609493Y-57911982D01*
X73609488Y-57911988D01*
X73537017Y-58037511D01*
X73537016Y-58037515D01*
X73499500Y-58177525D01*
X61500500Y-58177525D01*
X61500500Y-57552525D01*
X78449500Y-57552525D01*
X78449500Y-57697475D01*
X78487016Y-57837485D01*
X78487017Y-57837488D01*
X78559488Y-57963011D01*
X78559490Y-57963013D01*
X78559491Y-57963015D01*
X78661985Y-58065509D01*
X78661986Y-58065510D01*
X78661988Y-58065511D01*
X78787511Y-58137982D01*
X78787512Y-58137982D01*
X78787515Y-58137984D01*
X78927525Y-58175500D01*
X78927528Y-58175500D01*
X79072472Y-58175500D01*
X79072475Y-58175500D01*
X79212485Y-58137984D01*
X79338015Y-58065509D01*
X79440509Y-57963015D01*
X79512984Y-57837485D01*
X79550500Y-57697475D01*
X79550500Y-57552525D01*
X79533563Y-57489316D01*
X79535225Y-57419468D01*
X79574386Y-57361605D01*
X79638615Y-57334100D01*
X79707517Y-57345686D01*
X79729785Y-57361543D01*
X79730539Y-57360562D01*
X79736988Y-57365511D01*
X79862511Y-57437982D01*
X79862512Y-57437982D01*
X79862515Y-57437984D01*
X80002525Y-57475500D01*
X80002528Y-57475500D01*
X80147472Y-57475500D01*
X80147475Y-57475500D01*
X80287485Y-57437984D01*
X80413015Y-57365509D01*
X80476897Y-57301627D01*
X84801000Y-57301627D01*
X84801000Y-57488572D01*
X84837467Y-57671905D01*
X84837469Y-57671913D01*
X84909005Y-57844617D01*
X84909010Y-57844626D01*
X85012862Y-58000051D01*
X85012865Y-58000055D01*
X85145044Y-58132234D01*
X85145048Y-58132237D01*
X85300473Y-58236089D01*
X85300479Y-58236092D01*
X85300480Y-58236093D01*
X85473187Y-58307631D01*
X85622361Y-58337303D01*
X85656527Y-58344099D01*
X85656531Y-58344100D01*
X85656532Y-58344100D01*
X85843469Y-58344100D01*
X85843470Y-58344099D01*
X86026813Y-58307631D01*
X86199520Y-58236093D01*
X86354952Y-58132237D01*
X86487137Y-58000052D01*
X86590993Y-57844620D01*
X86662531Y-57671913D01*
X86699000Y-57488568D01*
X86699000Y-57301632D01*
X86662531Y-57118287D01*
X86590993Y-56945580D01*
X86590992Y-56945579D01*
X86590989Y-56945573D01*
X86487137Y-56790148D01*
X86487134Y-56790144D01*
X86354955Y-56657965D01*
X86354951Y-56657962D01*
X86199526Y-56554110D01*
X86199517Y-56554105D01*
X86026813Y-56482569D01*
X86026805Y-56482567D01*
X85843472Y-56446100D01*
X85843468Y-56446100D01*
X85656532Y-56446100D01*
X85656527Y-56446100D01*
X85473194Y-56482567D01*
X85473186Y-56482569D01*
X85300482Y-56554105D01*
X85300473Y-56554110D01*
X85145048Y-56657962D01*
X85145044Y-56657965D01*
X85012865Y-56790144D01*
X85012862Y-56790148D01*
X84909010Y-56945573D01*
X84909005Y-56945582D01*
X84837469Y-57118286D01*
X84837467Y-57118294D01*
X84801000Y-57301627D01*
X80476897Y-57301627D01*
X80515509Y-57263015D01*
X80529942Y-57238017D01*
X80532528Y-57233539D01*
X80587982Y-57137488D01*
X80587981Y-57137488D01*
X80587984Y-57137485D01*
X80625500Y-56997475D01*
X80625500Y-56852525D01*
X80587984Y-56712515D01*
X80573550Y-56687515D01*
X80515511Y-56586988D01*
X80515506Y-56586982D01*
X80413017Y-56484493D01*
X80413011Y-56484488D01*
X80287488Y-56412017D01*
X80287489Y-56412017D01*
X80276006Y-56408940D01*
X80147475Y-56374500D01*
X80002525Y-56374500D01*
X79873993Y-56408940D01*
X79862511Y-56412017D01*
X79736988Y-56484488D01*
X79736982Y-56484493D01*
X79634493Y-56586982D01*
X79634488Y-56586988D01*
X79562017Y-56712511D01*
X79560518Y-56718107D01*
X79524500Y-56852525D01*
X79524500Y-56997475D01*
X79541436Y-57060683D01*
X79539774Y-57130532D01*
X79500612Y-57188395D01*
X79436383Y-57215899D01*
X79367481Y-57204313D01*
X79345214Y-57188456D01*
X79344461Y-57189438D01*
X79338011Y-57184488D01*
X79212488Y-57112017D01*
X79212489Y-57112017D01*
X79201006Y-57108940D01*
X79072475Y-57074500D01*
X78927525Y-57074500D01*
X78798993Y-57108940D01*
X78787511Y-57112017D01*
X78661988Y-57184488D01*
X78661982Y-57184493D01*
X78559493Y-57286982D01*
X78559488Y-57286988D01*
X78487017Y-57412511D01*
X78487016Y-57412515D01*
X78449500Y-57552525D01*
X61500500Y-57552525D01*
X61500500Y-56151034D01*
X65674500Y-56151034D01*
X65674500Y-56310466D01*
X65715764Y-56464464D01*
X65795479Y-56602536D01*
X65908214Y-56715271D01*
X66046286Y-56794986D01*
X66200284Y-56836250D01*
X66200287Y-56836250D01*
X66359713Y-56836250D01*
X66359716Y-56836250D01*
X66392278Y-56827525D01*
X73699500Y-56827525D01*
X73699500Y-56972475D01*
X73736891Y-57112017D01*
X73737017Y-57112488D01*
X73809488Y-57238011D01*
X73809490Y-57238013D01*
X73809491Y-57238015D01*
X73911985Y-57340509D01*
X73911986Y-57340510D01*
X73911988Y-57340511D01*
X74037511Y-57412982D01*
X74037512Y-57412982D01*
X74037515Y-57412984D01*
X74177525Y-57450500D01*
X74177528Y-57450500D01*
X74322472Y-57450500D01*
X74322475Y-57450500D01*
X74462485Y-57412984D01*
X74588015Y-57340509D01*
X74690509Y-57238015D01*
X74762984Y-57112485D01*
X74800500Y-56972475D01*
X74800500Y-56827525D01*
X74762984Y-56687515D01*
X74745923Y-56657965D01*
X74690511Y-56561988D01*
X74690506Y-56561982D01*
X74588017Y-56459493D01*
X74588011Y-56459488D01*
X74462488Y-56387017D01*
X74462489Y-56387017D01*
X74451006Y-56383940D01*
X74322475Y-56349500D01*
X74177525Y-56349500D01*
X74048993Y-56383940D01*
X74037511Y-56387017D01*
X73911988Y-56459488D01*
X73911982Y-56459493D01*
X73809493Y-56561982D01*
X73809488Y-56561988D01*
X73737017Y-56687511D01*
X73736214Y-56690509D01*
X73699500Y-56827525D01*
X66392278Y-56827525D01*
X66513714Y-56794986D01*
X66651786Y-56715271D01*
X66764521Y-56602536D01*
X66844236Y-56464464D01*
X66885500Y-56310466D01*
X66885500Y-56177525D01*
X70474500Y-56177525D01*
X70474500Y-56322475D01*
X70505460Y-56438017D01*
X70512017Y-56462488D01*
X70584488Y-56588011D01*
X70584490Y-56588013D01*
X70584491Y-56588015D01*
X70686985Y-56690509D01*
X70686986Y-56690510D01*
X70686988Y-56690511D01*
X70812511Y-56762982D01*
X70812512Y-56762982D01*
X70812515Y-56762984D01*
X70952525Y-56800500D01*
X70952528Y-56800500D01*
X71097472Y-56800500D01*
X71097475Y-56800500D01*
X71237485Y-56762984D01*
X71363015Y-56690509D01*
X71465509Y-56588015D01*
X71467407Y-56584727D01*
X71478512Y-56574995D01*
X71499544Y-56565246D01*
X71518262Y-56551572D01*
X71530646Y-56550831D01*
X71541904Y-56545613D01*
X71564869Y-56548783D01*
X71588007Y-56547399D01*
X71605945Y-56554454D01*
X71611117Y-56555168D01*
X71613965Y-56557608D01*
X71622234Y-56560860D01*
X71712515Y-56612984D01*
X71852525Y-56650500D01*
X71852528Y-56650500D01*
X71997472Y-56650500D01*
X71997475Y-56650500D01*
X72137485Y-56612984D01*
X72263015Y-56540509D01*
X72365509Y-56438015D01*
X72437984Y-56312485D01*
X72475500Y-56172475D01*
X72475500Y-56027525D01*
X72437984Y-55887515D01*
X72412918Y-55844100D01*
X72365511Y-55761988D01*
X72365506Y-55761982D01*
X72263017Y-55659493D01*
X72263011Y-55659488D01*
X72137488Y-55587017D01*
X72137489Y-55587017D01*
X72126006Y-55583940D01*
X71997475Y-55549500D01*
X71852525Y-55549500D01*
X71723993Y-55583940D01*
X71712511Y-55587017D01*
X71586988Y-55659488D01*
X71586982Y-55659493D01*
X71478744Y-55767732D01*
X71476646Y-55765634D01*
X71431660Y-55798455D01*
X71361913Y-55802582D01*
X71327761Y-55789137D01*
X71237485Y-55737016D01*
X71097475Y-55699500D01*
X70952525Y-55699500D01*
X70823993Y-55733940D01*
X70812511Y-55737017D01*
X70686988Y-55809488D01*
X70686982Y-55809493D01*
X70584493Y-55911982D01*
X70584488Y-55911988D01*
X70512017Y-56037511D01*
X70512016Y-56037515D01*
X70474500Y-56177525D01*
X66885500Y-56177525D01*
X66885500Y-56151034D01*
X66844236Y-55997036D01*
X66764521Y-55858964D01*
X66651786Y-55746229D01*
X66513714Y-55666514D01*
X66513715Y-55666514D01*
X66475214Y-55656198D01*
X66359716Y-55625250D01*
X66200284Y-55625250D01*
X66084785Y-55656198D01*
X66046285Y-55666514D01*
X65908215Y-55746228D01*
X65908212Y-55746230D01*
X65795480Y-55858962D01*
X65795478Y-55858965D01*
X65715764Y-55997035D01*
X65715764Y-55997036D01*
X65674500Y-56151034D01*
X61500500Y-56151034D01*
X61500500Y-54952525D01*
X68049500Y-54952525D01*
X68049500Y-55097475D01*
X68080460Y-55213017D01*
X68087017Y-55237488D01*
X68159488Y-55363011D01*
X68159490Y-55363013D01*
X68159491Y-55363015D01*
X68261985Y-55465509D01*
X68261986Y-55465510D01*
X68261988Y-55465511D01*
X68387511Y-55537982D01*
X68387512Y-55537982D01*
X68387515Y-55537984D01*
X68527525Y-55575500D01*
X68527528Y-55575500D01*
X68672472Y-55575500D01*
X68672475Y-55575500D01*
X68812485Y-55537984D01*
X68938015Y-55465509D01*
X69040509Y-55363015D01*
X69112984Y-55237485D01*
X69150500Y-55097475D01*
X69150500Y-54952525D01*
X69112984Y-54812515D01*
X69107217Y-54802527D01*
X69107216Y-54802525D01*
X69799500Y-54802525D01*
X69799500Y-54947475D01*
X69837016Y-55087485D01*
X69837017Y-55087488D01*
X69909488Y-55213011D01*
X69909490Y-55213013D01*
X69909491Y-55213015D01*
X70011985Y-55315509D01*
X70011986Y-55315510D01*
X70011988Y-55315511D01*
X70137511Y-55387982D01*
X70137512Y-55387982D01*
X70137515Y-55387984D01*
X70277525Y-55425500D01*
X70277528Y-55425500D01*
X70422472Y-55425500D01*
X70422475Y-55425500D01*
X70562485Y-55387984D01*
X70688015Y-55315509D01*
X70790509Y-55213015D01*
X70862984Y-55087485D01*
X70900500Y-54947475D01*
X70900500Y-54802525D01*
X70862984Y-54662515D01*
X70837448Y-54618286D01*
X70790511Y-54536988D01*
X70790506Y-54536982D01*
X70688017Y-54434493D01*
X70688015Y-54434491D01*
X70562485Y-54362016D01*
X70422475Y-54324500D01*
X70277525Y-54324500D01*
X70148993Y-54358940D01*
X70137511Y-54362017D01*
X70011988Y-54434488D01*
X70011982Y-54434493D01*
X69909493Y-54536982D01*
X69909488Y-54536988D01*
X69837017Y-54662511D01*
X69837016Y-54662515D01*
X69799500Y-54802525D01*
X69107216Y-54802525D01*
X69040511Y-54686988D01*
X69040506Y-54686982D01*
X68938017Y-54584493D01*
X68938011Y-54584488D01*
X68812488Y-54512017D01*
X68812489Y-54512017D01*
X68801006Y-54508940D01*
X68672475Y-54474500D01*
X68527525Y-54474500D01*
X68398993Y-54508940D01*
X68387511Y-54512017D01*
X68261988Y-54584488D01*
X68261982Y-54584493D01*
X68159493Y-54686982D01*
X68159488Y-54686988D01*
X68087017Y-54812511D01*
X68086214Y-54815509D01*
X68049500Y-54952525D01*
X61500500Y-54952525D01*
X61500500Y-54302525D01*
X79049500Y-54302525D01*
X79049500Y-54447475D01*
X79086213Y-54584488D01*
X79087017Y-54587488D01*
X79159488Y-54713011D01*
X79159490Y-54713013D01*
X79159491Y-54713015D01*
X79261985Y-54815509D01*
X79261986Y-54815510D01*
X79261988Y-54815511D01*
X79387511Y-54887982D01*
X79387512Y-54887982D01*
X79387515Y-54887984D01*
X79527525Y-54925500D01*
X79527528Y-54925500D01*
X79672472Y-54925500D01*
X79672475Y-54925500D01*
X79812485Y-54887984D01*
X79938015Y-54815509D01*
X79951897Y-54801627D01*
X84801000Y-54801627D01*
X84801000Y-54988572D01*
X84837467Y-55171905D01*
X84837469Y-55171913D01*
X84909005Y-55344617D01*
X84909010Y-55344626D01*
X85012862Y-55500051D01*
X85012865Y-55500055D01*
X85145044Y-55632234D01*
X85145048Y-55632237D01*
X85300473Y-55736089D01*
X85300482Y-55736094D01*
X85324948Y-55746228D01*
X85473187Y-55807631D01*
X85656527Y-55844099D01*
X85656531Y-55844100D01*
X85656532Y-55844100D01*
X85843469Y-55844100D01*
X85843470Y-55844099D01*
X86026813Y-55807631D01*
X86199520Y-55736093D01*
X86354952Y-55632237D01*
X86487137Y-55500052D01*
X86590993Y-55344620D01*
X86662531Y-55171913D01*
X86699000Y-54988568D01*
X86699000Y-54801632D01*
X86662531Y-54618287D01*
X86590993Y-54445580D01*
X86590992Y-54445579D01*
X86590989Y-54445573D01*
X86487137Y-54290148D01*
X86487134Y-54290144D01*
X86354955Y-54157965D01*
X86354951Y-54157962D01*
X86199526Y-54054110D01*
X86199517Y-54054105D01*
X86026813Y-53982569D01*
X86026805Y-53982567D01*
X85843472Y-53946100D01*
X85843468Y-53946100D01*
X85656532Y-53946100D01*
X85656527Y-53946100D01*
X85473194Y-53982567D01*
X85473186Y-53982569D01*
X85300482Y-54054105D01*
X85300473Y-54054110D01*
X85145048Y-54157962D01*
X85145044Y-54157965D01*
X85012865Y-54290144D01*
X85012862Y-54290148D01*
X84909010Y-54445573D01*
X84909005Y-54445582D01*
X84837469Y-54618286D01*
X84837467Y-54618294D01*
X84801000Y-54801627D01*
X79951897Y-54801627D01*
X80040509Y-54713015D01*
X80112984Y-54587485D01*
X80150500Y-54447475D01*
X80150500Y-54302525D01*
X80112984Y-54162515D01*
X80110355Y-54157962D01*
X80040511Y-54036988D01*
X80040506Y-54036982D01*
X79938017Y-53934493D01*
X79938011Y-53934488D01*
X79812488Y-53862017D01*
X79812489Y-53862017D01*
X79801006Y-53858940D01*
X79672475Y-53824500D01*
X79527525Y-53824500D01*
X79398993Y-53858940D01*
X79387511Y-53862017D01*
X79261988Y-53934488D01*
X79261982Y-53934493D01*
X79159493Y-54036982D01*
X79159488Y-54036988D01*
X79087017Y-54162511D01*
X79087016Y-54162515D01*
X79049500Y-54302525D01*
X61500500Y-54302525D01*
X61500500Y-52177525D01*
X69349500Y-52177525D01*
X69349500Y-52322475D01*
X69387016Y-52462485D01*
X69387017Y-52462488D01*
X69459488Y-52588011D01*
X69459490Y-52588013D01*
X69459491Y-52588015D01*
X69561985Y-52690509D01*
X69561986Y-52690510D01*
X69561988Y-52690511D01*
X69687511Y-52762982D01*
X69687512Y-52762982D01*
X69687515Y-52762984D01*
X69827525Y-52800500D01*
X69827528Y-52800500D01*
X69972472Y-52800500D01*
X69972475Y-52800500D01*
X70112485Y-52762984D01*
X70238015Y-52690509D01*
X70340509Y-52588015D01*
X70412984Y-52462485D01*
X70450500Y-52322475D01*
X70450500Y-52301627D01*
X84801000Y-52301627D01*
X84801000Y-52488572D01*
X84837467Y-52671905D01*
X84837469Y-52671913D01*
X84909005Y-52844617D01*
X84909010Y-52844626D01*
X85012862Y-53000051D01*
X85012865Y-53000055D01*
X85145044Y-53132234D01*
X85145048Y-53132237D01*
X85300473Y-53236089D01*
X85300479Y-53236092D01*
X85300480Y-53236093D01*
X85473187Y-53307631D01*
X85656527Y-53344099D01*
X85656531Y-53344100D01*
X85656532Y-53344100D01*
X85843469Y-53344100D01*
X85843470Y-53344099D01*
X86026813Y-53307631D01*
X86199520Y-53236093D01*
X86354952Y-53132237D01*
X86487137Y-53000052D01*
X86590993Y-52844620D01*
X86662531Y-52671913D01*
X86699000Y-52488568D01*
X86699000Y-52301632D01*
X86662531Y-52118287D01*
X86590993Y-51945580D01*
X86590992Y-51945579D01*
X86590989Y-51945573D01*
X86487137Y-51790148D01*
X86487134Y-51790144D01*
X86354955Y-51657965D01*
X86354951Y-51657962D01*
X86199526Y-51554110D01*
X86199517Y-51554105D01*
X86026813Y-51482569D01*
X86026805Y-51482567D01*
X85843472Y-51446100D01*
X85843468Y-51446100D01*
X85656532Y-51446100D01*
X85656527Y-51446100D01*
X85473194Y-51482567D01*
X85473186Y-51482569D01*
X85300482Y-51554105D01*
X85300473Y-51554110D01*
X85145048Y-51657962D01*
X85145044Y-51657965D01*
X85012865Y-51790144D01*
X85012862Y-51790148D01*
X84909010Y-51945573D01*
X84909005Y-51945582D01*
X84837469Y-52118286D01*
X84837467Y-52118294D01*
X84801000Y-52301627D01*
X70450500Y-52301627D01*
X70450500Y-52177525D01*
X70412984Y-52037515D01*
X70359906Y-51945582D01*
X70340511Y-51911988D01*
X70340506Y-51911982D01*
X70238017Y-51809493D01*
X70238011Y-51809488D01*
X70112488Y-51737017D01*
X70112489Y-51737017D01*
X70101006Y-51733940D01*
X69972475Y-51699500D01*
X69827525Y-51699500D01*
X69698993Y-51733940D01*
X69687511Y-51737017D01*
X69561988Y-51809488D01*
X69561982Y-51809493D01*
X69459493Y-51911982D01*
X69459488Y-51911988D01*
X69387017Y-52037511D01*
X69387016Y-52037515D01*
X69349500Y-52177525D01*
X61500500Y-52177525D01*
X61500500Y-50371034D01*
X65674500Y-50371034D01*
X65674500Y-50530466D01*
X65715764Y-50684464D01*
X65795479Y-50822536D01*
X65908214Y-50935271D01*
X66046286Y-51014986D01*
X66200284Y-51056250D01*
X66200287Y-51056250D01*
X66359713Y-51056250D01*
X66359716Y-51056250D01*
X66513714Y-51014986D01*
X66651786Y-50935271D01*
X66759532Y-50827525D01*
X67824500Y-50827525D01*
X67824500Y-50972475D01*
X67846948Y-51056250D01*
X67862017Y-51112488D01*
X67934488Y-51238011D01*
X67934490Y-51238013D01*
X67934491Y-51238015D01*
X68036985Y-51340509D01*
X68036986Y-51340510D01*
X68036988Y-51340511D01*
X68162511Y-51412982D01*
X68162512Y-51412982D01*
X68162515Y-51412984D01*
X68302525Y-51450500D01*
X68302528Y-51450500D01*
X68447472Y-51450500D01*
X68447475Y-51450500D01*
X68587485Y-51412984D01*
X68713015Y-51340509D01*
X68815509Y-51238015D01*
X68887984Y-51112485D01*
X68925500Y-50972475D01*
X68925500Y-50827525D01*
X68887984Y-50687515D01*
X68886222Y-50684464D01*
X68870020Y-50656400D01*
X68870019Y-50656399D01*
X68856067Y-50632234D01*
X68838915Y-50602525D01*
X69399500Y-50602525D01*
X69399500Y-50747475D01*
X69425391Y-50844099D01*
X69437017Y-50887488D01*
X69509488Y-51013011D01*
X69509490Y-51013013D01*
X69509491Y-51013015D01*
X69611985Y-51115509D01*
X69611986Y-51115510D01*
X69611988Y-51115511D01*
X69737511Y-51187982D01*
X69737512Y-51187982D01*
X69737515Y-51187984D01*
X69877525Y-51225500D01*
X69877528Y-51225500D01*
X70022472Y-51225500D01*
X70022475Y-51225500D01*
X70162485Y-51187984D01*
X70288015Y-51115509D01*
X70390509Y-51013015D01*
X70462984Y-50887485D01*
X70500500Y-50747475D01*
X70500500Y-50602525D01*
X70462984Y-50462515D01*
X70461239Y-50459493D01*
X70390511Y-50336988D01*
X70390506Y-50336982D01*
X70288017Y-50234493D01*
X70288011Y-50234488D01*
X70162488Y-50162017D01*
X70162489Y-50162017D01*
X70151006Y-50158940D01*
X70022475Y-50124500D01*
X69877525Y-50124500D01*
X69748993Y-50158940D01*
X69737511Y-50162017D01*
X69611988Y-50234488D01*
X69611982Y-50234493D01*
X69509493Y-50336982D01*
X69509488Y-50336988D01*
X69437017Y-50462511D01*
X69437016Y-50462515D01*
X69399500Y-50602525D01*
X68838915Y-50602525D01*
X68815509Y-50561985D01*
X68713015Y-50459491D01*
X68713013Y-50459490D01*
X68713011Y-50459488D01*
X68587488Y-50387017D01*
X68587489Y-50387017D01*
X68576006Y-50383940D01*
X68447475Y-50349500D01*
X68302525Y-50349500D01*
X68173993Y-50383940D01*
X68162511Y-50387017D01*
X68036988Y-50459488D01*
X68036982Y-50459493D01*
X67934493Y-50561982D01*
X67934488Y-50561988D01*
X67862017Y-50687511D01*
X67862016Y-50687515D01*
X67824500Y-50827525D01*
X66759532Y-50827525D01*
X66764521Y-50822536D01*
X66844236Y-50684464D01*
X66885500Y-50530466D01*
X66885500Y-50371034D01*
X66844236Y-50217036D01*
X66764521Y-50078964D01*
X66651786Y-49966229D01*
X66513714Y-49886514D01*
X66513715Y-49886514D01*
X66475214Y-49876198D01*
X66359716Y-49845250D01*
X66200284Y-49845250D01*
X66084785Y-49876198D01*
X66046285Y-49886514D01*
X65908215Y-49966228D01*
X65908212Y-49966230D01*
X65795480Y-50078962D01*
X65795478Y-50078965D01*
X65715764Y-50217035D01*
X65715764Y-50217036D01*
X65674500Y-50371034D01*
X61500500Y-50371034D01*
X61500500Y-49452525D01*
X72599500Y-49452525D01*
X72599500Y-49597475D01*
X72635959Y-49733539D01*
X72637017Y-49737488D01*
X72709488Y-49863011D01*
X72709490Y-49863013D01*
X72709491Y-49863015D01*
X72811985Y-49965509D01*
X72811986Y-49965510D01*
X72811988Y-49965511D01*
X72937511Y-50037982D01*
X72937512Y-50037982D01*
X72937515Y-50037984D01*
X73077525Y-50075500D01*
X73077528Y-50075500D01*
X73222472Y-50075500D01*
X73222475Y-50075500D01*
X73362485Y-50037984D01*
X73488015Y-49965509D01*
X73590509Y-49863015D01*
X73662984Y-49737485D01*
X73700500Y-49597475D01*
X73700500Y-49452525D01*
X73680404Y-49377525D01*
X75249500Y-49377525D01*
X75249500Y-49522475D01*
X75275173Y-49618286D01*
X75287017Y-49662488D01*
X75359488Y-49788011D01*
X75359490Y-49788013D01*
X75359491Y-49788015D01*
X75461985Y-49890509D01*
X75461986Y-49890510D01*
X75461988Y-49890511D01*
X75587511Y-49962982D01*
X75587512Y-49962982D01*
X75587515Y-49962984D01*
X75727525Y-50000500D01*
X75727528Y-50000500D01*
X75872472Y-50000500D01*
X75872475Y-50000500D01*
X76012485Y-49962984D01*
X76138015Y-49890509D01*
X76226897Y-49801627D01*
X84801000Y-49801627D01*
X84801000Y-49988572D01*
X84837467Y-50171905D01*
X84837469Y-50171913D01*
X84909005Y-50344617D01*
X84909010Y-50344626D01*
X85012862Y-50500051D01*
X85012865Y-50500055D01*
X85145044Y-50632234D01*
X85145048Y-50632237D01*
X85300473Y-50736089D01*
X85300479Y-50736092D01*
X85300480Y-50736093D01*
X85473187Y-50807631D01*
X85573203Y-50827525D01*
X85656527Y-50844099D01*
X85656531Y-50844100D01*
X85656532Y-50844100D01*
X85843469Y-50844100D01*
X85843470Y-50844099D01*
X86026813Y-50807631D01*
X86199520Y-50736093D01*
X86354952Y-50632237D01*
X86487137Y-50500052D01*
X86590993Y-50344620D01*
X86662531Y-50171913D01*
X86699000Y-49988568D01*
X86699000Y-49801632D01*
X86662531Y-49618287D01*
X86590993Y-49445580D01*
X86590992Y-49445579D01*
X86590989Y-49445573D01*
X86487137Y-49290148D01*
X86487134Y-49290144D01*
X86354955Y-49157965D01*
X86354951Y-49157962D01*
X86199526Y-49054110D01*
X86199517Y-49054105D01*
X86026813Y-48982569D01*
X86026805Y-48982567D01*
X85843472Y-48946100D01*
X85843468Y-48946100D01*
X85656532Y-48946100D01*
X85656527Y-48946100D01*
X85473194Y-48982567D01*
X85473186Y-48982569D01*
X85300482Y-49054105D01*
X85300473Y-49054110D01*
X85145048Y-49157962D01*
X85145044Y-49157965D01*
X85012865Y-49290144D01*
X85012862Y-49290148D01*
X84909010Y-49445573D01*
X84909005Y-49445582D01*
X84837469Y-49618286D01*
X84837467Y-49618294D01*
X84801000Y-49801627D01*
X76226897Y-49801627D01*
X76240509Y-49788015D01*
X76255316Y-49762367D01*
X76271962Y-49733539D01*
X76312982Y-49662488D01*
X76312981Y-49662488D01*
X76312984Y-49662485D01*
X76350500Y-49522475D01*
X76350500Y-49377525D01*
X76312984Y-49237515D01*
X76283810Y-49186985D01*
X76240511Y-49111988D01*
X76240506Y-49111982D01*
X76138017Y-49009493D01*
X76138011Y-49009488D01*
X76012488Y-48937017D01*
X76012489Y-48937017D01*
X76001006Y-48933940D01*
X75872475Y-48899500D01*
X75727525Y-48899500D01*
X75598993Y-48933940D01*
X75587511Y-48937017D01*
X75461988Y-49009488D01*
X75461982Y-49009493D01*
X75359493Y-49111982D01*
X75359488Y-49111988D01*
X75287017Y-49237511D01*
X75287016Y-49237515D01*
X75249500Y-49377525D01*
X73680404Y-49377525D01*
X73662984Y-49312515D01*
X73650070Y-49290148D01*
X73590511Y-49186988D01*
X73590506Y-49186982D01*
X73488017Y-49084493D01*
X73488011Y-49084488D01*
X73362488Y-49012017D01*
X73362489Y-49012017D01*
X73351006Y-49008940D01*
X73222475Y-48974500D01*
X73077525Y-48974500D01*
X72948993Y-49008940D01*
X72937511Y-49012017D01*
X72811988Y-49084488D01*
X72811982Y-49084493D01*
X72709493Y-49186982D01*
X72709488Y-49186988D01*
X72637017Y-49312511D01*
X72637016Y-49312515D01*
X72599500Y-49452525D01*
X61500500Y-49452525D01*
X61500500Y-47301627D01*
X84801000Y-47301627D01*
X84801000Y-47488572D01*
X84837467Y-47671905D01*
X84837469Y-47671913D01*
X84909005Y-47844617D01*
X84909010Y-47844626D01*
X85012862Y-48000051D01*
X85012865Y-48000055D01*
X85145044Y-48132234D01*
X85145048Y-48132237D01*
X85300473Y-48236089D01*
X85300479Y-48236092D01*
X85300480Y-48236093D01*
X85473187Y-48307631D01*
X85656527Y-48344099D01*
X85656531Y-48344100D01*
X85656532Y-48344100D01*
X85843469Y-48344100D01*
X85843470Y-48344099D01*
X86026813Y-48307631D01*
X86199520Y-48236093D01*
X86354952Y-48132237D01*
X86487137Y-48000052D01*
X86590993Y-47844620D01*
X86662531Y-47671913D01*
X86699000Y-47488568D01*
X86699000Y-47301632D01*
X86662531Y-47118287D01*
X86590993Y-46945580D01*
X86590992Y-46945579D01*
X86590989Y-46945573D01*
X86487137Y-46790148D01*
X86487134Y-46790144D01*
X86354955Y-46657965D01*
X86354951Y-46657962D01*
X86199526Y-46554110D01*
X86199517Y-46554105D01*
X86026813Y-46482569D01*
X86026805Y-46482567D01*
X85843472Y-46446100D01*
X85843468Y-46446100D01*
X85656532Y-46446100D01*
X85656527Y-46446100D01*
X85473194Y-46482567D01*
X85473186Y-46482569D01*
X85300482Y-46554105D01*
X85300473Y-46554110D01*
X85145048Y-46657962D01*
X85145044Y-46657965D01*
X85012865Y-46790144D01*
X85012862Y-46790148D01*
X84909010Y-46945573D01*
X84909005Y-46945582D01*
X84837469Y-47118286D01*
X84837467Y-47118294D01*
X84801000Y-47301627D01*
X61500500Y-47301627D01*
X61500500Y-45927525D01*
X67449500Y-45927525D01*
X67449500Y-46072475D01*
X67487016Y-46212485D01*
X67487017Y-46212488D01*
X67559488Y-46338011D01*
X67559490Y-46338013D01*
X67559491Y-46338015D01*
X67661985Y-46440509D01*
X67661986Y-46440510D01*
X67661988Y-46440511D01*
X67787511Y-46512982D01*
X67787512Y-46512982D01*
X67787515Y-46512984D01*
X67927525Y-46550500D01*
X67927528Y-46550500D01*
X68072472Y-46550500D01*
X68072475Y-46550500D01*
X68212485Y-46512984D01*
X68338015Y-46440509D01*
X68440509Y-46338015D01*
X68512984Y-46212485D01*
X68550500Y-46072475D01*
X68550500Y-45927525D01*
X68512984Y-45787515D01*
X68483295Y-45736093D01*
X68440511Y-45661988D01*
X68440506Y-45661982D01*
X68338017Y-45559493D01*
X68338011Y-45559488D01*
X68212488Y-45487017D01*
X68212489Y-45487017D01*
X68201006Y-45483940D01*
X68072475Y-45449500D01*
X67927525Y-45449500D01*
X67798993Y-45483940D01*
X67787511Y-45487017D01*
X67661988Y-45559488D01*
X67661982Y-45559493D01*
X67559493Y-45661982D01*
X67559488Y-45661988D01*
X67487017Y-45787511D01*
X67487016Y-45787515D01*
X67449500Y-45927525D01*
X61500500Y-45927525D01*
X61500500Y-44801627D01*
X84801000Y-44801627D01*
X84801000Y-44988572D01*
X84837467Y-45171905D01*
X84837469Y-45171913D01*
X84909005Y-45344617D01*
X84909010Y-45344626D01*
X85012862Y-45500051D01*
X85012865Y-45500055D01*
X85145044Y-45632234D01*
X85145048Y-45632237D01*
X85300473Y-45736089D01*
X85300479Y-45736092D01*
X85300480Y-45736093D01*
X85473187Y-45807631D01*
X85656527Y-45844099D01*
X85656531Y-45844100D01*
X85656532Y-45844100D01*
X85843469Y-45844100D01*
X85843470Y-45844099D01*
X86026813Y-45807631D01*
X86199520Y-45736093D01*
X86354952Y-45632237D01*
X86487137Y-45500052D01*
X86590993Y-45344620D01*
X86662531Y-45171913D01*
X86699000Y-44988568D01*
X86699000Y-44801632D01*
X86679287Y-44702525D01*
X87924500Y-44702525D01*
X87924500Y-44847475D01*
X87962016Y-44987485D01*
X87962017Y-44987488D01*
X88034488Y-45113011D01*
X88034490Y-45113013D01*
X88034491Y-45113015D01*
X88136985Y-45215509D01*
X88136986Y-45215510D01*
X88136988Y-45215511D01*
X88262511Y-45287982D01*
X88262512Y-45287982D01*
X88262515Y-45287984D01*
X88402525Y-45325500D01*
X88402528Y-45325500D01*
X88547472Y-45325500D01*
X88547475Y-45325500D01*
X88687485Y-45287984D01*
X88813015Y-45215509D01*
X88915509Y-45113015D01*
X88987984Y-44987485D01*
X89025500Y-44847475D01*
X89025500Y-44702525D01*
X88987984Y-44562515D01*
X88920472Y-44445582D01*
X88915511Y-44436988D01*
X88915506Y-44436982D01*
X88813017Y-44334493D01*
X88813011Y-44334488D01*
X88687488Y-44262017D01*
X88687489Y-44262017D01*
X88676006Y-44258940D01*
X88547475Y-44224500D01*
X88402525Y-44224500D01*
X88273993Y-44258940D01*
X88262511Y-44262017D01*
X88136988Y-44334488D01*
X88136982Y-44334493D01*
X88034493Y-44436982D01*
X88034488Y-44436988D01*
X87962017Y-44562511D01*
X87962016Y-44562515D01*
X87924500Y-44702525D01*
X86679287Y-44702525D01*
X86662531Y-44618287D01*
X86590993Y-44445580D01*
X86590992Y-44445579D01*
X86590989Y-44445573D01*
X86487137Y-44290148D01*
X86487134Y-44290144D01*
X86354955Y-44157965D01*
X86354951Y-44157962D01*
X86199526Y-44054110D01*
X86199517Y-44054105D01*
X86026813Y-43982569D01*
X86026805Y-43982567D01*
X85843472Y-43946100D01*
X85843468Y-43946100D01*
X85656532Y-43946100D01*
X85656527Y-43946100D01*
X85473194Y-43982567D01*
X85473186Y-43982569D01*
X85300482Y-44054105D01*
X85300473Y-44054110D01*
X85145048Y-44157962D01*
X85145044Y-44157965D01*
X85012865Y-44290144D01*
X85012862Y-44290148D01*
X84909010Y-44445573D01*
X84909005Y-44445582D01*
X84837469Y-44618286D01*
X84837467Y-44618294D01*
X84801000Y-44801627D01*
X61500500Y-44801627D01*
X61500500Y-42752525D01*
X96024500Y-42752525D01*
X96024500Y-42897475D01*
X96055451Y-43012984D01*
X96062017Y-43037488D01*
X96134488Y-43163011D01*
X96134490Y-43163013D01*
X96134491Y-43163015D01*
X96236985Y-43265509D01*
X96236986Y-43265510D01*
X96236988Y-43265511D01*
X96362511Y-43337982D01*
X96362512Y-43337982D01*
X96362515Y-43337984D01*
X96502525Y-43375500D01*
X96502528Y-43375500D01*
X96647472Y-43375500D01*
X96647475Y-43375500D01*
X96787485Y-43337984D01*
X96913015Y-43265509D01*
X97015509Y-43163015D01*
X97087984Y-43037485D01*
X97125500Y-42897475D01*
X97125500Y-42752525D01*
X97087984Y-42612515D01*
X97015509Y-42486985D01*
X96956049Y-42427525D01*
X99699500Y-42427525D01*
X99699500Y-42572475D01*
X99710229Y-42612515D01*
X99737017Y-42712488D01*
X99809488Y-42838011D01*
X99809490Y-42838013D01*
X99809491Y-42838015D01*
X99911985Y-42940509D01*
X99911986Y-42940510D01*
X99911988Y-42940511D01*
X100037511Y-43012982D01*
X100037512Y-43012982D01*
X100037515Y-43012984D01*
X100177525Y-43050500D01*
X100177528Y-43050500D01*
X100322472Y-43050500D01*
X100322475Y-43050500D01*
X100462485Y-43012984D01*
X100588015Y-42940509D01*
X100690509Y-42838015D01*
X100762984Y-42712485D01*
X100800500Y-42572475D01*
X100800500Y-42427525D01*
X100762984Y-42287515D01*
X100741613Y-42250500D01*
X100690511Y-42161988D01*
X100690506Y-42161982D01*
X100588017Y-42059493D01*
X100588011Y-42059488D01*
X100462488Y-41987017D01*
X100462489Y-41987017D01*
X100451006Y-41983940D01*
X100322475Y-41949500D01*
X100177525Y-41949500D01*
X100048993Y-41983940D01*
X100037511Y-41987017D01*
X99911988Y-42059488D01*
X99911982Y-42059493D01*
X99809493Y-42161982D01*
X99809488Y-42161988D01*
X99737017Y-42287511D01*
X99737016Y-42287515D01*
X99699500Y-42427525D01*
X96956049Y-42427525D01*
X96913015Y-42384491D01*
X96913013Y-42384490D01*
X96913011Y-42384488D01*
X96787488Y-42312017D01*
X96787489Y-42312017D01*
X96776006Y-42308940D01*
X96647475Y-42274500D01*
X96502525Y-42274500D01*
X96373993Y-42308940D01*
X96362511Y-42312017D01*
X96236988Y-42384488D01*
X96236982Y-42384493D01*
X96134493Y-42486982D01*
X96134488Y-42486988D01*
X96062017Y-42612511D01*
X96062016Y-42612515D01*
X96024500Y-42752525D01*
X61500500Y-42752525D01*
X61500500Y-41261301D01*
X61520185Y-41194262D01*
X61572989Y-41148507D01*
X61642147Y-41138563D01*
X61705703Y-41167588D01*
X61724815Y-41188412D01*
X61855483Y-41368260D01*
X62022490Y-41535267D01*
X62213567Y-41674093D01*
X62312991Y-41724752D01*
X62424003Y-41781316D01*
X62424005Y-41781316D01*
X62424008Y-41781318D01*
X62544412Y-41820439D01*
X62648631Y-41854303D01*
X62881903Y-41891250D01*
X62881908Y-41891250D01*
X63118097Y-41891250D01*
X63351368Y-41854303D01*
X63575992Y-41781318D01*
X63786433Y-41674093D01*
X63977510Y-41535267D01*
X64056284Y-41456493D01*
X71761647Y-41456493D01*
X71761647Y-41601443D01*
X71781114Y-41674093D01*
X71799164Y-41741456D01*
X71871635Y-41866979D01*
X71871637Y-41866981D01*
X71871638Y-41866983D01*
X71974132Y-41969477D01*
X71974133Y-41969478D01*
X71974135Y-41969479D01*
X72099658Y-42041950D01*
X72099659Y-42041950D01*
X72099662Y-42041952D01*
X72239672Y-42079468D01*
X72239675Y-42079468D01*
X72384619Y-42079468D01*
X72384622Y-42079468D01*
X72524632Y-42041952D01*
X72650162Y-41969477D01*
X72752656Y-41866983D01*
X72825131Y-41741453D01*
X72862647Y-41601443D01*
X72862647Y-41456493D01*
X72825131Y-41316483D01*
X72754566Y-41194262D01*
X72752658Y-41190956D01*
X72752653Y-41190950D01*
X72650164Y-41088461D01*
X72650158Y-41088456D01*
X72524635Y-41015985D01*
X72524636Y-41015985D01*
X72513153Y-41012908D01*
X72384622Y-40978468D01*
X72239672Y-40978468D01*
X72111140Y-41012908D01*
X72099658Y-41015985D01*
X71974135Y-41088456D01*
X71974129Y-41088461D01*
X71871640Y-41190950D01*
X71871635Y-41190956D01*
X71799164Y-41316479D01*
X71799163Y-41316483D01*
X71761647Y-41456493D01*
X64056284Y-41456493D01*
X64144517Y-41368260D01*
X64283343Y-41177183D01*
X64390568Y-40966742D01*
X64463553Y-40742118D01*
X64488929Y-40581900D01*
X64500500Y-40508847D01*
X64500500Y-40272652D01*
X64463553Y-40039381D01*
X64406248Y-39863017D01*
X64390568Y-39814758D01*
X64390566Y-39814755D01*
X64390566Y-39814753D01*
X64299358Y-39635749D01*
X64283343Y-39604317D01*
X64144517Y-39413240D01*
X63977510Y-39246233D01*
X63797664Y-39115566D01*
X63755000Y-39060238D01*
X63749021Y-38990624D01*
X63781627Y-38928830D01*
X63842466Y-38894472D01*
X63870551Y-38891250D01*
X65580864Y-38891250D01*
X65647903Y-38910935D01*
G37*
%TD.AperFunction*%
%TD*%
M02*
