%TF.GenerationSoftware,KiCad,Pcbnew,9.0.7*%
%TF.CreationDate,2026-06-13T16:41:19+01:00*%
%TF.ProjectId,GlucoBit-v2,476c7563-6f42-4697-942d-76322e6b6963,rev?*%
%TF.SameCoordinates,Original*%
%TF.FileFunction,Soldermask,Top*%
%TF.FilePolarity,Negative*%
%FSLAX46Y46*%
G04 Gerber Fmt 4.6, Leading zero omitted, Abs format (unit mm)*
G04 Created by KiCad (PCBNEW 9.0.7) date 2026-06-13 16:41:19*
%MOMM*%
%LPD*%
G01*
G04 APERTURE LIST*
G04 Aperture macros list*
%AMRoundRect*
0 Rectangle with rounded corners*
0 $1 Rounding radius*
0 $2 $3 $4 $5 $6 $7 $8 $9 X,Y pos of 4 corners*
0 Add a 4 corners polygon primitive as box body*
4,1,4,$2,$3,$4,$5,$6,$7,$8,$9,$2,$3,0*
0 Add four circle primitives for the rounded corners*
1,1,$1+$1,$2,$3*
1,1,$1+$1,$4,$5*
1,1,$1+$1,$6,$7*
1,1,$1+$1,$8,$9*
0 Add four rect primitives between the rounded corners*
20,1,$1+$1,$2,$3,$4,$5,0*
20,1,$1+$1,$4,$5,$6,$7,0*
20,1,$1+$1,$6,$7,$8,$9,0*
20,1,$1+$1,$8,$9,$2,$3,0*%
G04 Aperture macros list end*
%ADD10C,0.000000*%
%ADD11RoundRect,0.200000X-0.275000X0.200000X-0.275000X-0.200000X0.275000X-0.200000X0.275000X0.200000X0*%
%ADD12RoundRect,0.200000X0.200000X0.275000X-0.200000X0.275000X-0.200000X-0.275000X0.200000X-0.275000X0*%
%ADD13RoundRect,0.243750X-0.456250X0.243750X-0.456250X-0.243750X0.456250X-0.243750X0.456250X0.243750X0*%
%ADD14RoundRect,0.243750X-0.243750X-0.456250X0.243750X-0.456250X0.243750X0.456250X-0.243750X0.456250X0*%
%ADD15RoundRect,0.250000X-0.250000X-0.475000X0.250000X-0.475000X0.250000X0.475000X-0.250000X0.475000X0*%
%ADD16RoundRect,0.200000X-0.200000X-0.275000X0.200000X-0.275000X0.200000X0.275000X-0.200000X0.275000X0*%
%ADD17RoundRect,0.250000X-0.475000X0.250000X-0.475000X-0.250000X0.475000X-0.250000X0.475000X0.250000X0*%
%ADD18C,0.650000*%
%ADD19RoundRect,0.102000X-0.575000X0.300000X-0.575000X-0.300000X0.575000X-0.300000X0.575000X0.300000X0*%
%ADD20RoundRect,0.102000X-0.575000X0.150000X-0.575000X-0.150000X0.575000X-0.150000X0.575000X0.150000X0*%
%ADD21O,2.304000X1.204000*%
%ADD22O,2.004000X1.204000*%
%ADD23RoundRect,0.200000X0.275000X-0.200000X0.275000X0.200000X-0.275000X0.200000X-0.275000X-0.200000X0*%
%ADD24C,1.397000*%
%ADD25RoundRect,0.225000X-0.225000X-0.250000X0.225000X-0.250000X0.225000X0.250000X-0.225000X0.250000X0*%
%ADD26RoundRect,0.102000X-0.654000X-0.654000X0.654000X-0.654000X0.654000X0.654000X-0.654000X0.654000X0*%
%ADD27C,1.512000*%
%ADD28R,1.041400X0.660400*%
%ADD29RoundRect,0.150000X-0.512500X-0.150000X0.512500X-0.150000X0.512500X0.150000X-0.512500X0.150000X0*%
%ADD30RoundRect,0.225000X0.250000X-0.225000X0.250000X0.225000X-0.250000X0.225000X-0.250000X-0.225000X0*%
%ADD31RoundRect,0.059250X-0.462750X-0.177750X0.462750X-0.177750X0.462750X0.177750X-0.462750X0.177750X0*%
%ADD32RoundRect,0.059250X-0.177750X-0.462750X0.177750X-0.462750X0.177750X0.462750X-0.177750X0.462750X0*%
%ADD33RoundRect,0.102000X-0.550000X-0.550000X0.550000X-0.550000X0.550000X0.550000X-0.550000X0.550000X0*%
%ADD34RoundRect,0.250000X0.650000X-0.325000X0.650000X0.325000X-0.650000X0.325000X-0.650000X-0.325000X0*%
%ADD35RoundRect,0.250000X-0.325000X-0.650000X0.325000X-0.650000X0.325000X0.650000X-0.325000X0.650000X0*%
%ADD36RoundRect,0.099250X0.297750X-0.607750X0.297750X0.607750X-0.297750X0.607750X-0.297750X-0.607750X0*%
%ADD37R,0.230000X0.700000*%
%ADD38C,0.504000*%
%ADD39R,0.812800X1.498600*%
%ADD40R,1.498600X0.812800*%
%ADD41R,0.889000X0.889000*%
%ADD42R,1.700000X1.700000*%
%ADD43C,1.700000*%
G04 APERTURE END LIST*
D10*
%TO.C,U2*%
G36*
X73635000Y-54170001D02*
G01*
X73265001Y-54170001D01*
X73265001Y-53330000D01*
X73635000Y-53330000D01*
X73635000Y-54170001D01*
G37*
G36*
X73635000Y-56270000D02*
G01*
X73265001Y-56270000D01*
X73265001Y-55429999D01*
X73635000Y-55429999D01*
X73635000Y-56270000D01*
G37*
G36*
X74034999Y-54170001D02*
G01*
X73665000Y-54170001D01*
X73665000Y-53330000D01*
X74034999Y-53330000D01*
X74034999Y-54170001D01*
G37*
G36*
X74034999Y-56270000D02*
G01*
X73665000Y-56270000D01*
X73665000Y-55429999D01*
X74034999Y-55429999D01*
X74034999Y-56270000D01*
G37*
G36*
X74050000Y-55320700D02*
G01*
X73437200Y-55320700D01*
X73437200Y-54279300D01*
X74050000Y-54279300D01*
X74050000Y-55320700D01*
G37*
G36*
X74435001Y-54170001D02*
G01*
X74064999Y-54170001D01*
X74064999Y-53330000D01*
X74435001Y-53330000D01*
X74435001Y-54170001D01*
G37*
G36*
X74435001Y-56270000D02*
G01*
X74064999Y-56270000D01*
X74064999Y-55429999D01*
X74435001Y-55429999D01*
X74435001Y-56270000D01*
G37*
G36*
X74835000Y-54170001D02*
G01*
X74465001Y-54170001D01*
X74465001Y-53330000D01*
X74835000Y-53330000D01*
X74835000Y-54170001D01*
G37*
G36*
X74835000Y-56270000D02*
G01*
X74465001Y-56270000D01*
X74465001Y-55429999D01*
X74835000Y-55429999D01*
X74835000Y-56270000D01*
G37*
G36*
X75062800Y-54600000D02*
G01*
X73437200Y-54600000D01*
X73437200Y-54279300D01*
X75062800Y-54279300D01*
X75062800Y-54600000D01*
G37*
G36*
X75062800Y-55320700D02*
G01*
X74450000Y-55320700D01*
X74450000Y-54279300D01*
X75062800Y-54279300D01*
X75062800Y-55320700D01*
G37*
G36*
X75062800Y-55320700D02*
G01*
X73437200Y-55320700D01*
X73437200Y-55000000D01*
X75062800Y-55000000D01*
X75062800Y-55320700D01*
G37*
G36*
X75234999Y-54170001D02*
G01*
X74865000Y-54170001D01*
X74865000Y-53330000D01*
X75234999Y-53330000D01*
X75234999Y-54170001D01*
G37*
G36*
X75234999Y-56270000D02*
G01*
X74865000Y-56270000D01*
X74865000Y-55429999D01*
X75234999Y-55429999D01*
X75234999Y-56270000D01*
G37*
%TD*%
D11*
%TO.C,R5*%
X76275000Y-64500000D03*
X76275000Y-66150000D03*
%TD*%
D12*
%TO.C,R1*%
X69900000Y-44500000D03*
X68250000Y-44500000D03*
%TD*%
%TO.C,R7*%
X71900000Y-66750000D03*
X70250000Y-66750000D03*
%TD*%
D13*
%TO.C,D2*%
X80500000Y-64250000D03*
X80500000Y-66125000D03*
%TD*%
D11*
%TO.C,R14*%
X102500000Y-64350000D03*
X102500000Y-66000000D03*
%TD*%
D14*
%TO.C,D3*%
X66375000Y-66750000D03*
X68250000Y-66750000D03*
%TD*%
D15*
%TO.C,C10*%
X64350000Y-64250000D03*
X66250000Y-64250000D03*
%TD*%
D16*
%TO.C,C3*%
X75900000Y-58000000D03*
X77550000Y-58000000D03*
%TD*%
D17*
%TO.C,C5*%
X72000000Y-58250000D03*
X72000000Y-60150000D03*
%TD*%
D18*
%TO.C,J1*%
X66280000Y-50450750D03*
X66280000Y-56230750D03*
D19*
X67345000Y-50140750D03*
X67345000Y-50940750D03*
D20*
X67345000Y-52090750D03*
X67345000Y-53090750D03*
X67345000Y-53590750D03*
X67345000Y-54590750D03*
D19*
X67345000Y-56540750D03*
X67345000Y-55740750D03*
D20*
X67345000Y-55090750D03*
X67345000Y-54090750D03*
X67345000Y-52590750D03*
X67345000Y-51590750D03*
D21*
X66780000Y-49020750D03*
X66780000Y-57660750D03*
D22*
X62600000Y-49020750D03*
X62600000Y-57660750D03*
%TD*%
D23*
%TO.C,R9*%
X69000000Y-49400000D03*
X69000000Y-47750000D03*
%TD*%
D15*
%TO.C,C9*%
X63100000Y-43000000D03*
X65000000Y-43000000D03*
%TD*%
D11*
%TO.C,R6*%
X74675000Y-64500000D03*
X74675000Y-66150000D03*
%TD*%
D23*
%TO.C,C4*%
X79750000Y-51750000D03*
X79750000Y-50100000D03*
%TD*%
D16*
%TO.C,R4*%
X74925000Y-48000000D03*
X76575000Y-48000000D03*
%TD*%
D24*
%TO.C,U6*%
X85750000Y-62395100D03*
X85750000Y-59895100D03*
X85750000Y-57395100D03*
X85750000Y-54895100D03*
X85750000Y-52395100D03*
X85750000Y-49895100D03*
X85750000Y-47395100D03*
X85750000Y-44895100D03*
%TD*%
D25*
%TO.C,C11*%
X74500000Y-39875000D03*
X76050000Y-39875000D03*
%TD*%
D26*
%TO.C,J2*%
X107500000Y-66500000D03*
D27*
X105500000Y-66500000D03*
%TD*%
D28*
%TO.C,SW1*%
X66500000Y-61750000D03*
X62350000Y-61750000D03*
X66500000Y-59600000D03*
X62350000Y-59600000D03*
%TD*%
D29*
%TO.C,U3*%
X77250000Y-53500000D03*
X77250000Y-54450000D03*
X77250000Y-55400000D03*
X79525000Y-55400000D03*
X79525000Y-53500000D03*
%TD*%
D30*
%TO.C,C13*%
X98500000Y-66000000D03*
X98500000Y-64450000D03*
%TD*%
D11*
%TO.C,R3*%
X81500000Y-54750000D03*
X81500000Y-56400000D03*
%TD*%
D31*
%TO.C,U5*%
X67815000Y-40500000D03*
X67815000Y-41000000D03*
X67815000Y-41500000D03*
X67815000Y-42000000D03*
D32*
X68500000Y-42685000D03*
X69000000Y-42685000D03*
X69500000Y-42685000D03*
X70000000Y-42685000D03*
D31*
X70685000Y-42000000D03*
X70685000Y-41500000D03*
X70685000Y-41000000D03*
X70685000Y-40500000D03*
D32*
X70000000Y-39815000D03*
X69500000Y-39815000D03*
X69000000Y-39815000D03*
X68500000Y-39815000D03*
D33*
X69250000Y-41250000D03*
%TD*%
D28*
%TO.C,SW2*%
X62175000Y-44925000D03*
X66325000Y-44925000D03*
X62175000Y-47075000D03*
X66325000Y-47075000D03*
%TD*%
D11*
%TO.C,R2*%
X81500000Y-51500000D03*
X81500000Y-53150000D03*
%TD*%
D17*
%TO.C,C2*%
X74050000Y-58250000D03*
X74050000Y-60150000D03*
%TD*%
D34*
%TO.C,C6*%
X102800000Y-42475000D03*
X102800000Y-39525000D03*
%TD*%
D12*
%TO.C,R11*%
X70000000Y-62250000D03*
X68350000Y-62250000D03*
%TD*%
D35*
%TO.C,C8*%
X73575000Y-41825000D03*
X76525000Y-41825000D03*
%TD*%
D26*
%TO.C,J6*%
X95250000Y-66500000D03*
D27*
X93250000Y-66500000D03*
%TD*%
D23*
%TO.C,R15*%
X78300000Y-62250000D03*
X78300000Y-60600000D03*
%TD*%
D15*
%TO.C,C1*%
X75850000Y-51000000D03*
X77750000Y-51000000D03*
%TD*%
D23*
%TO.C,R13*%
X100500000Y-66000000D03*
X100500000Y-64350000D03*
%TD*%
D36*
%TO.C,U4*%
X71300000Y-50755000D03*
X72250000Y-50755000D03*
X73200000Y-50755000D03*
X73200000Y-48245000D03*
X72250000Y-48245000D03*
X71300000Y-48245000D03*
%TD*%
D30*
%TO.C,C7*%
X105050000Y-42450000D03*
X105050000Y-40900000D03*
%TD*%
D16*
%TO.C,R8*%
X68350000Y-60500000D03*
X70000000Y-60500000D03*
%TD*%
D37*
%TO.C,U2*%
X75050001Y-53750000D03*
X74649999Y-53750000D03*
X74250000Y-53750000D03*
X73850001Y-53750000D03*
X73449999Y-53750000D03*
X73449999Y-55850000D03*
X73850001Y-55850000D03*
X74250000Y-55850000D03*
X74649999Y-55850000D03*
X75050001Y-55850000D03*
D38*
X74250000Y-54800000D03*
%TD*%
D23*
%TO.C,R16*%
X80625000Y-62450000D03*
X80625000Y-60800000D03*
%TD*%
D12*
%TO.C,R10*%
X81050000Y-59000000D03*
X79400000Y-59000000D03*
%TD*%
D39*
%TO.C,U1*%
X108070000Y-44600000D03*
X106800000Y-44600000D03*
X105530000Y-44600000D03*
X104260000Y-44600000D03*
X102990000Y-44600000D03*
X101720000Y-44600000D03*
X100450000Y-44600000D03*
X99180000Y-44600000D03*
X97910000Y-44600000D03*
X96640000Y-44600000D03*
X95370000Y-44600000D03*
X94100000Y-44600000D03*
X92830000Y-44600000D03*
X91560000Y-44600000D03*
D40*
X90310000Y-46365000D03*
X90310000Y-47635000D03*
X90310000Y-48905000D03*
X90310000Y-50175000D03*
X90310000Y-51445000D03*
X90310000Y-52715000D03*
X90310000Y-53985000D03*
X90310000Y-55255000D03*
X90310000Y-56525000D03*
X90310000Y-57795000D03*
X90310000Y-59065000D03*
X90310000Y-60335000D03*
D39*
X91560000Y-62100000D03*
X92830000Y-62100000D03*
X94100000Y-62100000D03*
X95370000Y-62100000D03*
X96640000Y-62100000D03*
X97910000Y-62100000D03*
X99180000Y-62100000D03*
X100450000Y-62100000D03*
X101720000Y-62100000D03*
X102990000Y-62100000D03*
X104260000Y-62100000D03*
X105530000Y-62100000D03*
X106800000Y-62100000D03*
X108070000Y-62100000D03*
D41*
X100350000Y-51850000D03*
X101750000Y-50450000D03*
X100350000Y-50450000D03*
X98950000Y-50450000D03*
X98950000Y-51850000D03*
X98950000Y-53250000D03*
X100350000Y-53250000D03*
X101750000Y-53250000D03*
X101750000Y-51850000D03*
%TD*%
D13*
%TO.C,D1*%
X78225000Y-64250000D03*
X78225000Y-66125000D03*
%TD*%
D30*
%TO.C,C12*%
X90000000Y-66750000D03*
X90000000Y-65200000D03*
%TD*%
D42*
%TO.C,J3*%
X80000000Y-40700000D03*
D43*
X80000000Y-43240000D03*
%TD*%
M02*
