M48
; DRILL file {KiCad 9.0.7} date 2026-06-13T16:41:17+0100
; FORMAT={-:-/ absolute / metric / decimal}
; #@! TF.CreationDate,2026-06-13T16:41:17+01:00
; #@! TF.GenerationSoftware,Kicad,Pcbnew,9.0.7
; #@! TF.FileFunction,Plated,1,4,PTH
FMAT,2
METRIC
; #@! TA.AperFunction,Plated,PTH,ComponentDrill
T1C0.204
; #@! TA.AperFunction,Plated,PTH,ViaDrill
T2C0.300
; #@! TA.AperFunction,Plated,PTH,ComponentDrill
T3C0.600
; #@! TA.AperFunction,Plated,PTH,ComponentDrill
T4C0.800
; #@! TA.AperFunction,Plated,PTH,ComponentDrill
T5C0.889
; #@! TA.AperFunction,Plated,PTH,ComponentDrill
T6C1.000
%
G90
G05
T1
X74.25Y-54.8
T2
X62.325Y-46.15
X62.35Y-50.15
X62.425Y-56.325
X62.975Y-64.3
X64.825Y-39.55
X64.85Y-49.95
X64.925Y-41.55
X65.475Y-46.225
X66.025Y-39.525
X66.25Y-65.45
X66.55Y-41.825
X67.975Y-64.625
X68.0Y-46.0
X68.375Y-50.9
X68.4Y-57.6
X68.55Y-56.65
X68.6Y-55.025
X69.25Y-41.25
X69.9Y-52.25
X69.95Y-50.675
X70.025Y-59.275
X70.35Y-54.875
X71.025Y-56.25
X71.25Y-49.475
X71.9Y-64.25
X71.925Y-56.1
X71.975Y-61.6
X72.125Y-39.825
X72.312Y-41.529
X72.975Y-44.5
X73.075Y-62.725
X73.15Y-49.525
X74.009Y-61.427
X74.05Y-58.25
X74.25Y-56.9
X75.8Y-49.45
X77.2Y-59.15
X77.225Y-39.925
X77.925Y-49.425
X78.0Y-43.525
X78.05Y-47.875
X78.275Y-59.45
X78.3Y-62.25
X78.388Y-54.45
X79.0Y-57.625
X79.6Y-54.375
X79.775Y-48.95
X80.075Y-56.925
X81.625Y-47.9
X83.025Y-56.45
X83.125Y-41.325
X83.4Y-58.45
X83.65Y-61.25
X83.875Y-50.45
X83.875Y-55.0
X86.975Y-65.75
X87.525Y-63.5
X88.475Y-44.775
X88.475Y-60.295
X89.65Y-41.7
X90.0Y-39.65
X90.0Y-63.85
X92.275Y-58.45
X93.6Y-58.875
X94.675Y-51.55
X94.725Y-41.875
X95.0Y-39.6
X95.325Y-63.8
X96.575Y-42.825
X97.79Y-49.784
X97.85Y-50.8
X97.875Y-51.816
X97.9Y-52.832
X97.925Y-53.848
X98.432Y-39.403
X98.5Y-63.4
X98.552Y-54.75
X98.806Y-49.276
X98.825Y-46.75
X99.568Y-54.75
X99.822Y-49.276
X100.25Y-42.5
X100.576Y-54.751
X100.6Y-57.475
X100.838Y-49.276
X101.6Y-54.751
X101.854Y-49.276
X102.616Y-54.751
X102.743Y-67.154
X103.124Y-49.276
X103.124Y-50.425
X103.124Y-51.562
X103.15Y-52.45
X103.15Y-53.175
X103.175Y-54.15
X104.103Y-66.499
X104.55Y-39.775
X106.75Y-60.25
X107.975Y-42.825
X108.105Y-64.637
X108.125Y-52.8
X108.4Y-59.525
X108.637Y-41.164
T4
X93.25Y-66.5
X95.25Y-66.5
X105.5Y-66.5
X107.5Y-66.5
T5
X85.75Y-44.895
X85.75Y-47.395
X85.75Y-49.895
X85.75Y-52.395
X85.75Y-54.895
X85.75Y-57.395
X85.75Y-59.895
X85.75Y-62.395
T6
X80.0Y-40.7
X80.0Y-43.24
T3
X63.0Y-49.021G85X62.2Y-49.021
G05
X63.0Y-57.661G85X62.2Y-57.661
G05
X67.33Y-49.021G85X66.23Y-49.021
G05
X67.33Y-57.661G85X66.23Y-57.661
G05
M30
