%TF.GenerationSoftware,KiCad,Pcbnew,9.0.7*%
%TF.CreationDate,2026-06-13T17:27:19+01:00*%
%TF.ProjectId,GlucoBit-v2,476c7563-6f42-4697-942d-76322e6b6963,rev?*%
%TF.SameCoordinates,Original*%
%TF.FileFunction,Copper,L4,Bot*%
%TF.FilePolarity,Positive*%
%FSLAX46Y46*%
G04 Gerber Fmt 4.6, Leading zero omitted, Abs format (unit mm)*
G04 Created by KiCad (PCBNEW 9.0.7) date 2026-06-13 17:27:19*
%MOMM*%
%LPD*%
G01*
G04 APERTURE LIST*
%TA.AperFunction,ComponentPad*%
%ADD10O,2.100000X1.000000*%
%TD*%
%TA.AperFunction,ComponentPad*%
%ADD11O,1.800000X1.000000*%
%TD*%
%TA.AperFunction,ComponentPad*%
%ADD12C,1.397000*%
%TD*%
%TA.AperFunction,ComponentPad*%
%ADD13R,1.308000X1.308000*%
%TD*%
%TA.AperFunction,ComponentPad*%
%ADD14C,1.308000*%
%TD*%
%TA.AperFunction,ComponentPad*%
%ADD15C,0.504000*%
%TD*%
%TA.AperFunction,ComponentPad*%
%ADD16R,1.700000X1.700000*%
%TD*%
%TA.AperFunction,ComponentPad*%
%ADD17C,1.700000*%
%TD*%
%TA.AperFunction,ViaPad*%
%ADD18C,0.600000*%
%TD*%
%TA.AperFunction,Conductor*%
%ADD19C,0.300000*%
%TD*%
%TA.AperFunction,Conductor*%
%ADD20C,0.152400*%
%TD*%
%TA.AperFunction,Conductor*%
%ADD21C,0.250000*%
%TD*%
%TA.AperFunction,Conductor*%
%ADD22C,0.200000*%
%TD*%
G04 APERTURE END LIST*
D10*
%TO.P,J1,SH1,SHIELD*%
%TO.N,GND*%
X66780000Y-49020750D03*
%TO.P,J1,SH2,SHIELD__1*%
X66780000Y-57660750D03*
D11*
%TO.P,J1,SH3,SHIELD__2*%
X62600000Y-49020750D03*
%TO.P,J1,SH4,SHIELD__3*%
X62600000Y-57660750D03*
%TD*%
D12*
%TO.P,U6,1,1*%
%TO.N,MOSI*%
X85750000Y-62395100D03*
%TO.P,U6,2,2*%
%TO.N,CLK*%
X85750000Y-59895100D03*
%TO.P,U6,3,3*%
%TO.N,CS*%
X85750000Y-57395100D03*
%TO.P,U6,4,4*%
%TO.N,DC*%
X85750000Y-54895100D03*
%TO.P,U6,5,5*%
%TO.N,RST*%
X85750000Y-52395100D03*
%TO.P,U6,6,6*%
%TO.N,BL*%
X85750000Y-49895100D03*
%TO.P,U6,7,7*%
%TO.N,LED*%
X85750000Y-47395100D03*
%TO.P,U6,8,8*%
%TO.N,Touch*%
X85750000Y-44895100D03*
%TD*%
D13*
%TO.P,J2,1,1*%
%TO.N,/VOUT*%
X107800000Y-66450000D03*
D14*
%TO.P,J2,2,2*%
%TO.N,GND*%
X105800000Y-66450000D03*
%TD*%
D13*
%TO.P,J6,1,1*%
%TO.N,Net-(U5-OUTN)*%
X95000000Y-66500000D03*
D14*
%TO.P,J6,2,2*%
%TO.N,Net-(U5-OUTP)*%
X93000000Y-66500000D03*
%TD*%
D15*
%TO.P,U2,V*%
%TO.N,GND*%
X74250000Y-54800000D03*
%TD*%
D16*
%TO.P,J3,1,Pin_1*%
%TO.N,+3V3*%
X80700000Y-40700000D03*
D17*
%TO.P,J3,2,Pin_2*%
%TO.N,GND*%
X80700000Y-43240000D03*
%TD*%
D18*
%TO.N,/5VIN*%
X69900000Y-52250000D03*
X68600000Y-55025000D03*
X70350000Y-54875000D03*
X69950000Y-50675000D03*
X75800000Y-49450000D03*
X68375000Y-50900000D03*
X73150000Y-49525000D03*
%TO.N,GND*%
X62425000Y-56325000D03*
X77796000Y-48260000D03*
X103124000Y-51562000D03*
X98552000Y-54750000D03*
X90000000Y-39650000D03*
X83875000Y-50450000D03*
X73075000Y-62725000D03*
X64770000Y-46990000D03*
X98500000Y-63400000D03*
X69250000Y-41250000D03*
X94675000Y-51550000D03*
X66550000Y-41825000D03*
X68550000Y-56650000D03*
X103124000Y-50425000D03*
X103150000Y-53175000D03*
X101854000Y-49276000D03*
X78000000Y-43525000D03*
X72975000Y-44500000D03*
X108637467Y-41164366D03*
X100600000Y-57475000D03*
X87525000Y-63500000D03*
X99568000Y-54750000D03*
X97850000Y-50800000D03*
X101600000Y-54751164D03*
X71975000Y-62738000D03*
X100575853Y-54751164D03*
X77225000Y-39925000D03*
X103150000Y-52450000D03*
X66235130Y-43650000D03*
X104550000Y-39775000D03*
X84836000Y-56134000D03*
X98825000Y-46750000D03*
X104500000Y-66499430D03*
X77811765Y-52088235D03*
X83125000Y-41325000D03*
X97875000Y-51816000D03*
X64825000Y-39550000D03*
X94725000Y-41875000D03*
X71250000Y-49475000D03*
X102743280Y-67153943D03*
X107975000Y-42825000D03*
X62325000Y-46150000D03*
X102616000Y-54751164D03*
X81625000Y-47900000D03*
X74008535Y-62738000D03*
X70025000Y-59275000D03*
X97925000Y-53848000D03*
X90000000Y-63850000D03*
X83566000Y-57150000D03*
X66250000Y-65278000D03*
X62350000Y-50150000D03*
X103175000Y-54150000D03*
X68400000Y-57600000D03*
X108125000Y-52800000D03*
X79775000Y-48950000D03*
X98432227Y-39402620D03*
X97790000Y-49784000D03*
X77200000Y-59150000D03*
X98806000Y-49276000D03*
X78387500Y-54450000D03*
X97900000Y-52832000D03*
X99822000Y-49276000D03*
X108105248Y-64636587D03*
X83452880Y-64047120D03*
X100838000Y-49276000D03*
X67975000Y-64625000D03*
X103124000Y-49276000D03*
X64850000Y-49950000D03*
%TO.N,/VOUT*%
X74050000Y-58250000D03*
%TO.N,+3V3*%
X80097538Y-54602052D03*
X100250000Y-42500000D03*
X78300000Y-62250000D03*
X80075000Y-56388000D03*
X87775000Y-45475000D03*
X71900000Y-64250000D03*
%TO.N,BOOT*%
X93600000Y-58875000D03*
X68000000Y-46000000D03*
%TO.N,ENABLE*%
X61976000Y-63754000D03*
X108400000Y-59525000D03*
%TO.N,Net-(U5-OUTP)*%
X86975000Y-65750000D03*
X72312147Y-41528968D03*
%TO.N,Net-(U5-OUTN)*%
X72125000Y-39825000D03*
X95250000Y-64300000D03*
%TO.N,PGOOD*%
X71025000Y-56250000D03*
X78275000Y-59450000D03*
X87700000Y-60800000D03*
%TO.N,CH*%
X83400000Y-58450000D03*
X92275000Y-58450000D03*
X74250000Y-56900000D03*
%TO.N,Net-(U2-ISET2)*%
X78251500Y-56876500D03*
X71925000Y-56100000D03*
%TO.N,Touch*%
X106750000Y-60250000D03*
%TO.N,BCLK*%
X89650000Y-41700000D03*
X66025000Y-39525000D03*
%TO.N,LRCLK*%
X96575000Y-42825000D03*
X95000000Y-39600000D03*
%TD*%
D19*
%TO.N,/VOUT*%
X81500000Y-61175000D02*
X85275000Y-64950000D01*
X74050000Y-58275000D02*
X76950000Y-61175000D01*
X74050000Y-58250000D02*
X74050000Y-58275000D01*
X76950000Y-61175000D02*
X81500000Y-61175000D01*
X85275000Y-64950000D02*
X105950000Y-64950000D01*
X105950000Y-64950000D02*
X107350000Y-66350000D01*
X107350000Y-66350000D02*
X107700000Y-66350000D01*
X107700000Y-66350000D02*
X107800000Y-66450000D01*
D20*
%TO.N,PGOOD*%
X83950000Y-58800000D02*
X83300000Y-59450000D01*
X88000000Y-60500000D02*
X88000000Y-59825000D01*
X86034750Y-58800000D02*
X83950000Y-58800000D01*
X88000000Y-59825000D02*
X86978400Y-58803400D01*
X87700000Y-60800000D02*
X88000000Y-60500000D01*
X86978400Y-58803400D02*
X86038149Y-58803400D01*
X86038149Y-58803400D02*
X86034750Y-58800000D01*
X83300000Y-59450000D02*
X78275000Y-59450000D01*
D21*
%TO.N,+3V3*%
X87775000Y-45475000D02*
X88475000Y-44775000D01*
X88475000Y-44775000D02*
X97975000Y-44775000D01*
X97975000Y-44775000D02*
X100250000Y-42500000D01*
X80097538Y-54602052D02*
X80097538Y-56365462D01*
X80097538Y-56365462D02*
X80075000Y-56388000D01*
D20*
%TO.N,Net-(U5-OUTN)*%
X98100000Y-61025000D02*
X98100000Y-59475000D01*
X95250000Y-63875000D02*
X98100000Y-61025000D01*
X98100000Y-59475000D02*
X90044400Y-51419400D01*
X95250000Y-64300000D02*
X95250000Y-63875000D01*
X90044400Y-51419400D02*
X83344400Y-51419400D01*
X83344400Y-51419400D02*
X72125000Y-40200000D01*
X72125000Y-40200000D02*
X72125000Y-39825000D01*
%TO.N,ENABLE*%
X109350000Y-60475000D02*
X108400000Y-59525000D01*
X62429000Y-63754000D02*
X66700000Y-68025000D01*
X108300000Y-68025000D02*
X109350000Y-66975000D01*
X109350000Y-66975000D02*
X109350000Y-60475000D01*
X61976000Y-63754000D02*
X62429000Y-63754000D01*
X66700000Y-68025000D02*
X108300000Y-68025000D01*
%TO.N,Net-(U2-ISET2)*%
X77475000Y-56100000D02*
X71925000Y-56100000D01*
X78251500Y-56876500D02*
X77475000Y-56100000D01*
%TO.N,GND*%
X74250000Y-54800000D02*
X74475000Y-54575000D01*
X74475000Y-54575000D02*
X78262500Y-54575000D01*
X78262500Y-54575000D02*
X78387500Y-54450000D01*
D21*
%TO.N,+3V3*%
X76300000Y-64250000D02*
X78300000Y-62250000D01*
X71900000Y-64250000D02*
X76300000Y-64250000D01*
D22*
%TO.N,BOOT*%
X93600000Y-58875000D02*
X93600000Y-56850000D01*
X78625000Y-53750000D02*
X70875000Y-46000000D01*
X93600000Y-56850000D02*
X90500000Y-53750000D01*
X90500000Y-53750000D02*
X78625000Y-53750000D01*
X70875000Y-46000000D02*
X68000000Y-46000000D01*
D20*
%TO.N,Net-(U5-OUTP)*%
X66650000Y-46750000D02*
X69300000Y-49400000D01*
X69300000Y-49400000D02*
X69300000Y-65125000D01*
X72096032Y-41528968D02*
X70425000Y-43200000D01*
X70425000Y-43200000D02*
X67500000Y-43200000D01*
X67500000Y-43200000D02*
X66625000Y-44075000D01*
X69925000Y-65750000D02*
X86975000Y-65750000D01*
X72312147Y-41528968D02*
X72096032Y-41528968D01*
X69300000Y-65125000D02*
X69925000Y-65750000D01*
X66625000Y-44075000D02*
X66625000Y-44225000D01*
X66625000Y-44225000D02*
X66650000Y-44250000D01*
X66650000Y-44250000D02*
X66650000Y-46750000D01*
%TO.N,PGOOD*%
X74116285Y-57500000D02*
X76566285Y-59950000D01*
X77775000Y-59950000D02*
X78275000Y-59450000D01*
X76566285Y-59950000D02*
X77775000Y-59950000D01*
X71025000Y-56250000D02*
X71025000Y-56275000D01*
X72250000Y-57500000D02*
X74116285Y-57500000D01*
X71025000Y-56275000D02*
X72250000Y-57500000D01*
%TO.N,CH*%
X83800216Y-58450000D02*
X83400000Y-58450000D01*
X83400000Y-58450000D02*
X75800000Y-58450000D01*
X86181133Y-58446600D02*
X83803616Y-58446600D01*
X86184533Y-58450000D02*
X86181133Y-58446600D01*
X75800000Y-58450000D02*
X74250000Y-56900000D01*
X92275000Y-58450000D02*
X86184533Y-58450000D01*
X83803616Y-58446600D02*
X83800216Y-58450000D01*
D22*
%TO.N,Touch*%
X101075000Y-60250000D02*
X106750000Y-60250000D01*
X90500000Y-49675000D02*
X101075000Y-60250000D01*
X85750000Y-44895100D02*
X90500000Y-49645100D01*
X90500000Y-49645100D02*
X90500000Y-49675000D01*
D20*
%TO.N,BCLK*%
X66475000Y-39075000D02*
X87025000Y-39075000D01*
X87025000Y-39075000D02*
X89650000Y-41700000D01*
X66025000Y-39525000D02*
X66475000Y-39075000D01*
%TO.N,LRCLK*%
X95000000Y-41250000D02*
X96575000Y-42825000D01*
X95000000Y-39600000D02*
X95000000Y-41250000D01*
%TD*%
%TA.AperFunction,Conductor*%
%TO.N,GND*%
G36*
X94730856Y-38910935D02*
G01*
X94776611Y-38963739D01*
X94786555Y-39032897D01*
X94757530Y-39096453D01*
X94725818Y-39122637D01*
X94661985Y-39159491D01*
X94661982Y-39159493D01*
X94559493Y-39261982D01*
X94559488Y-39261988D01*
X94487017Y-39387511D01*
X94487016Y-39387515D01*
X94449500Y-39527525D01*
X94449500Y-39672475D01*
X94487016Y-39812485D01*
X94487017Y-39812488D01*
X94559488Y-39938011D01*
X94559493Y-39938017D01*
X94636981Y-40015505D01*
X94670466Y-40076828D01*
X94673300Y-40103186D01*
X94673300Y-41206989D01*
X94673300Y-41293011D01*
X94693463Y-41368262D01*
X94695565Y-41376104D01*
X94695566Y-41376107D01*
X94712035Y-41404631D01*
X94738575Y-41450598D01*
X95988182Y-42700206D01*
X96021666Y-42761527D01*
X96024500Y-42787885D01*
X96024500Y-42897475D01*
X96055451Y-43012984D01*
X96062017Y-43037488D01*
X96134488Y-43163011D01*
X96134490Y-43163013D01*
X96134491Y-43163015D01*
X96236985Y-43265509D01*
X96236986Y-43265510D01*
X96236988Y-43265511D01*
X96362511Y-43337982D01*
X96362512Y-43337982D01*
X96362515Y-43337984D01*
X96502525Y-43375500D01*
X96502528Y-43375500D01*
X96647472Y-43375500D01*
X96647475Y-43375500D01*
X96787485Y-43337984D01*
X96913015Y-43265509D01*
X97015509Y-43163015D01*
X97087984Y-43037485D01*
X97125500Y-42897475D01*
X97125500Y-42752525D01*
X97087984Y-42612515D01*
X97015509Y-42486985D01*
X96913015Y-42384491D01*
X96913013Y-42384490D01*
X96913011Y-42384488D01*
X96787488Y-42312017D01*
X96787489Y-42312017D01*
X96776006Y-42308940D01*
X96647475Y-42274500D01*
X96537886Y-42274500D01*
X96470847Y-42254815D01*
X96450205Y-42238181D01*
X95363019Y-41150995D01*
X95329534Y-41089672D01*
X95326700Y-41063314D01*
X95326700Y-40103186D01*
X95346385Y-40036147D01*
X95363019Y-40015505D01*
X95384054Y-39994470D01*
X95440509Y-39938015D01*
X95512984Y-39812485D01*
X95550500Y-39672475D01*
X95550500Y-39527525D01*
X95512984Y-39387515D01*
X95469680Y-39312511D01*
X95440511Y-39261988D01*
X95440506Y-39261982D01*
X95338017Y-39159493D01*
X95338015Y-39159491D01*
X95274181Y-39122636D01*
X95225967Y-39072069D01*
X95212745Y-39003462D01*
X95238713Y-38938598D01*
X95295627Y-38898070D01*
X95336183Y-38891250D01*
X113129449Y-38891250D01*
X113196488Y-38910935D01*
X113242243Y-38963739D01*
X113252187Y-39032897D01*
X113223162Y-39096453D01*
X113202337Y-39115565D01*
X113022490Y-39246233D01*
X113022488Y-39246235D01*
X113022487Y-39246235D01*
X112855485Y-39413237D01*
X112855485Y-39413238D01*
X112855483Y-39413240D01*
X112826033Y-39453775D01*
X112716657Y-39604316D01*
X112609433Y-39814753D01*
X112536446Y-40039381D01*
X112499500Y-40272652D01*
X112499500Y-40508847D01*
X112536446Y-40742118D01*
X112609433Y-40966746D01*
X112711768Y-41167588D01*
X112716657Y-41177183D01*
X112855483Y-41368260D01*
X113022490Y-41535267D01*
X113213567Y-41674093D01*
X113312991Y-41724752D01*
X113424003Y-41781316D01*
X113424005Y-41781316D01*
X113424008Y-41781318D01*
X113544412Y-41820439D01*
X113648631Y-41854303D01*
X113881903Y-41891250D01*
X113881908Y-41891250D01*
X114118097Y-41891250D01*
X114351368Y-41854303D01*
X114575992Y-41781318D01*
X114786433Y-41674093D01*
X114977510Y-41535267D01*
X115144517Y-41368260D01*
X115275183Y-41188414D01*
X115330512Y-41145750D01*
X115400126Y-41139771D01*
X115461920Y-41172377D01*
X115496278Y-41233216D01*
X115499500Y-41261301D01*
X115499500Y-65920198D01*
X115479815Y-65987237D01*
X115427011Y-66032992D01*
X115357853Y-66042936D01*
X115294297Y-66013911D01*
X115275182Y-65993084D01*
X115224564Y-65923415D01*
X115144517Y-65813240D01*
X114977510Y-65646233D01*
X114786433Y-65507407D01*
X114756484Y-65492147D01*
X114575996Y-65400183D01*
X114351368Y-65327196D01*
X114118097Y-65290250D01*
X114118092Y-65290250D01*
X113881908Y-65290250D01*
X113881903Y-65290250D01*
X113648631Y-65327196D01*
X113424003Y-65400183D01*
X113213566Y-65507407D01*
X113104550Y-65586612D01*
X113022490Y-65646233D01*
X113022488Y-65646235D01*
X113022487Y-65646235D01*
X112855485Y-65813237D01*
X112855485Y-65813238D01*
X112855483Y-65813240D01*
X112795862Y-65895300D01*
X112716657Y-66004316D01*
X112609433Y-66214753D01*
X112536446Y-66439381D01*
X112499500Y-66672652D01*
X112499500Y-66908847D01*
X112536446Y-67142118D01*
X112609433Y-67366746D01*
X112700641Y-67545750D01*
X112716657Y-67577183D01*
X112855483Y-67768260D01*
X113022490Y-67935267D01*
X113202335Y-68065933D01*
X113245000Y-68121262D01*
X113250979Y-68190876D01*
X113218373Y-68252670D01*
X113157534Y-68287028D01*
X113129449Y-68290250D01*
X108796135Y-68290250D01*
X108729096Y-68270565D01*
X108683341Y-68217761D01*
X108673397Y-68148603D01*
X108702422Y-68085047D01*
X108708454Y-68078569D01*
X109018763Y-67768260D01*
X109611425Y-67175599D01*
X109638517Y-67128674D01*
X109654436Y-67101101D01*
X109676700Y-67018011D01*
X109676700Y-60431989D01*
X109669066Y-60403497D01*
X109654436Y-60348898D01*
X109611425Y-60274402D01*
X108986819Y-59649796D01*
X108953334Y-59588473D01*
X108950500Y-59562115D01*
X108950500Y-59452527D01*
X108950500Y-59452525D01*
X108912984Y-59312515D01*
X108900070Y-59290148D01*
X108840511Y-59186988D01*
X108840506Y-59186982D01*
X108738017Y-59084493D01*
X108738011Y-59084488D01*
X108612488Y-59012017D01*
X108612489Y-59012017D01*
X108591403Y-59006367D01*
X108472475Y-58974500D01*
X108327525Y-58974500D01*
X108208597Y-59006367D01*
X108187511Y-59012017D01*
X108061988Y-59084488D01*
X108061982Y-59084493D01*
X107959493Y-59186982D01*
X107959488Y-59186988D01*
X107887017Y-59312511D01*
X107886214Y-59315509D01*
X107849500Y-59452525D01*
X107849500Y-59597475D01*
X107887016Y-59737484D01*
X107887017Y-59737488D01*
X107959488Y-59863011D01*
X107959490Y-59863013D01*
X107959491Y-59863015D01*
X108061985Y-59965509D01*
X108061986Y-59965510D01*
X108061988Y-59965511D01*
X108187511Y-60037982D01*
X108187512Y-60037982D01*
X108187515Y-60037984D01*
X108327525Y-60075500D01*
X108327528Y-60075500D01*
X108437115Y-60075500D01*
X108504154Y-60095185D01*
X108524796Y-60111819D01*
X108986981Y-60574004D01*
X109020466Y-60635327D01*
X109023300Y-60661685D01*
X109023300Y-66788313D01*
X109014655Y-66817753D01*
X109008132Y-66847740D01*
X109004377Y-66852755D01*
X109003615Y-66855352D01*
X108986981Y-66875994D01*
X108916181Y-66946794D01*
X108854858Y-66980279D01*
X108785166Y-66975295D01*
X108729233Y-66933423D01*
X108704816Y-66867959D01*
X108704500Y-66859113D01*
X108704500Y-65771323D01*
X108704499Y-65771321D01*
X108689967Y-65698264D01*
X108689966Y-65698260D01*
X108676113Y-65677527D01*
X108634601Y-65615399D01*
X108551740Y-65560034D01*
X108551739Y-65560033D01*
X108551735Y-65560032D01*
X108478677Y-65545500D01*
X108478674Y-65545500D01*
X107163255Y-65545500D01*
X107096216Y-65525815D01*
X107075574Y-65509181D01*
X106195915Y-64629522D01*
X106195913Y-64629520D01*
X106150250Y-64603156D01*
X106104589Y-64576793D01*
X106053657Y-64563146D01*
X106002727Y-64549500D01*
X106002726Y-64549500D01*
X95914666Y-64549500D01*
X95847627Y-64529815D01*
X95801872Y-64477011D01*
X95791928Y-64407853D01*
X95794891Y-64393407D01*
X95800500Y-64372475D01*
X95800500Y-64227525D01*
X95762984Y-64087515D01*
X95762982Y-64087511D01*
X95762982Y-64087510D01*
X95762981Y-64087509D01*
X95714119Y-64002879D01*
X95697645Y-63934979D01*
X95720497Y-63868952D01*
X95733818Y-63853203D01*
X98361425Y-61225598D01*
X98404436Y-61151102D01*
X98426700Y-61068011D01*
X98426700Y-60981989D01*
X98426700Y-59431989D01*
X98414909Y-59387984D01*
X98404436Y-59348898D01*
X98404434Y-59348895D01*
X98404434Y-59348893D01*
X98404433Y-59348892D01*
X98361428Y-59274408D01*
X98361425Y-59274402D01*
X90244998Y-51157975D01*
X90241659Y-51156047D01*
X90170507Y-51114966D01*
X90170504Y-51114965D01*
X90170503Y-51114964D01*
X90170502Y-51114964D01*
X90087411Y-51092700D01*
X90087410Y-51092700D01*
X83531085Y-51092700D01*
X83464046Y-51073015D01*
X83443404Y-51056381D01*
X82188650Y-49801627D01*
X84801000Y-49801627D01*
X84801000Y-49988572D01*
X84837467Y-50171905D01*
X84837469Y-50171913D01*
X84909005Y-50344617D01*
X84909010Y-50344626D01*
X85012862Y-50500051D01*
X85012865Y-50500055D01*
X85145044Y-50632234D01*
X85145048Y-50632237D01*
X85300473Y-50736089D01*
X85300479Y-50736092D01*
X85300480Y-50736093D01*
X85473187Y-50807631D01*
X85573203Y-50827525D01*
X85656527Y-50844099D01*
X85656531Y-50844100D01*
X85656532Y-50844100D01*
X85843469Y-50844100D01*
X85843470Y-50844099D01*
X86026813Y-50807631D01*
X86199520Y-50736093D01*
X86354952Y-50632237D01*
X86487137Y-50500052D01*
X86590993Y-50344620D01*
X86662531Y-50171913D01*
X86699000Y-49988568D01*
X86699000Y-49801632D01*
X86662531Y-49618287D01*
X86590993Y-49445580D01*
X86590992Y-49445579D01*
X86590989Y-49445573D01*
X86487137Y-49290148D01*
X86487134Y-49290144D01*
X86354955Y-49157965D01*
X86354951Y-49157962D01*
X86199526Y-49054110D01*
X86199517Y-49054105D01*
X86026813Y-48982569D01*
X86026805Y-48982567D01*
X85843472Y-48946100D01*
X85843468Y-48946100D01*
X85656532Y-48946100D01*
X85656527Y-48946100D01*
X85473194Y-48982567D01*
X85473186Y-48982569D01*
X85300482Y-49054105D01*
X85300473Y-49054110D01*
X85145048Y-49157962D01*
X85145044Y-49157965D01*
X85012865Y-49290144D01*
X85012862Y-49290148D01*
X84909010Y-49445573D01*
X84909005Y-49445582D01*
X84837469Y-49618286D01*
X84837467Y-49618294D01*
X84801000Y-49801627D01*
X82188650Y-49801627D01*
X79688650Y-47301627D01*
X84801000Y-47301627D01*
X84801000Y-47488572D01*
X84837467Y-47671905D01*
X84837469Y-47671913D01*
X84909005Y-47844617D01*
X84909010Y-47844626D01*
X85012862Y-48000051D01*
X85012865Y-48000055D01*
X85145044Y-48132234D01*
X85145048Y-48132237D01*
X85300473Y-48236089D01*
X85300479Y-48236092D01*
X85300480Y-48236093D01*
X85473187Y-48307631D01*
X85656527Y-48344099D01*
X85656531Y-48344100D01*
X85656532Y-48344100D01*
X85843469Y-48344100D01*
X85843470Y-48344099D01*
X86026813Y-48307631D01*
X86199520Y-48236093D01*
X86354952Y-48132237D01*
X86487137Y-48000052D01*
X86590993Y-47844620D01*
X86662531Y-47671913D01*
X86699000Y-47488568D01*
X86699000Y-47301632D01*
X86662531Y-47118287D01*
X86607199Y-46984705D01*
X86590994Y-46945582D01*
X86590989Y-46945573D01*
X86487137Y-46790148D01*
X86487134Y-46790144D01*
X86354955Y-46657965D01*
X86354951Y-46657962D01*
X86199526Y-46554110D01*
X86199517Y-46554105D01*
X86026813Y-46482569D01*
X86026805Y-46482567D01*
X85843472Y-46446100D01*
X85843468Y-46446100D01*
X85656532Y-46446100D01*
X85656527Y-46446100D01*
X85473194Y-46482567D01*
X85473186Y-46482569D01*
X85300482Y-46554105D01*
X85300473Y-46554110D01*
X85145048Y-46657962D01*
X85145044Y-46657965D01*
X85012865Y-46790144D01*
X85012862Y-46790148D01*
X84909010Y-46945573D01*
X84909005Y-46945582D01*
X84837469Y-47118286D01*
X84837467Y-47118294D01*
X84801000Y-47301627D01*
X79688650Y-47301627D01*
X77188650Y-44801627D01*
X84801000Y-44801627D01*
X84801000Y-44988572D01*
X84837467Y-45171905D01*
X84837469Y-45171913D01*
X84909005Y-45344617D01*
X84909010Y-45344626D01*
X85012862Y-45500051D01*
X85012865Y-45500055D01*
X85145044Y-45632234D01*
X85145048Y-45632237D01*
X85300473Y-45736089D01*
X85300479Y-45736092D01*
X85300480Y-45736093D01*
X85473187Y-45807631D01*
X85656527Y-45844099D01*
X85656531Y-45844100D01*
X85656532Y-45844100D01*
X85843469Y-45844100D01*
X85843470Y-45844099D01*
X86026813Y-45807631D01*
X86049286Y-45798321D01*
X86118755Y-45790853D01*
X86181234Y-45822128D01*
X86184420Y-45825202D01*
X90167140Y-49807921D01*
X90186846Y-49833602D01*
X90219530Y-49890212D01*
X100794531Y-60465212D01*
X100859788Y-60530469D01*
X100859791Y-60530470D01*
X100859794Y-60530473D01*
X100939706Y-60576611D01*
X100939707Y-60576611D01*
X100939712Y-60576614D01*
X101028856Y-60600500D01*
X106270614Y-60600500D01*
X106337653Y-60620185D01*
X106358295Y-60636819D01*
X106411985Y-60690509D01*
X106411986Y-60690510D01*
X106411988Y-60690511D01*
X106537511Y-60762982D01*
X106537512Y-60762982D01*
X106537515Y-60762984D01*
X106677525Y-60800500D01*
X106677528Y-60800500D01*
X106822472Y-60800500D01*
X106822475Y-60800500D01*
X106962485Y-60762984D01*
X107088015Y-60690509D01*
X107190509Y-60588015D01*
X107262984Y-60462485D01*
X107300500Y-60322475D01*
X107300500Y-60177525D01*
X107262984Y-60037515D01*
X107241613Y-60000500D01*
X107190511Y-59911988D01*
X107190506Y-59911982D01*
X107088017Y-59809493D01*
X107088011Y-59809488D01*
X106962488Y-59737017D01*
X106962489Y-59737017D01*
X106951006Y-59733940D01*
X106822475Y-59699500D01*
X106677525Y-59699500D01*
X106548993Y-59733940D01*
X106537511Y-59737017D01*
X106411988Y-59809488D01*
X106411982Y-59809493D01*
X106358295Y-59863181D01*
X106296972Y-59896666D01*
X106270614Y-59899500D01*
X101271543Y-59899500D01*
X101204504Y-59879815D01*
X101183862Y-59863181D01*
X90832857Y-49512175D01*
X90823585Y-49501800D01*
X90817796Y-49494540D01*
X90780469Y-49429888D01*
X90715212Y-49364631D01*
X89195198Y-47844617D01*
X87583825Y-46233243D01*
X87550340Y-46171920D01*
X87555324Y-46102228D01*
X87597196Y-46046295D01*
X87662660Y-46021878D01*
X87694406Y-46024910D01*
X87694469Y-46024439D01*
X87702523Y-46025499D01*
X87702525Y-46025500D01*
X87702527Y-46025500D01*
X87847472Y-46025500D01*
X87847475Y-46025500D01*
X87987485Y-45987984D01*
X88113015Y-45915509D01*
X88215509Y-45813015D01*
X88287984Y-45687485D01*
X88325500Y-45547475D01*
X88325500Y-45506899D01*
X88345185Y-45439860D01*
X88361819Y-45419218D01*
X88594218Y-45186819D01*
X88655541Y-45153334D01*
X88681899Y-45150500D01*
X98024434Y-45150500D01*
X98024436Y-45150500D01*
X98066075Y-45139342D01*
X98074875Y-45136985D01*
X98089895Y-45132960D01*
X98119938Y-45124910D01*
X98205562Y-45075475D01*
X98275475Y-45005562D01*
X98275474Y-45005562D01*
X98334043Y-44946993D01*
X100194219Y-43086819D01*
X100255542Y-43053334D01*
X100281900Y-43050500D01*
X100322472Y-43050500D01*
X100322475Y-43050500D01*
X100462485Y-43012984D01*
X100588015Y-42940509D01*
X100690509Y-42838015D01*
X100762984Y-42712485D01*
X100800500Y-42572475D01*
X100800500Y-42427525D01*
X100762984Y-42287515D01*
X100741613Y-42250500D01*
X100690511Y-42161988D01*
X100690506Y-42161982D01*
X100588017Y-42059493D01*
X100588011Y-42059488D01*
X100462488Y-41987017D01*
X100462489Y-41987017D01*
X100451006Y-41983940D01*
X100322475Y-41949500D01*
X100177525Y-41949500D01*
X100048993Y-41983940D01*
X100037511Y-41987017D01*
X99911988Y-42059488D01*
X99911982Y-42059493D01*
X99809493Y-42161982D01*
X99809488Y-42161988D01*
X99737017Y-42287511D01*
X99737016Y-42287515D01*
X99699500Y-42427525D01*
X99699500Y-42427527D01*
X99699500Y-42468100D01*
X99679815Y-42535139D01*
X99663181Y-42555781D01*
X97855782Y-44363181D01*
X97794459Y-44396666D01*
X97768101Y-44399500D01*
X88425564Y-44399500D01*
X88377812Y-44412295D01*
X88377811Y-44412294D01*
X88330063Y-44425089D01*
X88330062Y-44425089D01*
X88244435Y-44474527D01*
X87830782Y-44888181D01*
X87769459Y-44921666D01*
X87743101Y-44924500D01*
X87702525Y-44924500D01*
X87573993Y-44958940D01*
X87562511Y-44962017D01*
X87436988Y-45034488D01*
X87436982Y-45034493D01*
X87334493Y-45136982D01*
X87334488Y-45136988D01*
X87262017Y-45262511D01*
X87262016Y-45262515D01*
X87224500Y-45402525D01*
X87224500Y-45402527D01*
X87224500Y-45547473D01*
X87225561Y-45555531D01*
X87223990Y-45555737D01*
X87222547Y-45616255D01*
X87183382Y-45674116D01*
X87119152Y-45701617D01*
X87050250Y-45690027D01*
X87016756Y-45666174D01*
X86680102Y-45329520D01*
X86646617Y-45268197D01*
X86651601Y-45198505D01*
X86653222Y-45194386D01*
X86662531Y-45171913D01*
X86699000Y-44988568D01*
X86699000Y-44801632D01*
X86662531Y-44618287D01*
X86602983Y-44474526D01*
X86590994Y-44445582D01*
X86590989Y-44445573D01*
X86487137Y-44290148D01*
X86487134Y-44290144D01*
X86354955Y-44157965D01*
X86354951Y-44157962D01*
X86199526Y-44054110D01*
X86199517Y-44054105D01*
X86026813Y-43982569D01*
X86026805Y-43982567D01*
X85843472Y-43946100D01*
X85843468Y-43946100D01*
X85656532Y-43946100D01*
X85656527Y-43946100D01*
X85473194Y-43982567D01*
X85473186Y-43982569D01*
X85300482Y-44054105D01*
X85300473Y-44054110D01*
X85145048Y-44157962D01*
X85145044Y-44157965D01*
X85012865Y-44290144D01*
X85012862Y-44290148D01*
X84909010Y-44445573D01*
X84909005Y-44445582D01*
X84837469Y-44618286D01*
X84837467Y-44618294D01*
X84801000Y-44801627D01*
X77188650Y-44801627D01*
X72627126Y-40240103D01*
X72593641Y-40178780D01*
X72598625Y-40109088D01*
X72607417Y-40090428D01*
X72637984Y-40037485D01*
X72675500Y-39897475D01*
X72675500Y-39752525D01*
X72637984Y-39612515D01*
X72623657Y-39587701D01*
X72607184Y-39519802D01*
X72630035Y-39453775D01*
X72684956Y-39410583D01*
X72731044Y-39401700D01*
X79661267Y-39401700D01*
X79728306Y-39421385D01*
X79774061Y-39474189D01*
X79784005Y-39543347D01*
X79754980Y-39606903D01*
X79730159Y-39628800D01*
X79669399Y-39669399D01*
X79614033Y-39752260D01*
X79614032Y-39752264D01*
X79599500Y-39825321D01*
X79599500Y-41574678D01*
X79614032Y-41647735D01*
X79614033Y-41647739D01*
X79614034Y-41647740D01*
X79669399Y-41730601D01*
X79732069Y-41772475D01*
X79752260Y-41785966D01*
X79752264Y-41785967D01*
X79825321Y-41800499D01*
X79825324Y-41800500D01*
X79825326Y-41800500D01*
X81574676Y-41800500D01*
X81574677Y-41800499D01*
X81647740Y-41785966D01*
X81730601Y-41730601D01*
X81785966Y-41647740D01*
X81800500Y-41574674D01*
X81800500Y-39825326D01*
X81800500Y-39825323D01*
X81800499Y-39825321D01*
X81785967Y-39752264D01*
X81785966Y-39752260D01*
X81776094Y-39737485D01*
X81730601Y-39669399D01*
X81669842Y-39628801D01*
X81625037Y-39575191D01*
X81616330Y-39505866D01*
X81646484Y-39442838D01*
X81705927Y-39406118D01*
X81738733Y-39401700D01*
X86838315Y-39401700D01*
X86905354Y-39421385D01*
X86925996Y-39438019D01*
X89063181Y-41575204D01*
X89096666Y-41636527D01*
X89099500Y-41662885D01*
X89099500Y-41772475D01*
X89131326Y-41891250D01*
X89137017Y-41912488D01*
X89209488Y-42038011D01*
X89209490Y-42038013D01*
X89209491Y-42038015D01*
X89311985Y-42140509D01*
X89311986Y-42140510D01*
X89311988Y-42140511D01*
X89437511Y-42212982D01*
X89437512Y-42212982D01*
X89437515Y-42212984D01*
X89577525Y-42250500D01*
X89577528Y-42250500D01*
X89722472Y-42250500D01*
X89722475Y-42250500D01*
X89862485Y-42212984D01*
X89988015Y-42140509D01*
X90090509Y-42038015D01*
X90162984Y-41912485D01*
X90200500Y-41772475D01*
X90200500Y-41627525D01*
X90162984Y-41487515D01*
X90145073Y-41456493D01*
X90090511Y-41361988D01*
X90090506Y-41361982D01*
X89988017Y-41259493D01*
X89988011Y-41259488D01*
X89862488Y-41187017D01*
X89862489Y-41187017D01*
X89825788Y-41177183D01*
X89722475Y-41149500D01*
X89612885Y-41149500D01*
X89545846Y-41129815D01*
X89525204Y-41113181D01*
X87514954Y-39102931D01*
X87481469Y-39041608D01*
X87486453Y-38971916D01*
X87528325Y-38915983D01*
X87593789Y-38891566D01*
X87602635Y-38891250D01*
X94663817Y-38891250D01*
X94730856Y-38910935D01*
G37*
%TD.AperFunction*%
%TA.AperFunction,Conductor*%
G36*
X65647903Y-38910935D02*
G01*
X65693658Y-38963739D01*
X65703602Y-39032897D01*
X65674577Y-39096453D01*
X65668545Y-39102931D01*
X65584493Y-39186982D01*
X65584488Y-39186988D01*
X65512017Y-39312511D01*
X65512016Y-39312515D01*
X65474500Y-39452525D01*
X65474500Y-39597475D01*
X65512016Y-39737485D01*
X65512017Y-39737488D01*
X65584488Y-39863011D01*
X65584490Y-39863013D01*
X65584491Y-39863015D01*
X65686985Y-39965509D01*
X65686986Y-39965510D01*
X65686988Y-39965511D01*
X65812511Y-40037982D01*
X65812512Y-40037982D01*
X65812515Y-40037984D01*
X65952525Y-40075500D01*
X65952528Y-40075500D01*
X66097472Y-40075500D01*
X66097475Y-40075500D01*
X66237485Y-40037984D01*
X66363015Y-39965509D01*
X66465509Y-39863015D01*
X66537984Y-39737485D01*
X66575500Y-39597475D01*
X66575500Y-39525700D01*
X66595185Y-39458661D01*
X66647989Y-39412906D01*
X66699500Y-39401700D01*
X71518956Y-39401700D01*
X71585995Y-39421385D01*
X71631750Y-39474189D01*
X71641694Y-39543347D01*
X71626342Y-39587702D01*
X71612017Y-39612512D01*
X71612016Y-39612514D01*
X71612016Y-39612515D01*
X71574500Y-39752525D01*
X71574500Y-39897475D01*
X71612016Y-40037485D01*
X71612017Y-40037488D01*
X71684488Y-40163011D01*
X71684489Y-40163012D01*
X71684491Y-40163015D01*
X71761579Y-40240103D01*
X71787183Y-40265707D01*
X71819275Y-40321292D01*
X71820563Y-40326102D01*
X71820566Y-40326107D01*
X71861647Y-40397259D01*
X71863575Y-40400598D01*
X71863577Y-40400600D01*
X72246937Y-40783960D01*
X72280422Y-40845283D01*
X72275438Y-40914975D01*
X72233566Y-40970908D01*
X72191352Y-40991415D01*
X72162054Y-40999266D01*
X72099657Y-41015985D01*
X71974135Y-41088456D01*
X71974129Y-41088461D01*
X71871640Y-41190950D01*
X71871635Y-41190956D01*
X71799164Y-41316479D01*
X71799161Y-41316486D01*
X71790437Y-41349045D01*
X71758344Y-41404631D01*
X70325996Y-42836981D01*
X70264673Y-42870466D01*
X70238315Y-42873300D01*
X67543011Y-42873300D01*
X67456989Y-42873300D01*
X67373898Y-42895564D01*
X67373897Y-42895564D01*
X67373895Y-42895565D01*
X67373892Y-42895566D01*
X67299408Y-42938571D01*
X67299399Y-42938577D01*
X66363577Y-43874399D01*
X66363571Y-43874408D01*
X66320566Y-43948892D01*
X66320565Y-43948893D01*
X66320564Y-43948898D01*
X66311542Y-43982569D01*
X66298300Y-44031989D01*
X66298300Y-44181989D01*
X66298300Y-44268011D01*
X66304232Y-44290148D01*
X66319075Y-44345545D01*
X66323300Y-44377638D01*
X66323300Y-46793010D01*
X66345565Y-46876104D01*
X66345566Y-46876107D01*
X66385674Y-46945573D01*
X66388575Y-46950598D01*
X66388577Y-46950600D01*
X68936981Y-49499004D01*
X68970466Y-49560327D01*
X68973300Y-49586685D01*
X68973300Y-50420414D01*
X68953615Y-50487453D01*
X68900811Y-50533208D01*
X68831653Y-50543152D01*
X68768097Y-50514127D01*
X68761619Y-50508095D01*
X68713017Y-50459493D01*
X68713011Y-50459488D01*
X68587488Y-50387017D01*
X68587489Y-50387017D01*
X68576006Y-50383940D01*
X68447475Y-50349500D01*
X68302525Y-50349500D01*
X68173993Y-50383940D01*
X68162511Y-50387017D01*
X68036988Y-50459488D01*
X68036982Y-50459493D01*
X67934493Y-50561982D01*
X67934488Y-50561988D01*
X67862017Y-50687511D01*
X67862016Y-50687515D01*
X67824500Y-50827525D01*
X67824500Y-50972475D01*
X67846948Y-51056250D01*
X67862017Y-51112488D01*
X67934488Y-51238011D01*
X67934490Y-51238013D01*
X67934491Y-51238015D01*
X68036985Y-51340509D01*
X68036986Y-51340510D01*
X68036988Y-51340511D01*
X68162511Y-51412982D01*
X68162512Y-51412982D01*
X68162515Y-51412984D01*
X68302525Y-51450500D01*
X68302528Y-51450500D01*
X68447472Y-51450500D01*
X68447475Y-51450500D01*
X68587485Y-51412984D01*
X68713015Y-51340509D01*
X68761619Y-51291905D01*
X68822942Y-51258420D01*
X68892634Y-51263404D01*
X68948567Y-51305276D01*
X68972984Y-51370740D01*
X68973300Y-51379586D01*
X68973300Y-54393506D01*
X68953615Y-54460545D01*
X68900811Y-54506300D01*
X68831653Y-54516244D01*
X68817207Y-54513281D01*
X68744470Y-54493791D01*
X68672475Y-54474500D01*
X68527525Y-54474500D01*
X68408847Y-54506300D01*
X68387511Y-54512017D01*
X68261988Y-54584488D01*
X68261982Y-54584493D01*
X68159493Y-54686982D01*
X68159488Y-54686988D01*
X68087017Y-54812511D01*
X68087016Y-54812515D01*
X68049500Y-54952525D01*
X68049500Y-55097475D01*
X68080460Y-55213017D01*
X68087017Y-55237488D01*
X68159488Y-55363011D01*
X68159490Y-55363013D01*
X68159491Y-55363015D01*
X68261985Y-55465509D01*
X68261986Y-55465510D01*
X68261988Y-55465511D01*
X68387511Y-55537982D01*
X68387512Y-55537982D01*
X68387515Y-55537984D01*
X68527525Y-55575500D01*
X68527528Y-55575500D01*
X68672472Y-55575500D01*
X68672475Y-55575500D01*
X68812485Y-55537984D01*
X68812488Y-55537982D01*
X68817206Y-55536718D01*
X68887056Y-55538381D01*
X68944918Y-55577543D01*
X68972423Y-55641771D01*
X68973300Y-55656493D01*
X68973300Y-65168010D01*
X68995565Y-65251104D01*
X68995566Y-65251107D01*
X69036647Y-65322259D01*
X69038575Y-65325598D01*
X69724401Y-66011425D01*
X69724403Y-66011426D01*
X69724407Y-66011429D01*
X69755735Y-66029516D01*
X69755738Y-66029517D01*
X69755743Y-66029520D01*
X69798899Y-66054436D01*
X69881989Y-66076700D01*
X86471813Y-66076700D01*
X86538852Y-66096385D01*
X86559494Y-66113018D01*
X86636985Y-66190509D01*
X86636987Y-66190510D01*
X86636988Y-66190511D01*
X86762511Y-66262982D01*
X86762512Y-66262982D01*
X86762515Y-66262984D01*
X86902525Y-66300500D01*
X86902528Y-66300500D01*
X87047472Y-66300500D01*
X87047475Y-66300500D01*
X87187485Y-66262984D01*
X87313015Y-66190509D01*
X87415509Y-66088015D01*
X87487984Y-65962485D01*
X87525500Y-65822475D01*
X87525500Y-65677525D01*
X87487984Y-65537515D01*
X87487982Y-65537512D01*
X87487982Y-65537510D01*
X87487981Y-65537507D01*
X87487397Y-65536496D01*
X87487163Y-65535534D01*
X87484872Y-65530001D01*
X87485734Y-65529643D01*
X87470927Y-65468595D01*
X87493781Y-65402569D01*
X87548704Y-65359381D01*
X87594786Y-65350500D01*
X94294030Y-65350500D01*
X94361069Y-65370185D01*
X94406824Y-65422989D01*
X94416768Y-65492147D01*
X94387743Y-65555703D01*
X94328965Y-65593477D01*
X94318221Y-65596117D01*
X94248264Y-65610032D01*
X94248260Y-65610033D01*
X94165399Y-65665399D01*
X94110033Y-65748260D01*
X94110032Y-65748264D01*
X94095500Y-65821321D01*
X94095500Y-66157809D01*
X94075815Y-66224848D01*
X94023011Y-66270603D01*
X93953853Y-66280547D01*
X93890297Y-66251522D01*
X93856939Y-66205262D01*
X93801558Y-66071560D01*
X93702569Y-65923412D01*
X93576587Y-65797430D01*
X93502513Y-65747936D01*
X93428441Y-65698443D01*
X93427999Y-65698260D01*
X93263833Y-65630260D01*
X93263827Y-65630258D01*
X93104169Y-65598500D01*
X93104167Y-65598500D01*
X93089085Y-65595500D01*
X92910915Y-65595500D01*
X92895833Y-65598500D01*
X92895831Y-65598500D01*
X92736172Y-65630258D01*
X92736166Y-65630260D01*
X92571560Y-65698442D01*
X92423412Y-65797430D01*
X92297430Y-65923412D01*
X92198442Y-66071560D01*
X92130260Y-66236166D01*
X92130258Y-66236172D01*
X92095500Y-66410912D01*
X92095500Y-66410915D01*
X92095500Y-66589085D01*
X92095500Y-66589087D01*
X92095499Y-66589087D01*
X92130258Y-66763827D01*
X92130260Y-66763833D01*
X92198442Y-66928439D01*
X92297430Y-67076587D01*
X92423412Y-67202569D01*
X92423415Y-67202571D01*
X92571559Y-67301557D01*
X92736167Y-67369740D01*
X92736171Y-67369740D01*
X92736172Y-67369741D01*
X92910912Y-67404500D01*
X92910915Y-67404500D01*
X93089087Y-67404500D01*
X93206649Y-67381114D01*
X93263833Y-67369740D01*
X93428441Y-67301557D01*
X93576585Y-67202571D01*
X93702571Y-67076585D01*
X93801557Y-66928441D01*
X93856939Y-66794736D01*
X93900780Y-66740334D01*
X93967074Y-66718269D01*
X94034773Y-66735548D01*
X94082384Y-66786685D01*
X94095500Y-66842190D01*
X94095500Y-67178678D01*
X94110032Y-67251735D01*
X94110033Y-67251739D01*
X94110034Y-67251740D01*
X94165399Y-67334601D01*
X94217991Y-67369741D01*
X94248260Y-67389966D01*
X94248264Y-67389967D01*
X94321321Y-67404499D01*
X94321324Y-67404500D01*
X94321326Y-67404500D01*
X95678676Y-67404500D01*
X95678677Y-67404499D01*
X95751740Y-67389966D01*
X95834601Y-67334601D01*
X95889966Y-67251740D01*
X95904500Y-67178674D01*
X95904500Y-65821326D01*
X95904500Y-65821323D01*
X95904499Y-65821321D01*
X95889967Y-65748264D01*
X95889966Y-65748260D01*
X95834601Y-65665399D01*
X95779235Y-65628405D01*
X95751739Y-65610033D01*
X95751735Y-65610032D01*
X95681779Y-65596117D01*
X95619868Y-65563732D01*
X95585294Y-65503016D01*
X95589033Y-65433247D01*
X95629900Y-65376575D01*
X95694918Y-65350994D01*
X95705970Y-65350500D01*
X105732745Y-65350500D01*
X105799784Y-65370185D01*
X105820426Y-65386819D01*
X106859181Y-66425574D01*
X106892666Y-66486897D01*
X106895500Y-66513255D01*
X106895500Y-67128675D01*
X106910032Y-67201735D01*
X106910033Y-67201739D01*
X106910034Y-67201740D01*
X106965399Y-67284601D01*
X107040229Y-67334600D01*
X107048260Y-67339966D01*
X107048264Y-67339967D01*
X107121321Y-67354499D01*
X107121324Y-67354500D01*
X108209114Y-67354500D01*
X108276153Y-67374185D01*
X108321908Y-67426989D01*
X108331852Y-67496147D01*
X108302827Y-67559703D01*
X108296806Y-67566170D01*
X108200994Y-67661982D01*
X108139674Y-67695466D01*
X108113315Y-67698300D01*
X66886686Y-67698300D01*
X66819647Y-67678615D01*
X66799005Y-67661981D01*
X62629600Y-63492577D01*
X62629598Y-63492575D01*
X62626259Y-63490647D01*
X62555107Y-63449566D01*
X62555104Y-63449565D01*
X62555103Y-63449564D01*
X62555102Y-63449564D01*
X62472011Y-63427300D01*
X62472010Y-63427300D01*
X62463951Y-63426239D01*
X62464383Y-63422953D01*
X62412148Y-63407615D01*
X62391506Y-63390982D01*
X62314015Y-63313491D01*
X62314012Y-63313489D01*
X62314011Y-63313488D01*
X62188488Y-63241017D01*
X62188489Y-63241017D01*
X62170097Y-63236089D01*
X62048475Y-63203500D01*
X61903525Y-63203500D01*
X61781903Y-63236089D01*
X61763511Y-63241017D01*
X61686500Y-63285480D01*
X61618600Y-63301953D01*
X61552573Y-63279100D01*
X61509382Y-63224179D01*
X61500500Y-63178093D01*
X61500500Y-56151034D01*
X65674500Y-56151034D01*
X65674500Y-56310466D01*
X65715764Y-56464464D01*
X65795479Y-56602536D01*
X65908214Y-56715271D01*
X66046286Y-56794986D01*
X66200284Y-56836250D01*
X66200287Y-56836250D01*
X66359713Y-56836250D01*
X66359716Y-56836250D01*
X66513714Y-56794986D01*
X66651786Y-56715271D01*
X66764521Y-56602536D01*
X66844236Y-56464464D01*
X66885500Y-56310466D01*
X66885500Y-56151034D01*
X66844236Y-55997036D01*
X66764521Y-55858964D01*
X66651786Y-55746229D01*
X66513714Y-55666514D01*
X66513715Y-55666514D01*
X66475214Y-55656198D01*
X66359716Y-55625250D01*
X66200284Y-55625250D01*
X66084785Y-55656198D01*
X66046285Y-55666514D01*
X65908215Y-55746228D01*
X65908212Y-55746230D01*
X65795480Y-55858962D01*
X65795478Y-55858965D01*
X65715764Y-55997035D01*
X65715764Y-55997036D01*
X65674500Y-56151034D01*
X61500500Y-56151034D01*
X61500500Y-50371034D01*
X65674500Y-50371034D01*
X65674500Y-50530466D01*
X65715764Y-50684464D01*
X65795479Y-50822536D01*
X65908214Y-50935271D01*
X66046286Y-51014986D01*
X66200284Y-51056250D01*
X66200287Y-51056250D01*
X66359713Y-51056250D01*
X66359716Y-51056250D01*
X66513714Y-51014986D01*
X66651786Y-50935271D01*
X66764521Y-50822536D01*
X66844236Y-50684464D01*
X66885500Y-50530466D01*
X66885500Y-50371034D01*
X66844236Y-50217036D01*
X66764521Y-50078964D01*
X66651786Y-49966229D01*
X66513714Y-49886514D01*
X66513715Y-49886514D01*
X66475214Y-49876198D01*
X66359716Y-49845250D01*
X66200284Y-49845250D01*
X66084785Y-49876198D01*
X66046285Y-49886514D01*
X65908215Y-49966228D01*
X65908212Y-49966230D01*
X65795480Y-50078962D01*
X65795478Y-50078965D01*
X65715764Y-50217035D01*
X65715764Y-50217036D01*
X65674500Y-50371034D01*
X61500500Y-50371034D01*
X61500500Y-41261301D01*
X61520185Y-41194262D01*
X61572989Y-41148507D01*
X61642147Y-41138563D01*
X61705703Y-41167588D01*
X61724815Y-41188412D01*
X61855483Y-41368260D01*
X62022490Y-41535267D01*
X62213567Y-41674093D01*
X62312991Y-41724752D01*
X62424003Y-41781316D01*
X62424005Y-41781316D01*
X62424008Y-41781318D01*
X62544412Y-41820439D01*
X62648631Y-41854303D01*
X62881903Y-41891250D01*
X62881908Y-41891250D01*
X63118097Y-41891250D01*
X63351368Y-41854303D01*
X63575992Y-41781318D01*
X63786433Y-41674093D01*
X63977510Y-41535267D01*
X64144517Y-41368260D01*
X64283343Y-41177183D01*
X64390568Y-40966742D01*
X64463553Y-40742118D01*
X64488929Y-40581900D01*
X64500500Y-40508847D01*
X64500500Y-40272652D01*
X64463553Y-40039381D01*
X64406248Y-39863017D01*
X64390568Y-39814758D01*
X64390566Y-39814755D01*
X64390566Y-39814753D01*
X64299358Y-39635749D01*
X64283343Y-39604317D01*
X64144517Y-39413240D01*
X63977510Y-39246233D01*
X63797664Y-39115566D01*
X63755000Y-39060238D01*
X63749021Y-38990624D01*
X63781627Y-38928830D01*
X63842466Y-38894472D01*
X63870551Y-38891250D01*
X65580864Y-38891250D01*
X65647903Y-38910935D01*
G37*
%TD.AperFunction*%
%TA.AperFunction,Conductor*%
G36*
X73018285Y-41567870D02*
G01*
X73057154Y-41594177D01*
X83143802Y-51680825D01*
X83176148Y-51699500D01*
X83218292Y-51723833D01*
X83218293Y-51723833D01*
X83218298Y-51723836D01*
X83301389Y-51746100D01*
X83387411Y-51746100D01*
X84810307Y-51746100D01*
X84877346Y-51765785D01*
X84923101Y-51818589D01*
X84933045Y-51887747D01*
X84913409Y-51938991D01*
X84909010Y-51945573D01*
X84909005Y-51945582D01*
X84837469Y-52118286D01*
X84837467Y-52118294D01*
X84801000Y-52301627D01*
X84801000Y-52488572D01*
X84837467Y-52671905D01*
X84837469Y-52671913D01*
X84909005Y-52844617D01*
X84909010Y-52844626D01*
X85012862Y-53000051D01*
X85012865Y-53000055D01*
X85145044Y-53132234D01*
X85145052Y-53132240D01*
X85205152Y-53172398D01*
X85249958Y-53226010D01*
X85258665Y-53295335D01*
X85228511Y-53358362D01*
X85169068Y-53395082D01*
X85136262Y-53399500D01*
X78821544Y-53399500D01*
X78754505Y-53379815D01*
X78733863Y-53363181D01*
X75567981Y-50197299D01*
X75534496Y-50135976D01*
X75539480Y-50066284D01*
X75581352Y-50010351D01*
X75646816Y-49985934D01*
X75687751Y-49989842D01*
X75727525Y-50000500D01*
X75727528Y-50000500D01*
X75872472Y-50000500D01*
X75872475Y-50000500D01*
X76012485Y-49962984D01*
X76138015Y-49890509D01*
X76240509Y-49788015D01*
X76312984Y-49662485D01*
X76350500Y-49522475D01*
X76350500Y-49377525D01*
X76312984Y-49237515D01*
X76290979Y-49199402D01*
X76240511Y-49111988D01*
X76240506Y-49111982D01*
X76138017Y-49009493D01*
X76138011Y-49009488D01*
X76012488Y-48937017D01*
X76012489Y-48937017D01*
X76001006Y-48933940D01*
X75872475Y-48899500D01*
X75727525Y-48899500D01*
X75598993Y-48933940D01*
X75587511Y-48937017D01*
X75461988Y-49009488D01*
X75461982Y-49009493D01*
X75359493Y-49111982D01*
X75359488Y-49111988D01*
X75287017Y-49237511D01*
X75287016Y-49237515D01*
X75249500Y-49377525D01*
X75249500Y-49377527D01*
X75249500Y-49522476D01*
X75260156Y-49562245D01*
X75258493Y-49632094D01*
X75219330Y-49689957D01*
X75155101Y-49717460D01*
X75086199Y-49705873D01*
X75052700Y-49682018D01*
X71090213Y-45719531D01*
X71090208Y-45719527D01*
X71010290Y-45673387D01*
X71010289Y-45673386D01*
X71010288Y-45673386D01*
X70921144Y-45649500D01*
X70921143Y-45649500D01*
X68479386Y-45649500D01*
X68412347Y-45629815D01*
X68391705Y-45613181D01*
X68338017Y-45559493D01*
X68338011Y-45559488D01*
X68212488Y-45487017D01*
X68212489Y-45487017D01*
X68201006Y-45483940D01*
X68072475Y-45449500D01*
X67927525Y-45449500D01*
X67798993Y-45483940D01*
X67787511Y-45487017D01*
X67661988Y-45559488D01*
X67661982Y-45559493D01*
X67559493Y-45661982D01*
X67559488Y-45661988D01*
X67487017Y-45787511D01*
X67487016Y-45787515D01*
X67449500Y-45927525D01*
X67449500Y-46072475D01*
X67476147Y-46171920D01*
X67487017Y-46212488D01*
X67559488Y-46338011D01*
X67559490Y-46338013D01*
X67559491Y-46338015D01*
X67661985Y-46440509D01*
X67661986Y-46440510D01*
X67661988Y-46440511D01*
X67787511Y-46512982D01*
X67787512Y-46512982D01*
X67787515Y-46512984D01*
X67927525Y-46550500D01*
X67927528Y-46550500D01*
X68072472Y-46550500D01*
X68072475Y-46550500D01*
X68212485Y-46512984D01*
X68338015Y-46440509D01*
X68391705Y-46386819D01*
X68453028Y-46353334D01*
X68479386Y-46350500D01*
X70678456Y-46350500D01*
X70745495Y-46370185D01*
X70766137Y-46386819D01*
X73143875Y-48764557D01*
X73177360Y-48825880D01*
X73172376Y-48895572D01*
X73130504Y-48951505D01*
X73084770Y-48970136D01*
X73085376Y-48972397D01*
X73077527Y-48974500D01*
X73077525Y-48974500D01*
X72951386Y-49008299D01*
X72937511Y-49012017D01*
X72811988Y-49084488D01*
X72811982Y-49084493D01*
X72709493Y-49186982D01*
X72709488Y-49186988D01*
X72637017Y-49312511D01*
X72637016Y-49312515D01*
X72599500Y-49452525D01*
X72599500Y-49597475D01*
X72637016Y-49737485D01*
X72637017Y-49737488D01*
X72709488Y-49863011D01*
X72709490Y-49863013D01*
X72709491Y-49863015D01*
X72811985Y-49965509D01*
X72811986Y-49965510D01*
X72811988Y-49965511D01*
X72937511Y-50037982D01*
X72937512Y-50037982D01*
X72937515Y-50037984D01*
X73077525Y-50075500D01*
X73077528Y-50075500D01*
X73222472Y-50075500D01*
X73222475Y-50075500D01*
X73362485Y-50037984D01*
X73488015Y-49965509D01*
X73590509Y-49863015D01*
X73662984Y-49737485D01*
X73700500Y-49597475D01*
X73700500Y-49597472D01*
X73702603Y-49589624D01*
X73705260Y-49590335D01*
X73728075Y-49538739D01*
X73786393Y-49500258D01*
X73856257Y-49499415D01*
X73910442Y-49531124D01*
X78409788Y-54030470D01*
X78450729Y-54054107D01*
X78450730Y-54054108D01*
X78489706Y-54076611D01*
X78489707Y-54076611D01*
X78489712Y-54076614D01*
X78578856Y-54100500D01*
X79536673Y-54100500D01*
X79603712Y-54120185D01*
X79649467Y-54172989D01*
X79659411Y-54242147D01*
X79644060Y-54286498D01*
X79584554Y-54389567D01*
X79547038Y-54529577D01*
X79547038Y-54674527D01*
X79581336Y-54802527D01*
X79584555Y-54814540D01*
X79657026Y-54940063D01*
X79657031Y-54940069D01*
X79685719Y-54968757D01*
X79719204Y-55030080D01*
X79722038Y-55056438D01*
X79722038Y-55911076D01*
X79702353Y-55978115D01*
X79685719Y-55998757D01*
X79634493Y-56049982D01*
X79634488Y-56049988D01*
X79562017Y-56175511D01*
X79562016Y-56175515D01*
X79524500Y-56315525D01*
X79524500Y-56460475D01*
X79549589Y-56554107D01*
X79562017Y-56600488D01*
X79634488Y-56726011D01*
X79634490Y-56726013D01*
X79634491Y-56726015D01*
X79736985Y-56828509D01*
X79736986Y-56828510D01*
X79736988Y-56828511D01*
X79862511Y-56900982D01*
X79862512Y-56900982D01*
X79862515Y-56900984D01*
X80002525Y-56938500D01*
X80002528Y-56938500D01*
X80147472Y-56938500D01*
X80147475Y-56938500D01*
X80287485Y-56900984D01*
X80413015Y-56828509D01*
X80515509Y-56726015D01*
X80587984Y-56600485D01*
X80625500Y-56460475D01*
X80625500Y-56315525D01*
X80587984Y-56175515D01*
X80515509Y-56049985D01*
X80509357Y-56043833D01*
X80475872Y-55982510D01*
X80473038Y-55956152D01*
X80473038Y-55056438D01*
X80492723Y-54989399D01*
X80509357Y-54968757D01*
X80538047Y-54940067D01*
X80610522Y-54814537D01*
X80648038Y-54674527D01*
X80648038Y-54529577D01*
X80610522Y-54389567D01*
X80551015Y-54286499D01*
X80534543Y-54218601D01*
X80557395Y-54152574D01*
X80612316Y-54109383D01*
X80658403Y-54100500D01*
X84907594Y-54100500D01*
X84974633Y-54120185D01*
X85020388Y-54172989D01*
X85030332Y-54242147D01*
X85010696Y-54293391D01*
X84909010Y-54445573D01*
X84909005Y-54445582D01*
X84837469Y-54618286D01*
X84837467Y-54618294D01*
X84801000Y-54801627D01*
X84801000Y-54988572D01*
X84837467Y-55171905D01*
X84837469Y-55171913D01*
X84909005Y-55344617D01*
X84909010Y-55344626D01*
X85012862Y-55500051D01*
X85012865Y-55500055D01*
X85145044Y-55632234D01*
X85145048Y-55632237D01*
X85300473Y-55736089D01*
X85300482Y-55736094D01*
X85324948Y-55746228D01*
X85473187Y-55807631D01*
X85628756Y-55838575D01*
X85656527Y-55844099D01*
X85656531Y-55844100D01*
X85656532Y-55844100D01*
X85843469Y-55844100D01*
X85843470Y-55844099D01*
X86026813Y-55807631D01*
X86199520Y-55736093D01*
X86354952Y-55632237D01*
X86487137Y-55500052D01*
X86590993Y-55344620D01*
X86662531Y-55171913D01*
X86699000Y-54988568D01*
X86699000Y-54801632D01*
X86662531Y-54618287D01*
X86590993Y-54445580D01*
X86590992Y-54445579D01*
X86590989Y-54445573D01*
X86489304Y-54293391D01*
X86468426Y-54226713D01*
X86486911Y-54159333D01*
X86538889Y-54112643D01*
X86592406Y-54100500D01*
X90303456Y-54100500D01*
X90370495Y-54120185D01*
X90391137Y-54136819D01*
X93213181Y-56958863D01*
X93246666Y-57020186D01*
X93249500Y-57046544D01*
X93249500Y-58395614D01*
X93229815Y-58462653D01*
X93213181Y-58483295D01*
X93159493Y-58536982D01*
X93159488Y-58536988D01*
X93087017Y-58662511D01*
X93087016Y-58662515D01*
X93049500Y-58802525D01*
X93049500Y-58947475D01*
X93086213Y-59084488D01*
X93087017Y-59087488D01*
X93159488Y-59213011D01*
X93159490Y-59213013D01*
X93159491Y-59213015D01*
X93261985Y-59315509D01*
X93261986Y-59315510D01*
X93261988Y-59315511D01*
X93387511Y-59387982D01*
X93387512Y-59387982D01*
X93387515Y-59387984D01*
X93527525Y-59425500D01*
X93527528Y-59425500D01*
X93672472Y-59425500D01*
X93672475Y-59425500D01*
X93812485Y-59387984D01*
X93938015Y-59315509D01*
X94040509Y-59213015D01*
X94112984Y-59087485D01*
X94150500Y-58947475D01*
X94150500Y-58802525D01*
X94112984Y-58662515D01*
X94112968Y-58662488D01*
X94040511Y-58536988D01*
X94040506Y-58536982D01*
X93986819Y-58483295D01*
X93953334Y-58421972D01*
X93950500Y-58395614D01*
X93950500Y-56803858D01*
X93950500Y-56803856D01*
X93926614Y-56714712D01*
X93912640Y-56690509D01*
X93880470Y-56634788D01*
X90715212Y-53469530D01*
X90715211Y-53469529D01*
X90715208Y-53469527D01*
X90635290Y-53423387D01*
X90635289Y-53423386D01*
X90635288Y-53423386D01*
X90546144Y-53399500D01*
X90546143Y-53399500D01*
X86363738Y-53399500D01*
X86296699Y-53379815D01*
X86250944Y-53327011D01*
X86241000Y-53257853D01*
X86270025Y-53194297D01*
X86294848Y-53172398D01*
X86338742Y-53143067D01*
X86354952Y-53132237D01*
X86487137Y-53000052D01*
X86590993Y-52844620D01*
X86662531Y-52671913D01*
X86699000Y-52488568D01*
X86699000Y-52301632D01*
X86662531Y-52118287D01*
X86590993Y-51945580D01*
X86590992Y-51945579D01*
X86590989Y-51945573D01*
X86586591Y-51938991D01*
X86565713Y-51872314D01*
X86584197Y-51804933D01*
X86636176Y-51758243D01*
X86689693Y-51746100D01*
X89857715Y-51746100D01*
X89924754Y-51765785D01*
X89945396Y-51782419D01*
X97736981Y-59574004D01*
X97770466Y-59635327D01*
X97773300Y-59661685D01*
X97773300Y-60838315D01*
X97753615Y-60905354D01*
X97736981Y-60925996D01*
X94988577Y-63674399D01*
X94988571Y-63674408D01*
X94945566Y-63748892D01*
X94945564Y-63748895D01*
X94935895Y-63784982D01*
X94932672Y-63797011D01*
X94932672Y-63797012D01*
X94932671Y-63797011D01*
X94925975Y-63822005D01*
X94893882Y-63877594D01*
X94809488Y-63961988D01*
X94737017Y-64087511D01*
X94737016Y-64087515D01*
X94699500Y-64227525D01*
X94699500Y-64227527D01*
X94699500Y-64372474D01*
X94705109Y-64393407D01*
X94703446Y-64463257D01*
X94664283Y-64521119D01*
X94600055Y-64548623D01*
X94585334Y-64549500D01*
X85492255Y-64549500D01*
X85425216Y-64529815D01*
X85404574Y-64513181D01*
X83193020Y-62301627D01*
X84801000Y-62301627D01*
X84801000Y-62488572D01*
X84837467Y-62671905D01*
X84837469Y-62671913D01*
X84909005Y-62844617D01*
X84909010Y-62844626D01*
X85012862Y-63000051D01*
X85012865Y-63000055D01*
X85145044Y-63132234D01*
X85145048Y-63132237D01*
X85300473Y-63236089D01*
X85300482Y-63236094D01*
X85339605Y-63252299D01*
X85473187Y-63307631D01*
X85656527Y-63344099D01*
X85656531Y-63344100D01*
X85656532Y-63344100D01*
X85843469Y-63344100D01*
X85843470Y-63344099D01*
X86026813Y-63307631D01*
X86199520Y-63236093D01*
X86354952Y-63132237D01*
X86487137Y-63000052D01*
X86590993Y-62844620D01*
X86662531Y-62671913D01*
X86699000Y-62488568D01*
X86699000Y-62301632D01*
X86662531Y-62118287D01*
X86590993Y-61945580D01*
X86590992Y-61945579D01*
X86590989Y-61945573D01*
X86487137Y-61790148D01*
X86487134Y-61790144D01*
X86354955Y-61657965D01*
X86354951Y-61657962D01*
X86199526Y-61554110D01*
X86199517Y-61554105D01*
X86026813Y-61482569D01*
X86026805Y-61482567D01*
X85843472Y-61446100D01*
X85843468Y-61446100D01*
X85656532Y-61446100D01*
X85656527Y-61446100D01*
X85473194Y-61482567D01*
X85473186Y-61482569D01*
X85300482Y-61554105D01*
X85300473Y-61554110D01*
X85145048Y-61657962D01*
X85145044Y-61657965D01*
X85012865Y-61790144D01*
X85012862Y-61790148D01*
X84909010Y-61945573D01*
X84909005Y-61945582D01*
X84837469Y-62118286D01*
X84837467Y-62118294D01*
X84801000Y-62301627D01*
X83193020Y-62301627D01*
X81745915Y-60854522D01*
X81745913Y-60854520D01*
X81700250Y-60828156D01*
X81654589Y-60801793D01*
X81603657Y-60788146D01*
X81552727Y-60774500D01*
X81552726Y-60774500D01*
X77167255Y-60774500D01*
X77100216Y-60754815D01*
X77079574Y-60738181D01*
X76829774Y-60488381D01*
X76796289Y-60427058D01*
X76801273Y-60357366D01*
X76843145Y-60301433D01*
X76908609Y-60277016D01*
X76917455Y-60276700D01*
X77818009Y-60276700D01*
X77818011Y-60276700D01*
X77901102Y-60254436D01*
X77975598Y-60211425D01*
X78150204Y-60036817D01*
X78211525Y-60003334D01*
X78237884Y-60000500D01*
X78347472Y-60000500D01*
X78347475Y-60000500D01*
X78487485Y-59962984D01*
X78613015Y-59890509D01*
X78690506Y-59813018D01*
X78751830Y-59779534D01*
X78778187Y-59776700D01*
X83343009Y-59776700D01*
X83343011Y-59776700D01*
X83426102Y-59754436D01*
X83500598Y-59711425D01*
X84049004Y-59163019D01*
X84110327Y-59129534D01*
X84136685Y-59126700D01*
X84890087Y-59126700D01*
X84957126Y-59146385D01*
X85002881Y-59199189D01*
X85012825Y-59268347D01*
X84993189Y-59319590D01*
X84909013Y-59445568D01*
X84909005Y-59445582D01*
X84837469Y-59618286D01*
X84837467Y-59618294D01*
X84801000Y-59801627D01*
X84801000Y-59988572D01*
X84837467Y-60171905D01*
X84837469Y-60171913D01*
X84909005Y-60344617D01*
X84909010Y-60344626D01*
X85012862Y-60500051D01*
X85012865Y-60500055D01*
X85145044Y-60632234D01*
X85145048Y-60632237D01*
X85300473Y-60736089D01*
X85300482Y-60736094D01*
X85339605Y-60752299D01*
X85473187Y-60807631D01*
X85656527Y-60844099D01*
X85656531Y-60844100D01*
X85656532Y-60844100D01*
X85843469Y-60844100D01*
X85843470Y-60844099D01*
X86026813Y-60807631D01*
X86199520Y-60736093D01*
X86354952Y-60632237D01*
X86487137Y-60500052D01*
X86590993Y-60344620D01*
X86662531Y-60171913D01*
X86699000Y-59988568D01*
X86699000Y-59801632D01*
X86662531Y-59618287D01*
X86590993Y-59445580D01*
X86590992Y-59445579D01*
X86590989Y-59445573D01*
X86509082Y-59322991D01*
X86506044Y-59313290D01*
X86499390Y-59305611D01*
X86495781Y-59280511D01*
X86488204Y-59256313D01*
X86490892Y-59246512D01*
X86489446Y-59236453D01*
X86499979Y-59213388D01*
X86506688Y-59188933D01*
X86514249Y-59182140D01*
X86518471Y-59172897D01*
X86539801Y-59159188D01*
X86558667Y-59142243D01*
X86570264Y-59139611D01*
X86577249Y-59135123D01*
X86612184Y-59130100D01*
X86791715Y-59130100D01*
X86858754Y-59149785D01*
X86879396Y-59166419D01*
X87636981Y-59924004D01*
X87670466Y-59985327D01*
X87673300Y-60011685D01*
X87673300Y-60142086D01*
X87653615Y-60209125D01*
X87600811Y-60254880D01*
X87581394Y-60261861D01*
X87487511Y-60287017D01*
X87361988Y-60359488D01*
X87361982Y-60359493D01*
X87259493Y-60461982D01*
X87259488Y-60461988D01*
X87187017Y-60587511D01*
X87187016Y-60587515D01*
X87149500Y-60727525D01*
X87149500Y-60872475D01*
X87178845Y-60981989D01*
X87187017Y-61012488D01*
X87259488Y-61138011D01*
X87259490Y-61138013D01*
X87259491Y-61138015D01*
X87361985Y-61240509D01*
X87361986Y-61240510D01*
X87361988Y-61240511D01*
X87487511Y-61312982D01*
X87487512Y-61312982D01*
X87487515Y-61312984D01*
X87627525Y-61350500D01*
X87627528Y-61350500D01*
X87772472Y-61350500D01*
X87772475Y-61350500D01*
X87912485Y-61312984D01*
X88038015Y-61240509D01*
X88140509Y-61138015D01*
X88212984Y-61012485D01*
X88250500Y-60872475D01*
X88250500Y-60752747D01*
X88267113Y-60690746D01*
X88267252Y-60690506D01*
X88304436Y-60626102D01*
X88326700Y-60543011D01*
X88326700Y-60456989D01*
X88326700Y-59781989D01*
X88314775Y-59737485D01*
X88314775Y-59737484D01*
X88314775Y-59737483D01*
X88304436Y-59698899D01*
X88304432Y-59698890D01*
X88276086Y-59649796D01*
X88261425Y-59624402D01*
X87625404Y-58988381D01*
X87591919Y-58927058D01*
X87596903Y-58857366D01*
X87638775Y-58801433D01*
X87704239Y-58777016D01*
X87713085Y-58776700D01*
X91771813Y-58776700D01*
X91838852Y-58796385D01*
X91859494Y-58813018D01*
X91936985Y-58890509D01*
X91936987Y-58890510D01*
X91936988Y-58890511D01*
X92062511Y-58962982D01*
X92062512Y-58962982D01*
X92062515Y-58962984D01*
X92202525Y-59000500D01*
X92202528Y-59000500D01*
X92347472Y-59000500D01*
X92347475Y-59000500D01*
X92487485Y-58962984D01*
X92613015Y-58890509D01*
X92715509Y-58788015D01*
X92787984Y-58662485D01*
X92825500Y-58522475D01*
X92825500Y-58377525D01*
X92787984Y-58237515D01*
X92715509Y-58111985D01*
X92613015Y-58009491D01*
X92613013Y-58009490D01*
X92613011Y-58009488D01*
X92487488Y-57937017D01*
X92487489Y-57937017D01*
X92476006Y-57933940D01*
X92347475Y-57899500D01*
X92202525Y-57899500D01*
X92073993Y-57933940D01*
X92062511Y-57937017D01*
X91936988Y-58009488D01*
X91859494Y-58086982D01*
X91798170Y-58120466D01*
X91771813Y-58123300D01*
X86636773Y-58123300D01*
X86569734Y-58103615D01*
X86523979Y-58050811D01*
X86514035Y-57981653D01*
X86533671Y-57930409D01*
X86590989Y-57844626D01*
X86590989Y-57844625D01*
X86590993Y-57844620D01*
X86662531Y-57671913D01*
X86699000Y-57488568D01*
X86699000Y-57301632D01*
X86662531Y-57118287D01*
X86590993Y-56945580D01*
X86590992Y-56945579D01*
X86590989Y-56945573D01*
X86487137Y-56790148D01*
X86487134Y-56790144D01*
X86354955Y-56657965D01*
X86354951Y-56657962D01*
X86199526Y-56554110D01*
X86199517Y-56554105D01*
X86026813Y-56482569D01*
X86026805Y-56482567D01*
X85843472Y-56446100D01*
X85843468Y-56446100D01*
X85656532Y-56446100D01*
X85656527Y-56446100D01*
X85473194Y-56482567D01*
X85473186Y-56482569D01*
X85300482Y-56554105D01*
X85300473Y-56554110D01*
X85145048Y-56657962D01*
X85145044Y-56657965D01*
X85012865Y-56790144D01*
X85012862Y-56790148D01*
X84909010Y-56945573D01*
X84909005Y-56945582D01*
X84837469Y-57118286D01*
X84837467Y-57118294D01*
X84801000Y-57301627D01*
X84801000Y-57488572D01*
X84837467Y-57671905D01*
X84837469Y-57671913D01*
X84909005Y-57844617D01*
X84909010Y-57844626D01*
X84964057Y-57927009D01*
X84984935Y-57993687D01*
X84966450Y-58061067D01*
X84914472Y-58107757D01*
X84860955Y-58119900D01*
X83899787Y-58119900D01*
X83832748Y-58100215D01*
X83812106Y-58083582D01*
X83779335Y-58050811D01*
X83738015Y-58009491D01*
X83738012Y-58009489D01*
X83738011Y-58009488D01*
X83612488Y-57937017D01*
X83612489Y-57937017D01*
X83601006Y-57933940D01*
X83472475Y-57899500D01*
X83327525Y-57899500D01*
X83198993Y-57933940D01*
X83187511Y-57937017D01*
X83061988Y-58009488D01*
X82984494Y-58086982D01*
X82923170Y-58120466D01*
X82896813Y-58123300D01*
X75986685Y-58123300D01*
X75919646Y-58103615D01*
X75899004Y-58086981D01*
X74836819Y-57024796D01*
X74803334Y-56963473D01*
X74800500Y-56937115D01*
X74800500Y-56827527D01*
X74800500Y-56827525D01*
X74762984Y-56687515D01*
X74762982Y-56687511D01*
X74719790Y-56612700D01*
X74703317Y-56544800D01*
X74726169Y-56478773D01*
X74781091Y-56435582D01*
X74827177Y-56426700D01*
X77288315Y-56426700D01*
X77355354Y-56446385D01*
X77375996Y-56463019D01*
X77664681Y-56751704D01*
X77698166Y-56813027D01*
X77701000Y-56839385D01*
X77701000Y-56948975D01*
X77738516Y-57088985D01*
X77738517Y-57088988D01*
X77810988Y-57214511D01*
X77810990Y-57214513D01*
X77810991Y-57214515D01*
X77913485Y-57317009D01*
X77913486Y-57317010D01*
X77913488Y-57317011D01*
X78039011Y-57389482D01*
X78039012Y-57389482D01*
X78039015Y-57389484D01*
X78179025Y-57427000D01*
X78179028Y-57427000D01*
X78323972Y-57427000D01*
X78323975Y-57427000D01*
X78463985Y-57389484D01*
X78589515Y-57317009D01*
X78692009Y-57214515D01*
X78764484Y-57088985D01*
X78802000Y-56948975D01*
X78802000Y-56804025D01*
X78764484Y-56664015D01*
X78760989Y-56657962D01*
X78692011Y-56538488D01*
X78692006Y-56538482D01*
X78589517Y-56435993D01*
X78589511Y-56435988D01*
X78463988Y-56363517D01*
X78463989Y-56363517D01*
X78452506Y-56360440D01*
X78323975Y-56326000D01*
X78214385Y-56326000D01*
X78147346Y-56306315D01*
X78126704Y-56289681D01*
X77675600Y-55838577D01*
X77675598Y-55838575D01*
X77672259Y-55836647D01*
X77601107Y-55795566D01*
X77601104Y-55795565D01*
X77601103Y-55795564D01*
X77601102Y-55795564D01*
X77518011Y-55773300D01*
X77518010Y-55773300D01*
X72428187Y-55773300D01*
X72361148Y-55753615D01*
X72340506Y-55736982D01*
X72303024Y-55699500D01*
X72263015Y-55659491D01*
X72263012Y-55659489D01*
X72263011Y-55659488D01*
X72137488Y-55587017D01*
X72137489Y-55587017D01*
X72126006Y-55583940D01*
X71997475Y-55549500D01*
X71852525Y-55549500D01*
X71723993Y-55583940D01*
X71712511Y-55587017D01*
X71586988Y-55659488D01*
X71586982Y-55659493D01*
X71478744Y-55767732D01*
X71476646Y-55765634D01*
X71431660Y-55798455D01*
X71361913Y-55802582D01*
X71327761Y-55789137D01*
X71237485Y-55737016D01*
X71097475Y-55699500D01*
X70952525Y-55699500D01*
X70823993Y-55733940D01*
X70812511Y-55737017D01*
X70686988Y-55809488D01*
X70686982Y-55809493D01*
X70584493Y-55911982D01*
X70584488Y-55911988D01*
X70512017Y-56037511D01*
X70512016Y-56037515D01*
X70474500Y-56177525D01*
X70474500Y-56322475D01*
X70512016Y-56462485D01*
X70512017Y-56462488D01*
X70584488Y-56588011D01*
X70584490Y-56588013D01*
X70584491Y-56588015D01*
X70686985Y-56690509D01*
X70686986Y-56690510D01*
X70686988Y-56690511D01*
X70812511Y-56762982D01*
X70812512Y-56762982D01*
X70812515Y-56762984D01*
X70952525Y-56800500D01*
X71037115Y-56800500D01*
X71104154Y-56820185D01*
X71124796Y-56836819D01*
X72049402Y-57761425D01*
X72086650Y-57782930D01*
X72123892Y-57804433D01*
X72123893Y-57804433D01*
X72123898Y-57804436D01*
X72206989Y-57826700D01*
X72293011Y-57826700D01*
X73443956Y-57826700D01*
X73510995Y-57846385D01*
X73556750Y-57899189D01*
X73566694Y-57968347D01*
X73551342Y-58012702D01*
X73537017Y-58037512D01*
X73537016Y-58037514D01*
X73537016Y-58037515D01*
X73499500Y-58177525D01*
X73499500Y-58322475D01*
X73537016Y-58462485D01*
X73537017Y-58462488D01*
X73609488Y-58588011D01*
X73609490Y-58588013D01*
X73609491Y-58588015D01*
X73711985Y-58690509D01*
X73711986Y-58690510D01*
X73711988Y-58690511D01*
X73837511Y-58762982D01*
X73837512Y-58762982D01*
X73837515Y-58762984D01*
X73977525Y-58800500D01*
X73977528Y-58800500D01*
X73985376Y-58802603D01*
X73984647Y-58805322D01*
X74036031Y-58828036D01*
X74043658Y-58835051D01*
X76629519Y-61420912D01*
X76629520Y-61420913D01*
X76704087Y-61495480D01*
X76795413Y-61548207D01*
X76897273Y-61575500D01*
X77904495Y-61575500D01*
X77971534Y-61595185D01*
X78017289Y-61647989D01*
X78027233Y-61717147D01*
X77998208Y-61780703D01*
X77966496Y-61806886D01*
X77961991Y-61809486D01*
X77961982Y-61809493D01*
X77859493Y-61911982D01*
X77859488Y-61911988D01*
X77787017Y-62037511D01*
X77787016Y-62037515D01*
X77749500Y-62177525D01*
X77749500Y-62177527D01*
X77749500Y-62218101D01*
X77729815Y-62285140D01*
X77713181Y-62305782D01*
X76180782Y-63838181D01*
X76119459Y-63871666D01*
X76093101Y-63874500D01*
X72354386Y-63874500D01*
X72287347Y-63854815D01*
X72266705Y-63838181D01*
X72238017Y-63809493D01*
X72238011Y-63809488D01*
X72112488Y-63737017D01*
X72112489Y-63737017D01*
X72101006Y-63733940D01*
X71972475Y-63699500D01*
X71827525Y-63699500D01*
X71698993Y-63733940D01*
X71687511Y-63737017D01*
X71561988Y-63809488D01*
X71561982Y-63809493D01*
X71459493Y-63911982D01*
X71459488Y-63911988D01*
X71387017Y-64037511D01*
X71387016Y-64037515D01*
X71349500Y-64177525D01*
X71349500Y-64322475D01*
X71387016Y-64462485D01*
X71387017Y-64462488D01*
X71459488Y-64588011D01*
X71459490Y-64588013D01*
X71459491Y-64588015D01*
X71561985Y-64690509D01*
X71561986Y-64690510D01*
X71561988Y-64690511D01*
X71687511Y-64762982D01*
X71687512Y-64762982D01*
X71687515Y-64762984D01*
X71827525Y-64800500D01*
X71827528Y-64800500D01*
X71972472Y-64800500D01*
X71972475Y-64800500D01*
X72112485Y-64762984D01*
X72238015Y-64690509D01*
X72266705Y-64661819D01*
X72328028Y-64628334D01*
X72354386Y-64625500D01*
X76349435Y-64625500D01*
X76349436Y-64625500D01*
X76397186Y-64612705D01*
X76444938Y-64599910D01*
X76530562Y-64550475D01*
X76600475Y-64480562D01*
X78244218Y-62836819D01*
X78305541Y-62803334D01*
X78331899Y-62800500D01*
X78372472Y-62800500D01*
X78372475Y-62800500D01*
X78512485Y-62762984D01*
X78638015Y-62690509D01*
X78740509Y-62588015D01*
X78812984Y-62462485D01*
X78850500Y-62322475D01*
X78850500Y-62177525D01*
X78812984Y-62037515D01*
X78759906Y-61945582D01*
X78740511Y-61911988D01*
X78740506Y-61911982D01*
X78638017Y-61809493D01*
X78638015Y-61809491D01*
X78638012Y-61809489D01*
X78638008Y-61809486D01*
X78633504Y-61806886D01*
X78585289Y-61756319D01*
X78572067Y-61687712D01*
X78598035Y-61622847D01*
X78654950Y-61582319D01*
X78695505Y-61575500D01*
X81282745Y-61575500D01*
X81349784Y-61595185D01*
X81370426Y-61611819D01*
X84970226Y-65211619D01*
X85003711Y-65272942D01*
X84998727Y-65342634D01*
X84956855Y-65398567D01*
X84891391Y-65422984D01*
X84882545Y-65423300D01*
X70111686Y-65423300D01*
X70044647Y-65403615D01*
X70024005Y-65386981D01*
X69663019Y-65025995D01*
X69629534Y-64964672D01*
X69626700Y-64938314D01*
X69626700Y-55185981D01*
X69646385Y-55118942D01*
X69699189Y-55073187D01*
X69768347Y-55063243D01*
X69831903Y-55092268D01*
X69858087Y-55123981D01*
X69909491Y-55213015D01*
X70011985Y-55315509D01*
X70011986Y-55315510D01*
X70011988Y-55315511D01*
X70137511Y-55387982D01*
X70137512Y-55387982D01*
X70137515Y-55387984D01*
X70277525Y-55425500D01*
X70277528Y-55425500D01*
X70422472Y-55425500D01*
X70422475Y-55425500D01*
X70562485Y-55387984D01*
X70688015Y-55315509D01*
X70790509Y-55213015D01*
X70862984Y-55087485D01*
X70900500Y-54947475D01*
X70900500Y-54802525D01*
X70862984Y-54662515D01*
X70837448Y-54618286D01*
X70790511Y-54536988D01*
X70790506Y-54536982D01*
X70688017Y-54434493D01*
X70688011Y-54434488D01*
X70562488Y-54362017D01*
X70562489Y-54362017D01*
X70551006Y-54358940D01*
X70422475Y-54324500D01*
X70277525Y-54324500D01*
X70148993Y-54358940D01*
X70137511Y-54362017D01*
X70011988Y-54434488D01*
X70011982Y-54434493D01*
X69909493Y-54536982D01*
X69909491Y-54536985D01*
X69858087Y-54626019D01*
X69807519Y-54674234D01*
X69738912Y-54687456D01*
X69674048Y-54661488D01*
X69633520Y-54604574D01*
X69626700Y-54564018D01*
X69626700Y-52908288D01*
X69646385Y-52841249D01*
X69699189Y-52795494D01*
X69768347Y-52785550D01*
X69782787Y-52788512D01*
X69827525Y-52800500D01*
X69827527Y-52800500D01*
X69972472Y-52800500D01*
X69972475Y-52800500D01*
X70112485Y-52762984D01*
X70238015Y-52690509D01*
X70340509Y-52588015D01*
X70412984Y-52462485D01*
X70450500Y-52322475D01*
X70450500Y-52177525D01*
X70412984Y-52037515D01*
X70359906Y-51945582D01*
X70340511Y-51911988D01*
X70340506Y-51911982D01*
X70238017Y-51809493D01*
X70238011Y-51809488D01*
X70112488Y-51737017D01*
X70112489Y-51737017D01*
X70101006Y-51733940D01*
X69972475Y-51699500D01*
X69827525Y-51699500D01*
X69782793Y-51711486D01*
X69712943Y-51709823D01*
X69655081Y-51670660D01*
X69627577Y-51606431D01*
X69626700Y-51591711D01*
X69626700Y-51319890D01*
X69646385Y-51252851D01*
X69699189Y-51207096D01*
X69768347Y-51197152D01*
X69782780Y-51200113D01*
X69877525Y-51225500D01*
X69877527Y-51225500D01*
X70022472Y-51225500D01*
X70022475Y-51225500D01*
X70162485Y-51187984D01*
X70288015Y-51115509D01*
X70390509Y-51013015D01*
X70462984Y-50887485D01*
X70500500Y-50747475D01*
X70500500Y-50602525D01*
X70462984Y-50462515D01*
X70461239Y-50459493D01*
X70390511Y-50336988D01*
X70390506Y-50336982D01*
X70288017Y-50234493D01*
X70288011Y-50234488D01*
X70162488Y-50162017D01*
X70162489Y-50162017D01*
X70151006Y-50158940D01*
X70022475Y-50124500D01*
X69877525Y-50124500D01*
X69782791Y-50149883D01*
X69712944Y-50148221D01*
X69655081Y-50109059D01*
X69627577Y-50044830D01*
X69626700Y-50030109D01*
X69626700Y-49356991D01*
X69626700Y-49356989D01*
X69604436Y-49273899D01*
X69604436Y-49273898D01*
X69561425Y-49199402D01*
X67013019Y-46650996D01*
X66979534Y-46589673D01*
X66976700Y-46563315D01*
X66976700Y-44236684D01*
X66996385Y-44169645D01*
X67013019Y-44149003D01*
X67599004Y-43563019D01*
X67660327Y-43529534D01*
X67686685Y-43526700D01*
X70468009Y-43526700D01*
X70468011Y-43526700D01*
X70551102Y-43504436D01*
X70625598Y-43461425D01*
X72005985Y-42081036D01*
X72067306Y-42047553D01*
X72125756Y-42048943D01*
X72239672Y-42079468D01*
X72239675Y-42079468D01*
X72384619Y-42079468D01*
X72384622Y-42079468D01*
X72524632Y-42041952D01*
X72650162Y-41969477D01*
X72752656Y-41866983D01*
X72825131Y-41741453D01*
X72849699Y-41649762D01*
X72886063Y-41590104D01*
X72948910Y-41559575D01*
X73018285Y-41567870D01*
G37*
%TD.AperFunction*%
%TA.AperFunction,Conductor*%
G36*
X77880347Y-58777560D02*
G01*
X77883318Y-58776840D01*
X77913666Y-58787344D01*
X77944456Y-58796385D01*
X77946455Y-58798693D01*
X77949345Y-58799693D01*
X77969197Y-58824938D01*
X77990211Y-58849189D01*
X77990645Y-58852212D01*
X77992535Y-58854615D01*
X77995586Y-58886574D01*
X78000155Y-58918347D01*
X77998885Y-58921126D01*
X77999176Y-58924168D01*
X77984469Y-58952693D01*
X77971130Y-58981903D01*
X77968135Y-58984375D01*
X77967159Y-58986270D01*
X77939418Y-59008085D01*
X77936987Y-59009490D01*
X77936985Y-59009491D01*
X77936982Y-59009493D01*
X77834493Y-59111982D01*
X77834488Y-59111988D01*
X77762017Y-59237511D01*
X77762016Y-59237515D01*
X77724500Y-59377525D01*
X77724500Y-59377527D01*
X77724500Y-59487113D01*
X77715857Y-59516545D01*
X77709335Y-59546535D01*
X77705577Y-59551554D01*
X77704815Y-59554152D01*
X77688185Y-59574791D01*
X77675999Y-59586978D01*
X77614677Y-59620465D01*
X77588314Y-59623300D01*
X76752971Y-59623300D01*
X76685932Y-59603615D01*
X76665290Y-59586981D01*
X76066690Y-58988381D01*
X76033205Y-58927058D01*
X76038189Y-58857366D01*
X76080061Y-58801433D01*
X76145525Y-58777016D01*
X76154371Y-58776700D01*
X77877417Y-58776700D01*
X77880347Y-58777560D01*
G37*
%TD.AperFunction*%
%TD*%
M02*
